<svg preserveAspectRatio="xMidYMid slice" xmlns="http://www.w3.org/2000/svg" xmlns:xlink="http://www.w3.org/1999/xlink" height="115px" viewBox="0 0 80 80" width="115px">
  <mask id="a" fill="#fff">
    <path d="m.03887127.34012651h13.04958023v25.63002279h-13.04958023z" fill="#fff" fill-rule="evenodd"></path>
  </mask>
  <mask id="b" fill="#fff">
    <path d="m.3802292.30128187h12.9536274v38.11501733h-12.9536274z" fill="#fff" fill-rule="evenodd"></path>
  </mask>
  <g fill="none" fill-rule="evenodd">
    <path d="m0 0h80v80h-80z" fill="#fff" stroke="#fff"></path>
    <g fill="#143059">
      <path d="m11.7842071.34012651h-10.44109143c-.72033582 0-1.3042444.57340441-1.3042444 1.28078181v23.06808808c0 .7073774.58390858 1.2811941 1.3042444 1.2811941h10.44109143c.7203358 0 1.3042444-.5738167 1.3042444-1.2811941v-23.06808808c0-.7073774-.5839086-1.28078181-1.3042444-1.28078181" mask="url(#a)" transform="translate(33.701493 44.029851)"></path>
      <path d="m26.0902868 57.4626866h-10.7477378c-.7414915 0-1.342549.5613722-1.342549 1.2530054v10.0308993c0 .6920365.6010575 1.2534087 1.342549 1.2534087h10.7477378c.7414915 0 1.342549-.5613722 1.342549-1.2534087v-10.0308993c0-.6916332-.6010575-1.2530054-1.342549-1.2530054"></path>
      <path d="m12.0392023.30128187h-10.36431873c-.71503924 0-1.29465437.56847949-1.29465437 1.26978129v35.57512774c0 .7013018.57961513 1.27019 1.29465437 1.27019h10.36431873c.7150392 0 1.2946543-.5688882 1.2946543-1.27019v-35.57512774c0-.7013018-.5796151-1.26978129-1.2946543-1.26978129" mask="url(#b)" transform="translate(53.402985 31.492537)"></path>
    </g>
    <path d="m56.1718582 10.6170943c-.4394586-.397107-1.0126655-.6170943-1.607661-.6170943h-8.4516178c-.5594633.0003323-1.1437321.1987197-1.553022.6586327-.2527474.2837903-.430408.6619558-.4297376 1.0853151-.0003352.4213654.1743085.8061771.4505205 1.0823243.2758768.2771441.65835.4532669 1.0787017.4658946l.0070394.0003323h5.6536305l-10.8533883 10.7438217-7.2418494-7.1791632c-.3000119-.2977472-.6982398-.4489469-1.0917749-.4482823-.393535-.0006646-.791763.1505351-1.09211.4482823l-10.7719326 10.6790218 2.1838849 2.1653132 9.6801577-9.5966974 7.2415142 7.1784985c.3000119.2980795.6982398.4496115 1.0917749.4489469.3938702.0006646.791763-.1508674 1.09211-.4489469l-.0023464.0023261 12.1080745-11.8560536v5.6139966.0053169c.0090507.3665348.1039147.7287495.33722 1.0274936.1166526.148209.2701782.275815.451191.3622148.1810127.0870645.3861604.1305967.5973419.1302644.4280616.0006646.8031601-.1767874 1.0978086-.4107316.5648267-.4472854.8376866-1.1265212.8376866-1.7981139v-7.9172172c0-.6948542-.2949837-1.3574746-.8132164-1.8256954" fill="#fba919"></path>
  </g>
</svg>