<?xml version="1.0" encoding="UTF-8"?>
<svg xmlns="http://www.w3.org/2000/svg" width="125" height="29" viewBox="0 0 125 29" fill="none">
  <path d="M14 15H10C9.448 15 9 15.4887 9 16.0909V25.9091C9 26.5113 9.448 27 10 27H14C14.552 27 15 26.5113 15 25.9091V16.0909C15 15.4887 14.552 15 14 15Z" fill="#FEF8EC"></path>
  <path d="M5 20H1C0.448 20 0 20.448 0 21V26C0 26.552 0.448 27 1 27H5C5.552 27 6 26.552 6 26V21C6 20.448 5.552 20 5 20Z" fill="#FEF8EC"></path>
  <path d="M23 11H19C18.448 11 18 11.4779 18 12.0667V25.9333C18 26.5221 18.448 27 19 27H23C23.552 27 24 26.5221 24 25.9333V12.0667C24 11.4779 23.552 11 23 11Z" fill="#FEF8EC"></path>
  <path d="M12.707 9.707L19 3.414V7H21V1C21 0.448 20.552 0 20 0H14V2H17.586L12 7.586L8.70697 4.293C8.31597 3.902 7.68397 3.902 7.29297 4.293L2.29297 9.293L3.70697 10.707L7.99997 6.414L11.293 9.707C11.684 10.098 12.316 10.098 12.707 9.707Z" fill="#FEF8EC"></path>
  <path d="M38.8869 11.3566L37.9879 14.2566H43.7009L42.8019 11.3566C42.4539 10.2932 42.1252 9.23473 41.8159 8.18106C41.5066 7.12739 41.1972 6.04957 40.8879 4.94756H40.7719C40.4819 6.04957 40.1822 7.12739 39.8729 8.18106C39.5636 9.23473 39.2349 10.2932 38.8869 11.3566ZM33.0869 21.9996L39.5249 2.97556H42.2509L48.6889 21.9996H46.1079L44.3099 16.1996H37.3789L35.5519 21.9996H33.0869ZM51.1539 21.9996V7.90556H53.1259L53.3289 9.93556H53.4159C54.0926 9.25889 54.8031 8.6934 55.5474 8.23906C56.2918 7.78473 57.1569 7.55756 58.1429 7.55756C59.6316 7.55756 60.7191 8.02156 61.4054 8.94956C62.0918 9.87757 62.4349 11.2502 62.4349 13.0676V21.9996H60.0569V13.3866C60.0569 12.0526 59.8443 11.0907 59.4189 10.5011C58.9936 9.91139 58.3169 9.61656 57.3889 9.61656C56.6542 9.61656 56.0066 9.80023 55.4459 10.1676C54.8852 10.5349 54.2473 11.0762 53.5319 11.7916V21.9996H51.1539ZM70.2649 22.3476C69.0856 22.3476 68.1044 21.9996 67.3214 21.3036C66.5384 20.6076 66.1469 19.6216 66.1469 18.3456C66.1469 16.7989 66.8332 15.6147 68.2059 14.7931C69.5786 13.9714 71.7729 13.3962 74.7889 13.0676C74.7889 12.6229 74.7454 12.1879 74.6584 11.7626C74.5714 11.3372 74.4216 10.9602 74.2089 10.6316C73.9962 10.3029 73.7014 10.0371 73.3244 9.83406C72.9474 9.63106 72.4689 9.52956 71.8889 9.52956C71.0769 9.52956 70.3132 9.68423 69.5979 9.99356C68.8826 10.3029 68.2446 10.6509 67.6839 11.0376L66.7559 9.38456C67.4132 8.95923 68.2156 8.5484 69.1629 8.15206C70.1102 7.75573 71.1542 7.55756 72.2949 7.55756C74.0156 7.55756 75.2626 8.08439 76.0359 9.13806C76.8092 10.1917 77.1959 11.5982 77.1959 13.3576V21.9996H75.2239L75.0209 20.3176H74.9339C74.2572 20.8782 73.5322 21.3567 72.7589 21.7531C71.9856 22.1494 71.1542 22.3476 70.2649 22.3476ZM70.9609 20.4336C71.6376 20.4336 72.2756 20.2741 72.8749 19.9551C73.4742 19.6361 74.1122 19.1672 74.7889 18.5486V14.6336C73.6096 14.7882 72.6188 14.9719 71.8164 15.1846C71.0141 15.3972 70.3664 15.6486 69.8734 15.9386C69.3804 16.2286 69.0227 16.5621 68.8004 16.9391C68.5781 17.3161 68.4669 17.7269 68.4669 18.1716C68.4669 18.9836 68.7086 19.5636 69.1919 19.9116C69.6752 20.2596 70.2649 20.4336 70.9609 20.4336ZM84.1559 22.3476C83.2472 22.3476 82.5996 22.0769 82.2129 21.5356C81.8262 20.9942 81.6329 20.2016 81.6329 19.1576V1.35156H84.0109V19.3316C84.0109 19.7182 84.0786 19.9889 84.2139 20.1436C84.3492 20.2982 84.5039 20.3756 84.6779 20.3756H84.8954C84.9631 20.3756 85.0646 20.3562 85.1999 20.3176L85.5189 22.1156C85.3642 22.1929 85.1806 22.2509 84.9679 22.2896C84.7552 22.3282 84.4846 22.3476 84.1559 22.3476ZM89.2599 28.0606C88.9312 28.0606 88.6316 28.0364 88.3609 27.9881C88.0902 27.9397 87.8389 27.8672 87.6069 27.7706L88.0709 25.8856L88.5929 26.0161C88.7862 26.0644 88.9699 26.0886 89.1439 26.0886C89.9559 26.0886 90.6181 25.8034 91.1304 25.2331C91.6427 24.6627 92.0439 23.9426 92.3339 23.0726L92.6529 22.0286L86.9979 7.90556H89.4629L92.3339 15.7066L92.8369 17.1557L93.0154 17.6641C93.2571 18.3504 93.4842 19.0222 93.6969 19.6796H93.8129C94.0256 19.0416 94.2286 18.3746 94.4219 17.6786C94.6152 16.9826 94.8086 16.3252 95.0019 15.7066L97.5249 7.90556H99.8449L94.5379 23.1596C94.2866 23.8556 94.0062 24.5032 93.6969 25.1026C93.3876 25.7019 93.0202 26.2191 92.5949 26.6541C92.1696 27.0891 91.6862 27.4322 91.1449 27.6836C90.6036 27.9349 89.9752 28.0606 89.2599 28.0606ZM100.396 21.9996V20.7236L107.82 9.84856H101.208V7.90556H110.836V9.18156L103.412 20.0566H111.068V21.9996H100.396ZM119.623 22.3476C118.676 22.3476 117.791 22.1784 116.969 21.8401C116.148 21.5017 115.432 21.0184 114.823 20.3901C114.214 19.7617 113.736 18.9932 113.388 18.0846C113.04 17.1759 112.866 16.1416 112.866 14.9816C112.866 13.8216 113.045 12.7824 113.402 11.8641C113.76 10.9457 114.234 10.1676 114.823 9.52956C115.413 8.89156 116.085 8.4034 116.839 8.06506C117.593 7.72673 118.376 7.55756 119.188 7.55756C120.077 7.55756 120.875 7.71223 121.58 8.02156C122.286 8.3309 122.876 8.77556 123.349 9.35556C123.823 9.93557 124.186 10.6316 124.437 11.4436C124.688 12.2556 124.814 13.1642 124.814 14.1696C124.814 14.4209 124.809 14.6674 124.799 14.9091C124.79 15.1507 124.766 15.3586 124.727 15.5326H115.215C115.312 17.0406 115.78 18.2344 116.621 19.1141C117.462 19.9937 118.56 20.4336 119.913 20.4336C120.59 20.4336 121.213 20.3321 121.783 20.1291C122.354 19.9261 122.9 19.6602 123.422 19.3316L124.263 20.8976C123.644 21.2842 122.958 21.6226 122.204 21.9126C121.45 22.2026 120.59 22.3476 119.623 22.3476Z" fill="black"></path>
  <path d="M38.8869 11.3566L37.9879 14.2566H43.7009L42.8019 11.3566C42.4539 10.2932 42.1252 9.23473 41.8159 8.18106C41.5066 7.12739 41.1972 6.04957 40.8879 4.94756H40.7719C40.4819 6.04957 40.1822 7.12739 39.8729 8.18106C39.5636 9.23473 39.2349 10.2932 38.8869 11.3566ZM33.0869 21.9996L39.5249 2.97556H42.2509L48.6889 21.9996H46.1079L44.3099 16.1996H37.3789L35.5519 21.9996H33.0869ZM51.1539 21.9996V7.90556H53.1259L53.3289 9.93556H53.4159C54.0926 9.25889 54.8031 8.6934 55.5474 8.23906C56.2918 7.78473 57.1569 7.55756 58.1429 7.55756C59.6316 7.55756 60.7191 8.02156 61.4054 8.94956C62.0918 9.87757 62.4349 11.2502 62.4349 13.0676V21.9996H60.0569V13.3866C60.0569 12.0526 59.8443 11.0907 59.4189 10.5011C58.9936 9.91139 58.3169 9.61656 57.3889 9.61656C56.6542 9.61656 56.0066 9.80023 55.4459 10.1676C54.8852 10.5349 54.2473 11.0762 53.5319 11.7916V21.9996H51.1539ZM70.2649 22.3476C69.0856 22.3476 68.1044 21.9996 67.3214 21.3036C66.5384 20.6076 66.1469 19.6216 66.1469 18.3456C66.1469 16.7989 66.8332 15.6147 68.2059 14.7931C69.5786 13.9714 71.7729 13.3962 74.7889 13.0676C74.7889 12.6229 74.7454 12.1879 74.6584 11.7626C74.5714 11.3372 74.4216 10.9602 74.2089 10.6316C73.9962 10.3029 73.7014 10.0371 73.3244 9.83406C72.9474 9.63106 72.4689 9.52956 71.8889 9.52956C71.0769 9.52956 70.3132 9.68423 69.5979 9.99356C68.8826 10.3029 68.2446 10.6509 67.6839 11.0376L66.7559 9.38456C67.4132 8.95923 68.2156 8.5484 69.1629 8.15206C70.1102 7.75573 71.1542 7.55756 72.2949 7.55756C74.0156 7.55756 75.2626 8.08439 76.0359 9.13806C76.8092 10.1917 77.1959 11.5982 77.1959 13.3576V21.9996H75.2239L75.0209 20.3176H74.9339C74.2572 20.8782 73.5322 21.3567 72.7589 21.7531C71.9856 22.1494 71.1542 22.3476 70.2649 22.3476ZM70.9609 20.4336C71.6376 20.4336 72.2756 20.2741 72.8749 19.9551C73.4742 19.6361 74.1122 19.1672 74.7889 18.5486V14.6336C73.6096 14.7882 72.6188 14.9719 71.8164 15.1846C71.0141 15.3972 70.3664 15.6486 69.8734 15.9386C69.3804 16.2286 69.0227 16.5621 68.8004 16.9391C68.5781 17.3161 68.4669 17.7269 68.4669 18.1716C68.4669 18.9836 68.7086 19.5636 69.1919 19.9116C69.6752 20.2596 70.2649 20.4336 70.9609 20.4336ZM84.1559 22.3476C83.2472 22.3476 82.5996 22.0769 82.2129 21.5356C81.8262 20.9942 81.6329 20.2016 81.6329 19.1576V1.35156H84.0109V19.3316C84.0109 19.7182 84.0786 19.9889 84.2139 20.1436C84.3492 20.2982 84.5039 20.3756 84.6779 20.3756H84.8954C84.9631 20.3756 85.0646 20.3562 85.1999 20.3176L85.5189 22.1156C85.3642 22.1929 85.1806 22.2509 84.9679 22.2896C84.7552 22.3282 84.4846 22.3476 84.1559 22.3476ZM89.2599 28.0606C88.9312 28.0606 88.6316 28.0364 88.3609 27.9881C88.0902 27.9397 87.8389 27.8672 87.6069 27.7706L88.0709 25.8856L88.5929 26.0161C88.7862 26.0644 88.9699 26.0886 89.1439 26.0886C89.9559 26.0886 90.6181 25.8034 91.1304 25.2331C91.6427 24.6627 92.0439 23.9426 92.3339 23.0726L92.6529 22.0286L86.9979 7.90556H89.4629L92.3339 15.7066L92.8369 17.1557L93.0154 17.6641C93.2571 18.3504 93.4842 19.0222 93.6969 19.6796H93.8129C94.0256 19.0416 94.2286 18.3746 94.4219 17.6786C94.6152 16.9826 94.8086 16.3252 95.0019 15.7066L97.5249 7.90556H99.8449L94.5379 23.1596C94.2866 23.8556 94.0062 24.5032 93.6969 25.1026C93.3876 25.7019 93.0202 26.2191 92.5949 26.6541C92.1696 27.0891 91.6862 27.4322 91.1449 27.6836C90.6036 27.9349 89.9752 28.0606 89.2599 28.0606ZM100.396 21.9996V20.7236L107.82 9.84856H101.208V7.90556H110.836V9.18156L103.412 20.0566H111.068V21.9996H100.396ZM119.623 22.3476C118.676 22.3476 117.791 22.1784 116.969 21.8401C116.148 21.5017 115.432 21.0184 114.823 20.3901C114.214 19.7617 113.736 18.9932 113.388 18.0846C113.04 17.1759 112.866 16.1416 112.866 14.9816C112.866 13.8216 113.045 12.7824 113.402 11.8641C113.76 10.9457 114.234 10.1676 114.823 9.52956C115.413 8.89156 116.085 8.4034 116.839 8.06506C117.593 7.72673 118.376 7.55756 119.188 7.55756C120.077 7.55756 120.875 7.71223 121.58 8.02156C122.286 8.3309 122.876 8.77556 123.349 9.35556C123.823 9.93557 124.186 10.6316 124.437 11.4436C124.688 12.2556 124.814 13.1642 124.814 14.1696C124.814 14.4209 124.809 14.6674 124.799 14.9091C124.79 15.1507 124.766 15.3586 124.727 15.5326H115.215C115.312 17.0406 115.78 18.2344 116.621 19.1141C117.462 19.9937 118.56 20.4336 119.913 20.4336C120.59 20.4336 121.213 20.3321 121.783 20.1291C122.354 19.9261 122.9 19.6602 123.422 19.3316L124.263 20.8976C123.644 21.2842 122.958 21.6226 122.204 21.9126C121.45 22.2026 120.59 22.3476 119.623 22.3476Z" fill="#FEF8EC"></path>
  <path d="M115.186 13.8214C115.263 13.1254 115.422 12.5067 115.664 11.9654C115.906 11.424 116.21 10.9649 116.578 10.5879C116.945 10.2109 117.356 9.92572 117.81 9.73238C118.264 9.53905 118.743 9.44238 119.246 9.44238C120.348 9.44238 121.203 9.81455 121.812 10.5589C122.421 11.3032 122.726 12.3907 122.726 13.8214H115.186Z" fill="black"></path>
  <path d="M115.186 13.8214C115.263 13.1254 115.422 12.5067 115.664 11.9654C115.906 11.424 116.21 10.9649 116.578 10.5879C116.945 10.2109 117.356 9.92572 117.81 9.73238C118.264 9.53905 118.743 9.44238 119.246 9.44238C120.348 9.44238 121.203 9.81455 121.812 10.5589C122.421 11.3032 122.726 12.3907 122.726 13.8214H115.186Z" fill="#143059"></path>
</svg>
