<?xml version="1.0" encoding="UTF-8"?>
<svg xmlns="http://www.w3.org/2000/svg" xmlns:xlink="http://www.w3.org/1999/xlink" width="68px" height="68px" viewBox="0 0 68 68">
  <title>Analyze_Icon</title>
  <g id="HS-Platform-Page" stroke="none" stroke-width="1" fill="none" fill-rule="evenodd">
    <g id="Hootsuite_PlatformPages_MonitorPage_V1.1" transform="translate(-731.000000, -3455.000000)">
      <g id="Section---Powerful-Features" transform="translate(0.000000, 3257.000000)">
        <g id="Analyze" transform="translate(635.000000, 163.000000)">
          <g id="chart-bar-33" transform="translate(93.000000, 32.000000)">
            <g transform="translate(3.488372, 3.488372)" id="Path">
              <path d="M38.7056962,38.4493671 L27.085443,38.4493671 C26.2836456,38.4493671 25.6329114,39.1001013 25.6329114,39.9018987 L25.6329114,66.0474684 C25.6329114,66.8492658 26.2836456,67.5 27.085443,67.5 L38.7056962,67.5 C39.5074937,67.5 40.1582278,66.8492658 40.1582278,66.0474684 L40.1582278,39.9018987 C40.1582278,39.1001013 39.5074937,38.4493671 38.7056962,38.4493671 Z" fill="#143059"></path>
              <path d="M13.0727848,52.9746835 L1.45253165,52.9746835 C0.650734177,52.9746835 0,53.6254177 0,54.4272152 L0,66.0474684 C0,66.8492658 0.650734177,67.5 1.45253165,67.5 L13.0727848,67.5 C13.8745823,67.5 14.5253165,66.8492658 14.5253165,66.0474684 L14.5253165,54.4272152 C14.5253165,53.6254177 13.8745823,52.9746835 13.0727848,52.9746835 Z" fill="#143059"></path>
              <path d="M66.0474684,23.9240506 L54.4272152,23.9240506 C53.6254177,23.9240506 52.9746835,24.5747848 52.9746835,25.3765823 L52.9746835,66.0474684 C52.9746835,66.8492658 53.6254177,67.5 54.4272152,67.5 L66.0474684,67.5 C66.8492658,67.5 67.5,66.8492658 67.5,66.0474684 L67.5,25.3765823 C67.5,24.5747848 66.8492658,23.9240506 66.0474684,23.9240506 Z" fill="#143059"></path>
              <path d="M34.5240115,22.7376822 L52.5975195,4.94215618 L52.5975195,14.4761458 C52.5975195,15.2752291 53.2561814,15.9237604 54.0677471,15.9237604 C54.8793127,15.9237604 55.5379747,15.2752291 55.5379747,14.4761458 L55.5379747,1.44761458 C55.5379747,0.648531332 54.8793127,0 54.0677471,0 L40.8356986,0 C40.024133,0 39.365471,0.648531332 39.365471,1.44761458 C39.365471,2.24669783 40.024133,2.89522916 40.8356986,2.89522916 L50.5186176,2.89522916 L33.4845605,19.6672917 L22.7621906,9.10983856 C22.1873316,8.54382126 21.2581477,8.54382126 20.6832888,9.10983856 L5.98101266,23.5859844 L8.0599145,25.6329114 L21.7227397,12.1802291 L32.4451096,22.7376822 C33.0199686,23.3036995 33.9491525,23.3036995 34.5240115,22.7376822 Z" fill="#FFA600" fill-rule="nonzero"></path>
            </g>
          </g>
        </g>
      </g>
    </g>
  </g>
</svg>
