<svg xmlns="http://www.w3.org/2000/svg" xmlns:xlink="http://www.w3.org/1999/xlink" height="120" viewBox="0 0 124 120" width="124">
  <mask id="a" fill="#fff">
    <path d="m0 .6541h48.3076v48.307h-48.3076z" fill="#fff" fill-rule="evenodd"></path>
  </mask>
  <mask id="b" fill="#fff">
    <path d="m0 .6932h48.3076v48.3068h-48.3076z" fill="#fff" fill-rule="evenodd"></path>
  </mask>
  <g fill="none" fill-rule="evenodd" transform="translate(0 -1)">
    <g fill="#143059">
      <path d="m42.6236.6541h-36.94c-3.139 0-5.684 2.544-5.684 5.683v36.94c0 3.139 2.545 5.684 5.684 5.684h36.94c3.139 0 5.684-2.545 5.684-5.684v-36.94c0-3.139-2.545-5.683-5.684-5.683" mask="url(#a)" transform="translate(0 .346)"></path>
      <path d="m76.7222 120.3458h36.94c3.14 0 5.684-2.544 5.684-5.683v-36.94c0-3.14-2.544-5.684-5.684-5.684h-36.94c-3.139 0-5.683 2.544-5.683 5.684v36.94c0 3.139 2.544 5.683 5.683 5.683"></path>
      <path d="m42.6236.6932h-36.94c-3.139 0-5.684 2.544-5.684 5.684v36.94c0 3.139 2.545 5.683 5.684 5.683h36.94c3.139 0 5.684-2.544 5.684-5.683v-36.94c0-3.14-2.545-5.684-5.684-5.684" mask="url(#b)" transform="translate(0 71.346)"></path>
    </g>
    <path d="m87.4742 35.9113-10.933-10.931c-1.665-1.664-4.363-1.664-6.027.001-1.664 1.664-1.664 4.363 0 6.028l14.204 14.206c.8.8 1.886 1.25 3.018 1.25h.175c1.192-.052 2.308-.598 3.081-1.506l31.255-36.944c1.52-1.796 1.296-4.486-.501-6.006-1.796-1.521-4.486-1.297-6.007.5z" fill="#f6b32f"></path>
  </g>
</svg>