<svg xmlns="http://www.w3.org/2000/svg" xmlns:xlink="http://www.w3.org/1999/xlink" viewBox="0 0 86 29"><defs><path id="a" d="M0 .029h85.76V29H0z"/></defs><g fill="none" fill-rule="evenodd"><mask id="b" fill="#fff"><use xlink:href="#a"/></mask><path d="M78.93 0H6.832L6.05.001c-.22.002-.438.006-.659.01-.477.011-.96.041-1.436.127a4.8 4.8 0 00-1.363.455 4.621 4.621 0 00-2.004 2.03 4.842 4.842 0 00-.448 1.38c-.086.48-.116.966-.128 1.451-.007.223-.007.446-.011.668V22.88c.004.225.004.443.01.668.013.486.043.972.129 1.451.084.486.225.942.448 1.382.218.43.502.829.845 1.17a4.5 4.5 0 001.16.855c.437.226.882.37 1.362.457a9.53 9.53 0 001.436.128c.222.005.44.008.659.008l.784.001H78.93l.777-.001c.22 0 .443-.003.662-.008a9.38 9.38 0 001.433-.128c.48-.088.926-.231 1.367-.457a4.657 4.657 0 002.005-2.025c.22-.44.364-.896.444-1.382.09-.48.116-.965.134-1.451.002-.225.002-.443.002-.668.006-.264.006-.525.006-.793V6.914c0-.266 0-.529-.006-.792 0-.222 0-.445-.002-.668a9.981 9.981 0 00-.134-1.451 4.81 4.81 0 00-.443-1.38A4.647 4.647 0 0083.17.593 4.846 4.846 0 0081.8.138a9.2 9.2 0 00-1.433-.127 72.518 72.518 0 00-.662-.01L78.93 0" fill="#A9AAA9" mask="url(#b)"/><path d="M6.052 28.366c-.218 0-.431-.003-.648-.008a8.943 8.943 0 01-1.34-.119 4.17 4.17 0 01-1.187-.397 3.853 3.853 0 01-1-.736 3.862 3.862 0 01-.732-1.013 4.204 4.204 0 01-.39-1.202 9.083 9.083 0 01-.119-1.359c-.005-.153-.01-.662-.01-.662V6.122s.006-.501.01-.648c.01-.38.032-.875.119-1.357.076-.446.203-.839.39-1.205A3.993 3.993 0 014.062.762 8.89 8.89 0 015.406.643l.646-.009h73.65l.655.01c.368.008.857.031 1.332.117a4.24 4.24 0 011.198.398 4.01 4.01 0 012.115 2.95c.082.457.108.927.124 1.368.002.205.002.426.002.645.006.272.006.53.006.792v15.173c0 .263 0 .52-.006.78 0 .235 0 .451-.003.674a9.41 9.41 0 01-.123 1.343 3.967 3.967 0 01-1.114 2.216c-.297.303-.633.55-1.003.74a4.166 4.166 0 01-1.196.4 8.83 8.83 0 01-1.34.118c-.208.005-.43.008-.643.008l-.777.001-72.877-.001" fill="#000"/><path d="M17.751 14.718c-.018-1.994 1.614-2.965 1.69-3.01-.925-1.364-2.359-1.55-2.862-1.565-1.203-.128-2.37.73-2.983.73-.625 0-1.569-.717-2.586-.695-1.308.02-2.534.787-3.205 1.977-1.387 2.428-.352 5.995.975 7.957.664.962 1.44 2.035 2.457 1.997.994-.041 1.365-.642 2.565-.642 1.189 0 1.537.642 2.573.618 1.067-.017 1.739-.966 2.38-1.936.768-1.101 1.076-2.186 1.088-2.242-.025-.008-2.072-.798-2.092-3.189m-1.958-5.865c.535-.676.9-1.596.8-2.531-.775.035-1.742.542-2.3 1.204-.493.582-.933 1.538-.82 2.436.87.066 1.763-.443 2.32-1.109m11.483 9.7h2.689l-1.326-3.949h-.037l-1.326 3.95zm3.04 1.123h-3.392l-.814 2.434h-1.437l3.213-9.003h1.493l3.213 9.003H31.13l-.815-2.433zm7.847-.848c0-1.329-.68-2.202-1.715-2.202-1.018 0-1.703.891-1.703 2.202 0 1.323.685 2.209 1.703 2.209 1.035 0 1.715-.868 1.715-2.209zm1.368 0c0 2.04-1.079 3.35-2.708 3.35-.924 0-1.658-.418-2.041-1.148h-.03v3.251h-1.333v-8.736h1.29v1.092h.024c.37-.704 1.16-1.16 2.066-1.16 1.647 0 2.732 1.317 2.732 3.351zm5.772 0c0-1.329-.678-2.202-1.714-2.202-1.018 0-1.702.891-1.702 2.202 0 1.323.684 2.209 1.702 2.209 1.036 0 1.714-.868 1.714-2.209zm1.37 0c0 2.04-1.08 3.35-2.708 3.35-.925 0-1.659-.418-2.041-1.148h-.031v3.251H40.56v-8.736h1.29v1.092h.024c.37-.704 1.16-1.16 2.066-1.16 1.647 0 2.732 1.317 2.732 3.351zm4.72.773c.098.893.956 1.48 2.127 1.48 1.123 0 1.93-.587 1.93-1.392 0-.7-.487-1.117-1.64-1.404l-1.154-.281c-1.634-.4-2.393-1.172-2.393-2.427 0-1.553 1.34-2.62 3.239-2.62 1.88 0 3.17 1.067 3.213 2.62H55.37c-.08-.899-.814-1.441-1.887-1.441s-1.807.549-1.807 1.347c0 .637.469 1.011 1.616 1.299l.98.242c1.827.438 2.585 1.18 2.585 2.497 0 1.684-1.326 2.739-3.435 2.739-1.974 0-3.307-1.03-3.393-2.659h1.364m8.338-5.609v1.553h1.234v1.068h-1.234v3.618c0 .563.248.824.79.824.136 0 .352-.018.438-.03v1.06a3.602 3.602 0 01-.74.062c-1.313 0-1.826-.5-1.826-1.772v-3.762h-.943v-1.068h.943v-1.553h1.338m6.747 4.836c0-1.416-.641-2.253-1.72-2.253-1.08 0-1.72.842-1.72 2.253 0 1.423.64 2.252 1.72 2.252 1.079 0 1.72-.83 1.72-2.252zm-4.798 0c0-2.065 1.202-3.363 3.077-3.363 1.882 0 3.078 1.298 3.078 3.363 0 2.07-1.19 3.363-3.078 3.363-1.887 0-3.077-1.292-3.077-3.363zm7.253-3.283h1.27l.001 1.118h.03c.204-.743.796-1.186 1.561-1.186.191 0 .351.026.456.05v1.26c-.105-.043-.34-.08-.598-.08-.857 0-1.387.586-1.387 1.51v3.893h-1.333v-6.565m4.957 2.678h3.243c-.03-1.005-.665-1.666-1.59-1.666-.92 0-1.585.674-1.653 1.666zm4.502 1.959c-.18 1.192-1.326 2.009-2.794 2.009-1.887 0-3.06-1.28-3.06-3.332 0-2.059 1.18-3.394 3.004-3.394 1.796 0 2.924 1.248 2.924 3.238v.462h-4.583v.08c0 1.124.698 1.86 1.746 1.86.74 0 1.32-.355 1.499-.923h1.264zM26.229 10.044h.806c.894 0 1.41-.563 1.41-1.556 0-.977-.524-1.547-1.41-1.547h-.806v3.103zm.88-3.714c1.268 0 2.012.788 2.012 2.15 0 1.381-.738 2.176-2.012 2.176h-1.545V6.33h1.545zm5.151 2.692c0-.708-.315-1.121-.866-1.121-.554 0-.865.413-.865 1.12 0 .714.311 1.125.865 1.125.551 0 .866-.414.866-1.124zm-2.389 0c0-1.052.58-1.694 1.523-1.694.94 0 1.521.642 1.521 1.694 0 1.058-.578 1.697-1.52 1.697-.946 0-1.524-.639-1.524-1.697zm7.089 1.634h-.66l-.667-2.405h-.05l-.664 2.405h-.654l-.89-3.265h.646l.578 2.491h.048l.663-2.49h.61l.664 2.49h.05l.576-2.49h.637l-.886 3.264m1.634-3.265h.613v.519h.047c.157-.363.478-.582.964-.582.72 0 1.117.437 1.117 1.215v2.113h-.637V8.704c0-.525-.225-.786-.697-.786-.47 0-.77.319-.77.828v1.91h-.637V7.391m3.755 3.265h.638v-4.54h-.637zm3.912-1.634c0-.708-.315-1.121-.866-1.121-.554 0-.865.413-.865 1.12 0 .714.31 1.125.865 1.125.55 0 .866-.414.866-1.124zm-2.39 0c0-1.052.581-1.694 1.524-1.694.94 0 1.52.642 1.52 1.694 0 1.058-.578 1.697-1.52 1.697-.945 0-1.523-.639-1.523-1.697zm5.789.432v-.273l-.787.05c-.445.03-.646.184-.646.472 0 .293.252.464.598.464.48 0 .835-.308.835-.713zm-2.074.278c0-.587.433-.926 1.2-.974l.874-.05v-.283c0-.344-.225-.54-.66-.54-.355 0-.602.133-.673.363h-.616c.065-.56.586-.92 1.319-.92.809 0 1.265.408 1.265 1.097v2.231h-.613v-.459h-.051c-.192.327-.545.513-.969.513-.622 0-1.076-.38-1.076-.978zm4.203-.71c0 .692.323 1.11.863 1.11.537 0 .868-.424.868-1.107 0-.68-.335-1.11-.868-1.11-.536 0-.862.42-.862 1.107zm-.657 0c0-1.032.524-1.685 1.34-1.685.441 0 .814.213.989.573h.048V6.117h.636v4.54h-.61v-.517h-.05c-.193.357-.57.57-1.014.57-.82 0-1.34-.654-1.34-1.688zm8.037 0c0-.708-.314-1.121-.866-1.121-.554 0-.865.413-.865 1.12 0 .714.311 1.125.865 1.125.552 0 .866-.414.866-1.124zm-2.389 0c0-1.052.582-1.694 1.523-1.694.94 0 1.521.642 1.521 1.694 0 1.058-.578 1.697-1.52 1.697-.945 0-1.523-.639-1.523-1.697zm3.899-1.631h.613v.519h.047c.157-.363.478-.582.963-.582.72 0 1.118.437 1.118 1.215v2.113h-.637V8.704c0-.525-.225-.786-.697-.786-.47 0-.77.319-.77.828v1.91h-.637V7.391m6.34-.812v.827h.699v.543h-.7v1.678c0 .342.14.493.457.493.098 0 .154-.007.243-.016v.537a2.028 2.028 0 01-.347.033c-.708 0-.99-.252-.99-.881V7.949h-.512v-.543h.512v-.827h.637m1.57-.462h.631v1.799h.05c.156-.366.498-.585.984-.585.687 0 1.112.441 1.112 1.217v2.108h-.638V8.707c0-.521-.24-.786-.69-.786-.522 0-.813.334-.813.828v1.907h-.636v-4.54m4.249 2.606h1.63c-.014-.512-.322-.846-.794-.846-.47 0-.8.337-.836.846zm2.24 1.052c-.144.586-.66.945-1.398.945-.924 0-1.49-.641-1.49-1.685s.578-1.706 1.488-1.706c.898 0 1.44.62 1.44 1.646V9.2h-2.28v.036c.022.572.35.935.86.935.386 0 .65-.141.768-.396h.613z" fill="#FFFFFE"/></g></svg>