<svg preserveAspectRatio="xMidYMid slice" xmlns="http://www.w3.org/2000/svg" xmlns:xlink="http://www.w3.org/1999/xlink" height="185px" viewBox="0 0 98 97" width="185px">
  <mask id="a" fill="#fff">
    <path d="m0 .37504054h26.49672v57.50543246h-26.49672z" fill="#fff" fill-rule="evenodd"></path>
  </mask>
  <mask id="b" fill="#fff">
    <path d="m.50328.37504054h26.49672v57.50543246h-26.49672z" fill="#fff" fill-rule="evenodd"></path>
  </mask>
  <mask id="c" fill="#fff">
    <path d="m.47897705.37315122h47.04236065v63.62684878h-47.04236065z" fill="#fff" fill-rule="evenodd"></path>
  </mask>
  <g fill="none" fill-rule="evenodd">
    <path d="m17.5 8c5.7990726 0 10.5 4.7009274 10.5 10.5s-4.7009274 10.5-10.5 10.5-10.5-4.7009274-10.5-10.5 4.7009274-10.5 10.5-10.5" fill="#143059"></path>
    <path d="m50 0c8.2850534 0 15 6.71634729 15 15.0003943 0 8.284047-6.7149466 14.9996057-15 14.9996057-8.2842648 0-15-6.7155587-15-14.9996057 0-8.28404701 6.7157352-15.0003943 15-15.0003943" fill="#fba919"></path>
    <g fill="#143059">
      <path d="m25.2462343 40.5322027c-2.5164-.6325135-4.2837429-2.9258649-4.2837429-5.5593784v-23.9485135c0-4.05999999 1.6099715-7.73986485 4.2096857-10.43216215-.6834857-.14264865-1.3893428-.21710811-2.1129428-.21710811h-13.66740001c-5.18631429 0-9.39214286 4.27162162-9.39214286 9.54178378v20.43559458c0 .8221892.51762857 1.5511081 1.28442857 1.8113243l5.13925714 1.7392163 1.98797143 22.2414324c.08794286.9836486.89948572 1.7360811 1.87148573 1.7360811h12.9746571c.972 0 1.7835429-.7532162 1.8714857-1.7368649l1.3677429-15.2971081z" mask="url(#a)" transform="translate(0 33)"></path>
      <path d="m81.5 8c5.7990726 0 10.5 4.7009274 10.5 10.5s-4.7009274 10.5-10.5 10.5-10.5-4.7009274-10.5-10.5 4.7009274-10.5 10.5-10.5"></path>
      <path d="m1.75376571 40.5322027c2.5164-.6325135 4.28374286-2.9258649 4.28374286-5.5593784v-23.9485135c0-4.05999999-1.60997143-7.73986485-4.20968571-10.43216215.68348571-.14264865 1.38934285-.21710811 2.11294285-.21710811h13.66739999c5.1863143 0 9.3921429 4.27162162 9.3921429 9.54178378v20.43559458c0 .8221892-.5176286 1.5511081-1.2844286 1.8113243l-5.1392571 1.7392163-1.9879715 22.243c-.0879428.982081-.8987143 1.7345135-1.8699428 1.7345135h-12.97620003c-.972 0-1.78277143-.7532162-1.87148571-1.7368649l-1.36774286-15.2971081z" mask="url(#b)" transform="translate(71 33)"></path>
    </g>
    <path d="m36.8299279.37315122h-25.659541c-5.9047869 0-10.69140985 4.74770732-10.69140985 10.60448778v23.331122c0 .9724878.66727869 1.8200975 1.61862295 2.0558049l7.06937705 1.7521951 2.00970495 23.9383414c.0928524 1.0989269 1.0182295 1.9449756 2.1308852 1.9449756h21.3836066c1.1126557 0 2.0396065-.8460487 2.1316721-1.945756l2.0104918-23.937561 7.0685902-1.7521951c.9513442-.2357074 1.6194098-1.0833171 1.6194098-2.0558049v-23.331122c0-5.85678046-4.7866229-10.60448778-10.6914098-10.60448778" fill="#fba919" mask="url(#c)" transform="translate(25 33)"></path>
  </g>
</svg>