<svg xmlns="http://www.w3.org/2000/svg" height="89" viewBox="0 0 89 89" width="89">
  <g fill="none">
    <path d="m5.7254902 5.77777778h61.5490196v24.55555552h5.7254902v-28.88888886c0-.79733333-.6412549-1.44444444-1.4313725-1.44444444h-70.13725495c-.79011765 0-1.43137255.64711111-1.43137255 1.44444444v75.11111116c0 .7973333.6412549 1.4444444 1.43137255 1.4444444h54.39215685v-5.7777778h-50.0980392z" fill="#bb1018"></path>
    <g fill="#183059">
      <path d="m58 21.5c0-.828-.6407-1.5-1.4333333-1.5h-40.1333334c-.7926333 0-1.4333333.672-1.4333333 1.5s.6407 1.5 1.4333333 1.5h40.1333334c.7926333 0 1.4333333-.672 1.4333333-1.5z"></path>
      <path d="m38.5555556 37h-23.1111112c-.7987777 0-1.4444444.672-1.4444444 1.5s.6456667 1.5 1.4444444 1.5h23.1111112c.7987777 0 1.4444444-.672 1.4444444-1.5s-.6456667-1.5-1.4444444-1.5z"></path>
      <path d="m38.5555556 55h-23.1111112c-.7987777 0-1.4444444.672-1.4444444 1.5s.6456667 1.5 1.4444444 1.5h23.1111112c.7987777 0 1.4444444-.672 1.4444444-1.5s-.6456667-1.5-1.4444444-1.5z"></path>
      <path d="m59 70v17.5744614c0 .5072982.2716875.9775465.715875 1.2326206.4441875.255074.9904375.257924 1.434625.004275l9.3495-5.2952809 9.3495 5.2952809c.2199375.1253995.4671875.1880993.713.1880993.250125 0 .4988125-.0641248.721625-.1923743.4441875-.2550741.715875-.7253224.715875-1.2326206v-17.5744614c-3.3335625 2.0933174-7.2694375 3.324513-11.5 3.324513s-8.1664375-1.2311956-11.5-3.324513z"></path>
      <path d="m70 32c-10.4763077 0-19 8.5236923-19 19s8.5236923 19 19 19 19-8.5236923 19-19-8.5236923-19-19-19z"></path>
    </g>
  </g>
</svg>