<svg preserveAspectRatio="xMidYMid slice" xmlns="http://www.w3.org/2000/svg" xmlns:xlink="http://www.w3.org/1999/xlink" height="185px" viewBox="0 0 100 100" width="185px">
  <mask id="a" fill="#fff">
    <path d="m0-.00005688h28.4402817v28.44042388h-28.4402817z" fill="#fff" fill-rule="evenodd"></path>
  </mask>
  <g fill="none" fill-rule="evenodd">
    <path d="m0 0h100v100h-100z" fill="#fff"></path>
    <path d="m2.91756315 13.8134748v-3.6456422c.00086716-2.02167434.84634913-3.83920383 2.2207993-5.16544892 1.37618449-1.32401704 3.2625487-2.13864679 5.36078925-2.1394823 2.0979515.00083551 3.9843157.81546526 5.3605002 2.1394823 1.3744501 1.32624509 2.2199321 3.14377458 2.2207993 5.16544892v3.6456422c1.0255624.4862713 1.9927359 1.0686271 2.8905371 1.7342562v-5.3798984c.0008667-2.78199544-1.1744255-5.31305704-3.0671489-7.13476412-1.890411-1.82365662-4.5176197-2.95578309-7.4046877-2.95522629-2.88735705-.0005568-5.5145658 1.13156967-7.40526581 2.95522629-1.89243434 1.82170708-3.06772653 4.35276868-3.06685985 7.13476412v5.3798984c.89780116-.6656291 1.86497471-1.2479849 2.89053711-1.7342562" fill="#fba919" transform="translate(61.284404 56.12844)"></path>
    <path d="m15.6074193 14.3135761v2.602578c0 .7658991-.6211376 1.3870367-1.3873211 1.3870367-.7658991 0-1.3870367-.6211376-1.3870367-1.3870367v-2.602578c-1.9512936-.5938348-3.37160554-2.4066238-3.37160554-4.55216509 0-2.62817431 2.13046794-4.7586422 4.75864224-4.7586422s4.7589266 2.13046789 4.7589266 4.7586422c0 2.14554129-1.420312 3.95833029-3.3716055 4.55216509m-1.3873211-17.06592656c-7.85352297 0-14.22018352 6.36666055-14.22018352 14.22018346 0 7.8538074 6.36666055 14.2204679 14.22018352 14.2204679 7.8535229 0 14.2201835-6.3666605 14.2201835-14.2204679-.009101-7.84954126-6.3703578-14.21079814-14.2201835-14.22018346" fill="#fba919" mask="url(#a)" transform="translate(57.614679 73.559633)"></path>
    <g transform="translate(20 2)">
      <path d="m25.5221955 87.6043319c1.9048266 0 3.4493158-1.5438364 3.4493158-3.448663s-1.5444892-3.4493159-3.4493158-3.4493159-3.448663 1.5444893-3.448663 3.4493159 1.5438364 3.448663 3.448663 3.448663" fill="#fff"></path>
      <path d="m30.81265 4.13878734h-10.5815322c-.5065559 0-.9167769.46322194-.9167769 1.03433718 0 .57111525.410221 1.03505648.9167769 1.03505648h10.5815322c.5071939 0 .9180529-.46394123.9180529-1.03505648 0-.57111524-.410859-1.03433718-.9180529-1.03433718" fill="#fff"></path>
      <path d="m20.2237914 6.23882458c-.5072878 0-.9181016-.40944667-.9181016-.91284389 0-.50466682.4108138-.91347869.9181016-.91347869h10.5968221c.5079267 0 .9193794.40881187.9193794.91347869 0 .50339722-.4114527.91284389-.9193794.91284389zm8.6743671 77.94150602c0 1.8523494-1.5116412 3.3536538-3.375956 3.3536538-1.8643149 0-3.3753172-1.5013044-3.3753172-3.3536538 0-1.8523495 1.5110023-3.3542887 3.3753172-3.3542887 1.8643148 0 3.375956 1.5019392 3.375956 3.3542887zm-18.93704356-84.1803306c-5.49902612.00634801-9.95472592 4.43345043-9.96111494 9.89718295v71.25959025c.00638902 5.4630977 4.46208882 9.8902002 9.96111494 9.8965482h28.57090986c-2.6099796-.2730664-3.7345987-4.0210492-3.650825-7.729694.0698203-3.0909254 1.1767665-5.9630686 1.0408454-6.1261082h-29.94575958c-1.09954966 0-1.99209521-.8861823-1.99209521-1.9793097v-63.3417169c0-1.0937622.89254555-1.97930965 1.99209521-1.97930965h39.09247258c1.1001885 0 1.9920952.88554745 1.9920952 1.97930965v39.0222019c.6861803.283756 1.3519158.6144874 1.9920952.9902896.6395405-.376437 1.305276-.7078032 1.9920952-.9902896v-41.00151155c-.006389-5.46373252-4.4620888-9.89083494-9.9611149-9.89718295z" fill="#143059"></path>
    </g>
  </g>
</svg>