<?xml version="1.0" encoding="UTF-8"?>
<svg xmlns="http://www.w3.org/2000/svg" width="225" height="76" viewBox="0 0 225 76" fill="none">
  <g clip-path="url(#clip0)">
    <path fill-rule="evenodd" clip-rule="evenodd" d="M95.783 27.2101C95.6816 24.447 96.7605 23.1296 98.3428 23.1296C99.2524 23.1296 99.9251 23.4282 100.531 23.7896C101.103 24.1186 101.609 24.4143 102.046 24.4143C102.62 24.4143 102.82 24.1186 102.954 23.0001H105.246C105.313 25.8627 104.335 27.0135 102.585 27.0135C101.675 27.0135 101.002 26.7185 100.397 26.3891C99.7903 26.0593 99.3864 25.7951 98.9152 25.7951C98.4772 25.7951 98.175 26.2563 98.1066 27.2101H95.783" fill="#2F6B9A"></path>
    <path fill-rule="evenodd" clip-rule="evenodd" d="M125.233 29.3153H126.298V37.7352H125.233V34.0701H121.049V37.7352H119.983V29.3153H121.049V32.9563H125.233V29.3153" fill="#2F6B9A"></path>
    <path fill-rule="evenodd" clip-rule="evenodd" d="M133.168 30.571C132.16 30.571 131.332 30.9006 130.683 31.562C130.033 32.223 129.708 33.0661 129.708 34.0937C129.708 35.0902 130.035 35.9181 130.686 36.5795C131.337 37.2401 132.152 37.5727 133.131 37.5727C134.114 37.5727 134.934 37.2329 135.59 36.5602C136.248 35.8853 136.577 35.0465 136.577 34.0407C136.577 33.0631 136.248 32.2394 135.59 31.5713C134.934 30.9048 134.126 30.571 133.168 30.571ZM133.117 29.3153C134.479 29.3153 135.612 29.7669 136.518 30.6701C137.423 31.5741 137.876 32.7064 137.876 34.0679C137.876 35.429 137.418 36.5563 136.505 37.4493C135.591 38.3416 134.439 38.7877 133.049 38.7877C131.722 38.7877 130.615 38.3416 129.731 37.4493C128.846 36.5563 128.403 35.4382 128.403 34.094C128.403 32.7157 128.849 31.5741 129.74 30.6701C130.63 29.7669 131.756 29.3153 133.117 29.3153V29.3153Z" fill="#2F6B9A"></path>
    <path fill-rule="evenodd" clip-rule="evenodd" d="M139.981 29.3153H146.296V30.3864H143.661V37.7352H142.573V30.3864H139.981V29.3153" fill="#2F6B9A"></path>
    <path fill-rule="evenodd" clip-rule="evenodd" d="M149.453 29.3153H153.566V30.3896H150.492V32.9616H153.461V34.0409H150.492V36.6606H153.663V37.7352H149.453V29.3153" fill="#2F6B9A"></path>
    <path fill-rule="evenodd" clip-rule="evenodd" d="M156.821 29.3153H157.838V36.6387H161.031V37.7352H156.821V29.3153" fill="#2F6B9A"></path>
    <path fill-rule="evenodd" clip-rule="evenodd" d="M165.36 34.8076L164.548 34.1945C164.038 33.8113 163.676 33.4319 163.46 33.0575C163.245 32.6861 163.136 32.2566 163.136 31.7703C163.136 31.0418 163.341 30.4514 163.749 29.9962C164.156 29.5406 164.686 29.3153 165.338 29.3153C165.96 29.3153 166.532 29.5322 167.051 29.9655V31.4671C166.514 30.827 165.937 30.507 165.316 30.507C164.968 30.507 164.681 30.6064 164.456 30.8064C164.231 31.0047 164.12 31.2616 164.12 31.5744C164.12 31.8515 164.203 32.1105 164.368 32.3526C164.533 32.5935 164.799 32.847 165.165 33.1144L165.98 33.7119C166.891 34.3856 167.346 35.243 167.346 36.2864C167.346 37.0271 167.145 37.6289 166.745 38.0933C166.345 38.5561 165.824 38.7877 165.182 38.7877C164.446 38.7877 163.774 38.5068 163.169 37.9455V36.2633C163.746 37.1699 164.414 37.6226 165.173 37.6226C165.507 37.6226 165.785 37.5059 166.008 37.2764C166.23 37.044 166.342 36.7559 166.342 36.409C166.342 35.8464 166.014 35.3116 165.36 34.8076" fill="#2F6B9A"></path>
    <path fill-rule="evenodd" clip-rule="evenodd" d="M119.983 50.3649H121.036V41.9449H119.983V50.3649Z" fill="#2F6B9A"></path>
    <path fill-rule="evenodd" clip-rule="evenodd" d="M130.326 41.9449H131.562V50.3649H130.443L124.365 43.88V50.3649H123.142V41.9449H124.195L130.326 48.4854V41.9449" fill="#2F6B9A"></path>
    <path fill-rule="evenodd" clip-rule="evenodd" d="M133.666 41.9449H139.981V43.0169H137.345V50.3649H136.258V43.0169H133.666V41.9449" fill="#2F6B9A"></path>
    <path fill-rule="evenodd" clip-rule="evenodd" d="M143.139 41.9449H147.25V43.0196H144.177V45.5897H147.147V46.6705H144.177V49.2894H147.349V50.3649H143.139V41.9449" fill="#2F6B9A"></path>
    <path fill-rule="evenodd" clip-rule="evenodd" d="M150.978 42.9692H150.626V45.6277H151.073C151.666 45.6277 152.074 45.5748 152.295 45.4705C152.514 45.3658 152.687 45.2086 152.811 44.9978C152.933 44.785 152.996 44.5461 152.996 44.277C152.996 44.0124 152.927 43.7717 152.79 43.5558C152.653 43.3434 152.461 43.1904 152.212 43.1018C151.964 43.0125 151.553 42.9692 150.978 42.9692ZM149.453 50.3649V41.9449H151.505C152.334 41.9449 152.992 42.1558 153.478 42.5776C153.965 42.9997 154.209 43.5713 154.209 44.2887C154.209 44.7794 154.089 45.2035 153.851 45.5604C153.612 45.9181 153.271 46.1858 152.825 46.3633C153.087 46.5389 153.343 46.7804 153.593 47.0856C153.843 47.3916 154.195 47.9241 154.648 48.6832C154.933 49.161 155.163 49.5202 155.334 49.7625L155.768 50.3649H154.372L154.016 49.8097C154.004 49.789 153.981 49.7564 153.945 49.7081L153.717 49.3764L153.353 48.7599L152.962 48.1043C152.719 47.7581 152.498 47.4824 152.297 47.2777C152.094 47.0726 151.912 46.9257 151.751 46.8349C151.587 46.7459 151.315 46.7003 150.93 46.7003H150.626V50.3649H149.453V50.3649Z" fill="#2F6B9A"></path>
    <path fill-rule="evenodd" clip-rule="evenodd" d="M164.004 41.9449H165.241V50.3649H164.121L158.044 43.88V50.3649H156.821V41.9449H157.875L164.004 48.4854V41.9449" fill="#2F6B9A"></path>
    <path fill-rule="evenodd" clip-rule="evenodd" d="M172.851 46.818L171.463 43.7845L170.176 46.818H172.851ZM171.043 41.9449H171.907L175.766 50.3649H174.504L173.358 47.8845H169.687L168.611 50.3649H167.346L171.043 41.9449V41.9449Z" fill="#2F6B9A"></path>
    <path fill-rule="evenodd" clip-rule="evenodd" d="M175.766 41.9449H182.081V43.0169H179.446V50.3649H178.358V43.0169H175.766V41.9449" fill="#2F6B9A"></path>
    <path fill-rule="evenodd" clip-rule="evenodd" d="M184.186 50.3649H185.238V41.9449H184.186V50.3649Z" fill="#2F6B9A"></path>
    <path fill-rule="evenodd" clip-rule="evenodd" d="M192.107 43.2005C191.098 43.2005 190.27 43.5305 189.621 44.1919C188.972 44.8533 188.648 45.6971 188.648 46.7234C188.648 47.7187 188.972 48.5482 189.623 49.2096C190.274 49.8705 191.09 50.1997 192.07 50.1997C193.052 50.1997 193.871 49.863 194.529 49.1898C195.187 48.5137 195.516 47.677 195.516 46.6713C195.516 45.6916 195.187 44.8692 194.529 44.2011C193.871 43.5335 193.064 43.2005 192.107 43.2005ZM192.057 41.9449C193.419 41.9449 194.551 42.3957 195.456 43.3005C196.363 44.204 196.815 45.3367 196.815 46.6973C196.815 48.0592 196.359 49.1856 195.444 50.0786C194.532 50.9704 193.378 51.4173 191.988 51.4173C190.659 51.4173 189.553 50.9704 188.668 50.0786C187.784 49.1856 187.343 48.0689 187.343 46.7238C187.343 45.3447 187.787 44.204 188.678 43.3005C189.568 42.3957 190.695 41.9449 192.057 41.9449V41.9449Z" fill="#2F6B9A"></path>
    <path fill-rule="evenodd" clip-rule="evenodd" d="M206.104 41.9449H207.34V50.3649H206.221L200.144 43.88V50.3649H198.92V41.9449H199.975L206.104 48.4854V41.9449" fill="#2F6B9A"></path>
    <path fill-rule="evenodd" clip-rule="evenodd" d="M214.95 46.818L213.56 43.7845L212.275 46.818H214.95ZM213.139 41.9449H214.006L217.865 50.3649H216.604L215.456 47.8845H211.785L210.711 50.3649H209.445L213.139 41.9449V41.9449Z" fill="#2F6B9A"></path>
    <path fill-rule="evenodd" clip-rule="evenodd" d="M219.97 41.9449H220.986V49.2679H224.18V50.3649H219.97V41.9449" fill="#2F6B9A"></path>
    <path fill-rule="evenodd" clip-rule="evenodd" d="M0 51.5203L4.43655 29.3153L11.6723 45.3672L19.1679 29.3153L23.1547 51.5203H19.8912L17.8573 39.0542L11.6175 52.4701L5.55706 39.0395L3.29057 51.5203H0" fill="#2F6B9A"></path>
    <path fill-rule="evenodd" clip-rule="evenodd" d="M46.3098 34.2566H37.8989V39.0612H46.0645V41.8983H37.8989V48.5802H46.3098V51.4176H34.7324V31.4203H46.3098V34.2566" fill="#2F6B9A"></path>
    <path fill-rule="evenodd" clip-rule="evenodd" d="M61.0991 31.4203V48.5802H67.3591V51.4176H57.8867V31.4203H61.0991" fill="#2F6B9A"></path>
    <path fill-rule="evenodd" clip-rule="evenodd" d="M76.8315 51.4176H79.989V31.4203H76.8315V51.4176Z" fill="#2F6B9A"></path>
    <path fill-rule="evenodd" clip-rule="evenodd" d="M103.689 43.7975L100.639 37.0628L97.4415 43.7975H103.689ZM104.956 46.6078H96.1492L93.8573 51.4178H90.5137L100.692 30.368L110.511 51.4178H107.114L104.956 46.6078V46.6078Z" fill="#2F6B9A"></path>
  </g>
  <defs>
    <clipPath id="clip0">
      <rect width="225" height="76" fill="white"></rect>
    </clipPath>
  </defs>
</svg>
