<?xml version="1.0" encoding="UTF-8"?>
<svg xmlns="http://www.w3.org/2000/svg" width="225" height="76" viewBox="0 0 225 76" fill="none">
  <g clip-path="url(#clip0)">
    <path fill-rule="evenodd" clip-rule="evenodd" d="M78.5147 24.1531V55.0454C78.5147 55.8824 78.4219 56.3009 78.7008 56.7194C78.8403 56.9992 79.1193 57.1379 79.352 57.1379C79.6774 57.1379 79.9569 56.9992 80.1426 56.6738C80.4218 56.2548 80.3755 55.8354 80.3755 54.9523V24.1531H81.8176V55.6496C81.8176 57.7891 81.0267 58.8593 79.352 58.8593C78.654 58.8593 78.0495 58.6275 77.5842 58.1159C77.119 57.6034 76.8862 56.8125 76.8862 55.6967V24.1531H78.5147V24.1531Z" fill="#2F6B9A"></path>
    <path fill-rule="evenodd" clip-rule="evenodd" d="M93.9127 58.6736L91.5867 37.4589V58.6736H90.3306V24.1531H92.0053L94.3776 44.0654V24.1531H95.448V58.6736H93.9127Z" fill="#2F6B9A"></path>
    <path fill-rule="evenodd" clip-rule="evenodd" d="M108.009 39.6919V40.9018H105.729V57.2319H108.334V58.6736H103.682V24.1531H108.009V25.642H105.729V39.6919H108.009Z" fill="#2F6B9A"></path>
    <path fill-rule="evenodd" clip-rule="evenodd" d="M153.18 19.2682V22.1533H71.9087V19.2682H153.18Z" fill="#2F6B9A"></path>
    <path fill-rule="evenodd" clip-rule="evenodd" d="M153.18 61.233V64.1169H71.9087V61.233H153.18Z" fill="#2F6B9A"></path>
    <path fill-rule="evenodd" clip-rule="evenodd" d="M157.647 67.0476V69.9329H66.6987V67.0476H157.647Z" fill="#2F6B9A"></path>
    <path fill-rule="evenodd" clip-rule="evenodd" d="M162.206 72.6772V75.6081H62.0933V72.6772H162.206Z" fill="#2F6B9A"></path>
    <path fill-rule="evenodd" clip-rule="evenodd" d="M112.149 1.12402L152.993 12.7553V15.8257L111.777 4.61351L71.7227 16.0115V12.9412L112.149 1.12402Z" fill="#2F6B9A"></path>
    <path fill-rule="evenodd" clip-rule="evenodd" d="M143.737 16.0115H135.316L112.474 9.82413L89.68 15.8257L80.98 16.0115L112.567 6.93958L143.737 16.0115Z" fill="#2F6B9A"></path>
    <path fill-rule="evenodd" clip-rule="evenodd" d="M119.592 34.1094H121.36V27.4098C121.36 27.4098 121.313 25.4558 120.848 24.898C120.383 24.3859 119.825 23.9204 118.615 23.9204C117.452 23.9674 117.173 24.2931 116.754 24.8045C116.289 25.3165 116.103 26.2 116.103 27.1312C116.103 28.0612 116.15 32.202 116.289 33.5974C116.428 34.9471 117.731 40.4363 118.476 43.0888C119.174 45.7869 119.499 47.1365 119.546 47.8808C119.592 48.6708 119.685 51.3233 119.592 52.6258C119.546 53.9283 119.592 55.7424 119.592 55.7424C119.592 55.7424 119.685 57.185 118.848 57.185C117.964 57.185 118.057 55.7424 118.057 55.7424V47.555H116.289V55.6968C116.289 55.6968 115.824 58.6737 118.615 58.6737C121.453 58.6737 121.453 56.0222 121.453 56.0222V48.5782C121.453 48.5782 121.313 46.1123 120.848 44.3913C120.383 42.7159 118.894 37.3662 118.568 35.877C118.197 34.2959 118.057 31.969 118.057 29.8758C118.057 27.7826 118.104 26.4798 118.104 26.4798C118.104 26.4798 118.057 25.5028 118.848 25.5028C119.592 25.5028 119.546 26.5263 119.546 26.5263L119.592 34.1094V34.1094Z" fill="#2F6B9A"></path>
    <path fill-rule="evenodd" clip-rule="evenodd" d="M133.13 34.2023H134.665V26.1536C134.665 24.898 133.967 23.6417 132.245 23.6417C130.664 23.6417 129.734 24.8046 129.734 26.2V56.4411C129.734 57.7892 130.664 58.9535 132.245 58.9535C133.967 58.9535 134.665 57.7436 134.665 56.4867V47.4153H133.13V56.4411C133.13 56.9067 133.177 57.4638 132.245 57.4638C131.269 57.4638 131.363 56.6269 131.363 56.301V26.2935C131.363 25.9679 131.269 25.1302 132.245 25.1302C133.177 25.1302 133.13 25.7351 133.13 26.2V34.2023V34.2023Z" fill="#2F6B9A"></path>
    <path fill-rule="evenodd" clip-rule="evenodd" d="M145.969 23.6417C144.388 23.6417 143.271 24.8046 143.271 26.2V56.4411C143.271 57.7892 144.388 58.9535 145.969 58.9535C147.69 58.9535 148.575 57.7436 148.575 56.4867V26.1536C148.575 24.898 147.69 23.6417 145.969 23.6417V23.6417ZM147.039 56.4411C147.039 56.9067 146.9 57.4638 145.969 57.4638C144.992 57.4638 144.9 56.6269 144.9 56.301V26.2935C144.9 25.9679 144.992 25.1302 145.969 25.1302C146.9 25.1302 147.039 25.7351 147.039 26.2V56.4411Z" fill="#2F6B9A"></path>
  </g>
  <defs>
    <clipPath id="clip0">
      <rect x="62" y="1" width="100.298" height="74.7321" fill="white"></rect>
    </clipPath>
  </defs>
</svg>
