<?xml version="1.0" encoding="UTF-8"?>
<svg xmlns="http://www.w3.org/2000/svg" width="225" height="76" viewBox="0 0 225 76" fill="none">
  <path d="M31 23.8073L31.087 19.8395H46.3973L46.4843 23.8073H45.7014V23.7489C45.4404 22.261 45.0924 21.5024 44.6285 21.1232C44.1645 20.7439 43.5266 20.7147 42.7147 20.7147C42.5697 20.7147 42.4247 20.7147 42.2508 20.7147H39.931V31.4219C39.931 32.939 39.931 33.8142 40.163 34.3102C40.395 34.777 40.8299 34.8937 41.8158 34.8937H42.6857V35.7398H34.7116V34.8937H35.6105C36.5964 34.8937 37.0313 34.777 37.2633 34.3394C37.4953 33.9018 37.5243 33.0557 37.4953 31.6261C37.4953 31.5678 37.4953 31.4802 37.4953 31.4219V20.7147H34.4506C33.4937 20.7147 32.9718 20.9189 32.6238 21.3857C32.2759 21.8525 32.0729 22.6403 31.8119 23.7489L31.7829 23.8073H31Z" fill="#2F6B9A"></path>
  <path d="M53.5305 35.7112V34.8651H53.6175C54.4294 34.8651 54.8064 34.836 54.9804 34.5442C55.1543 34.2525 55.1833 33.5815 55.1833 32.2686V29.4386C55.1833 28.6217 55.1543 27.3672 54.3134 26.9004C53.7915 26.6087 53.1246 26.6087 52.6026 26.7837C52.1677 26.9588 51.7617 27.2505 51.4137 27.5714C51.2398 27.7465 51.0658 27.9215 50.8918 28.1258C50.8048 28.2133 50.4279 28.5634 50.4279 28.6801V32.2394C50.4279 33.4939 50.4279 34.1649 50.6018 34.4859C50.7468 34.7776 51.0658 34.836 51.8197 34.836H51.9067V35.682H46.9482V34.836H47.0352C47.8761 34.836 48.2531 34.8068 48.3981 34.5442C48.5721 34.2525 48.6011 33.5815 48.6011 32.2686V23.0493C48.6011 22.2324 48.6011 21.6781 48.4271 21.3572C48.2531 21.0654 47.9051 20.9196 47.1512 20.9196H47.0642V20.1027H47.1512C48.1081 20.1027 49.413 19.8984 50.1669 19.6067H50.1959H50.4569V27.5131C51.5297 26.3461 52.5736 25.6751 53.7915 25.6751C54.8644 25.6751 55.6763 25.9668 56.2272 26.5211C56.7782 27.1046 57.0391 27.9215 57.0391 29.0302V32.2978C57.0391 33.6106 57.0391 34.2816 57.2131 34.5734C57.3871 34.8651 57.735 34.8943 58.547 34.8943H58.6339V35.7404H53.5305V35.7112Z" fill="#2F6B9A"></path>
  <path d="M60.8668 34.8651C59.9389 34.0191 59.272 32.7354 59.272 30.9849C59.272 29.497 59.7649 28.1841 60.6058 27.2213C61.4467 26.2585 62.6066 25.7042 63.9695 25.7042C66.4632 25.7042 67.913 27.6881 68 29.497V29.5845H61.3887C61.3597 29.9054 61.3597 30.2555 61.3597 30.6056C61.3597 31.2183 61.3597 32.3561 61.7657 33.348C62.1427 34.34 62.8966 35.1569 64.3754 35.1569C64.8973 35.1569 66.3472 35.0694 67.2171 33.4647L67.2461 33.4064H68.029L68 33.5231C67.913 33.9024 66.9851 36.0905 64.0854 36.1196C62.9836 36.0905 61.7947 35.7112 60.8668 34.8651ZM65.7962 28.7676C65.8252 28.6801 65.8252 28.6217 65.8252 28.4758V28.4467C65.7963 27.0754 64.7814 26.5503 63.8535 26.5503C62.0847 26.5503 61.5917 28.0966 61.4467 28.7676H65.7962Z" fill="#2F6B9A"></path>
  <path d="M71.5085 35.5943V34.6316H72.4074C75.4521 34.6316 75.4521 33.8147 75.4521 29.1467V17.4767C75.4521 12.1669 75.1041 12.342 71.4795 12.342V11.35C74.0602 11.2333 78.1198 11.0874 80.2075 11.0874C81.5994 11.0874 90.0664 10.7957 90.0664 16.8641C90.0664 21.5029 84.963 22.3198 83.3682 22.524C87.3987 22.7574 91.4003 24.3037 91.4003 28.8841C91.4003 34.2231 86.7318 35.536 82.5273 35.536H71.5085V35.5943ZM78.9607 22.1155C83.5712 22.2322 86.3549 21.5904 86.3549 17.0683C86.3549 12.6629 83.8031 11.7585 78.9607 12.1961V22.1155ZM78.9607 28.359C78.9607 33.9314 78.9607 34.6316 81.8604 34.6316C87.1958 34.6316 87.4857 30.9264 87.4857 28.9133C87.4857 25.0039 85.8039 22.8157 78.9317 23.1658V28.359H78.9607Z" fill="#2F6B9A"></path>
  <path d="M98.2725 30.5763C98.2725 34.3107 98.2725 34.6316 100.418 34.6316H100.94V35.5944H93.2271V34.6316C95.7498 34.6316 95.7498 34.6316 95.7498 30.5763V26.4335C95.7498 22.3782 95.7498 22.4074 93.2271 22.4074V21.4154C94.8509 21.182 96.7647 20.5985 97.3446 20.4235L97.6056 20.3651C97.7795 20.9486 98.1275 22.0281 98.1275 24.0995C99.2584 21.3862 101.433 20.3651 102.796 20.3651C104.478 20.3651 105.348 21.7072 105.348 22.6116C105.348 23.2826 104.826 23.8661 104.159 23.8661C103.289 23.8661 103.028 23.1367 102.883 22.7574C102.709 22.349 102.448 21.7947 101.868 21.7947C100.853 21.7947 98.3305 23.5452 98.3305 27.2796V30.5763H98.2725Z" fill="#2F6B9A"></path>
  <path d="M111.118 30.5763C111.118 33.7564 110.857 34.6316 113.119 34.6316H113.67V35.5944H105.812V34.6316H106.421C108.045 34.6316 108.567 34.5733 108.567 32.0059V26.3168C108.567 22.2907 108.538 22.2907 105.986 22.2907V21.2987C107.088 21.2695 109.234 20.7736 110.741 20.336H111.118V30.5763V30.5763ZM109.466 11C110.481 11 111.292 11.8752 111.292 12.8964C111.292 13.9175 110.481 14.7927 109.466 14.7927C108.451 14.7927 107.61 13.9175 107.61 12.8964C107.61 11.8752 108.422 11 109.466 11Z" fill="#2F6B9A"></path>
  <path d="M119.47 22.2909V30.4015C119.47 32.648 119.47 34.7194 121.644 34.7194C122.775 34.7194 123.355 33.7274 123.674 33.2607L124.428 33.7858C123.297 36.1781 120.89 36.1781 120.658 36.1781C119.325 36.1781 118.049 35.4488 117.498 34.3985C117.034 33.5232 116.947 32.7647 116.947 30.0806V22.2909H114.83V21.299C116.425 21.2114 118.223 19.9569 118.745 16.3684H119.47V21.299H123.761V22.2909H119.47Z" fill="#2F6B9A"></path>
  <path d="M130.459 30.4305C130.459 33.6105 130.198 34.6316 132.46 34.6316H133.01V35.5944H125.152V34.6316H125.761C127.385 34.6316 127.907 34.2524 127.907 31.7141V26.3168C127.907 22.2907 127.675 22.2907 125.152 22.2907V21.2987C126.254 21.2695 128.574 20.7736 130.111 20.336H130.488V30.4305H130.459ZM128.806 11C129.821 11 130.633 11.8752 130.633 12.8964C130.633 13.9175 129.821 14.7927 128.806 14.7927C127.791 14.7927 126.95 13.9175 126.95 12.8964C126.95 11.8752 127.762 11 128.806 11Z" fill="#2F6B9A"></path>
  <path d="M135.128 31.2473H135.882C136.258 32.9978 137.505 35.2443 140.086 35.2443C142.406 35.2443 142.783 33.4646 142.783 32.7936C142.783 30.8972 141.188 30.1095 139.245 29.1759C137.505 28.3007 135.128 27.1337 135.128 24.4496C135.128 22.6991 135.911 20.3943 139.013 20.3943C140.318 20.3943 141.333 20.9486 142.174 21.9406C142.464 21.6196 142.841 20.7444 142.87 20.6569H143.537V25.2081H142.812C142.522 23.8077 141.42 21.3862 139.1 21.3862C137.534 21.3862 136.722 22.3782 136.722 23.4285C136.722 25.1206 138.462 25.9083 140.144 26.6961C142.058 27.5713 144.523 28.7091 144.523 31.8892C144.523 34.6316 142.696 36.2071 140.115 36.2071C138.23 36.2071 137.331 35.4485 136.49 34.6608C136.114 35.0692 135.853 35.7403 135.795 36.0612H135.099V31.2473H135.128Z" fill="#2F6B9A"></path>
  <path d="M122.485 60.0141H123.239C123.616 61.7645 124.863 64.011 127.444 64.011C129.763 64.011 130.14 62.2313 130.14 61.5603C130.14 59.664 128.546 58.8762 126.603 57.9426C124.863 57.0674 122.572 55.9004 122.485 53.2163C122.427 51.3491 123.384 49.161 126.371 49.161C127.676 49.161 128.691 49.7153 129.531 50.7073C129.821 50.3864 130.198 49.5111 130.227 49.4236H130.894V53.9749H130.169C129.879 52.5745 128.778 50.153 126.458 50.153C124.892 50.153 124.08 51.1449 124.08 52.1952C124.08 53.8873 125.82 54.6751 127.502 55.4628C129.415 56.338 131.88 57.4758 131.88 60.6559C131.88 63.1941 130.053 64.9738 127.473 64.9738C125.588 64.9738 124.718 64.1569 123.877 63.3692C123.5 63.7776 123.21 64.507 123.123 64.8279H122.427V60.0141H122.485Z" fill="#2F6B9A"></path>
  <path d="M161.022 30.4305C161.022 34.4566 161.022 34.6316 163.487 34.6316V35.5944H155.947V34.6316C158.47 34.6316 158.47 34.4566 158.47 30.4305V26.0251C158.47 22.6116 157.426 21.5321 155.309 21.6196C153.628 21.7072 152.033 23.341 150.873 24.8289V30.4013C150.873 34.3107 150.873 34.6025 153.164 34.6025V35.5652H145.77V34.6025C148.321 34.6025 148.321 34.4566 148.321 30.4013V16.164C148.321 13.5966 148.321 12.7505 145.915 12.7505V11.7585C147.393 11.7585 149.452 11.4376 150.612 11H150.873V23.3701C152.613 21.2987 154.266 20.3651 156.15 20.3651C159.398 20.3651 161.022 22.0864 161.022 25.4124V30.4305V30.4305Z" fill="#2F6B9A"></path>
  <path d="M96.4454 40.1459H103.869V41.1086H102.97C99.809 41.1086 99.722 41.4004 99.722 46.3309V57.9425C99.722 62.6397 99.722 63.4274 102.767 63.4274H103.869V64.3902H92.3278V63.4274H93.1687C96.2134 63.4274 96.2134 62.6105 96.2134 57.9425V43.005L86.6734 64.3902H85.8325L76.3506 42.5674V58.6136C76.3506 61.9395 77.4525 63.1648 80.1202 63.3982V64.361H71.5371V63.3982C73.7699 63.1648 75.3067 62.4938 75.3067 58.3802V46.1559C75.3067 41.2545 75.3357 41.0795 72.175 41.0795H71.5371V40.1167H78.8443L87.6013 59.9264L96.4454 40.1459Z" fill="#2F6B9A"></path>
  <path d="M118.194 59.1383C118.194 63.0478 118.194 63.3979 120.426 63.3979V64.3606C119.18 64.3606 117.527 64.4773 116.541 64.9441H116.28C115.7 63.8938 115.671 62.4351 115.671 61.589C114.772 63.2228 112.771 64.9441 110.104 64.9441C105.87 64.9441 105.58 61.589 105.58 60.0427V54.8788C105.58 50.8818 105.58 50.6776 103.173 50.6776V49.7148H108.132V59.8385C108.132 61.2389 108.132 63.5437 110.944 63.5437C111.93 63.5437 115.671 62.6685 115.671 58.3214V54.908C115.671 50.8527 115.671 50.7068 113.119 50.7068V49.744H118.223V59.1383H118.194Z" fill="#2F6B9A"></path>
  <path d="M137.621 54.8497C137.592 55.3749 137.534 55.7833 137.534 56.396C137.534 58.2632 137.621 63.9815 142.289 63.9815C143.101 63.9815 145.566 63.894 146.9 61.064H147.741C147.625 61.5891 146.204 64.9442 141.825 64.9442C138.636 64.9442 134.576 62.4936 134.576 57.1546C134.576 52.6033 137.563 49.1315 141.68 49.1315C145.45 49.1315 147.654 52.1073 147.77 54.8497H137.621V54.8497ZM144.638 53.9745C144.667 53.7411 144.725 53.5661 144.725 53.2451C144.725 50.8236 143.014 49.9484 141.564 49.9484C138.317 49.9484 137.853 53.0117 137.708 53.9745H144.638Z" fill="#2F6B9A"></path>
  <path d="M163.892 59.1677C163.892 63.0772 163.892 63.4273 166.125 63.4273V64.39C164.878 64.39 163.225 64.5067 162.24 64.9735H161.979C161.399 63.9232 161.37 62.2894 161.37 61.4726C160.471 63.1063 158.47 64.9735 155.802 64.9735C151.569 64.9735 151.279 61.6184 151.279 60.0722V54.9374C151.279 50.9404 151.279 50.7362 148.872 50.7362V49.7734L153.831 49.9485V59.9263C153.831 61.2975 153.831 63.6023 156.643 63.6023C157.629 63.6023 161.37 62.7271 161.37 58.38V54.9666C161.37 50.9113 161.37 50.7654 158.818 50.7654V49.8026H163.921V59.1677H163.892Z" fill="#2F6B9A"></path>
  <path d="M177.317 50.5319C174.882 50.5319 173.345 52.5741 172.62 53.6827V59.1968C172.62 63.1646 172.62 63.398 175.027 63.398V64.3607H167.69V63.398C170.097 63.398 170.097 63.1646 170.097 59.1968V55.1415C170.097 51.1445 170.097 50.9403 167.69 50.9403V49.9775C168.937 49.8317 170.503 49.4524 171.692 49.1315H172.156C172.446 49.9775 172.591 51.4071 172.62 52.1657C174.157 50.3276 176.042 49.1315 178.245 49.1315C181.522 49.1315 182.479 51.1445 182.653 52.3115C184.393 50.2693 186.219 49.1315 188.423 49.1315C191.613 49.1315 192.976 50.882 192.976 53.887V59.1968C192.976 63.1062 192.976 63.398 195.382 63.398V64.3607H187.93V63.398C190.453 63.398 190.453 63.2229 190.453 59.1968V54.9081C190.453 52.9826 190.453 50.5027 187.495 50.5027C185.06 50.5027 183.523 52.5449 182.798 53.6536V59.1968C182.798 63.1646 182.798 63.398 185.205 63.398V64.3607H177.868V63.398C180.275 63.398 180.275 63.1062 180.275 59.1968V55.1415C180.246 53.5369 180.536 50.5319 177.317 50.5319Z" fill="#2F6B9A"></path>
</svg>
