<?xml version="1.0" encoding="UTF-8"?>
<svg xmlns="http://www.w3.org/2000/svg" width="225" height="76" viewBox="0 0 225 76" fill="none">
  <path d="M60.6819 40.9997L63.1603 43.0149C61.9841 44.6103 60.6399 45.7439 58.5396 46.2897C58.0356 46.4156 57.5315 46.4996 56.9434 46.5836H56.9014C56.5654 46.6255 56.2293 46.6256 55.8513 46.6256C51.1046 46.6256 47.5762 42.973 47.5762 38.3548V38.3128C47.5762 33.7365 51.0206 30 55.9773 30H56.0193C58.2876 30 59.8418 30.5878 61.144 31.4694C61.8581 31.9313 62.4462 32.519 62.9922 33.1488L63.0342 33.1908C63.0342 33.1908 63.0342 33.2328 63.0763 33.2328C63.0763 33.2328 63.1603 33.3587 63.2863 33.5266L60.6819 35.4999C59.9258 34.5342 58.2876 33.2327 56.0193 33.2747H55.9773C53.2469 33.2747 51.3147 35.5419 51.3147 38.2708V38.3128C51.3147 41.0837 53.2049 43.3928 55.9773 43.3928C56.2293 43.3928 56.4394 43.3928 56.6914 43.3928C58.4976 43.1409 59.5478 42.3012 60.6819 40.9997ZM8.84693 46.5836C12.3334 46.5836 14.7697 44.7783 14.7697 41.5875V41.5455C14.7697 38.7326 12.9215 37.5571 9.64503 36.7174C6.87266 36.0037 6.15856 35.6678 6.15856 34.6182V34.5762C6.15856 33.7785 6.87266 33.1908 8.21684 33.1908C9.56102 33.1908 10.9892 33.7785 12.4174 34.7861L14.2657 32.0992C12.6274 30.7977 10.6112 30.042 8.30085 30.042C5.02441 30.042 2.67209 31.9732 2.67209 34.9121V34.9541C2.67209 38.1448 4.77238 39.0265 8.00681 39.8662C10.6952 40.5379 11.2412 40.9997 11.2412 41.9234V41.9654C11.2412 42.889 10.3591 43.4768 8.93094 43.4768C7.08269 43.4768 5.57048 42.7211 4.10028 41.5035L2 44.0226C3.93226 45.7439 6.4106 46.5836 8.84693 46.5836ZM17.8361 46.3736H21.3646V41.5455H24.053C27.6655 41.5455 30.5639 39.6143 30.5639 35.8777V35.8357C30.5639 32.561 28.2535 30.2519 24.389 30.2519H17.8361V46.3736ZM21.3646 38.3967V33.4846H24.095C25.8592 33.4846 26.9514 34.3243 26.9514 35.9197V35.9617C26.9514 37.3472 25.9012 38.3967 24.137 38.3967H21.3646V38.3967ZM33.0422 46.3736H45.3079V43.2249H36.5707V39.8242H44.1737V36.6754H36.5707V33.4007H45.2238V30.2519H33.0422V46.3736ZM68.2009 46.3736H71.7294V33.5266H76.6441V30.2519H63.2863V33.5266H68.2009V46.3736V46.3736ZM78.5343 46.3736H82.0628V41.2097H84.8352L88.2797 46.3736H92.4382L88.4897 40.6219C90.548 39.8662 91.9341 38.2288 91.9341 35.6258V35.5838C91.9341 34.0724 91.4301 32.8129 90.548 31.8893C89.4978 30.8397 87.9016 30.2519 85.8433 30.2519H78.4923V46.3736H78.5343ZM82.1048 38.1029V33.4846H85.6333C87.3555 33.4846 88.4057 34.2823 88.4057 35.7937V35.8357C88.4057 37.1792 87.3975 38.1029 85.6753 38.1029H82.1048ZM102.058 46.6256C106.384 46.6256 109.114 44.2325 109.114 39.3624V30.2939H105.586V39.5303C105.586 42.0913 104.284 43.3928 102.1 43.3928C99.9152 43.3928 98.6131 42.0493 98.6131 39.4043V30.2939H95.0846V39.4883C95.0846 44.1905 97.7309 46.6256 102.058 46.6256ZM112.727 46.3736H116.213V35.9197L120.708 42.7211H120.792L125.329 35.8357V46.3317H128.857V30.2519H125.035L120.792 37.0533L116.549 30.2519H112.727V46.3736V46.3736ZM136.292 46.3736H139.821V39.9082H146.374V46.3736H149.902V30.2939H146.374V36.6754H139.821V30.2939H136.292V46.3736ZM154.061 46.3736H166.326V43.2249H157.589V39.8242H165.192V36.6754H157.589V33.4007H166.2V30.2519H154.061V46.3736ZM166.662 46.3736H170.275L171.745 42.763H178.55L180.02 46.3736H183.717L176.828 30.1679H173.551L166.662 46.3736ZM173.005 39.6143L175.147 34.4083L177.29 39.6143H173.005ZM185.775 46.3736H197.368V43.1409H189.303V30.2519H185.775V46.3736ZM199.931 46.3736H203.459V33.5266H208.374V30.2519H195.016V33.5266H199.931V46.3736V46.3736ZM210.39 46.3736H213.919V39.9082H220.472V46.3736H224V30.2939H220.472V36.6754H213.919V30.2939H210.39V46.3736Z" fill="#2F6B9A"></path>
</svg>
