<?xml version="1.0" encoding="UTF-8"?>
<svg xmlns="http://www.w3.org/2000/svg" width="225" height="76" viewBox="0 0 225 76" fill="none">
  <path d="M33 65.1732C33 65.1732 124.211 42.7055 191.791 58.5337L192 57.8025C192 57.8025 133.032 40.3423 34.1328 61.6098" fill="#2F6B9A"></path>
  <path d="M76.6617 21.0833V24.8075C76.9978 24.062 77.425 23.0511 78.5715 22.0942C79.8131 21.031 81.6273 20.4441 83.3955 20.4441C84.2998 20.4441 85.2075 20.606 86.1125 20.9248C88.9294 21.9879 89.7415 24.2211 90.0754 25.1775C92.2729 21.0839 95.7559 20.5003 97.6168 20.5003C99.9066 20.5003 101.913 21.3526 103.25 22.6811C105.635 25.0206 105.73 27.5698 105.73 33.9544V48.6314H98.7167V35.6012C98.7167 31.186 98.6212 30.282 97.904 29.1147C97.1408 27.8379 96.0414 27.5692 94.9905 27.5692C93.0828 27.5692 92.129 28.9523 91.9852 29.1665C91.2197 30.4956 91.2197 32.7827 91.2197 35.0159V48.6303H84.2054V34.7511C84.2054 31.773 84.2054 30.4433 83.4883 29.2188C82.9639 28.3169 81.9129 27.5692 80.6252 27.5692C80.0058 27.5692 79.3837 27.73 78.8104 28.051C76.7573 29.2188 76.7106 31.2411 76.7106 36.4535V48.6308H69.6919V21.0833" fill="#2F6B9A"></path>
  <path d="M133.636 21.0833H140.794L133.636 48.6302H127.093L122.94 30.0187L118.837 48.6302H112.203L105.043 21.0833H112.203L115.974 38.3139L119.84 21.0833H126.044L129.865 38.3139" fill="#2F6B9A"></path>
  <path d="M155.891 48.6304H162.767V21.0311H156.035V24.5934C154.796 21.9352 152.647 20.3925 149.926 20.3925C145.25 20.3925 139.138 24.4349 139.138 35.2831C139.138 43.8981 143.528 49.2168 149.4 49.2168C153.41 49.2168 155.032 46.8768 155.89 45.6L155.891 48.6304ZM155.531 34.5376C155.531 37.0389 155.197 39.4317 153.716 41.2404C152.475 42.6741 151.092 42.7826 150.661 42.7826C149.277 42.7826 147.703 41.9309 146.746 39.5364C146.176 38.1549 145.983 36.5054 145.983 34.8035C145.983 32.6766 146.273 30.4957 147.463 28.7421C148.321 27.517 149.658 26.722 150.949 26.722C151.997 26.722 153.048 27.2506 153.765 28.1029C154.671 29.1148 155.531 30.9753 155.531 34.5376Z" fill="#2F6B9A"></path>
  <path d="M178.971 21.0833H186.103L178.254 48.4177C177.681 50.3326 176.777 53.4715 175.391 55.0131C174.101 56.3962 172.574 57.0354 166.894 57.0354C166.082 57.0354 165.749 56.9798 165.032 56.9281V50.8116H166.894C167.562 50.8116 169.137 50.8116 169.852 50.1217C170.426 49.6411 170.903 48.4722 170.903 47.3539C170.903 46.7703 170.615 45.7038 170.378 45.0139L162.741 21.0833H170.378L174.865 39.6424" fill="#2F6B9A"></path>
  <path d="M49.5716 11L37.7866 48.6304H46.4433L48.6425 40.6353H59.695L61.9452 48.6304H70.6508L58.3738 11H49.5716ZM54.021 19.2638L57.7874 33.7607H50.4546L54.021 19.2638Z" fill="#2F6B9A"></path>
</svg>
