<?xml version="1.0" encoding="UTF-8"?>
<svg xmlns="http://www.w3.org/2000/svg" width="225" height="76" viewBox="0 0 225 76" fill="none">
  <path d="M76.6816 23.8617C79.6897 20.278 84.2019 18 89.2449 18H100.497V26.2H89.2449C86.7234 26.2 84.4673 27.337 82.9633 29.1289L62.8154 53.1383C59.8073 56.722 55.2992 58.996 50.2522 58.996H39V50.8H50.2522C52.7737 50.8 55.0258 49.663 56.5338 47.8711L76.6816 23.8617Z" fill="#2F6B9A"></path>
  <path d="M117.307 18H108.697V59H117.307V18Z" fill="#2F6B9A"></path>
  <path d="M149.322 23.8617L156.255 32.126L163.188 23.8617C166.197 20.278 170.709 18 175.752 18H187V26.2H175.752C173.23 26.2 170.974 27.337 169.47 29.1289L161.604 38.498L169.47 47.8671C170.974 49.659 173.226 50.796 175.752 50.796H187V58.996H175.752C170.709 58.996 166.197 56.722 163.188 53.1383L156.255 44.878L149.322 53.1383C146.314 56.722 141.802 58.996 136.759 58.996H125.507V50.8H136.759C139.281 50.8 141.533 49.663 143.037 47.8711L150.899 38.502L143.037 29.1289C141.533 27.337 139.277 26.2 136.759 26.2H125.507V18H136.759C141.798 18 146.314 20.278 149.322 23.8617Z" fill="#2F6B9A"></path>
</svg>
