<?xml version="1.0" encoding="UTF-8"?>
<svg xmlns="http://www.w3.org/2000/svg" width="225" height="76" viewBox="0 0 225 76" fill="none">
  <path d="M57.9339 52.0814C59.721 50.5601 60.4557 50.1087 61.1308 50.1087C61.6272 50.1087 62.3222 50.3511 62.7789 50.6604L62.0641 52.4492L61.8655 52.3405C60.8925 51.8139 60.416 51.63 59.8997 51.63C59.304 51.63 58.7679 51.9226 57.9339 52.7334V57.3726C57.9339 58.8437 58.1722 59.1613 59.2246 59.1613H59.4827V59.6044H54.5583V59.1613H54.7965C55.8688 59.1613 56.1071 58.8437 56.1071 57.3726V53.0761V52.3656C56.1071 51.0783 55.8489 50.8192 54.6377 50.8192H54.2803V50.3762L57.9339 50.0836" fill="#2F6B9A"></path>
  <path d="M92.8421 47.8767H92.4053L92.3854 47.6677C92.0876 46.4891 91.7897 45.8873 91.1344 45.3858C90.5586 44.9427 89.8437 44.6836 89.0892 44.6836C87.5205 44.6836 86.3887 45.7034 86.3887 47.0659C86.3887 47.8015 86.7659 48.6123 87.3616 49.1974C87.7191 49.5317 88.1361 49.8494 88.6126 50.1587C88.9502 50.376 89.5261 50.7355 90.3402 51.237C91.5515 51.9976 92.1471 52.4741 92.6634 53.101C93.3187 53.8867 93.6563 54.756 93.6563 55.7006C93.6563 58.0578 91.75 59.972 89.4069 59.972C88.5927 59.972 88.1361 59.8633 86.9248 59.4704C86.3092 59.2614 86.071 59.1862 85.9717 59.1862C85.7135 59.1862 85.5348 59.3701 85.3958 59.763H84.959V55.7006H85.3958L85.4157 55.9848C85.6341 57.4058 85.9121 57.9491 86.7858 58.6095C87.4013 59.1277 88.1956 59.3952 89.0098 59.3952C90.8167 59.3952 92.0081 58.2919 92.0081 56.6702C92.0081 55.7508 91.6705 55.1155 90.7571 54.3883C90.2011 53.9118 89.6253 53.4939 89.0098 53.101C88.0368 52.4741 87.4014 52.0812 87.0638 51.8388C86.7064 51.5797 86.3291 51.2369 85.9915 50.8441C85.3363 50.0333 85.0384 49.1389 85.0384 48.094C85.0384 45.7786 86.7064 44.2072 89.1091 44.2072C89.8636 44.2072 90.3203 44.2908 91.194 44.5749C91.7302 44.7588 91.9088 44.7839 92.0677 44.7839C92.2662 44.7839 92.3457 44.7087 92.4251 44.4747C92.4251 44.4412 92.4649 44.4162 92.4649 44.366H92.8421" fill="#2F6B9A"></path>
  <path d="M80.848 54.5723C80.4508 54.7562 80.3515 54.8063 79.7757 54.9902C78.0283 55.567 77.5121 56.0435 77.5121 57.197C77.5121 58.1666 78.1673 58.9524 78.9616 58.9524C79.6963 58.9524 80.3714 58.5344 80.848 57.7738V54.5723V54.5723ZM84.0449 57.9493C84.0251 59.0527 83.2705 59.8384 82.2181 59.8384C81.4636 59.8384 80.987 59.4706 80.6494 58.5846C79.736 59.5291 79.1602 59.8384 78.1872 59.8384C76.7178 59.8384 75.5264 58.7434 75.5264 57.406C75.5264 56.0686 76.3604 55.333 78.6042 54.706C79.9743 54.3048 80.2523 54.2296 80.6494 53.9955V53.3101C80.6494 51.9727 79.8154 51.0281 78.5843 51.0281C77.512 51.0281 76.7178 51.63 76.2015 52.842L76.1221 53.051L75.6853 52.9173C76.0824 51.212 77.4326 50.1086 79.1006 50.1086C80.3317 50.1086 81.4636 50.6854 82.0196 51.6049C82.3571 52.1817 82.4564 52.6581 82.4564 53.9955V57.4561C82.4564 58.5344 82.5557 58.8437 82.9528 58.8437C83.2705 58.8437 83.4691 58.5595 83.6081 57.9493" fill="#2F6B9A"></path>
  <path d="M66.5912 57.1385C65.2409 57.1385 64.3076 55.8011 64.3076 53.8117C64.3076 51.8975 65.2409 50.6102 66.611 50.6102C67.9812 50.6102 68.8945 51.8975 68.8945 53.7866C68.8945 55.8345 67.9811 57.1385 66.5912 57.1385ZM65.7969 62.2039L67.584 62.5717C70.2448 63.1485 70.9795 63.5664 70.9795 64.6196C70.9795 65.8484 69.5498 66.7177 67.5046 66.7177C64.8636 66.7177 62.8581 65.6896 62.8581 64.3521C62.8581 63.4076 63.7914 62.6219 65.5388 62.1538L65.7969 62.2039V62.2039ZM72.0915 52.5495V57.1385V57.8991C72.0915 58.8437 71.7539 59.1864 70.8008 59.1864H70.3242V59.6294H75.4076V59.1864C74.0176 59.1613 73.8389 58.9524 73.8389 57.406V50.0167L71.7539 50.2173H68.8151C68.3386 50.2173 68.1003 50.2173 67.5046 50.1588C67.0876 50.1421 66.7103 50.1422 66.3926 50.1422C64.1289 50.1422 62.4808 51.7137 62.4808 53.887C62.4808 55.7259 63.4935 56.9797 65.3997 57.4813V57.5314C63.2949 58.3255 62.5007 59.0276 62.5007 60.156C62.5007 60.9668 63.2354 61.6021 64.4864 61.8863V61.9448C62.1036 63.0733 61.5078 63.6751 61.5078 64.8537C61.5078 66.5589 63.3346 67.6874 66.0947 67.6874C69.252 67.6874 71.7539 65.9822 71.7539 63.8256C71.7539 62.4631 70.7214 61.6021 68.6166 61.1842L66.472 60.7578C64.3275 60.3399 63.9105 60.1059 63.9105 59.4205C63.9105 58.7685 65.0622 57.9827 66.5316 57.64C68.7556 57.5899 70.3838 56.0101 70.3838 53.8869C70.3838 52.9674 70.0065 52.0229 69.3314 51.2371C69.3314 51.2371 69.6491 50.9613 70.3242 50.9278H70.8604C71.7142 50.9278 72.0915 51.2956 72.0915 52.1064V52.1566" fill="#2F6B9A"></path>
  <path d="M84.9189 64.5944H122.111V62.6552H84.9189V64.5944Z" fill="#2F6B9A"></path>
  <path d="M105.272 57.7736C104.796 58.5343 104.121 58.9523 103.386 58.9523C102.612 58.9523 101.956 58.1665 101.956 57.1968C101.956 56.0433 102.453 55.5669 104.2 54.9901C104.776 54.8062 104.875 54.7561 105.272 54.5722V57.7736V57.7736ZM108.033 57.9492C107.913 58.5594 107.695 58.8435 107.377 58.8435C107 58.8435 106.881 58.5343 106.881 57.456V53.9954C106.881 52.658 106.782 52.1816 106.444 51.6048C105.888 50.6853 104.776 50.1085 103.545 50.1085C101.857 50.1085 100.507 51.2119 100.11 52.9171L100.566 53.0508L100.646 52.8419C101.162 51.6299 101.937 51.028 103.009 51.028C104.24 51.028 105.094 51.9726 105.094 53.31V53.9954C104.697 54.2294 104.399 54.3047 103.049 54.7059C100.805 55.3328 99.9509 56.0684 99.9509 57.4059C99.9509 57.6483 100.01 57.8823 100.09 58.0996C99.5537 58.6513 99.097 58.8435 98.4417 58.8435C97.1709 58.8435 96.7738 58.2417 96.7738 56.2439V50.9779H99.9906V50.376H96.7738V47.1746H96.2972C95.5228 48.7711 94.5895 49.8243 93.2393 50.5599V50.9779H94.9668V55.8511V57.1718C94.9668 58.7182 96.0987 59.8382 97.6475 59.8382C98.6006 59.8382 99.514 59.4036 100.288 58.5427C100.745 59.3117 101.619 59.8382 102.632 59.8382C103.604 59.8382 104.16 59.529 105.094 58.5845C105.431 59.4705 105.888 59.8382 106.662 59.8382C107.695 59.8382 108.45 59.0525 108.489 57.9492" fill="#2F6B9A"></path>
  <path d="M151.753 57.707V50.4348L148.239 50.7775V51.2289H148.755C149.629 51.2289 149.986 51.5967 149.986 52.4075V52.4577V52.8506V57.4396V58.2002C149.986 59.1448 149.648 59.4875 148.715 59.4875H148.497C147.444 59.4875 147.206 59.1699 147.206 57.7071V53.9038C147.206 51.7472 145.975 50.4349 144.049 50.4349C142.857 50.4349 141.785 51.02 140.713 52.2487V50.4098L137.377 50.7024V51.1453H137.635C138.687 51.1788 138.965 51.463 138.965 52.5078V53.3772V57.7071C138.965 59.1699 138.707 59.4875 137.655 59.4875H137.496C136.424 59.4875 135.987 58.8105 135.987 57.1052V56.6288V48.2114V47.7349C135.987 46.0381 136.424 45.3526 137.496 45.3526H137.675V44.9012H132.373V45.3526H132.472C133.545 45.3526 133.981 46.0381 133.981 47.7349V48.2114V56.7876C132.949 58.4176 131.42 59.2786 129.673 59.2786C128.322 59.2786 127.111 58.7018 126.515 57.7572C126.098 57.1052 125.92 56.1105 125.92 54.6895V48.2114V47.7349C125.92 46.0381 126.337 45.3526 127.429 45.3526H127.607V44.9012H122.187V45.3526H122.405C123.477 45.3526 123.894 46.0381 123.894 47.7349V48.2114V53.7199V54.957C123.894 58.1752 125.86 60.198 128.997 60.198C130.983 60.198 132.552 59.4374 133.981 57.8408V59.9305H137.397H137.675H142.262V59.4875H142.004C140.951 59.4875 140.713 59.1699 140.713 57.7071V53.1181C141.606 51.8559 142.421 51.3292 143.334 51.3292C144.784 51.3292 145.379 52.0899 145.379 53.954V57.7071C145.379 59.1699 145.141 59.4875 144.069 59.4875H143.811V59.9305H148.239H148.755H153.322V59.4875C151.932 59.4625 151.753 59.2535 151.753 57.7071" fill="#2F6B9A"></path>
  <path d="M162.754 51.1452C161.702 51.2287 161.344 51.4879 160.967 52.4324L160.808 52.8754L157.988 60.1476H157.571L154.573 52.8253C153.937 51.304 153.799 51.1786 152.627 51.1452V50.7021H157.134V51.1452C156.519 51.2037 156.221 51.4628 156.221 51.9058C156.221 52.1482 156.261 52.3237 156.499 52.959L158.465 57.6818L160.232 53.0342C160.431 52.5327 160.53 52.1733 160.53 51.9894C160.53 51.4628 160.272 51.2538 159.577 51.1786C159.537 51.1786 159.458 51.1452 159.358 51.1452V50.7021H162.754" fill="#2F6B9A"></path>
  <path d="M184.359 53.2435C184.339 53.1682 184.299 53.1181 184.279 53.0596C183.783 51.4631 183.147 50.9114 181.976 50.9114C181.063 50.9114 180.447 51.4129 180.447 52.1736C180.447 52.9844 180.904 53.4525 182.294 54.0543C183.664 54.6645 184.001 54.8484 184.418 55.2413C184.994 55.793 185.332 56.5536 185.332 57.3394C185.332 58.8857 184.001 60.173 182.373 60.173C181.877 60.173 181.241 60.0142 180.705 59.7551C180.387 59.5962 180.169 59.5377 180.01 59.5377C179.752 59.5377 179.553 59.6966 179.474 59.9891C179.474 60.0142 179.454 60.0978 179.414 60.173H178.978V56.9966H179.414C179.891 58.752 180.904 59.6966 182.393 59.6966C183.306 59.6966 184.021 59.0195 184.021 58.1C184.021 57.1053 183.465 56.6288 181.321 55.7094C179.812 55.0574 179.097 54.2466 179.097 53.093C179.097 51.6469 180.387 50.4349 181.936 50.4349C182.234 50.4349 182.552 50.4934 182.85 50.5687L183.465 50.7777C183.604 50.8027 183.704 50.8362 183.842 50.8362C184.081 50.8362 184.22 50.7275 184.359 50.4684H184.776V53.2435" fill="#2F6B9A"></path>
  <path d="M189.323 57.707C189.323 59.2533 189.501 59.4623 190.891 59.4874V59.9304H185.808V59.4874H186.285C187.218 59.4874 187.555 59.1446 187.555 58.2001V57.4395V52.8504V52.4576V52.4074C187.555 51.5966 187.198 51.2288 186.344 51.2288H185.808V50.7774L189.323 50.4347" fill="#2F6B9A"></path>
  <path d="M202.388 50.7024V51.1455C203.083 51.2039 203.322 51.438 203.322 52.0148C203.322 52.2488 203.282 52.508 203.143 52.9092L201.495 57.7824L199.43 53.0095C199.192 52.4076 199.112 52.1987 199.112 51.881C199.112 51.438 199.331 51.229 199.906 51.1455V50.7024H197.087H195.478H193.87V47.501H193.393C192.619 49.1059 191.666 50.1508 190.335 50.8863V51.3042H192.063V56.1858V57.4982C192.063 59.0446 193.195 60.173 194.724 60.173C195.776 60.173 196.749 59.6715 197.563 58.6768L197.265 58.3341C196.69 58.961 196.213 59.1699 195.538 59.1699C194.267 59.1699 193.87 58.5681 193.87 56.5787V51.3042H195.478V51.3128C196.531 51.3379 196.848 51.3881 197.345 52.4329L197.524 52.8509L200.661 60.1983L199.529 63.5586C199.013 65.13 198.278 65.8405 197.126 65.8405C196.809 65.8405 196.61 65.7821 196.233 65.6316L195.637 67.3619C196.134 67.5709 196.352 67.621 196.709 67.621C197.424 67.621 198.04 67.2783 198.596 66.6263C199.251 65.8406 199.45 65.3641 200.164 63.2911L203.54 53.3023C204.056 51.7475 204.652 51.1456 205.665 51.1456V50.7026" fill="#2F6B9A"></path>
  <path d="M148.96 22.5431C148.78 23.9912 148.568 28.4028 151.002 31.8664C153.239 35.0837 155.951 36.487 156.392 40.5403C156.457 41.242 156.457 41.9138 156.294 42.4065C151.23 39.0474 148.307 34.3671 148.307 27.5071C148.307 25.7081 148.535 24.1256 148.96 22.5431" fill="#2F6B9A"></path>
  <path d="M158.107 11.7087C156.961 12.4418 155.698 13.9738 155.277 14.7948C149.349 26.1128 161.357 30.9361 160.936 38.7135C160.869 40.1943 160.532 41.9022 159.69 43.3096C159.69 43.3096 158.208 42.8185 157.551 42.43C158.241 40.4655 158.275 39.1973 157.736 37.3134C156.608 33.443 151.118 29.2428 151.017 23.3346C150.949 18.7238 153.324 13.6293 158.107 11.7087" fill="#2F6B9A"></path>
  <path d="M167.337 26.1548H181.608C181.678 27.3141 181.713 28.0691 181.713 28.6106C181.713 34.9409 178.838 39.1967 173.824 42.4839C169.687 45.1838 165.461 45.1151 165.461 45.1151C168.144 42.4229 170.248 38.6247 170.037 34.3689C169.844 30.586 168.424 28.7174 167.337 26.1548" fill="#2F6B9A"></path>
  <path d="M165.565 9C164.537 9.58092 158.691 13.1645 160.576 21.4559C161.604 25.9976 167.507 31.1958 167.26 36.9975C167.088 41.1771 164.556 44.2552 163.87 45.1153C163.87 45.1153 162.461 45.0625 161.147 44.7456C162.004 43.5083 163.185 40.9432 163.432 38.7251C164.27 31.1203 156.082 27.8309 156.444 20.0828C156.692 14.6206 159.986 10.7579 165.565 9Z" fill="#2F6B9A"></path>
  <path d="M117.743 50.6101C119.311 50.6101 120.225 51.6549 120.225 53.4939H115.201C115.439 51.5295 116.273 50.6101 117.743 50.6101ZM121.456 57.9659C120.523 58.877 119.728 59.2949 118.874 59.2949C117.882 59.2949 116.809 58.6346 116.114 57.6148C115.439 56.6368 115.241 55.8009 115.161 53.9369H121.972V53.6277C122.012 51.7887 120.106 50.1085 118.001 50.1085C115.38 50.1085 113.315 52.2902 113.315 55.0653C113.315 56.2105 113.692 57.2219 114.307 58.016C113.732 58.6346 113.255 58.8435 112.58 58.8435C111.309 58.8435 110.912 58.2417 110.912 56.2439V50.9779H114.129V50.376H110.912V47.1746H110.435C109.661 48.7711 108.708 49.8243 107.377 50.5599V50.9779H109.105V55.8511V57.1718C109.105 58.7182 110.237 59.8382 111.786 59.8382C112.818 59.8382 113.791 59.3451 114.585 58.3504C115.499 59.2866 116.79 59.8382 118.319 59.8382C119.609 59.8382 120.562 59.5039 121.456 58.6513" fill="#2F6B9A"></path>
  <path d="M40.0823 50.6102C41.651 50.6102 42.5645 51.6551 42.5645 53.494H37.5407C37.7789 51.5297 38.6129 50.6102 40.0823 50.6102ZM43.7757 57.7905C42.7829 58.827 41.929 59.2951 41.0156 59.2951C40.0227 59.2951 38.9505 58.6347 38.2754 57.6149C37.5804 56.637 37.3818 55.8011 37.3024 53.937H44.1331V53.6278C44.153 51.7888 42.2467 50.1087 40.1419 50.1087C38.057 50.1087 36.3095 51.513 35.694 53.5024H29.7568V53.9705H30.3327C31.5836 53.9705 31.9808 54.5221 31.9808 56.3862V57.2388C31.9808 58.8688 31.3851 59.3619 29.4391 59.3619C25.8649 59.3619 23.224 56.4948 23.224 52.0897C23.224 48.0189 25.4677 45.1853 28.6845 45.1853C29.9752 45.1853 31.1468 45.7119 32.0999 46.5812C32.914 47.2917 33.3112 48.044 33.6289 49.3062H34.0061L33.887 44.876H33.4502C33.2516 45.2438 33.0531 45.3775 32.5963 45.3775C32.5169 45.3775 32.4573 45.3776 32.3779 45.3441C32.2389 45.3441 32.0801 45.3191 31.9411 45.2689C31.8219 45.2438 31.5638 45.1602 31.1667 45.0599C30.0944 44.7674 29.5185 44.642 28.7243 44.642C24.3756 44.642 21 48.2864 21 52.9758C21 57.5146 24.3955 60.0724 29.7171 60.0724C31.2262 60.0724 32.9736 59.8635 33.9664 59.596V56.4865C33.9664 54.5556 34.3437 53.9788 35.5748 53.9705C35.5153 54.3299 35.4756 54.6893 35.4756 55.0655C35.4756 57.849 37.5605 59.8384 40.4596 59.8384C41.8297 59.8384 42.8226 59.4622 43.7757 58.4842" fill="#2F6B9A"></path>
  <path d="M46.7741 54.8566C46.7741 57.6652 47.9853 59.3453 49.9511 59.3453C51.8772 59.3453 53.0686 57.6401 53.0686 54.8817C53.0686 52.1316 51.917 50.5351 49.8717 50.5351C47.9655 50.5351 46.7741 52.2068 46.7741 54.8566V54.8566ZM54.7962 54.9403C54.7962 57.7405 52.6318 59.8385 49.7327 59.8385C46.8336 59.8385 44.6494 57.7405 44.6494 54.9403C44.6494 52.1818 46.8336 50.0336 49.6334 50.0336C52.5325 50.0336 54.7962 52.1818 54.7962 54.9403Z" fill="#2F6B9A"></path>
  <path d="M166.367 50.9364C167.935 50.9364 168.849 51.9897 168.849 53.8203H163.825C164.063 51.856 164.897 50.9364 166.367 50.9364ZM170.06 58.309C169.147 59.2117 168.352 59.6213 167.498 59.6213C166.506 59.6213 165.433 58.9609 164.738 57.9412C164.063 56.9715 163.865 56.1357 163.785 54.2716H170.616V53.954C170.636 52.1151 168.73 50.4349 166.625 50.4349C164.023 50.4349 161.938 52.6166 161.938 55.4001C161.938 58.1753 164.043 60.173 166.942 60.173C168.233 60.173 169.166 59.8387 170.06 59.0028" fill="#2F6B9A"></path>
  <path d="M174.173 52.4078C175.96 50.8865 176.675 50.4351 177.37 50.4351C177.866 50.4351 178.561 50.6775 179.018 50.9868L178.303 52.7756L178.104 52.6669C177.131 52.1486 176.655 51.9564 176.139 51.9564C175.543 51.9564 175.007 52.2489 174.173 53.0597V57.7073C174.173 59.1701 174.411 59.4877 175.463 59.4877H175.722V59.9307H170.797V59.4877H171.035C172.108 59.4877 172.346 59.1701 172.346 57.7073V53.4025V52.7003C172.346 51.4131 172.088 51.1456 170.876 51.1456H170.519V50.7026L174.173 50.41" fill="#2F6B9A"></path>
  <path d="M204.611 58.3827C204.79 58.3827 204.909 58.316 204.909 58.1573C204.909 58.0237 204.81 57.9401 204.651 57.9401H204.254V58.3827H204.611V58.3827ZM204.016 57.7314H204.671C205.048 57.7314 205.167 57.9652 205.167 58.1238C205.167 58.366 204.988 58.5414 204.75 58.5581V58.5667C204.869 58.6085 204.969 58.742 205.088 58.9341L205.266 59.2264H204.969L204.85 58.9926C204.651 58.6586 204.592 58.6001 204.413 58.6001H204.254V59.2264H204.016V57.7316V57.7314ZM204.631 57.2971C203.977 57.2971 203.461 57.8149 203.461 58.4579C203.461 59.1009 203.977 59.6187 204.631 59.6187C205.266 59.6187 205.782 59.1009 205.782 58.4579C205.782 57.8149 205.266 57.2971 204.631 57.2971ZM204.631 59.8442C203.858 59.8442 203.243 59.2262 203.243 58.4579C203.243 57.6896 203.858 57.0717 204.631 57.0717C205.385 57.0717 206 57.6896 206 58.4579C206 59.2262 205.385 59.8442 204.631 59.8442Z" fill="#2F6B9A"></path>
</svg>
