<?xml version="1.0" encoding="UTF-8"?>
<svg xmlns="http://www.w3.org/2000/svg" width="225" height="76" viewBox="0 0 225 76" fill="none">
  <g clip-path="url(#clip0)">
    <path d="M29.8596 53.5474H21V23.5688H36.3226L53.9015 45.9498V23.5688H62.7611V53.5474H47.749L29.8596 30.7843V53.5474ZM105.15 44.277C105.15 48.4442 104.41 49.8814 103.184 51.259C101.305 53.3094 98.5698 53.9273 93.3005 53.9273H78.1734C72.9041 53.9273 70.1648 53.3094 68.288 51.259C67.0621 49.8814 66.3215 48.4442 66.3215 44.277V32.7203C66.3215 28.5553 67.0621 27.1205 68.288 25.7406C70.1671 23.6878 72.9041 23.0699 78.1734 23.0699H93.3005C98.5698 23.0699 101.305 23.6878 103.184 25.7406C104.41 27.1205 105.15 28.5553 105.15 32.7203V44.277ZM92.9279 46.332C94.9519 46.332 95.6649 46.213 96.1502 45.7736C96.6033 45.364 96.8034 44.8353 96.8034 43.0732V33.924C96.8034 32.1619 96.6033 31.6379 96.1502 31.226C95.6649 30.7843 94.9519 30.6676 92.9279 30.6676H78.5437C76.5197 30.6676 75.8067 30.7843 75.3237 31.226C74.8683 31.6379 74.6682 32.1619 74.6682 33.924V43.0732C74.6682 44.8353 74.8683 45.364 75.3237 45.7736C75.8067 46.213 76.5197 46.332 78.5437 46.332H92.9279ZM118.026 23.5688V53.5474H108.768V23.5688H118.026ZM133.666 23.5688H145.888L129.392 37.5901L147.997 53.5474H134.919L118.026 37.9128L133.666 23.5688ZM149.703 23.5688H158.963V53.5474H149.703V23.5688ZM194.261 53.5474L191.522 48.3252H173.607L170.9 53.5452H160.672L177.083 23.5688H188.592L205 53.5474H194.261ZM176.825 41.8146H188.337L182.58 30.9605L176.825 41.8146Z" fill="#2F6B9A"></path>
  </g>
  <defs>
    <clipPath id="clip0">
      <rect x="21" y="23" width="184" height="31" fill="white"></rect>
    </clipPath>
  </defs>
</svg>
