<svg xmlns="http://www.w3.org/2000/svg" height="95" viewBox="0 0 95 95" width="95">
  <g fill="none">
    <path d="m93.4677419 68h-91.93548384c-.8473387 0-1.53225806.672-1.53225806 1.5v3c0 .828.68491936 1.5 1.53225806 1.5h33.44306454l-16.2189516 18.5235c-.5516129.6285-.4780645 1.5765.1654838 2.115.2895968.243.6450807.3615.9975.3615.4305646 0 .8611291-.1785 1.1629839-.5235l17.9289516-20.4765h6.9564516v16.5c0 .828.6849194 1.5 1.5322581 1.5s1.5322581-.672 1.5322581-1.5v-16.5h6.9564516l17.9289516 20.4765c.3018548.345.7324193.5235 1.1629839.5235.3524193 0 .7079032-.1185.9959677-.3615.6435484-.5385.718629-1.4865.1654839-2.115l-16.2174194-18.5235h33.4430645c.8473387 0 1.5322581-.672 1.5322581-1.5v-3c0-.828-.6849194-1.5-1.5322581-1.5z" fill="#183059"></path>
    <path d="m85.48 6.0952381h-33.44v-4.57142858c0-.84114285-.68096-1.52380952-1.52-1.52380952h-3.04c-.83904 0-1.52.68266667-1.52 1.52380952v4.57142858h-33.44c-.83904 0-1.52.68266666-1.52 1.52380952v56.38095238h76v-56.38095238c0-.84114286-.68096-1.52380952-1.52-1.52380952z" fill="#bb1018"></path>
    <g fill="#edeae7">
      <path d="m33 50.4c0 .8832-.6705 1.6-1.5 1.6h-6c-.8295 0-1.5-.7168-1.5-1.6v-12.8c0-.8832.6705-1.6 1.5-1.6h6c.8295 0 1.5.7168 1.5 1.6z"></path>
      <path d="m53 50.5c0 .828-.6705 1.5-1.5 1.5h-6c-.8295 0-1.5-.672-1.5-1.5v-30c0-.828.6705-1.5 1.5-1.5h6c.8295 0 1.5.672 1.5 1.5z"></path>
      <path d="m73 50.4666667c0 .8464-.6705 1.5333333-1.5 1.5333333h-6c-.8295 0-1.5-.6869333-1.5-1.5333333v-19.9333334c0-.8464.6705-1.5333333 1.5-1.5333333h6c.8295 0 1.5.6869333 1.5 1.5333333z"></path>
    </g>
  </g>
</svg>