<?xml version="1.0" encoding="UTF-8"?>
<svg xmlns="http://www.w3.org/2000/svg" xmlns:xlink="http://www.w3.org/1999/xlink" width="500px" height="594px" viewBox="0 0 500 594">
  <!-- Generator: Sketch 59.1 (86144) - https://sketch.com -->
  <title>image</title>
  <desc>Created with Sketch.</desc>
  <defs>
    <rect id="path-1" x="0" y="0" width="500" height="594"></rect>
    <polygon id="path-3" points="0.827659574 0.414075286 1.24148936 0.414075286 1.24148936 0.828150573 0.827659574 0.828150573"></polygon>
    <polygon id="path-5" points="0.547993404 0.56413617 91.6161213 0.56413617 91.6161213 98.0995699 0.547993404 98.0995699"></polygon>
    <polygon id="path-7" points="0.348858511 0.596268412 161.167252 0.596268412 161.167252 33.5887106 0.348858511 33.5887106"></polygon>
    <polygon id="path-9" points="0.141991111 0.000967333333 27.7531022 0.000967333333 27.7531022 27 0.141991111 27"></polygon>
    <polygon id="path-11" points="3.32325063e-05 0.300074534 111.904374 0.300074534 111.904374 98.999754 3.32325063e-05 98.999754"></polygon>
  </defs>
  <g id="homepage" stroke="none" stroke-width="1" fill="none" fill-rule="evenodd">
    <g id="homepage---option-2-copy-4" transform="translate(-135.000000, -101.000000)">
      <g id="image" transform="translate(135.000000, 101.000000)">
        <mask id="mask-2" fill="white">
          <use xlink:href="#path-1"></use>
        </mask>
        <use id="Rectangle-Copy-2" fill="#EAF0F5" fill-rule="nonzero" xlink:href="#path-1"></use>
        <g id="Group-180" mask="url(#mask-2)">
          <g transform="translate(55.000000, 44.000000)">
            <g id="Group-15" transform="translate(115.348859, 8.042429)">
              <polygon id="Fill-1" fill="#D5E1EB" points="0.572215248 224.053623 142.057064 224.053623 142.057064 29.8415022 0.572215248 29.8415022"></polygon>
              <polygon id="Fill-2" fill="#ACC4D7" points="0.572215248 224.053623 55.0570637 224.053623 55.0570637 94.8718052 0.572215248 94.8718052"></polygon>
              <polygon id="Fill-3" fill="#ACC4D7" points="7.60251828 173.083926 43.6328213 173.083926 43.6328213 42.1445325 7.60251828 42.1445325"></polygon>
              <polygon id="Fill-4" fill="#82A6C2" points="13.4633011 58.7843736 19.3138314 58.7843736 19.3138314 52.9436761 13.4633011 52.9436761"></polygon>
              <polygon id="Fill-6" fill="#82A6C2" points="23.4133769 58.7843736 29.2639072 58.7843736 29.2639072 52.9436761 23.4133769 52.9436761"></polygon>
              <polygon id="Fill-7" fill="#82A6C2" points="33.3634526 58.7843736 39.2139829 58.7843736 39.2139829 52.9436761 33.3634526 52.9436761"></polygon>
              <polygon id="Fill-9" fill="#82A6C2" points="13.4633011 70.3736509 19.3138314 70.3736509 19.3138314 64.5329534 13.4633011 64.5329534"></polygon>
              <polygon id="Fill-11" fill="#82A6C2" points="23.4133769 70.3736509 29.2639072 70.3736509 29.2639072 64.5329534 23.4133769 64.5329534"></polygon>
              <polygon id="Fill-12" fill="#82A6C2" points="33.3634526 70.3736509 39.2139829 70.3736509 39.2139829 64.5329534 33.3634526 64.5329534"></polygon>
              <polygon id="Fill-14" fill="#82A6C2" points="13.4633011 81.9629282 19.3138314 81.9629282 19.3138314 76.1222307 13.4633011 76.1222307"></polygon>
              <polygon id="Fill-16" fill="#82A6C2" points="23.4133769 81.9629282 29.2639072 81.9629282 29.2639072 76.1222307 23.4133769 76.1222307"></polygon>
              <polygon id="Fill-17" fill="#82A6C2" points="33.3634526 81.9629282 39.2139829 81.9629282 39.2139829 76.1222307 33.3634526 76.1222307"></polygon>
              <polygon id="Fill-19" fill="#82A6C2" points="13.4633011 93.5514744 19.3138314 93.5514744 19.3138314 87.7107769 13.4633011 87.7107769"></polygon>
              <polygon id="Fill-21" fill="#82A6C2" points="23.4133769 93.5514744 29.2639072 93.5514744 29.2639072 87.7107769 23.4133769 87.7107769"></polygon>
              <polygon id="Fill-22" fill="#82A6C2" points="33.3634526 93.5514744 39.2139829 93.5514744 39.2139829 87.7107769 33.3634526 87.7107769"></polygon>
              <polygon id="Fill-24" fill="#82A6C2" points="13.4633011 105.140752 19.3138314 105.140752 19.3138314 99.3000542 13.4633011 99.3000542"></polygon>
              <polygon id="Fill-26" fill="#82A6C2" points="23.4133769 105.140752 29.2639072 105.140752 29.2639072 99.3000542 23.4133769 99.3000542"></polygon>
              <polygon id="Fill-27" fill="#82A6C2" points="33.3634526 105.140752 39.2139829 105.140752 39.2139829 99.3000542 33.3634526 99.3000542"></polygon>
              <polygon id="Fill-46" fill="#82A6C2" points="58.8524701 124.092397 64.663167 124.092397 64.663167 118.277525 58.8524701 118.277525"></polygon>
              <polygon id="Fill-48" fill="#82A6C2" points="68.7348006 124.092397 74.5454975 124.092397 74.5454975 118.277525 68.7348006 118.277525"></polygon>
              <polygon id="Fill-51" fill="#82A6C2" points="58.8524701 133.979862 64.663167 133.979862 64.663167 128.165718 58.8524701 128.165718"></polygon>
              <polygon id="Fill-29" fill="#82A6C2" points="13.4633011 116.729298 19.3138314 116.729298 19.3138314 110.8886 13.4633011 110.8886"></polygon>
              <polygon id="Fill-31" fill="#82A6C2" points="23.4133769 116.729298 29.2639072 116.729298 29.2639072 110.8886 23.4133769 110.8886"></polygon>
              <polygon id="Fill-32" fill="#82A6C2" points="33.3634526 116.729298 39.2139829 116.729298 39.2139829 110.8886 33.3634526 110.8886"></polygon>
              <polygon id="Fill-34" fill="#82A6C2" points="13.4633011 128.318575 19.3138314 128.318575 19.3138314 122.477878 13.4633011 122.477878"></polygon>
              <polygon id="Fill-36" fill="#82A6C2" points="23.4133769 128.318575 29.2639072 128.318575 29.2639072 122.477878 23.4133769 122.477878"></polygon>
              <polygon id="Fill-37" fill="#82A6C2" points="33.3634526 128.318575 39.2139829 128.318575 39.2139829 122.477878 33.3634526 122.477878"></polygon>
              <polygon id="Fill-39" fill="#82A6C2" points="13.4633011 139.494054 19.3138314 139.494054 19.3138314 133.653357 13.4633011 133.653357"></polygon>
              <polygon id="Fill-41" fill="#82A6C2" points="23.4133769 139.494054 29.2639072 139.494054 29.2639072 133.653357 23.4133769 133.653357"></polygon>
              <polygon id="Fill-42" fill="#82A6C2" points="33.3634526 139.494054 39.2139829 139.494054 39.2139829 133.653357 33.3634526 133.653357"></polygon>
              <polygon id="Fill-45" fill="#ACC4D7" points="49.7843365 224.053623 91.9661546 224.053623 91.9661546 109.811199 49.7843365 109.811199"></polygon>
              <polygon id="Fill-49" fill="#82A6C2" points="78.6171312 124.092397 84.4278281 124.092397 84.4278281 118.277525 78.6171312 118.277525"></polygon>
              <polygon id="Fill-53" fill="#82A6C2" points="68.7348006 133.979862 74.5454975 133.979862 74.5454975 128.165718 68.7348006 128.165718"></polygon>
              <polygon id="Fill-54" fill="#82A6C2" points="78.6171312 133.979862 84.4278281 133.979862 84.4278281 128.165718 78.6171312 128.165718"></polygon>
              <polygon id="Fill-56" fill="#82A6C2" points="58.8524701 143.868055 64.663167 143.868055 64.663167 138.053911 58.8524701 138.053911"></polygon>
              <polygon id="Fill-58" fill="#82A6C2" points="68.7348006 143.868055 74.5454975 143.868055 74.5454975 138.053911 68.7348006 138.053911"></polygon>
              <polygon id="Fill-59" fill="#82A6C2" points="78.6171312 143.868055 84.4278281 143.868055 84.4278281 138.053911 78.6171312 138.053911"></polygon>
              <path d="M128.828782,131.103211 L128.772777,131.415424 C128.650585,132.097343 128.811326,132.800367 129.216453,133.362205 L132.600753,138.050491 C132.653849,138.124723 132.553476,138.213511 132.486561,138.150195 L125.45612,131.556611 C125.023354,131.149788 124.311291,131.368119 124.181097,131.948878 L124.091635,132.345512 C123.985444,132.820017 124.119274,133.316355 124.450212,133.672234 L130.939515,140.65008 C131.001338,140.71558 130.918422,140.815284 130.843506,140.765796 L125.227736,137.113852 C124.743329,136.798729 124.119274,137.226657 124.23783,137.792133 L124.384752,138.487152 C124.463304,138.860497 124.660413,139.198182 124.945529,139.450718 L129.893604,143.821696 C129.961974,143.874096 129.904514,143.981806 129.823052,143.953423 L125.715779,142.548101 C125.394296,142.43748 125.048083,142.428747 124.721509,142.521174 L122.546043,143.998544 C122.546043,143.998544 122.087094,145.964975 124.680051,145.06327 C125.025536,144.943188 125.407388,144.999226 125.692504,145.227745 L128.022165,147.091561 L126.603858,149.106753 C126.069992,149.865815 125.024081,150.051396 124.261105,149.523036 L121.023727,147.278598 L108.642265,138.154562 C107.81892,137.547603 107.557806,136.432661 108.024756,135.522222 L114.465327,122.992229 C115.061016,121.832893 116.563695,121.499575 117.593604,122.297938 L128.855694,131.023156 C128.847693,131.050812 128.833874,131.0741 128.828782,131.103211" id="Fill-61" fill="#143059"></path>
              <path d="M43.3045464,157.257762 L34.3430247,145.887832 L40.8686941,142.379259 C47.2459867,137.829249 48.7297545,128.967938 44.1831697,122.586862 L44.5642944,123.15161 C39.0838086,115.387774 40.7064979,104.501082 48.5661037,98.7284209 C55.8612958,93.3705878 66.2069402,94.4833461 72.2001987,101.268334 C76.6558664,106.313226 77.6930493,113.11568 75.5968634,118.958935 C75.3575695,119.627026 74.8993471,120.195414 74.3087493,120.589864 L73.7617917,120.95666 C72.9238992,121.516314 72.4474934,122.47988 72.5100444,123.485656 L72.7078801,126.66455 C72.7558843,127.436712 72.5369558,128.201597 72.0874614,128.831117 L65.6192517,137.892565 C64.8446376,138.977668 63.5928903,139.622471 62.2596812,139.622471 L61.1774034,139.622471 C59.6434493,139.622471 58.3997026,140.866228 58.3997026,142.401092 C58.3997026,143.433068 59.155406,145.102569 59.9903891,145.582169 L62.8793725,157.150052 C63.355051,159.053167 62.7455424,161.07782 61.2625019,162.361604 C59.7569139,163.665765 57.4337988,164.817823 54.14478,164.268358 L50.5764637,163.115572 C50.4666358,163.064628 50.3575352,163.014412 50.2455253,162.959102 C47.5274662,161.623646 45.180349,159.637565 43.3045464,157.257762" id="Fill-66" fill="#988BB3"></path>
              <path d="M29.1384906,174.949891 C30.7044476,162.483214 26.5673536,156.409984 23.9991259,153.916649 C23.0484962,152.994566 21.6076412,152.739847 20.440265,153.363544 C20.433719,153.367183 20.4279003,153.370822 20.4213542,153.373733 L34.3433156,145.887904 L43.3048373,157.257835 C45.2490096,159.725698 47.7008633,161.77 50.5483885,163.104728 C50.5578439,163.108367 50.5672993,163.112006 50.5767546,163.115645 L54.1450709,164.26843 C57.4333624,164.817896 59.7572048,163.665838 61.2627928,162.361676 C62.7458334,161.077892 63.3546146,159.05324 62.8796634,157.150125 L59.9899527,145.581514 L62.298521,145.841327 L74.8181762,169.259468 C75.7869894,171.071612 76.2939434,173.095537 76.2939434,175.150756 L76.2939434,231.181667 L31.8187282,231.181667 L31.8187282,200.454545 C31.8187282,197.864416 31.2914087,195.301943 30.2680453,192.922867 L27.1143112,185.588414 L29.1384906,174.949891 Z" id="Fill-68" fill="#143059"></path>
              <path d="M74.6947471,151.673011 L94.4812283,174.009687 L118.156054,155.344604 C118.944488,154.723089 119.379435,153.73114 119.228877,152.737736 C118.737924,149.494071 121.023218,147.278015 121.023218,147.278015 L124.260595,149.522454 C125.023572,150.051542 126.07021,149.865961 126.604076,149.106898 L128.021656,147.091707 L125.692722,145.227891 C125.407606,144.999372 125.025027,144.943333 124.680269,145.063415 C122.087312,145.965121 122.546262,143.99869 122.546262,143.99869 L124.721,142.521319 C125.047574,142.428165 125.394514,142.437626 125.71527,142.547519 L129.82327,143.953568 C129.904005,143.981951 129.961464,143.874241 129.893822,143.821842 L124.945747,139.450863 C124.659904,139.198327 124.463522,138.860643 124.384243,138.487297 L124.238048,137.792278 C124.119492,137.226074 124.743547,136.798874 125.227954,137.113998 L130.842997,140.765941 C130.91864,140.81543 131.001557,140.715725 130.939733,140.650226 L124.45043,133.67238 C124.119492,133.316501 123.985662,132.820163 124.091853,132.34493 L124.181316,131.948296 C124.312236,131.368264 125.022845,131.149934 125.456338,131.556029 L132.486779,138.150341 C132.553694,138.212929 132.654067,138.124869 132.600244,138.050636 L129.216671,133.36235 C128.810817,132.800513 128.650803,132.097488 128.772995,131.415569 L128.829,131.103356 C128.95192,130.417071 129.82327,130.19219 130.261855,130.73365 L137.424671,140.196826 C138.01236,140.973355 138.051636,142.033714 137.524317,142.851726 L131.488873,152.209376 C131.403774,152.34183 131.302674,152.464095 131.18921,152.57326 L125.222863,158.295706 L98.481583,187.361331 C97.2894773,188.656032 95.5816895,189.467494 93.6833394,189.467494 C91.8999086,189.467494 90.2844927,188.750642 89.1062064,187.589851 L76.2868882,174.943414 C76.2541581,172.960245 75.7544774,171.010552 74.8176671,169.259541 L62.2987392,145.8414 C62.2987392,145.8414 69.9074136,146.2686 74.6947471,151.673011" id="Fill-70" fill="#988BB3"></path>
              <path d="M113.326026,0.486489408 L29.954272,0.486489408 C13.9513989,0.486489408 0.977885235,13.4676994 0.977885235,29.4800661 L142.30314,29.4800661 C142.30314,13.4676994 129.329627,0.486489408 113.326026,0.486489408" id="Fill-81" fill="#BDBFC1"></path>
              <path d="M29.954272,252.954395 L113.326026,252.954395 C129.329627,252.954395 142.30314,239.973185 142.30314,223.960091 L0.977885235,223.960091 C0.977885235,239.973185 13.9513989,252.954395 29.954272,252.954395" id="Fill-84" fill="#9DA0A1"></path>
              <path d="M85.2390273,17.5269021 L58.0417073,17.5269021 C56.6379465,17.5269021 55.4996638,16.3879441 55.4996638,14.9833505 C55.4996638,13.5787569 56.6379465,12.4405267 58.0417073,12.4405267 L85.2390273,12.4405267 C86.6427881,12.4405267 87.7810708,13.5787569 87.7810708,14.9833505 C87.7810708,16.3879441 86.6427881,17.5269021 85.2390273,17.5269021" id="Fill-86" fill="#7C797A"></path>
              <path d="M104.202308,14.9835688 C104.202308,16.8794063 102.666172,18.4171815 100.770731,18.4171815 C98.8760179,18.4171815 97.3391544,16.8794063 97.3391544,14.9835688 C97.3391544,13.0870036 98.8760179,11.5499562 100.770731,11.5499562 C102.666172,11.5499562 104.202308,13.0870036 104.202308,14.9835688" id="Fill-88" fill="#7C797A"></path>
              <path d="M142.542361,43.7603432 L142.542361,43.7603432 L142.542361,62.924676 C143.805746,62.924676 144.830564,61.8999777 144.830564,60.6358435 L144.830564,46.0491757 C144.830564,44.7850415 143.805746,43.7603432 142.542361,43.7603432" id="Fill-90" fill="#BDBFC1"></path>
              <path d="M142.542361,71.4472112 L142.542361,71.4472112 L142.542361,90.611544 C143.805746,90.611544 144.830564,89.5868457 144.830564,88.3227114 L144.830564,73.7367715 C144.830564,72.4719095 143.805746,71.4472112 142.542361,71.4472112" id="Fill-92" fill="#BDBFC1"></path>
              <path d="M75.5730068,238.893686 C75.5730068,234.824003 72.2759872,231.525028 68.2087176,231.525028 C64.141448,231.525028 60.8444284,234.824003 60.8444284,238.893686 C60.8444284,242.963368 64.141448,246.262344 68.2087176,246.262344 C72.2759872,246.262344 75.5730068,242.963368 75.5730068,238.893686" id="Fill-155" fill="#7C797A"></path>
              <polygon id="Fill-161" fill="#FFFFFF" points="78.3335424 64.5866813 132.615445 64.5866813 132.615445 100.539182 127.611365 100.539182 118.522559 112.096149 109.434481 100.539182 78.3335424 100.539182"></polygon>
              <path d="M48.5379557,118.15868 C48.215018,119.121518 48.0433664,120.379103 48.2768417,121.974372 C48.5641399,123.937164 47.8302566,125.913056 46.3588535,127.243417 C45.9355432,125.616854 45.2169341,124.037596 44.1833879,122.587153 L44.5645126,123.151901 C39.0920275,115.399709 40.7016247,104.534123 48.529955,98.7549117 C55.8062364,93.3839788 66.1547901,94.4661708 72.1633227,101.227142 C74.1089497,103.41627 75.4043373,105.939444 76.0807609,108.572511 C76.0603954,108.63801 73.4819851,117.0401 60.3542759,118.968687 C58.1708096,119.288905 56.1575403,120.430046 54.9196123,122.258201 C54.5028481,122.873894 54.1697277,123.563818 54.0140775,124.303959 C54.1762737,123.112602 54.4548439,120.118561 53.5478544,117.968733 C52.5928606,115.7061 49.3198432,115.830548 48.5379557,118.15868" id="Fill-163" fill="#143059"></path>
              <path d="M40.2460207,94.5385838 C43.4201202,89.0373803 49.0053426,86.3177087 52.720581,88.4638986 C54.9382322,89.7447715 55.9783244,92.4724485 55.7906714,95.6302368 C53.2406271,96.0916422 50.764044,97.1141572 48.5660309,98.7283481 C45.0828131,101.286455 42.8273404,104.849611 41.8694373,108.699507 C41.6497815,108.609264 41.4344897,108.506648 41.2257439,108.385839 C37.5105055,106.239649 37.0719211,100.040515 40.2460207,94.5385838" id="Fill-165" fill="#143059"></path>
              <path d="M55.0332224,129.875465 C55.0332224,127.254042 52.9093978,125.129685 50.2902565,125.129685 C47.6696606,125.129685 45.5465633,127.254042 45.5465633,129.875465 C45.5465633,132.496888 47.6696606,134.621972 50.2902565,134.621972 C52.9093978,134.621972 55.0332224,132.496888 55.0332224,129.875465 Z" id="Stroke-170" stroke="#FCCC75"></path>
              <path d="M99.6245206,83.4567772 C99.6245206,85.4363081 98.0207421,87.0417658 96.0416576,87.0417658 C94.0633004,87.0417658 92.4587945,85.4363081 92.4587945,83.4567772 C92.4587945,81.4765187 94.0633004,79.8717887 96.0416576,79.8717887 C98.0207421,79.8717887 99.6245206,81.4765187 99.6245206,83.4567772" id="Fill-171" fill="#ACC4D7"></path>
              <path d="M109.057139,83.4567772 C109.057139,85.4363081 107.45336,87.0417658 105.474276,87.0417658 C103.495918,87.0417658 101.891412,85.4363081 101.891412,83.4567772 C101.891412,81.4765187 103.495918,79.8717887 105.474276,79.8717887 C107.45336,79.8717887 109.057139,81.4765187 109.057139,83.4567772" id="Fill-172" fill="#ACC4D7"></path>
              <path d="M118.489829,83.4567772 C118.489829,85.4363081 116.886051,87.0417658 114.906966,87.0417658 C112.928609,87.0417658 111.324103,85.4363081 111.324103,83.4567772 C111.324103,81.4765187 112.928609,79.8717887 114.906966,79.8717887 C116.886051,79.8717887 118.489829,81.4765187 118.489829,83.4567772" id="Fill-173" fill="#ACC4D7"></path>
              <path d="M16.0155091,223.960236 L28.0260284,223.960236 L24.4329826,202.245802 C24.252603,201.500567 24.2336922,200.724765 24.3769776,199.971525 L29.1381269,174.95011 C31.1186661,159.185184 23.9783968,153.644681 22.4248046,152.63745 C21.7163781,152.791737 21.0428639,153.039906 20.4217179,153.373951 C18.2760732,154.527465 16.737755,156.665649 16.4104532,159.184457 L11.0914363,200.082873 C11.0550694,200.361609 11.036886,200.644711 11.036886,200.932907 C11.036886,201.746553 11.1852628,202.525265 11.4572869,203.243573 L16.0155091,223.960236 Z" id="Fill-174" fill="#988BB3"></path>
            </g>
            <g id="Group-44" transform="translate(119.000000, 60.000000)">
              <g id="Group-8"></g>
              <g id="Group-13" transform="translate(0.000000, 13.310924)"></g>
              <g id="Group-18" transform="translate(0.000000, 26.621849)"></g>
              <g id="Group-23" transform="translate(0.000000, 39.100840)"></g>
              <g id="Group-28" transform="translate(0.000000, 52.411765)"></g>
              <g id="Group-33" transform="translate(0.000000, 65.722689)"></g>
              <g id="Group-38" transform="translate(0.000000, 79.033613)"></g>
              <g id="Group-43" transform="translate(0.000000, 91.512605)"></g>
            </g>
            <g id="Group-179">
              <g id="Group-50" transform="translate(182.497872, 134.160393)"></g>
              <g id="Group-55" transform="translate(170.497872, 145.754501)"></g>
              <g id="Group-60" transform="translate(170.497872, 156.520458)"></g>
              <g id="Group-65" transform="translate(0.000000, 503.515548)">
                <mask id="mask-4" fill="white">
                  <use xlink:href="#path-3"></use>
                </mask>
                <g id="Clip-64"></g>
                <path d="" id="Fill-63" fill="#143059" mask="url(#mask-4)"></path>
              </g>
              <g id="Group-74" transform="translate(297.129787, 402.481178)">
                <mask id="mask-6" fill="white">
                  <use xlink:href="#path-5"></use>
                </mask>
                <g id="Clip-73"></g>
                <path d="M74.2345253,0.56413617 L65.5854828,0.56413617 L22.3170955,0.56413617 C10.2945126,0.56413617 0.547993404,10.3164373 0.547993404,22.3469807 L0.547993404,77.2657859 C0.547993404,81.1779692 1.46338489,85.0454324 3.28506362,88.5062736 C5.07777426,91.912457 4.67056574,95.5016615 3.90663596,98.0995699 L91.616204,98.0995699 L91.616204,17.9561264 C91.616204,8.35040786 83.8345487,0.56413617 74.2345253,0.56413617" id="Fill-72" fill="#BDBFC1" mask="url(#mask-6)"></path>
              </g>
              <path d="M340.394202,251.3967 C337.638923,249.864622 336.646559,246.388046 338.176902,243.631133 C341.093574,238.493286 342.200155,232.320252 340.480278,226.223408 C337.195297,214.580439 324.974076,207.725008 313.33801,211.008625 C302.860668,213.965951 296.344504,223.996511 297.408874,234.415473 C297.609995,236.369908 298.278744,238.25892 299.395257,239.87547 C301.394055,242.771512 300.731927,245.500268 300.004414,247.079552 C299.673351,247.800043 300.101251,248.638131 300.882561,248.773119 L302.868944,249.116802 C303.334089,249.197133 303.600595,249.691538 303.413544,250.123833 L302.934329,251.230242 C302.846597,251.434795 302.955021,251.672475 303.166902,251.738727 L305.583668,252.497313 C305.780651,252.557768 305.849346,252.800416 305.715266,252.95528 L305.090383,253.679083 C304.724557,254.102268 304.917402,254.760648 305.45207,254.921309 L306.685283,255.289836 C307.027106,255.391699 307.317614,255.618612 307.500527,255.925028 L308.402676,257.438059 C309.430629,259.163925 311.486536,259.986278 313.419949,259.445496 L317.378644,258.339087 C321.316649,257.238475 325.363076,260.030998 325.546817,264.117093 C325.550955,264.216471 325.553438,264.316678 325.553438,264.416884 C325.553438,265.574638 325.252997,266.662828 324.724951,267.605264 L340.394202,251.3967 Z" id="Fill-75" fill="#43597A"></path>
              <path d="M340.378807,225.875667 C336.920018,214.350296 324.70128,207.696934 313.153773,211.06171 C304.944218,213.454237 299.201916,220.206148 297.691437,228.054531 L312.944375,231.969199 C315.138501,232.53317 316.891484,234.182017 317.589201,236.338521 L319.245348,241.461461 C320.453731,245.198904 317.697624,249.082931 313.771207,249.084587 C313.671888,249.084587 313.571741,249.083759 313.470767,249.081274 C310.100537,249.006741 306.789899,247.961615 303.370837,249.46388 C303.484226,249.656011 303.510711,249.897831 303.413875,250.123916 L302.93466,251.230325 C302.846101,251.434878 302.954524,251.671729 303.167233,251.738809 L305.583999,252.497395 C305.780154,252.55785 305.84885,252.800499 305.714769,252.955363 L305.089886,253.679166 C304.724888,254.101523 304.916905,254.760731 305.452401,254.921392 L306.685614,255.289919 C307.026609,255.391782 307.317946,255.618695 307.500031,255.925111 L308.40218,257.438142 C309.430133,259.164008 311.486867,259.986361 313.42028,259.445579 L317.378975,258.33917 C318.800067,257.941657 320.232746,258.053458 321.495754,258.547864 C324.79315,256.390531 327.283577,253.315608 328.097167,248.954567 C328.471269,246.947958 328.343809,244.879238 327.771069,242.919834 L326.025535,236.950525 C325.566184,235.377039 326.305284,233.663595 327.808314,233.011841 C328.523411,232.702112 329.404869,232.626751 330.451858,233.079749 C331.461603,233.517012 332.175046,234.446197 332.367063,235.530246 L332.810688,238.029605 C333.111956,239.719032 334.126667,241.195625 335.597418,242.079261 L338.177233,243.630387 C341.149358,238.396476 342.241041,232.08514 340.378807,225.875667" id="Fill-77" fill="#143059"></path>
              <path d="M344.28594,232.460044 C343.21081,232.460044 342.191133,232.69441 341.271604,233.111798 C341.101933,236.84096 339.991214,240.435962 338.176984,243.630967 L338.032144,243.544011 C339.311706,245.659936 341.633291,247.075245 344.28594,247.075245 C348.319125,247.075245 351.589208,243.803222 351.589208,239.767645 C351.589208,235.732067 348.319125,232.460044 344.28594,232.460044" id="Fill-79" fill="#143059"></path>
              <g id="Group-83" transform="translate(105.112766, 0.000000)">
                <mask id="mask-8" fill="white">
                  <use xlink:href="#path-7"></use>
                </mask>
                <g id="Clip-82"></g>
              </g>
              <path d="M376.427272,337.272023 C374.662701,328.844762 373.43611,320.313155 372.754946,311.730203 L369.881312,275.533397 C369.916074,275.970661 369.933455,276.412065 369.933455,276.85761 C369.933455,279.767731 369.180284,282.502284 367.857684,284.875764 L337.682044,339.056687 C335.749459,342.529122 332.042372,344.877757 327.788201,344.877757 L324.316997,344.877757 L327.788201,362.531443 L381.718499,362.531443 L376.427272,337.272023 Z" id="Fill-94" fill="#FCCC75"></path>
              <polygon id="Fill-96" fill="#FCCC75" points="315.820658 290.141063 312.390009 303.200997 317.702756 303.200997"></polygon>
              <path d="M273.13875,447.490417 L266.255106,398.740505 C266.152476,398.011733 266.098678,397.266397 266.098678,396.509467 C266.098678,389.725258 270.37354,383.93897 276.374899,381.701307 L271.838497,383.215994 C268.265491,384.408531 265.438206,387.177039 264.168576,390.724836 L239.14015,469.903484 L264.910986,469.903484 L273.13875,447.490417 Z" id="Fill-98" fill="#539E65"></path>
              <path d="M214.928625,496.88347 C214.878137,497.173323 214.851652,497.468973 214.851652,497.771247 L214.851652,500.645758 L262.576159,500.645758 C262.576159,500.645758 263.507276,499.136868 264.170231,496.88347 L214.928625,496.88347 Z" id="Fill-100" fill="#FCCC75"></path>
              <path d="M263.545514,498.658694 C263.575309,498.584988 263.605105,498.512111 263.635729,498.435093 C263.605105,498.512111 263.575309,498.584988 263.545514,498.658694" id="Fill-102" fill="#43597A"></path>
              <path d="M263.278014,499.279807 C263.305327,499.219352 263.331812,499.158897 263.36078,499.095129 C263.33264,499.158897 263.305327,499.219352 263.278014,499.279807" id="Fill-104" fill="#43597A"></path>
              <path d="M263.409695,498.981341 C263.438663,498.915089 263.466803,498.848009 263.496599,498.777616 C263.466803,498.848009 263.438663,498.915089 263.409695,498.981341" id="Fill-106" fill="#43597A"></path>
              <path d="M263.786363,498.04081 C263.866646,497.823835 263.945273,497.596094 264.022246,497.358414 C263.945273,497.596094 263.866646,497.823835 263.786363,498.04081" id="Fill-108" fill="#43597A"></path>
              <path d="M262.587746,500.627125 C262.590229,500.622984 262.594367,500.615531 262.598506,500.609734 C262.594367,500.614702 262.589401,500.623812 262.587746,500.627125" id="Fill-110" fill="#43597A"></path>
              <path d="M264.043434,497.294316 C264.070746,497.210672 264.096404,497.123717 264.122889,497.037589 C264.096404,497.123717 264.070746,497.210672 264.043434,497.294316" id="Fill-112" fill="#43597A"></path>
              <path d="M264.169486,496.88347 C264.934244,494.283905 265.341452,490.695529 263.548741,487.289346 C261.727063,483.827676 260.810844,479.960213 260.810844,476.048858 L260.810844,469.903153 L242.979746,469.903153 C241.633971,476.507653 236.751607,489.903817 219.169635,492.676465 C216.973854,493.022632 215.298671,494.750982 214.929535,496.88347 L264.169486,496.88347 Z" id="Fill-114" fill="#43597A"></path>
              <path d="M214.872013,497.317007 C214.879462,497.230051 214.893532,497.143923 214.905119,497.058624 C214.893532,497.143923 214.879462,497.230051 214.872013,497.317007" id="Fill-116" fill="#43597A"></path>
              <path d="M263.67885,498.323872 C263.711128,498.239401 263.743407,498.155758 263.776513,498.067974 C263.744235,498.155758 263.711128,498.239401 263.67885,498.323872" id="Fill-118" fill="#43597A"></path>
              <path d="M262.740532,500.359466 C262.75543,500.332966 262.771155,500.303152 262.787709,500.273339 C262.771155,500.303152 262.75543,500.332966 262.740532,500.359466" id="Fill-120" fill="#43597A"></path>
              <path d="M262.670181,500.48402 C262.681768,500.464973 262.695011,500.440956 262.708253,500.417768 C262.695011,500.440128 262.681768,500.464973 262.670181,500.48402" id="Fill-122" fill="#43597A"></path>
              <path d="M262.620025,500.572136 C262.627474,500.559713 262.636578,500.543978 262.644854,500.529072 C262.636578,500.543978 262.627474,500.559713 262.620025,500.572136" id="Fill-124" fill="#43597A"></path>
              <path d="M263.152706,499.549866 C263.177536,499.497693 263.203194,499.443863 263.228023,499.389205 C263.203194,499.443863 263.177536,499.497693 263.152706,499.549866" id="Fill-126" fill="#43597A"></path>
              <path d="M263.032282,499.798146 C263.055456,499.75177 263.078631,499.704565 263.102633,499.654876 C263.078631,499.704565 263.054629,499.75177 263.032282,499.798146" id="Fill-128" fill="#43597A"></path>
              <path d="M262.823712,500.204188 C262.84192,500.170234 262.861784,500.133795 262.88082,500.0957 C262.861784,500.133795 262.84192,500.170234 262.823712,500.204188" id="Fill-130" fill="#43597A"></path>
              <path d="M262.922369,500.016529 C262.94306,499.97595 262.964579,499.933714 262.986926,499.89065 C262.964579,499.933714 262.94306,499.97595 262.922369,500.016529" id="Fill-132" fill="#43597A"></path>
              <path d="M384.561676,376.10773 L381.717837,362.531029 L327.788367,362.531029 L276.374982,381.701059 C270.373622,383.938721 266.098761,389.725009 266.098761,396.510047 C266.098761,397.266977 266.152559,398.011484 266.255188,398.740257 L274.455639,469.903235 L280.352714,469.903235 L297.677284,469.903235 L297.677284,424.827828 C297.677284,412.798113 307.424631,403.044983 319.447214,403.044983 L362.714773,403.044983 C375.042763,403.044983 385.035924,393.045893 385.035924,380.711419 C385.035924,379.132964 384.872048,377.593432 384.561676,376.10773" id="Fill-134" fill="#7EB68B"></path>
              <path d="M40.0580613,426.967852 C46.008106,430.655606 55.0734613,428.651482 59.8043634,423.863115 C67.1423932,416.435433 62.5025336,407.223086 65.5408719,398.663321 C68.0768209,391.519695 77.0238209,390.852205 78.3422826,383.675452 C79.4745209,377.515668 73.5360634,372.236209 74.8462485,365.97539 C70.3677826,369.773289 63.466757,367.698772 58.7474421,371.01303 C52.299974,375.540529 56.6534634,383.139639 52.3934996,389.031102 C47.5425868,395.740778 37.9309762,396.539943 33.6221804,404.136569 C29.6163081,411.199037 31.5546868,422.288801 39.0996315,426.409678" id="Fill-136" fill="#7EB68B"></path>
              <path d="M39.9481481,426.421107 C46.1150396,423.108504 48.9133566,414.251434 47.1338885,407.757077 C44.3744715,397.68511 34.0808694,397.099608 28.1912438,390.187035 C23.2757736,384.418138 27.1715672,376.331247 21.6196268,371.600023 C16.8547906,367.538773 9.31563957,370.045585 4.55163106,365.778953 C5.60027574,371.559444 0.353741702,376.501846 0.86275234,382.248383 C1.55798638,390.100079 10.311314,390.125752 13.2809566,396.76255 C16.6627736,404.321909 12.5484779,413.049788 16.9690077,420.581817 C21.0791651,427.584658 31.6458949,431.449637 38.98558,426.972655" id="Fill-138" fill="#7EB68B"></path>
              <path d="M40.0297553,439.659425 C47.025134,439.912011 53.8781553,432.477703 55.5872723,424.757683 C58.2374383,412.785939 49.6190191,406.089513 47.9785979,395.506577 C46.6096489,386.674351 54.0279617,380.680197 51.5880213,372.536165 C49.4948702,365.545746 41.7148702,363.65425 39.7243489,356.453481 C37.7396213,363.007464 30.726034,364.973494 28.2910596,371.173857 C24.9655234,379.643353 32.5303319,384.854904 31.7813,393.426263 C30.9271553,403.186845 22.9990043,409.709359 23.0574431,420.057929 C23.1123936,429.679382 30.3262745,439.904557 38.9206915,439.656112" id="Fill-140" fill="#539E65"></path>
              <path d="M35.6909983,504.343285 L43.5049323,504.343285 C60.4835409,504.343285 74.5206472,490.812133 74.8186047,473.825936 C74.822743,473.615586 74.8243983,473.406064 74.8243983,473.194885 C74.8243983,469.236326 74.1722026,465.430974 72.9696132,461.879036 L59.9290089,423.362581 L19.2669217,423.362581 L6.22631745,461.879036 C5.02372809,465.430974 4.37153234,469.236326 4.37153234,473.194885 C4.37153234,473.406064 4.37318766,473.615586 4.37732596,473.825936 C4.6752834,490.812133 18.7123898,504.343285 35.6909983,504.343285" id="Fill-142" fill="#EFA376"></path>
              <g id="Group-11" transform="translate(28.000000, 406.000000)">
                <path d="M8.23852157,90.820205 C9.03278432,90.4321147 9.92790582,89.5595219 9.99694605,87.5989339 L12.6462896,75.2136076 C13.1133617,73.0302949 14.2966511,71.0733682 16.0022448,69.6637951 L21.6449323,65 C22.6697293,68.2169996 24.6538853,70.9952619 27.2612044,72.9778173 C28.4721098,74.2012778 29.356425,75.5638651 30,76.9569626 L18.7674558,83.9377053 C18.1803137,84.3026077 17.7240479,84.8505716 17.4670982,85.4992193 L13.0575292,96.6305748 C12.490799,98.0621153 11.1250033,99 9.60611835,99 L7,99 L7,92.8058113 C7,91.955796 7.48448226,91.1887686 8.23852157,90.820205" id="Fill-1" fill="#FCBB47"></path>
                <g id="Group-5" transform="translate(80.000000, 72.000000)">
                  <mask id="mask-10" fill="white">
                    <use xlink:href="#path-9"></use>
                  </mask>
                  <g id="Clip-4"></g>
                  <path d="M5.84154667,4.72872067 C8.23212444,3.68828733 10.2842133,2.04604067 11.8011911,0.000967333333 L22.2987022,22.0793873 L23.4778133,22.0793873 C25.8391467,22.0793873 27.7531022,23.945494 27.7531022,26.247794 L27.7531022,27.0000607 L19.8029689,27.0000607 C18.6051911,27.0000607 17.46528,26.4959207 16.6763022,25.6174673 L0.141991111,7.20938067 L5.84154667,4.72872067 Z" id="Fill-3" fill="#FCBB47" mask="url(#mask-10)"></path>
                </g>
                <g id="Group-8">
                  <mask id="mask-12" fill="white">
                    <use xlink:href="#path-11"></use>
                  </mask>
                  <g id="Clip-7"></g>
                  <path d="M0.546547826,1.93056149 C0.686547826,0.897518012 1.6275913,0.176232298 2.65202609,0.31766087 C3.67463478,0.459704348 4.38924348,1.41219503 4.24863478,2.44523851 C2.39211304,16.0807975 5.47333043,27.6441205 13.4058522,36.8160708 C19.3674174,43.7085615 25.9979391,46.6152261 26.0636783,46.6435118 C26.3156783,46.7517354 26.5305478,46.9097665 26.7052435,47.1010025 C29.4206348,44.8522882 32.8628087,43.4736671 36.5947217,43.401723 C37.3330696,43.3875801 38.0604609,43.4238596 38.7738522,43.5056422 L77.0315913,47.9477292 C80.580287,48.3597168 84.0589826,46.7314435 86.0396783,43.7282385 C90.5105478,36.9482758 97.4722,25.4636609 97.4722,25.4636609 L99.244113,31.8476236 L106.332374,34.6263876 C107.172983,34.9553627 107.726287,35.7725739 107.726287,36.6832509 L107.726287,37.8687913 L111.904374,40.682605 L110.9262,44.9869528 C110.461157,47.0321329 108.660026,48.4808534 106.583765,48.4808534 L103.928635,48.4808534 L93.6374174,69.7756919 C92.1351565,72.7149466 89.6735913,75.0724994 86.6708957,76.4259093 L74.7550696,81.7995801 C73.5796783,82.3290149 72.6763739,83.3294683 72.2612435,84.5598969 L68.9876783,94.268046 C71.1552435,94.268046 72.9125478,96.043282 72.9125478,98.2323503 L72.9125478,98.999754 L67.3575913,98.999754 C65.1115043,98.999754 63.2908957,97.1605677 63.2908957,94.8921764 L63.2908957,77.345195 C63.2908957,75.8847913 62.1191565,74.7010957 60.6735043,74.7010957 L50.3774174,74.7010957 C48.6529826,74.7010957 47.0776783,75.6867913 46.3095043,77.2455801 L41.7735043,86.4495056 C41.2390696,87.536046 41.4302,88.8439528 42.2537652,89.726959 L46.1287217,93.8843441 L47.724113,93.8843441 C49.3998522,93.8843441 50.7578522,95.2562012 50.7578522,96.9490398 L50.7578522,98.999754 L43.4967217,98.999754 C42.3925478,98.999754 41.3364609,98.5465677 40.570113,97.7441143 L33.3266348,90.1586236 C32.1835043,88.9614 31.5693304,87.3460398 31.636287,85.6839466 C31.7659391,82.5011888 31.3179391,76.8649528 27.2445478,72.7770522 C23.1699391,69.6963689 20.5835913,64.7156236 20.7728957,59.135959 C20.8909826,55.6691143 22.1016783,52.4679093 24.062287,49.869313 C22.2514174,48.9998348 16.2813304,45.8263006 10.706287,39.4331143 C4.68324348,32.5240211 -1.9698,20.4097416 0.546547826,1.93056149" id="Fill-6" fill="#FCCC75" mask="url(#mask-12)"></path>
                </g>
                <path d="M98.0407157,60 L101,54.2472111 L85.3579793,44 C83.7896401,45.9342555 81.4979343,47.1825078 79,47.5264019 L98.0407157,60 Z" id="Fill-9" fill="#143059"></path>
              </g>
              <polygon id="Fill-144" fill="#FCCC75" points="70.1714617 344.877509 84.7084745 344.877509 84.7084745 320.93402 70.1714617 320.93402"></polygon>
              <polygon id="Fill-146" fill="#539E65" points="77.0261383 320.93402 77.8537979 320.93402 77.8537979 284.680072 77.0261383 284.680072"></polygon>
              <path d="M77.4397198,317.277486 L75.8770985,311.440681 C75.1818645,308.846914 71.9415772,307.978184 70.0437538,309.876305 C68.1459304,311.775254 69.0141453,315.018292 71.6063751,315.71311 L77.4397198,317.277486 Z" id="Fill-147" fill="#539E65"></path>
              <path d="M77.4397198,296.938522 L75.8770985,291.101717 C75.1818645,288.507121 71.9415772,287.63922 70.0437538,289.537341 C68.1459304,291.43629 69.0141453,294.6785 71.6063751,295.374146 L77.4397198,296.938522 Z" id="Fill-148" fill="#539E65"></path>
              <path d="M77.4283809,308.957223 L78.9918298,303.120418 C79.6862362,300.525822 82.9265234,299.65792 84.8243468,301.556042 C86.7221702,303.454991 85.8539553,306.6972 83.2617255,307.392847 L77.4283809,308.957223 Z" id="Fill-149" fill="#539E65"></path>
              <path d="M77.4283809,296.938522 L78.9918298,291.101717 C79.6862362,288.507121 82.9265234,287.63922 84.8243468,289.537341 C86.7221702,291.43629 85.8539553,294.6785 83.2617255,295.374146 L77.4283809,296.938522 Z" id="Fill-150" fill="#539E65"></path>
              <path d="M79.482963,284.100532 C79.482963,282.971763 78.5683991,282.055828 77.4394715,282.055828 C76.3105438,282.055828 75.39598,282.971763 75.39598,284.100532 C75.39598,285.229301 76.3105438,286.145236 77.4394715,286.145236 C78.5683991,286.145236 79.482963,285.229301 79.482963,284.100532" id="Fill-151" fill="#FCCC75"></path>
              <path d="M361.082463,262.233051 C358.799778,261.038029 356.202582,260.36143 353.446476,260.36143 C346.281427,260.36143 340.184059,264.935306 337.911306,271.32366 L326.568231,303.20166 L357.651814,303.20166 L367.858512,284.876344 C369.180284,282.502864 369.933455,279.768311 369.933455,276.857362 C369.933455,276.411817 369.916074,275.970412 369.881312,275.533977 C369.421961,269.743548 365.974759,264.796177 361.082463,262.233051" id="Fill-152" fill="#FCCC75"></path>
              <polygon id="Fill-153" fill="#7C797A" points="104.16013 504.343699 110.668017 504.343699 110.668017 350.962759 104.16013 350.962759"></polygon>
              <polygon id="Fill-154" fill="#7C797A" points="259.572251 504.343699 266.080138 504.343699 266.080138 350.962759 259.572251 350.962759"></polygon>
              <path d="M311.014687,332.634711 C313.119425,332.546099 314.980832,331.24259 315.786144,329.294779 L326.568066,303.201411 L312.399361,303.201411 L301.61744,329.294779 C300.812127,331.24259 298.043606,333.180462 295.938868,333.269074 L311.014687,332.634711 Z" id="Fill-156" fill="#143059"></path>
              <polygon id="Fill-157" fill="#F8A97A" points="39.597717 350.962759 338.032723 350.962759 338.032723 344.877509 39.597717 344.877509"></polygon>
              <path d="M226.400235,332.426845 L229.598311,329.662478 L218.727003,329.662478 C218.044184,329.662478 217.736294,330.61568 218.262686,331.100976 C219.192147,331.958112 220.359975,332.426845 221.565047,332.426845 L226.400235,332.426845 Z" id="Fill-158" fill="#143059"></path>
              <path d="M326.568066,303.201411 L315.786144,329.294779 C314.980832,331.24259 313.119425,332.546099 311.014687,332.634711 L251.24194,335.149804 C249.337496,335.149804 247.448776,334.810262 245.663515,334.146914 L232.94487,329.41983 C231.645444,328.93619 230.187936,329.159791 229.092115,330.009473 L218.96901,337.859513 L221.475991,337.859513 C222.686857,337.859513 223.874549,337.529081 224.911606,336.903827 L229.372691,334.213994 C229.379313,334.209853 229.386761,334.205712 229.393383,334.2024 C229.976883,333.858717 230.488376,334.76637 229.912325,335.122475 L225.135902,338.06655 C224.554885,338.424311 224.792423,339.398216 225.495106,339.534861 C226.735768,339.776681 227.975602,339.563018 229.0019,338.931139 L233.118679,336.392858 L233.224619,336.058285 C235.51227,339.037971 239.264879,343.346838 248.843383,340.843339 C249.88044,340.572534 250.973779,340.604004 252.041459,340.6951 L278.851836,344.877261 L334.532634,344.877261 L357.652476,303.201411 L326.568066,303.201411 Z" id="Fill-159" fill="#43597A"></path>
              <path d="M320.258817,320.933854 L320.258817,320.933854 L337.91114,271.323494 C340.183893,264.93514 346.281261,260.361265 353.447138,260.361265 C356.202417,260.361265 358.799613,261.037864 361.082298,262.232885 L340.394119,251.396535 L324.724868,267.605098 L317.657483,280.235222 C315.974023,283.24555 315.328449,286.726266 315.820906,290.140731 L320.258817,320.933854 Z" id="Fill-160" fill="#FCCC75"></path>
              <polygon id="Fill-162" fill="#ACC4D7" points="236.520525 272.616403 294.765412 272.616403 294.765412 311.193313 289.395557 311.193313 279.644072 323.594039 269.891759 311.193313 236.520525 311.193313"></polygon>
              <path d="M165.812988,141.492093 C165.762501,141.86476 165.721946,142.083392 165.721946,142.083392 C165.739326,141.88298 165.772433,141.686708 165.812988,141.492093" id="Fill-164" fill="#143059"></path>
              <path d="M251.852422,500.58108 C251.801935,500.870932 251.77545,501.16741 251.77545,501.468857 L251.77545,504.343368 L299.499956,504.343368 C299.499956,504.343368 300.431073,502.834477 301.094028,500.58108 L251.852422,500.58108 Z" id="Fill-166" fill="#FCCC75"></path>
              <path d="M301.035927,500.58108 C301.800684,497.982343 302.207893,494.393967 300.415182,490.987783 C298.593503,487.526114 297.677284,483.658651 297.677284,479.747296 L297.677284,469.90307 L280.352714,469.90307 C280.352714,469.90307 279.577197,492.662304 256.036076,496.374075 C253.840295,496.720242 252.165112,498.448592 251.795976,500.58108 L301.035927,500.58108 Z" id="Fill-167" fill="#43597A"></path>
              <path d="M297.368815,492.766982 C297.368815,494.786013 295.732532,496.42161 293.716354,496.42161 C291.69852,496.42161 290.063892,494.786013 290.063892,492.766982 C290.063892,490.748779 291.69852,489.112354 293.716354,489.112354 C295.732532,489.112354 297.368815,490.748779 297.368815,492.766982" id="Fill-168" fill="#EAF0F5"></path>
              <path d="M266.807651,295.389798 L262.871302,295.389798 L263.590538,289.898332 L267.526887,289.898332 L266.807651,295.389798 Z M273.203804,289.898332 L273.203804,287.663981 L270.100909,287.663981 L271.046096,280.431742 L268.813898,280.431742 L267.829811,287.663981 L263.893462,287.663981 L264.840304,280.431742 L262.644523,280.431742 L261.660436,287.663981 L258.065083,287.663981 L258.065083,289.898332 L261.320268,289.898332 L260.601032,295.389798 L257.15714,295.389798 L257.15714,297.62332 L260.260864,297.62332 L259.275949,305.046034 L261.547874,305.046034 L262.531134,297.62332 L266.467483,297.62332 L265.482568,305.046034 L267.754494,305.046034 L268.737753,297.62332 L272.333106,297.62332 L272.333106,295.389798 L269.078749,295.389798 L269.759913,289.898332 L273.203804,289.898332 Z" id="Fill-169" fill="#FFFFFF"></path>
              <path d="M308.922115,250.945441 C306.516937,250.346688 304.442822,250.566148 303.089598,250.871736 L302.934826,251.230325 C302.846266,251.434878 302.953862,251.671729 303.167398,251.738809 L305.584164,252.497395 C305.78032,252.55785 305.849015,252.800499 305.714934,252.955363 L305.090051,253.679166 C304.725054,254.102351 304.917071,254.760731 305.452566,254.921392 L306.685779,255.289919 C307.026775,255.391782 307.318111,255.618695 307.500196,255.925111 L308.027415,256.809575 C308.300543,256.804607 308.5596,256.783075 308.798794,256.742495 C311.911622,256.210823 311.986939,251.70734 308.922115,250.945441" id="Fill-175" fill="#43597A"></path>
              <path d="M278.851588,344.877426 L334.532386,344.877426 L357.652228,303.201577 L326.567817,303.201577 L315.785896,329.294945 C314.980583,331.242755 313.119177,332.545436 311.014439,332.634876 L251.24252,335.14997 C249.338075,335.14997 247.449356,334.810428 245.663266,334.147079 L232.944622,329.419996 C231.645196,328.936356 230.187688,329.159956 229.091866,330.009639 L218.968762,337.85885 L221.476571,337.85885 C222.687437,337.85885 223.8743,337.529246 224.911358,336.903992 L229.373271,334.214159 C229.379892,334.210019 229.386513,334.205878 229.393134,334.201737 C229.976634,333.858055 230.488128,334.766536 229.912077,335.122641 L225.136481,338.065888 C224.554637,338.424477 224.793003,339.398382 225.494858,339.535027 C226.73552,339.776847 227.975354,339.563184 229.002479,338.930477 L233.11843,336.393024 L233.224371,336.058451 C235.384562,338.873335 240.329,343.05301 247.972437,341.868755 C249.095571,341.694844 250.240224,341.701469 251.369979,341.826519 L278.851588,344.877426 Z" id="Fill-176" fill="#43597A"></path>
              <path d="M234.42067,337.514671 L203.337914,337.514671 L196.330949,298.104641 L123.153427,298.104641 L131.468923,344.877757 L172.207983,344.877757 L204.647272,344.877757 L235.346821,344.877757 L235.346821,338.482779 C235.011619,338.156487 234.698763,337.825227 234.42067,337.514671" id="Fill-177" fill="#BDBFC1"></path>
              <path d="M167.858714,323.516938 C167.858714,327.272601 164.81541,330.318539 161.061974,330.318539 C157.30771,330.318539 154.264406,327.272601 154.264406,323.516938 C154.264406,319.760447 157.30771,316.715338 161.061974,316.715338 C164.81541,316.715338 167.858714,319.760447 167.858714,323.516938" id="Fill-178" fill="#FFFFFF"></path>
            </g>
          </g>
        </g>
      </g>
    </g>
  </g>
</svg>
