<?xml version="1.0" encoding="UTF-8"?>
<svg xmlns="http://www.w3.org/2000/svg" xmlns:xlink="http://www.w3.org/1999/xlink" width="436px" height="190px" viewBox="0 0 436 190">
  <!-- Generator: Sketch 59.1 (86144) - https://sketch.com -->
  <title>CRMTools-Illustration</title>
  <desc>Created with Sketch.</desc>
  <defs>
    <filter x="-19.1%" y="-29.2%" width="138.2%" height="160.1%" filterUnits="objectBoundingBox" id="filter-1">
      <feMorphology radius="1.5" operator="dilate" in="SourceAlpha" result="shadowSpreadOuter1"></feMorphology>
      <feOffset dx="0" dy="5" in="shadowSpreadOuter1" result="shadowOffsetOuter1"></feOffset>
      <feGaussianBlur stdDeviation="9" in="shadowOffsetOuter1" result="shadowBlurOuter1"></feGaussianBlur>
      <feColorMatrix values="0 0 0 0 0   0 0 0 0 0   0 0 0 0 0  0 0 0 0.1 0" type="matrix" in="shadowBlurOuter1" result="shadowMatrixOuter1"></feColorMatrix>
      <feMerge>
        <feMergeNode in="shadowMatrixOuter1"></feMergeNode>
        <feMergeNode in="SourceGraphic"></feMergeNode>
      </feMerge>
    </filter>
  </defs>
  <g id="CRMTools-Illustration" stroke="none" stroke-width="1" fill="none" fill-rule="evenodd">
    <rect id="Rectangle" fill="#FFFFFF" opacity="0" x="0" y="0" width="436" height="190"></rect>
    <g id="Hootsuite-CRMTools-Illustration" transform="translate(87.000000, -5.000000)">
      <g id="Group-33-Copy">
        <g id="Fill-1" filter="url(#filter-1)" transform="translate(0.000000, 19.340909)" fill="#E8E2D9">
          <g id="path-1-link">
            <polygon id="path-1" points="1.14861423 0.768409091 0 145.875937 211.547828 145.875937 222.052449 164.022409 232.557072 145.875937 254.532531 145.875937 255.681145 0.768409091"></polygon>
          </g>
        </g>
        <polygon id="Fill-2" fill="#FFFFFE" fill-rule="nonzero" points="12.284122 100.309273 244.539732 100.309273 244.539732 31.2402727 12.284122 31.2402727"></polygon>
        <polygon id="Fill-3" fill="#FFFFFE" fill-rule="nonzero" points="12.284122 149.970455 244.539732 149.970455 244.539732 30.9548636 12.284122 30.9548636"></polygon>
        <g id="Group-32" transform="translate(18.808163, 0.000000)" fill-rule="nonzero">
          <path d="M6.30737011,40.5749166 C6.30737011,42.1944597 4.99182643,43.507276 3.36891875,43.507276 C1.74601098,43.507276 0.430467307,42.1944597 0.430467307,40.5749166 C0.430467307,38.9553735 1.74601098,37.6425573 3.36891875,37.6425573 C4.99182643,37.6425573 6.30737011,38.9553735 6.30737011,40.5749166" id="Fill-4" fill="#B95559"></path>
          <path d="M15.9346246,40.5749166 C15.9346246,42.1944597 14.6190809,43.507276 12.9961732,43.507276 C11.3732655,43.507276 10.0577218,42.1944597 10.0577218,40.5749166 C10.0577218,38.9553735 11.3732655,37.6425573 12.9961732,37.6425573 C14.6190809,37.6425573 15.9346246,38.9553735 15.9346246,40.5749166" id="Fill-6" fill="#F7C873"></path>
          <path d="M25.5621979,40.5749166 C25.5621979,42.1944597 24.2466543,43.507276 22.6237465,43.507276 C21.0008388,43.507276 19.6852951,42.1944597 19.6852951,40.5749166 C19.6852951,38.9553735 21.0008388,37.6425573 22.6237465,37.6425573 C24.2466543,37.6425573 25.5621979,38.9553735 25.5621979,40.5749166" id="Fill-8" fill="#4F965F"></path>
          <g id="Fill-10-Clipped" transform="translate(1.044898, 51.227273)" fill="#E8E2D9">
            <polygon id="Fill-10" points="0.445720302 88.0711093 66.9345602 88.0711093 66.9345602 0.156328203 0.445720302 0.156328203"></polygon>
          </g>
          <g id="Fill-12-Clipped" transform="translate(75.187755, 51.227273)" fill="#E8E2D9">
            <polygon id="Fill-12" points="0.00965678267 88.0711093 66.4984973 88.0711093 66.4984973 0.156328203 0.00965678267 0.156328203"></polygon>
          </g>
          <g id="Fill-13-Clipped" transform="translate(148.375510, 51.227273)" fill="#E8E2D9">
            <polygon id="Fill-13" points="0.529333134 88.0711093 67.0181737 88.0711093 67.0181737 0.156328203 0.529333134 0.156328203"></polygon>
          </g>
          <g id="Fill-14-Clipped" transform="translate(16.718367, 71.090909)" fill="#6F5E8A">
            <path d="M20.6957759,27.2739154 L21.5885346,20.1447439 L14.7429886,20.1447439 L13.8495923,27.2739154 L20.6957759,27.2739154 Z M5.66427056,35.293995 L0.306443155,35.293995 L0.306443155,27.2739154 L6.5570292,27.2739154 L7.45042558,20.1447439 L1.79479941,20.1447439 L1.79479941,12.1246643 L8.49176478,12.1246643 L9.98012104,0.392045455 L17.1241036,0.392045455 L15.7843279,12.1246643 L22.6305115,12.1246643 L24.1188677,0.392045455 L31.2628502,0.392045455 L29.9230745,12.1246643 L35.7272812,12.1246643 L35.7272812,20.1447439 L28.8810976,20.1447439 L27.9883389,27.2739154 L34.238925,27.2739154 L34.238925,35.293995 L27.0955802,35.293995 L25.4586434,48.6607932 L18.1660804,48.6607932 L19.8030172,35.293995 L12.9568335,35.293995 L11.3198967,48.6607932 L4.02733375,48.6607932 L5.66427056,35.293995 Z" id="Fill-14"></path>
          </g>
          <g id="Fill-15-Clipped" transform="translate(82.546939, 72.136364)" fill="#FCBB47">
            <path d="M48.9848845,4.71695448 C43.1915191,-1.06503669 33.7614365,-1.06503669 27.9667947,4.71695448 C27.6460396,5.03768203 27.3380374,5.37495416 27.0440654,5.72877178 C26.7507298,5.37431748 26.4427285,5.03768203 26.1206979,4.71568203 C20.3266934,-1.06567338 10.897249,-1.06567338 5.10260724,4.71568203 C-0.692033602,10.4976741 -0.691396322,19.9075688 5.10260724,25.6901967 L26.2348434,46.7786207 C26.4580324,47.0013477 26.7507298,47.1133479 27.0434272,47.1133479 C27.3361246,47.1133479 27.6281838,47.0013477 27.8513738,46.7786207 L48.9836099,25.6901967 C54.7795262,19.9082055 54.7795262,10.4989466 48.9848845,4.71695448" id="Fill-15"></path>
          </g>
        </g>
      </g>
      <g id="like-2" transform="translate(182.000000, 70.000000)" fill="#143059" fill-rule="nonzero">
        <path d="M36.2620053,18.3562167 L24.538199,18.3562167 L24.538199,6.11873889 C24.538199,1.52968472 22.3570258,0 19.0852659,0 C18.2673259,0 17.449386,0.611873889 17.449386,1.52968472 C17.449386,1.52968472 11.1785129,24.4749556 10.9058662,24.4749556 L10.9058662,48.9499111 L34.3534787,48.9499111 C37.8978852,48.9499111 40.8969984,45.8905417 41.4422917,41.9133614 L43.623465,27.8402619 C43.8961116,25.3927664 43.3508183,22.9452708 41.987585,21.4155861 C40.6243517,19.2740275 38.4431785,18.3562167 36.2620053,18.3562167 Z" id="Path"></path>
        <rect id="Rectangle" x="0" y="24.4749556" width="5.45293312" height="24.4749556"></rect>
      </g>
    </g>
  </g>
</svg>
