<svg preserveAspectRatio="xMidYMid slice" xmlns="http://www.w3.org/2000/svg" height="115px" viewBox="0 0 80 80" width="115px">
  <g fill="none" fill-rule="evenodd">
    <path d="m0 0h80v80h-80z" fill="#fff" stroke="#fff"></path>
    <g fill-rule="nonzero">
      <path d="m70.2428736 24.9231824-29.9120233-13.830567c-.2672141-.1234872-.576305-.1234872-.8435191 0l-29.91202328 13.830567c-.35096775.1620152-.57530792.5107431-.57530792.8950353s.22434017.73302.57530792.8950352l29.91202328 13.8305671c.1336071.0622375.2771848.0928623.4217596.0928623.1445747 0 .2881524-.0306248.4217595-.0928623l10.5459823-4.8762628v25.3988484l-4.7998826 6.6574422c-.2163637.3013088-.2462757.6964679-.0747801 1.0264257.1704985.3289699.5124927.5354405.886393.5354405h9.9706744c.3739003 0 .7158944-.2064706.886393-.5354405.1704985-.3299578.1415835-.7251169-.0747801-1.0264257l-4.7998827-6.6574422v-26.3205569l17.3719061-8.0325958c.3509677-.1620152.5753079-.510743.5753079-.8950352s-.2243402-.7330201-.5753079-.8950353z" fill="#fba919"></path>
      <path d="m48.7402595 39.3752931-7.5101142 3.4883267c-.3827429.1769301-.8092.2716795-1.2327429.2716795-.4235428 0-.85-.0947494-1.2337142-.2716795l-19.1662857-8.902581v15.9420784c0 5.421022 8.9604571 9.6683111 20.3999999 9.6683111 3.1513143 0 6.1034857-.331623 8.7428571-.9126885z" fill="#143059"></path>
      <path d="m54.9220777 36.6921047v20.229973c3.8389091-1.7511583 6.1818181-4.1702137 6.1818181-6.882754v-16.0782849z" fill="#143059"></path>
    </g>
  </g>
</svg>