<svg preserveAspectRatio="xMidYMid slice" xmlns="http://www.w3.org/2000/svg" xmlns:xlink="http://www.w3.org/1999/xlink" height="185px" viewBox="0 0 100 102" width="185px">
  <mask id="a" fill="#fff">
    <path d="m0 .66283937h43.478v21.82534963h-43.478z" fill="#fff" fill-rule="evenodd"></path>
  </mask>
  <mask id="b" fill="#fff">
    <path d="m.52144.66283937h43.4784v21.82534963h-43.4784z" fill="#fff" fill-rule="evenodd"></path>
  </mask>
  <g fill="none" fill-rule="evenodd">
    <g fill="#143059">
      <path d="m39.4476 6.73063465c-3.4736-2.7668504-9.3672-6.06779528-17.7088-6.06779528-8.3408 0-14.2344 3.30094488-17.708 6.06779528-2.5616 2.04080315-4.0312 5.13694485-4.0312 8.49411025v5.0807244c0 1.2055276.9736 2.1829606 2.1744 2.1829606h39.1304c1.2 0 2.1736-.977433 2.1736-2.1829606v-5.0807244c0-3.3571654-1.4696-6.4533071-4.0304-8.49411025" mask="url(#a)" transform="translate(0 79.311024)"></path>
      <path d="m21.46472 48.1399039c7.204 0 13.044 5.8629922 13.044 13.0945512 0 7.2323622-5.84 13.0945512-13.044 13.0945512-7.2032 0-13.0432-5.862189-13.0432-13.0945512 0-7.231559 5.84-13.0945512 13.0432-13.0945512"></path>
      <path d="m39.96944 6.73063465c-3.4736-2.7668504-9.3672-6.06779528-17.7088-6.06779528s-14.2344 3.30094488-17.708 6.06779528c-2.5616 2.04080315-4.0312 5.13694485-4.0312 8.49411025v5.0807244c0 1.2055276.9736 2.1829606 2.1744 2.1829606h39.1304c1.2 0 2.1736-.977433 2.1736-2.1829606v-5.0807244c0-3.3571654-1.4696-6.4533071-4.0304-8.49411025" mask="url(#b)" transform="translate(56 79.311024)"></path>
      <path d="m77.98664 48.1399039c7.204 0 13.044 5.8629922 13.044 13.0945512 0 7.2323622-5.84 13.0945512-13.044 13.0945512s-13.044-5.862189-13.044-13.0945512c0-7.231559 5.84-13.0945512 13.044-13.0945512"></path>
    </g>
    <path d="m89.33272.00032126h-50.9424c-1.4736 0-2.6672 1.19829921-2.6672 2.67770079v30.79355905c0 1.4794016 1.1936 2.6777008 2.6672 2.6777008h11.2016v12.0496535c0 .7397008.5968 1.3388504 1.3336 1.3388504.2776 0 .5488-.0875433.7752-.2489764l18.3216-13.1395275h19.3104c1.4736 0 2.6672-1.1982992 2.6672-2.6777008v-30.79355905c0-1.47940158-1.1936-2.67770079-2.6672-2.67770079" fill="#fba919"></path>
  </g>
</svg>