<?xml version="1.0" encoding="UTF-8"?>
<svg xmlns="http://www.w3.org/2000/svg" xmlns:xlink="http://www.w3.org/1999/xlink" width="70px" height="68px" viewBox="0 0 70 68">
  <title>Engage_Icon</title>
  <g id="HS-Platform-Page" stroke="none" stroke-width="1" fill="none" fill-rule="evenodd">
    <g id="Hootsuite_PlatformPages_MonitorPage_V1.1" transform="translate(-161.000000, -3456.000000)">
      <g id="Section---Powerful-Features" transform="translate(0.000000, 3257.000000)">
        <g id="Engage" transform="translate(65.000000, 163.000000)">
          <g id="Engage_Icon" transform="translate(96.000000, 36.000000)">
            <g id="a-heart" transform="translate(0.534884, 0.411765)">
              <path d="M31.0268041,38.7234688 C40.1608004,38.7234688 47.2453608,28.3157919 47.2453608,19.3617344 L47.2453608,16.383006 C47.2453608,7.35001225 39.9691265,0 31.0268041,0 C22.0844817,0 14.8082474,7.35001225 14.8082474,16.383006 L14.8082474,19.3617344 C14.8082474,28.3157919 21.8928079,38.7234688 31.0268041,38.7234688 Z" id="Path" fill="#143059"></path>
              <path d="M39.1361269,57.2574127 C35.3789873,53.4513417 34.7111505,47.688163 37.1207175,43.1791554 C35.2376855,43.0409713 33.2862338,42.9478472 31.2351271,42.9478472 C21.4867927,42.9478472 13.4965497,44.7322246 8.51082844,46.2297198 C3.42099011,47.7587571 0,52.3894268 0,57.7515711 L0,63.9758642 C0,64.8049688 0.666349378,65.4778654 1.487387,65.4778654 L47.2453608,65.4778654 L39.1361269,57.2574127 Z" id="Path" fill="#143059"></path>
              <path d="M65.842758,42.7150447 C63.9793098,40.8393923 61.4107731,39.9119698 58.781504,40.1780093 C56.8069599,40.3756811 54.9909126,41.230277 53.5911045,42.5842543 C52.1927777,41.230277 50.3767304,40.3771673 48.4021863,40.1780093 C45.7758798,39.9060248 43.2043805,40.8393923 41.3409323,42.7150447 C37.9310294,46.1482911 37.9310294,51.7351195 41.3409323,55.1683659 L52.5408781,66.4490329 C52.8178772,66.7284486 53.1956032,66.8859915 53.5896232,66.8859915 C53.9836433,66.8859915 54.3613693,66.7284486 54.6383683,66.4490329 L65.8412767,55.1683659 C69.2526608,51.7351195 69.2526608,46.1482911 65.842758,42.7150447 Z" id="Path" fill="#FFA600" fill-rule="nonzero"></path>
            </g>
          </g>
        </g>
      </g>
    </g>
  </g>
</svg>
