<?xml version="1.0" encoding="UTF-8"?>
<svg xmlns="http://www.w3.org/2000/svg" xmlns:xlink="http://www.w3.org/1999/xlink" width="436px" height="190px" viewBox="0 0 436 190">
  <!-- Generator: Sketch 59.1 (86144) - https://sketch.com -->
  <title>hs_AutomaticCompliance_Illustration</title>
  <desc>Created with Sketch.</desc>
  <defs>
    <filter x="-37.4%" y="-35.0%" width="182.8%" height="169.9%" filterUnits="objectBoundingBox" id="filter-1">
      <feMorphology radius="1.5" operator="dilate" in="SourceAlpha" result="shadowSpreadOuter1"></feMorphology>
      <feOffset dx="0" dy="5" in="shadowSpreadOuter1" result="shadowOffsetOuter1"></feOffset>
      <feGaussianBlur stdDeviation="9" in="shadowOffsetOuter1" result="shadowBlurOuter1"></feGaussianBlur>
      <feColorMatrix values="0 0 0 0 0   0 0 0 0 0   0 0 0 0 0  0 0 0 0.1 0" type="matrix" in="shadowBlurOuter1" result="shadowMatrixOuter1"></feColorMatrix>
      <feMerge>
        <feMergeNode in="shadowMatrixOuter1"></feMergeNode>
        <feMergeNode in="SourceGraphic"></feMergeNode>
      </feMerge>
    </filter>
    <rect id="path-2" x="0" y="0" width="130.29345" height="139.0914" rx="2.05011088"></rect>
    <rect id="path-4" x="-4.76291007e-14" y="-5.95363758e-15" width="109.270712" height="96.1116277" rx="2.05011088"></rect>
    <rect id="path-6" x="-4.76291007e-14" y="-5.95363758e-15" width="109.270712" height="96.1116277" rx="2.05011088"></rect>
    <filter x="-37.4%" y="-35.0%" width="182.8%" height="169.9%" filterUnits="objectBoundingBox" id="filter-8">
      <feMorphology radius="1.5" operator="dilate" in="SourceAlpha" result="shadowSpreadOuter1"></feMorphology>
      <feOffset dx="0" dy="5" in="shadowSpreadOuter1" result="shadowOffsetOuter1"></feOffset>
      <feGaussianBlur stdDeviation="9" in="shadowOffsetOuter1" result="shadowBlurOuter1"></feGaussianBlur>
      <feColorMatrix values="0 0 0 0 0   0 0 0 0 0   0 0 0 0 0  0 0 0 0.1 0" type="matrix" in="shadowBlurOuter1" result="shadowMatrixOuter1"></feColorMatrix>
      <feMerge>
        <feMergeNode in="shadowMatrixOuter1"></feMergeNode>
        <feMergeNode in="SourceGraphic"></feMergeNode>
      </feMerge>
    </filter>
    <rect id="path-9" x="0" y="0" width="130.29345" height="139.0914" rx="2.05011088"></rect>
    <rect id="path-11" x="-4.76291007e-14" y="-5.95363758e-15" width="109.270712" height="96.1116277" rx="2.05011088"></rect>
    <rect id="path-13" x="-4.76291007e-14" y="-5.95363758e-15" width="109.270712" height="96.1116277" rx="2.05011088"></rect>
    <filter x="-31.8%" y="-108.9%" width="163.3%" height="315.9%" filterUnits="objectBoundingBox" id="filter-15">
      <feMorphology radius="1.5" operator="dilate" in="SourceAlpha" result="shadowSpreadOuter1"></feMorphology>
      <feOffset dx="0" dy="5" in="shadowSpreadOuter1" result="shadowOffsetOuter1"></feOffset>
      <feGaussianBlur stdDeviation="9" in="shadowOffsetOuter1" result="shadowBlurOuter1"></feGaussianBlur>
      <feColorMatrix values="0 0 0 0 0   0 0 0 0 0   0 0 0 0 0  0 0 0 0.1 0" type="matrix" in="shadowBlurOuter1" result="shadowMatrixOuter1"></feColorMatrix>
      <feMerge>
        <feMergeNode in="shadowMatrixOuter1"></feMergeNode>
        <feMergeNode in="SourceGraphic"></feMergeNode>
      </feMerge>
    </filter>
    <path d="M18.2950347,9.32627316e-15 L18.2949966,0.309665282 C24.1081166,4.31188782 31.3917949,5.44160242 36.1225021,5.6734964 C36.7599227,19.0249486 30.8333456,29.2641235 18.3427708,36.3910208 C18.3425693,36.4878526 18.3426909,36.5848102 18.3428126,36.6819608 L18.084,36.536 L17.8261137,36.6819608 C17.82619,36.5844738 17.8262662,36.4871811 17.8263423,36.3900827 C5.33621501,29.2640736 -0.590402477,19.02483 0.0463284399,5.67328798 C4.77164736,5.44140567 12.048935,4.31179913 17.855703,0.310334399 L17.8558082,0.224774053 C17.8558975,0.151431723 17.8559733,0.0960377379 17.8560358,0.0585920976 L17.8561878,9.32627316e-15 C17.9290462,0.0526999664 18.0021583,0.104928422 18.0755159,0.156689413 L18.2950347,9.32627316e-15 L18.2950347,9.32627316e-15 Z" id="path-16"></path>
    <path d="M18.2950347,9.32627316e-15 L18.2949966,0.309665282 C24.1081166,4.31188782 31.3917949,5.44160242 36.1225021,5.6734964 C36.7599227,19.0249486 30.8333456,29.2641235 18.3427708,36.3910208 C18.3425693,36.4878526 18.3426909,36.5848102 18.3428126,36.6819608 L18.084,36.536 L17.8261137,36.6819608 C17.82619,36.5844738 17.8262662,36.4871811 17.8263423,36.3900827 C5.33621501,29.2640736 -0.590402477,19.02483 0.0463284399,5.67328798 C4.77164736,5.44140567 12.048935,4.31179913 17.855703,0.310334399 L17.8558082,0.224774053 C17.8558975,0.151431723 17.8559733,0.0960377379 17.8560358,0.0585920976 L17.8561878,9.32627316e-15 C17.9290462,0.0526999664 18.0021583,0.104928422 18.0755159,0.156689413 L18.2950347,9.32627316e-15 L18.2950347,9.32627316e-15 Z" id="path-18"></path>
    <filter x="-37.4%" y="-35.0%" width="182.8%" height="169.9%" filterUnits="objectBoundingBox" id="filter-20">
      <feMorphology radius="1.5" operator="dilate" in="SourceAlpha" result="shadowSpreadOuter1"></feMorphology>
      <feOffset dx="0" dy="5" in="shadowSpreadOuter1" result="shadowOffsetOuter1"></feOffset>
      <feGaussianBlur stdDeviation="9" in="shadowOffsetOuter1" result="shadowBlurOuter1"></feGaussianBlur>
      <feColorMatrix values="0 0 0 0 0   0 0 0 0 0   0 0 0 0 0  0 0 0 0.1 0" type="matrix" in="shadowBlurOuter1" result="shadowMatrixOuter1"></feColorMatrix>
      <feMerge>
        <feMergeNode in="shadowMatrixOuter1"></feMergeNode>
        <feMergeNode in="SourceGraphic"></feMergeNode>
      </feMerge>
    </filter>
    <rect id="path-21" x="0" y="0" width="130.29345" height="139.0914" rx="2.05011088"></rect>
    <rect id="path-23" x="-4.76291007e-14" y="-5.95363758e-15" width="109.270712" height="96.1116277" rx="2.05011088"></rect>
    <rect id="path-25" x="-4.76291007e-14" y="-5.95363758e-15" width="109.270712" height="96.1116277" rx="2.05011088"></rect>
  </defs>
  <g id="hs_AutomaticCompliance_Illustration" stroke="none" stroke-width="1" fill="none" fill-rule="evenodd">
    <rect id="Rectangle" fill="#FFFFFF" opacity="0" x="0" y="0" width="436" height="190"></rect>
    <g id="Hootsuite_AutomaticCompliance_Illustration" transform="translate(23.000000, 8.000000)">
      <g id="Group-4" transform="translate(0.000000, 10.000000)">
        <g id="Group-3" transform="translate(0.000000, 22.950000)">
          <g id="Group-18" filter="url(#filter-1)" transform="translate(150.000000, 0.050000)">
            <g id="Rectangle" fill="#FFFFFF">
              <g id="path-1-link">
                <rect id="path-1" x="0" y="0" width="130.29345" height="139.0914" rx="2.05011088"></rect>
              </g>
            </g>
            <g id="Group-17-Clipped">
              <mask id="mask-3" fill="white">
                <use xlink:href="#path-2"></use>
              </mask>
              <use id="path-1" fill="#FFFFFF" xlink:href="#path-2"></use>
              <g id="Group-17" mask="url(#mask-3)">
                <g transform="translate(10.000000, 9.000000)" id="Group">
                  <g transform="translate(0.425068, 0.889251)">
                    <g id="Group-14" transform="translate(0.000000, 23.640360)">
                      <g id="Rectangle" fill="#143059" fill-rule="nonzero">
                        <rect id="path-4" x="-4.76291007e-14" y="-5.95363758e-15" width="109.270712" height="96.1116277" rx="2.05011088"></rect>
                      </g>
                      <g id="Oval-Clipped">
                        <mask id="mask-5" fill="white">
                          <use xlink:href="#path-4"></use>
                        </mask>
                        <g id="path-4"></g>
                        <ellipse id="Oval" fill="#7EA2BD" fill-rule="nonzero" mask="url(#mask-5)" cx="48.4355993" cy="38.7546886" rx="3.87484795" ry="3.87546886"></ellipse>
                      </g>
                      <g id="Path-Clipped">
                        <mask id="mask-7" fill="white">
                          <use xlink:href="#path-6"></use>
                        </mask>
                        <g id="path-4"></g>
                        <path d="M71.2286555,61.204803 L60.3541182,41.7454403 C60.2638595,41.5838195 60.0974791,41.4794957 59.9120683,41.4681444 C59.7201327,41.4594958 59.548315,41.5405765 59.4390259,41.689765 L52.1808159,51.6118778 L55.8678278,56.8005006 L46.0818317,49.1529711 C45.9611243,49.0572959 45.8056184,49.0172961 45.6528312,49.0421608 C45.5005876,49.0675661 45.3662871,49.1556738 45.2830969,49.2848623 L37.6709208,61.1766951 C37.5643503,61.3437213 37.5578256,61.5539905 37.6529778,61.7275031 C37.7486737,61.8999347 37.9313659,62.0075017 38.1298262,62.0075017 L70.7534383,62.0075017 C70.9459176,62.0075017 71.12426,61.9058806 71.2221308,61.7410166 C71.3200017,61.5761525 71.3221766,61.3718292 71.2286555,61.204803 Z" id="Path" fill="#7EA2BD" fill-rule="nonzero" mask="url(#mask-7)"></path>
                      </g>
                    </g>
                    <rect id="Rectangle-Copy-3" fill="#CFCCC6" fill-rule="nonzero" x="20.9241789" y="12.0139535" width="29.0613596" height="3.48792197" rx="1.74396098"></rect>
                    <rect id="Rectangle-Copy-3" fill="#CFCCC6" fill-rule="nonzero" x="20.9241789" y="4.6335543" width="78.2640205" height="3.48792197" rx="1.74396098"></rect>
                    <polygon id="Fill-1" fill="#FBAA19" fill-rule="nonzero" points="130.163655 130.034129 130.983699 130.034129 130.983699 129.214085"></polygon>
                    <ellipse id="Oval" fill="#CFCCC6" fill-rule="nonzero" cx="9.10589267" cy="9.10735182" rx="9.10589267" ry="9.10735182"></ellipse>
                  </g>
                </g>
              </g>
            </g>
          </g>
          <g id="Group-18-Copy-3" filter="url(#filter-8)" transform="translate(0.000000, 0.050000)">
            <g id="Rectangle" fill="#FFFFFF">
              <g id="path-6-link">
                <rect id="path-6" x="0" y="0" width="130.29345" height="139.0914" rx="2.05011088"></rect>
              </g>
            </g>
            <g id="Group-17-Clipped">
              <mask id="mask-10" fill="white">
                <use xlink:href="#path-9"></use>
              </mask>
              <use id="path-6" fill="#FFFFFF" xlink:href="#path-9"></use>
              <g id="Group-17" mask="url(#mask-10)">
                <g transform="translate(10.000000, 9.000000)" id="Group">
                  <g transform="translate(0.425068, 0.889251)">
                    <g id="Group-14" transform="translate(0.000000, 23.640360)">
                      <g id="Rectangle" fill="#EEEBE4" fill-rule="nonzero">
                        <rect id="path-9" x="-4.76291007e-14" y="-5.95363758e-15" width="109.270712" height="96.1116277" rx="2.05011088"></rect>
                      </g>
                      <g id="Oval-Clipped">
                        <mask id="mask-12" fill="white">
                          <use xlink:href="#path-11"></use>
                        </mask>
                        <g id="path-9"></g>
                        <ellipse id="Oval" fill="#CDCCCC" fill-rule="nonzero" mask="url(#mask-12)" cx="48.4355993" cy="38.7546886" rx="3.87484795" ry="3.87546886"></ellipse>
                      </g>
                      <g id="Path-Clipped">
                        <mask id="mask-14" fill="white">
                          <use xlink:href="#path-13"></use>
                        </mask>
                        <g id="path-9"></g>
                        <path d="M71.2286555,61.204803 L60.3541182,41.7454403 C60.2638595,41.5838195 60.0974791,41.4794957 59.9120683,41.4681444 C59.7201327,41.4594958 59.548315,41.5405765 59.4390259,41.689765 L52.1808159,51.6118778 L55.8678278,56.8005006 L46.0818317,49.1529711 C45.9611243,49.0572959 45.8056184,49.0172961 45.6528312,49.0421608 C45.5005876,49.0675661 45.3662871,49.1556738 45.2830969,49.2848623 L37.6709208,61.1766951 C37.5643503,61.3437213 37.5578256,61.5539905 37.6529778,61.7275031 C37.7486737,61.8999347 37.9313659,62.0075017 38.1298262,62.0075017 L70.7534383,62.0075017 C70.9459176,62.0075017 71.12426,61.9058806 71.2221308,61.7410166 C71.3200017,61.5761525 71.3221766,61.3718292 71.2286555,61.204803 Z" id="Path" fill="#CDCCCC" fill-rule="nonzero" mask="url(#mask-14)"></path>
                      </g>
                    </g>
                    <rect id="Rectangle-Copy-3" fill="#CFCCC6" fill-rule="nonzero" x="20.9241789" y="12.0139535" width="29.0613596" height="3.48792197" rx="1.74396098"></rect>
                    <rect id="Rectangle-Copy-3" fill="#CFCCC6" fill-rule="nonzero" x="20.9241789" y="4.6335543" width="78.2640205" height="3.48792197" rx="1.74396098"></rect>
                    <polygon id="Fill-1" fill="#FBAA19" fill-rule="nonzero" points="130.163655 130.034129 130.983699 130.034129 130.983699 129.214085"></polygon>
                    <ellipse id="Oval" fill="#CFCCC6" fill-rule="nonzero" cx="9.10589267" cy="9.10735182" rx="9.10589267" ry="9.10735182"></ellipse>
                  </g>
                </g>
              </g>
            </g>
          </g>
          <g id="Group-2-Copy-4" filter="url(#filter-15)" transform="translate(236.100000, 61.600000)">
            <g id="Group-2-Copy">
              <g id="post">
                <g id="Rectangle" fill="#FFFFFF">
                  <g id="path-11-link">
                    <rect id="path-11" x="0" y="0" width="153.540387" height="44.162118" rx="2.567565"></rect>
                  </g>
                </g>
                <g id="Group-3-Copy" transform="translate(8.090570, 9.570415)" fill="#CFCCC6" fill-rule="nonzero">
                  <rect id="Rectangle" x="27.0323215" y="2.09243727" width="110.624577" height="3.594591" rx="1.7972955"></rect>
                  <rect id="Rectangle-Copy" x="27.1217498" y="9.86971986" width="82.16208" height="3.594591" rx="1.7972955"></rect>
                  <rect id="Rectangle-Copy-2" x="27.1217498" y="17.8795849" width="68.22387" height="3.66795" rx="1.833975"></rect>
                  <ellipse id="Oval" cx="11.4367514" cy="12.0534802" rx="11.4367514" ry="11.4666082"></ellipse>
                </g>
              </g>
            </g>
          </g>
        </g>
        <g id="Group-2" transform="translate(234.000000, 0.000000)">
          <g id="Oval">
            <g id="path-13-link" fill="#000000" fill-rule="nonzero">
              <circle id="path-13" cx="35.91" cy="35.91" r="35.91"></circle>
            </g>
            <g id="path-13-link" fill="#F8A97A">
              <circle id="path-13" cx="35.91" cy="35.91" r="35.91"></circle>
            </g>
          </g>
          <g id="Group" transform="translate(17.236800, 17.236800)">
            <g id="Group-81" transform="translate(0.482630, 0.005746)">
              <g id="Group-80">
                <g id="Group-79">
                  <g id="Group-78">
                    <g id="Group-77">
                      <g id="Group-76">
                        <g id="Path-4-+-Path-5-Mask" transform="translate(0.256517, 0.513034)">
                          <g id="Mask" fill="#FEEECD" fill-rule="nonzero">
                            <path d="M18.2950347,9.32627316e-15 L18.2949966,0.309665282 C24.1081166,4.31188782 31.3917949,5.44160242 36.1225021,5.6734964 C36.7599227,19.0249486 30.8333456,29.2641235 18.3427708,36.3910208 C18.3425693,36.4878526 18.3426909,36.5848102 18.3428126,36.6819608 L18.084,36.536 L17.8261137,36.6819608 C17.82619,36.5844738 17.8262662,36.4871811 17.8263423,36.3900827 C5.33621501,29.2640736 -0.590402477,19.02483 0.0463284399,5.67328798 C4.77164736,5.44140567 12.048935,4.31179913 17.855703,0.310334399 L17.8558082,0.224774053 C17.8558975,0.151431723 17.8559733,0.0960377379 17.8560358,0.0585920976 L17.8561878,9.32627316e-15 C17.9290462,0.0526999664 18.0021583,0.104928422 18.0755159,0.156689413 L18.2950347,9.32627316e-15 L18.2950347,9.32627316e-15 Z" id="path-15"></path>
                          </g>
                          <g id="Path-4-Clipped">
                            <mask id="mask-17" fill="white">
                              <use xlink:href="#path-16"></use>
                            </mask>
                            <g id="path-15"></g>
                            <polygon id="Path-4" fill="#F8A97A" fill-rule="nonzero" mask="url(#mask-17)" points="18.0500264 -0.666944741 18.0500264 18.3309602 37.4483059 18.3309602 37.4483059 4.38203537"></polygon>
                          </g>
                          <g id="Path-5-Clipped">
                            <mask id="mask-19" fill="white">
                              <use xlink:href="#path-18"></use>
                            </mask>
                            <g id="path-15"></g>
                            <polygon id="Path-5" fill="#F8A97A" fill-rule="nonzero" mask="url(#mask-19)" points="18.0500264 18.3309602 18.0500264 38.9060451 0.513034416 38.9060451 0.513034416 18.3309602"></polygon>
                          </g>
                        </g>
                        <path d="M18.2854994,36.7920295 C5.48252492,29.6325273 -0.59724698,19.2653576 0.0461836842,5.69052042 C4.87604925,5.45205307 12.3804129,4.26698404 18.2368765,0.000971518852 L18.236918,4.26325641e-14 L18.2378707,4.26325641e-14 C24.0944745,4.26698371 31.5966901,5.45205304 36.4265563,5.69052042 C37.069987,19.2653576 31.022968,29.6325273 18.2854994,36.7920295 L18.2854994,36.7920295 Z" id="Combined-Shape" stroke="#FEEECD" stroke-width="1.8469239" stroke-linejoin="round"></path>
                      </g>
                    </g>
                  </g>
                </g>
              </g>
            </g>
          </g>
        </g>
      </g>
      <g id="Group-18-Copy" filter="url(#filter-20)" transform="translate(62.250000, 0.000000)">
        <g id="Rectangle" fill="#FFFFFF">
          <g id="path-17-link">
            <rect id="path-17" x="0" y="0" width="130.29345" height="139.0914" rx="2.05011088"></rect>
          </g>
        </g>
        <g id="Group-17-Clipped">
          <mask id="mask-22" fill="white">
            <use xlink:href="#path-21"></use>
          </mask>
          <use id="path-17" fill="#FFFFFF" xlink:href="#path-21"></use>
          <g id="Group-17" mask="url(#mask-22)">
            <g transform="translate(10.000000, 9.000000)" id="Group">
              <g transform="translate(0.425068, 0.889251)">
                <g id="Group-14" transform="translate(0.000000, 23.640360)">
                  <g id="Rectangle" fill="#F7C873" fill-rule="nonzero">
                    <rect id="path-20" x="-4.76291007e-14" y="-5.95363758e-15" width="109.270712" height="96.1116277" rx="2.05011088"></rect>
                  </g>
                  <g id="Oval-Clipped">
                    <mask id="mask-24" fill="white">
                      <use xlink:href="#path-23"></use>
                    </mask>
                    <g id="path-20"></g>
                    <ellipse id="Oval" fill="#EEA33A" fill-rule="nonzero" mask="url(#mask-24)" cx="48.4355993" cy="38.7546886" rx="3.87484795" ry="3.87546886"></ellipse>
                  </g>
                  <g id="Path-Clipped">
                    <mask id="mask-26" fill="white">
                      <use xlink:href="#path-25"></use>
                    </mask>
                    <g id="path-20"></g>
                    <path d="M71.2286555,61.204803 L60.3541182,41.7454403 C60.2638595,41.5838195 60.0974791,41.4794957 59.9120683,41.4681444 C59.7201327,41.4594958 59.548315,41.5405765 59.4390259,41.689765 L52.1808159,51.6118778 L55.8678278,56.8005006 L46.0818317,49.1529711 C45.9611243,49.0572959 45.8056184,49.0172961 45.6528312,49.0421608 C45.5005876,49.0675661 45.3662871,49.1556738 45.2830969,49.2848623 L37.6709208,61.1766951 C37.5643503,61.3437213 37.5578256,61.5539905 37.6529778,61.7275031 C37.7486737,61.8999347 37.9313659,62.0075017 38.1298262,62.0075017 L70.7534383,62.0075017 C70.9459176,62.0075017 71.12426,61.9058806 71.2221308,61.7410166 C71.3200017,61.5761525 71.3221766,61.3718292 71.2286555,61.204803 Z" id="Path" fill="#EEA33A" fill-rule="nonzero" mask="url(#mask-26)"></path>
                  </g>
                </g>
                <rect id="Rectangle-Copy-3" fill="#CFCCC6" fill-rule="nonzero" x="20.9241789" y="12.0139535" width="29.0613596" height="3.48792197" rx="1.74396098"></rect>
                <rect id="Rectangle-Copy-3" fill="#CFCCC6" fill-rule="nonzero" x="20.9241789" y="4.6335543" width="78.2640205" height="3.48792197" rx="1.74396098"></rect>
                <polygon id="Fill-1" fill="#FBAA19" fill-rule="nonzero" points="130.163655 130.034129 130.983699 130.034129 130.983699 129.214085"></polygon>
                <ellipse id="Oval" fill="#CFCCC6" fill-rule="nonzero" cx="9.10589267" cy="9.10735182" rx="9.10589267" ry="9.10735182"></ellipse>
              </g>
            </g>
          </g>
        </g>
      </g>
    </g>
  </g>
</svg>
