<svg xmlns="http://www.w3.org/2000/svg" viewBox="0 0 113 34"><defs><linearGradient x1="90.769%" y1="4.84%" x2="-38.331%" y2="71.968%" id="a"><stop stop-color="#00A0FF" offset="0%"/><stop stop-color="#00A1FF" offset=".7%"/><stop stop-color="#00BEFF" offset="26%"/><stop stop-color="#00D2FF" offset="51.2%"/><stop stop-color="#00DFFF" offset="76%"/><stop stop-color="#00E3FF" offset="100%"/></linearGradient><linearGradient x1="107.724%" y1="49.424%" x2="-130.67%" y2="49.424%" id="b"><stop stop-color="#FFE000" offset="0%"/><stop stop-color="#FFBD00" offset="40.9%"/><stop stop-color="orange" offset="77.5%"/><stop stop-color="#FF9C00" offset="100%"/></linearGradient><linearGradient x1="86.389%" y1="17.814%" x2="-49.886%" y2="194.39%" id="c"><stop stop-color="#FF3A44" offset="0%"/><stop stop-color="#C31162" offset="100%"/></linearGradient><linearGradient x1="-18.581%" y1="-54.528%" x2="42.275%" y2="24.692%" id="d"><stop stop-color="#32A071" offset="0%"/><stop stop-color="#2DA771" offset="6.9%"/><stop stop-color="#15CF74" offset="47.6%"/><stop stop-color="#06E775" offset="80.1%"/><stop stop-color="#00F076" offset="100%"/></linearGradient></defs><g fill="none" fill-rule="evenodd"><path d="M108.815 33.595H4.185c-2.344 0-4.185-1.848-4.185-4.2V4.2C0 1.848 1.841 0 4.185 0h104.63C111.159 0 113 1.848 113 4.2v25.195c0 2.352-1.841 4.2-4.185 4.2z" fill="#000"/><path d="M108.815.672c1.925 0 3.515 1.596 3.515 3.527v25.196c0 1.932-1.59 3.528-3.515 3.528H4.185C2.26 32.923.67 31.327.67 29.395V4.2C.67 2.268 2.26.672 4.185.672h104.63zm0-.672H4.185C1.841 0 0 1.932 0 4.2v25.195c0 2.352 1.841 4.2 4.185 4.2h104.63c2.344 0 4.185-1.848 4.185-4.2V4.2c0-2.268-1.841-4.2-4.185-4.2z" fill="#A6A6A6" fill-rule="nonzero"/><path d="M39.65 8.817c0 .657-.168 1.232-.587 1.642-.504.493-1.092.74-1.848.74-.755 0-1.343-.247-1.847-.74-.504-.492-.755-1.067-.755-1.806 0-.739.251-1.313.755-1.806.504-.493 1.092-.739 1.847-.739.336 0 .672.082 1.008.246.336.165.588.329.756.575l-.42.41c-.336-.41-.756-.574-1.344-.574-.503 0-1.007.164-1.343.575-.42.328-.588.82-.588 1.395 0 .575.168 1.068.588 1.396.42.328.84.575 1.343.575.588 0 1.008-.165 1.428-.575.252-.246.42-.575.42-.985h-1.848v-.657h2.435v.328zm3.862-2.052h-2.267v1.56h2.1v.574h-2.1v1.56h2.267v.657h-2.938V6.19h2.938v.575zm2.771 4.351h-.672V6.765h-1.427V6.19h3.526v.575h-1.427v4.351zm3.862 0V6.19h.672v4.926h-.672zm3.527 0H53V6.765h-1.427V6.19h3.442v.575h-1.427v4.351h.084zm7.976-.657c-.504.493-1.092.74-1.847.74-.756 0-1.344-.247-1.847-.74-.504-.492-.756-1.067-.756-1.806 0-.739.252-1.313.756-1.806.503-.493 1.091-.739 1.847-.739.755 0 1.343.246 1.847.739s.755 1.067.755 1.806c0 .739-.251 1.314-.755 1.806zm-3.19-.41c.335.328.839.575 1.343.575.503 0 1.007-.165 1.343-.575.336-.329.588-.821.588-1.396s-.168-1.067-.588-1.396c-.336-.328-.84-.574-1.343-.574-.504 0-1.008.164-1.344.574a1.959 1.959 0 00-.587 1.396c0 .575.168 1.067.587 1.396zm4.869 1.067V6.19h.756l2.435 3.859V6.19h.671v4.926h-.671l-2.603-4.023v4.023h-.588zm-6.297 7.1c-1.992 0-3.57 1.518-3.57 3.626 0 2.024 1.578 3.627 3.57 3.627 1.993 0 3.571-1.518 3.571-3.627 0-2.192-1.578-3.626-3.57-3.626zm0 5.735c-1.079 0-1.992-.928-1.992-2.193 0-1.265.913-2.193 1.993-2.193s1.992.844 1.992 2.193c0 1.265-.913 2.193-1.992 2.193zm-7.721-5.735c-1.993 0-3.57 1.518-3.57 3.626 0 2.024 1.577 3.627 3.57 3.627 1.993 0 3.57-1.518 3.57-3.627 0-2.192-1.577-3.626-3.57-3.626zm0 5.735c-1.08 0-1.993-.928-1.993-2.193 0-1.265.914-2.193 1.993-2.193 1.08 0 1.993.844 1.993 2.193 0 1.265-.914 2.193-1.993 2.193zm-9.216-4.639v1.518h3.57c-.083.844-.415 1.518-.83 1.94-.499.506-1.329 1.096-2.74 1.096-2.242 0-3.903-1.77-3.903-4.048 0-2.277 1.744-4.048 3.903-4.048 1.162 0 2.075.506 2.74 1.097l1.079-1.097c-.913-.843-2.076-1.518-3.736-1.518-2.99 0-5.563 2.53-5.563 5.566s2.574 5.566 5.563 5.566c1.66 0 2.823-.506 3.819-1.602.996-1.012 1.328-2.446 1.328-3.542 0-.337 0-.675-.083-.928h-5.147zm37.695 1.18c-.332-.842-1.162-2.276-2.989-2.276s-3.321 1.434-3.321 3.626c0 2.024 1.494 3.627 3.487 3.627 1.578 0 2.574-1.012 2.906-1.603l-1.162-.843c-.415.59-.914 1.012-1.744 1.012s-1.328-.337-1.744-1.096l4.733-2.024-.166-.422zm-4.816 1.182c0-1.35 1.08-2.109 1.827-2.109.581 0 1.162.338 1.329.76l-3.156 1.349zM69.07 25.13h1.578V14.59H69.07v10.54zm-2.49-6.156c-.416-.422-1.08-.843-1.91-.843-1.744 0-3.405 1.602-3.405 3.626S62.843 25.3 64.67 25.3c.83 0 1.495-.422 1.827-.843h.083v.506c0 1.349-.747 2.108-1.91 2.108-.913 0-1.577-.675-1.743-1.265l-1.329.59c.415.928 1.412 2.109 3.155 2.109 1.827 0 3.322-1.097 3.322-3.711v-6.41H66.58v.59zm-1.828 4.976c-1.079 0-1.992-.928-1.992-2.193 0-1.265.913-2.193 1.992-2.193 1.08 0 1.91.928 1.91 2.193 0 1.265-.83 2.193-1.91 2.193zm20.26-9.361h-3.737V25.13h1.578v-3.963h2.159c1.743 0 3.404-1.265 3.404-3.29 0-2.023-1.66-3.288-3.404-3.288zm.083 5.06h-2.242v-3.627h2.242c1.162 0 1.826 1.012 1.826 1.771-.083.928-.747 1.856-1.826 1.856zm9.548-1.518c-1.162 0-2.325.506-2.74 1.602l1.412.59c.332-.59.83-.759 1.411-.759.83 0 1.578.506 1.66 1.35v.084c-.248-.169-.913-.422-1.577-.422-1.494 0-2.989.844-2.989 2.362 0 1.433 1.246 2.36 2.574 2.36 1.08 0 1.578-.505 1.993-1.011h.083v.843h1.494v-4.048c-.166-1.855-1.577-2.951-3.32-2.951zm-.166 5.819c-.498 0-1.245-.253-1.245-.928 0-.843.913-1.096 1.66-1.096.665 0 .997.168 1.412.337-.166 1.012-.997 1.687-1.827 1.687zm8.718-5.566l-1.743 4.554h-.083l-1.827-4.554h-1.66l2.74 6.409-1.578 3.542h1.577l4.235-9.951h-1.66zM89.246 25.13h1.578V14.59h-1.578v10.54z" fill="#FFF" fill-rule="nonzero"/><path d="M.329.43C.082.69 0 1.12 0 1.638v19.037c0 .516.164.947.411 1.206l.082.086 10.198-10.682v-.172L.329.431z" fill="url(#a)" transform="translate(8.144 5.09)"/><path d="M13.98 14.902l-3.37-3.532v-.258l3.37-3.532.083.086 4.03 2.412c1.15.69 1.15 1.81 0 2.498l-4.113 2.326z" fill="url(#b)" transform="translate(8.144 5.09)"/><path d="M14.063 14.816l-3.454-3.618L.329 21.966c.411.43.987.43 1.727.086l12.007-7.236" fill="url(#c)" transform="translate(8.144 5.09)"/><path d="M14.063 7.58L2.056.43C1.316 0 .74.087.329.518l10.28 10.681 3.454-3.618z" fill="url(#d)" transform="translate(8.144 5.09)"/><path d="M22.125 19.82L10.2 26.884c-.658.43-1.233.344-1.645 0l-.082.086.082.086c.412.344.987.43 1.645 0l11.925-7.236z" fill="#000" opacity=".2"/><path d="M8.473 26.884c-.247-.259-.329-.69-.329-1.206v.086c0 .517.165.947.411 1.206v-.086h-.082zm17.763-9.476l-4.111 2.412.082.086 4.03-2.412c.575-.344.822-.775.822-1.206 0 .431-.33.776-.823 1.12z" fill="#000" fill-rule="nonzero" opacity=".12"/><path d="M10.2 5.607l16.036 9.561c.494.345.823.69.823 1.12 0-.43-.247-.861-.823-1.206L10.2 5.521c-1.151-.69-2.056-.172-2.056 1.206v.086c0-1.292.905-1.895 2.056-1.206z" fill="#FFF" opacity=".25"/></g></svg>