<svg preserveAspectRatio="xMidYMid slice" xmlns="http://www.w3.org/2000/svg" xmlns:xlink="http://www.w3.org/1999/xlink" height="300px" viewBox="0 0 180 180" width="300px">
  <mask id="a" fill="#fff">
    <path d="m0 .77981102h51.1505882v25.67688188h-51.1505882z" fill="#fff" fill-rule="evenodd"></path>
  </mask>
  <mask id="b" fill="#fff">
    <path d="m.61345882.77981102h51.15105878v25.67688188h-51.15105878z" fill="#fff" fill-rule="evenodd"></path>
  </mask>
  <g fill="none" fill-rule="evenodd">
    <path d="m0 0h180v180h-180z" fill="#fff" stroke="#fff"></path>
    <g transform="translate(31 30)">
      <g fill="#143059">
        <path d="m46.4089412 7.9183937c-4.0865883-3.25511811-11.0202353-7.13858268-20.8338824-7.13858268-9.8127059 0-16.74635292 3.88346457-20.83294115 7.13858268-3.01364706 2.4009449-4.74258824 6.0434646-4.74258824 9.9930709v5.9773228c0 1.4182677 1.14541177 2.568189 2.55811765 2.568189h46.03576474c1.4117647 0 2.5571764-1.1499213 2.5571764-2.568189v-5.9773228c0-3.9496063-1.7289411-7.592126-4.741647-9.9930709" mask="url(#a)" transform="translate(0 93.307087)"></path>
        <path d="m25.2526118 56.6351811c8.4752941 0 15.3458823 6.8976378 15.3458823 15.4053543 0 8.5086615-6.8705882 15.4053544-15.3458823 15.4053544-8.474353 0-15.34494121-6.8966929-15.34494121-15.4053544 0-8.5077165 6.87058821-15.4053543 15.34494121-15.4053543"></path>
        <path d="m47.0228706 7.9183937c-4.0865882-3.25511811-11.0202353-7.13858268-20.8338824-7.13858268-9.813647 0-16.74635291 3.88346457-20.83294114 7.13858268-3.01364706 2.4009449-4.74258824 6.0434646-4.74258824 9.9930709v5.9773228c0 1.4182677 1.14541177 2.568189 2.55811765 2.568189h46.03576473c1.4117647 0 2.5571764-1.1499213 2.5571764-2.568189v-5.9773228c0-3.9496063-1.7289411-7.592126-4.741647-9.9930709" mask="url(#b)" transform="translate(65.882353 93.307087)"></path>
        <path d="m91.7489882 56.6351811c8.4752938 0 15.3458828 6.8976378 15.3458828 15.4053543 0 8.5086615-6.870589 15.4053544-15.3458828 15.4053544-8.4752941 0-15.3458823-6.8966929-15.3458823-15.4053544 0-8.5077165 6.8705882-15.4053543 15.3458823-15.4053543"></path>
      </g>
      <path d="m105.097318.00037795h-59.9322356c-1.7336471 0-3.1378824 1.40976378-3.1378824 3.15023622v36.22771653c0 1.7404724 1.4042353 3.1502362 3.1378824 3.1502362h13.1783529v14.176063c0 .8702362.7021176 1.5751181 1.5689412 1.5751181.3265882 0 .645647-.1029921.912-.2929134l21.5548235-15.4582677h22.718118c1.733647 0 3.137882-1.4097638 3.137882-3.1502362v-36.22771653c0-1.74047244-1.404235-3.15023622-3.137882-3.15023622" fill="#fba919"></path>
    </g>
  </g>
</svg>