<svg preserveAspectRatio="xMidYMid slice" xmlns="http://www.w3.org/2000/svg" height="300px" viewBox="0 0 180 180" width="300px">
  <g fill="none" fill-rule="evenodd">
    <path d="m0 0h180v180h-180z" fill="#fff" stroke="#fff"></path>
    <g fill-rule="nonzero">
      <path d="m110.965517 32.7586207v24.8275862h24.827586z" fill="#143059"></path>
      <path d="m107.655172 62.9032258c-1.065931 0-1.931034-.8670968-1.931034-1.9354839v-30.9677419h-59.862069c-2.1337931 0-3.862069 1.7322581-3.862069 3.8709677v112.2580643c0 2.13871 1.7282759 3.870968 3.862069 3.870968h88.827586c2.133793 0 3.862069-1.732258 3.862069-3.870968v-83.2258062z" fill="#143059"></path>
      <path d="m90.2758621 117.096774c-14.9307587 0-27.0344828-12.131613-27.0344828-27.096774 0-14.9651613 12.1037241-27.0967742 27.0344828-27.0967742v27.0967742h27.0344829c0 14.965161-12.103724 27.096774-27.0344829 27.096774z" fill="#fba919"></path>
    </g>
  </g>
</svg>