<?xml version="1.0" encoding="UTF-8"?>
<svg xmlns="http://www.w3.org/2000/svg" xmlns:xlink="http://www.w3.org/1999/xlink" width="571px" height="476px" viewBox="0 0 571 476">
  <title>Hootsuite_AdPlatform_Illustration</title>
  <defs>
    <rect id="path-1" x="0" y="0" width="503" height="355" rx="5.15"></rect>
    <filter x="-10.2%" y="-11.7%" width="120.5%" height="129.0%" filterUnits="objectBoundingBox" id="filter-3">
      <feOffset dx="0" dy="10" in="SourceAlpha" result="shadowOffsetOuter1"></feOffset>
      <feGaussianBlur stdDeviation="15.5" in="shadowOffsetOuter1" result="shadowBlurOuter1"></feGaussianBlur>
      <feColorMatrix values="0 0 0 0 0   0 0 0 0 0   0 0 0 0 0  0 0 0 0.1 0" type="matrix" in="shadowBlurOuter1"></feColorMatrix>
    </filter>
    <rect id="path-4" x="19" y="266" width="465" height="180" rx="5"></rect>
    <filter x="-10.8%" y="-22.2%" width="121.5%" height="155.6%" filterUnits="objectBoundingBox" id="filter-5">
      <feOffset dx="0" dy="10" in="SourceAlpha" result="shadowOffsetOuter1"></feOffset>
      <feGaussianBlur stdDeviation="15" in="shadowOffsetOuter1" result="shadowBlurOuter1"></feGaussianBlur>
      <feColorMatrix values="0 0 0 0 0   0 0 0 0 0   0 0 0 0 0  0 0 0 0.2 0" type="matrix" in="shadowBlurOuter1"></feColorMatrix>
    </filter>
    <rect id="path-6" x="0" y="0" width="223" height="137" rx="5"></rect>
    <circle id="path-8" cx="51" cy="51" r="51"></circle>
  </defs>
  <g id="Main-Page" stroke="none" stroke-width="1" fill="none" fill-rule="evenodd">
    <g id="Hootsuite_PlatformPages_AdvertisePage_V1.1" transform="translate(-604.000000, -2663.000000)">
      <g id="Illustration-4" transform="translate(635.000000, 2653.000000)">
        <g id="Group-20-Copy-2" stroke-width="1" fill-rule="evenodd" transform="translate(406.500000, 63.000000) rotate(-360.000000) translate(-406.500000, -63.000000) translate(273.000000, 10.000000)" fill="#F8A97A">
          <path d="M266.986632,2.58356216 C266.986632,4.01117854 265.829968,5.1674832 264.402711,5.1674832 C262.975812,5.1674832 261.819149,4.01117854 261.819149,2.58356216 C261.819149,1.15630466 262.975812,-3.10862447e-15 264.402711,-3.10862447e-15 C265.829968,-3.10862447e-15 266.986632,1.15630466 266.986632,2.58356216" id="Fill-1"></path>
          <path d="M266.986632,23.2536744 C266.986632,24.6808328 265.829968,25.837416 264.402711,25.837416 C262.975812,25.837416 261.819149,24.6808328 261.819149,23.2536744 C261.819149,21.8268749 262.975812,20.6699328 264.402711,20.6699328 C265.829968,20.6699328 266.986632,21.8268749 266.986632,23.2536744" id="Fill-3"></path>
          <path d="M266.986632,43.06236 C266.986632,44.4891595 265.829968,45.6461016 264.402711,45.6461016 C262.975812,45.6461016 261.819149,44.4891595 261.819149,43.06236 C261.819149,41.6352016 262.975812,40.4786184 264.402711,40.4786184 C265.829968,40.4786184 266.986632,41.6352016 266.986632,43.06236" id="Fill-5"></path>
          <path d="M266.986632,62.8708662 C266.986632,64.2984825 265.829968,65.4547872 264.402711,65.4547872 C262.975812,65.4547872 261.819149,64.2984825 261.819149,62.8708662 C261.819149,61.4436087 262.975812,60.287304 264.402711,60.287304 C265.829968,60.287304 266.986632,61.4436087 266.986632,62.8708662" id="Fill-7"></path>
          <path d="M266.986632,83.5409784 C266.986632,84.9681368 265.829968,86.12472 264.402711,86.12472 C262.975812,86.12472 261.819149,84.9681368 261.819149,83.5409784 C261.819149,82.1141789 262.975812,80.9572368 264.402711,80.9572368 C265.829968,80.9572368 266.986632,82.1141789 266.986632,83.5409784" id="Fill-9"></path>
          <path d="M266.986632,103.349664 C266.986632,104.776822 265.829968,105.933406 264.402711,105.933406 C262.975812,105.933406 261.819149,104.776822 261.819149,103.349664 C261.819149,101.922506 262.975812,100.765922 264.402711,100.765922 C265.829968,100.765922 266.986632,101.922506 266.986632,103.349664" id="Fill-11"></path>
          <path d="M247.177946,2.58356216 C247.177946,4.01117854 246.021004,5.1674832 244.594205,5.1674832 C243.167405,5.1674832 242.010463,4.01117854 242.010463,2.58356216 C242.010463,1.15630466 243.167405,-3.10862447e-15 244.594205,-3.10862447e-15 C246.021004,-3.10862447e-15 247.177946,1.15630466 247.177946,2.58356216" id="Fill-23"></path>
          <path d="M247.177946,23.2536744 C247.177946,24.6808328 246.021004,25.837416 244.594205,25.837416 C243.167405,25.837416 242.010463,24.6808328 242.010463,23.2536744 C242.010463,21.8268749 243.167405,20.6699328 244.594205,20.6699328 C246.021004,20.6699328 247.177946,21.8268749 247.177946,23.2536744" id="Fill-25"></path>
          <path d="M247.177946,43.06236 C247.177946,44.4891595 246.021004,45.6461016 244.594205,45.6461016 C243.167405,45.6461016 242.010463,44.4891595 242.010463,43.06236 C242.010463,41.6352016 243.167405,40.4786184 244.594205,40.4786184 C246.021004,40.4786184 247.177946,41.6352016 247.177946,43.06236" id="Fill-27"></path>
          <path d="M247.177946,62.8708662 C247.177946,64.2984825 246.021004,65.4547872 244.594205,65.4547872 C243.167405,65.4547872 242.010463,64.2984825 242.010463,62.8708662 C242.010463,61.4436087 243.167405,60.287304 244.594205,60.287304 C246.021004,60.287304 247.177946,61.4436087 247.177946,62.8708662" id="Fill-29"></path>
          <path d="M247.177946,83.5409784 C247.177946,84.9681368 246.021004,86.12472 244.594205,86.12472 C243.167405,86.12472 242.010463,84.9681368 242.010463,83.5409784 C242.010463,82.1141789 243.167405,80.9572368 244.594205,80.9572368 C246.021004,80.9572368 247.177946,82.1141789 247.177946,83.5409784" id="Fill-31"></path>
          <path d="M247.177946,103.349664 C247.177946,104.776822 246.021004,105.933406 244.594205,105.933406 C243.167405,105.933406 242.010463,104.776822 242.010463,103.349664 C242.010463,101.922506 243.167405,100.765922 244.594205,100.765922 C246.021004,100.765922 247.177946,101.922506 247.177946,103.349664" id="Fill-33"></path>
          <path d="M226.508014,2.58356216 C226.508014,4.01117854 225.351072,5.1674832 223.924272,5.1674832 C222.497114,5.1674832 221.34053,4.01117854 221.34053,2.58356216 C221.34053,1.15630466 222.497114,-3.10862447e-15 223.924272,-3.10862447e-15 C225.351072,-3.10862447e-15 226.508014,1.15630466 226.508014,2.58356216" id="Fill-45"></path>
          <path d="M226.508014,23.2536744 C226.508014,24.6808328 225.351072,25.837416 223.924272,25.837416 C222.497114,25.837416 221.34053,24.6808328 221.34053,23.2536744 C221.34053,21.8268749 222.497114,20.6699328 223.924272,20.6699328 C225.351072,20.6699328 226.508014,21.8268749 226.508014,23.2536744" id="Fill-47"></path>
          <path d="M226.508014,43.06236 C226.508014,44.4891595 225.351072,45.6461016 223.924272,45.6461016 C222.497114,45.6461016 221.34053,44.4891595 221.34053,43.06236 C221.34053,41.6352016 222.497114,40.4786184 223.924272,40.4786184 C225.351072,40.4786184 226.508014,41.6352016 226.508014,43.06236" id="Fill-49"></path>
          <path d="M226.508014,62.8708662 C226.508014,64.2984825 225.351072,65.4547872 223.924272,65.4547872 C222.497114,65.4547872 221.34053,64.2984825 221.34053,62.8708662 C221.34053,61.4436087 222.497114,60.287304 223.924272,60.287304 C225.351072,60.287304 226.508014,61.4436087 226.508014,62.8708662" id="Fill-51"></path>
          <path d="M226.508014,83.5409784 C226.508014,84.9681368 225.351072,86.12472 223.924272,86.12472 C222.497114,86.12472 221.34053,84.9681368 221.34053,83.5409784 C221.34053,82.1141789 222.497114,80.9572368 223.924272,80.9572368 C225.351072,80.9572368 226.508014,82.1141789 226.508014,83.5409784" id="Fill-53"></path>
          <path d="M226.508014,103.349664 C226.508014,104.776822 225.351072,105.933406 223.924272,105.933406 C222.497114,105.933406 221.34053,104.776822 221.34053,103.349664 C221.34053,101.922506 222.497114,100.765922 223.924272,100.765922 C225.351072,100.765922 226.508014,101.922506 226.508014,103.349664" id="Fill-55"></path>
          <path d="M206.699328,2.58356216 C206.699328,4.01117854 205.542386,5.1674832 204.115586,5.1674832 C202.688787,5.1674832 201.531845,4.01117854 201.531845,2.58356216 C201.531845,1.15630466 202.688787,-3.10862447e-15 204.115586,-3.10862447e-15 C205.542386,-3.10862447e-15 206.699328,1.15630466 206.699328,2.58356216" id="Fill-67"></path>
          <path d="M206.699328,23.2536744 C206.699328,24.6808328 205.542386,25.837416 204.115586,25.837416 C202.688787,25.837416 201.531845,24.6808328 201.531845,23.2536744 C201.531845,21.8268749 202.688787,20.6699328 204.115586,20.6699328 C205.542386,20.6699328 206.699328,21.8268749 206.699328,23.2536744" id="Fill-69"></path>
          <path d="M206.699328,43.06236 C206.699328,44.4891595 205.542386,45.6461016 204.115586,45.6461016 C202.688787,45.6461016 201.531845,44.4891595 201.531845,43.06236 C201.531845,41.6352016 202.688787,40.4786184 204.115586,40.4786184 C205.542386,40.4786184 206.699328,41.6352016 206.699328,43.06236" id="Fill-71"></path>
          <path d="M206.699328,62.8708662 C206.699328,64.2984825 205.542386,65.4547872 204.115586,65.4547872 C202.688787,65.4547872 201.531845,64.2984825 201.531845,62.8708662 C201.531845,61.4436087 202.688787,60.287304 204.115586,60.287304 C205.542386,60.287304 206.699328,61.4436087 206.699328,62.8708662" id="Fill-73"></path>
          <path d="M206.699328,83.5409784 C206.699328,84.9681368 205.542386,86.12472 204.115586,86.12472 C202.688787,86.12472 201.531845,84.9681368 201.531845,83.5409784 C201.531845,82.1141789 202.688787,80.9572368 204.115586,80.9572368 C205.542386,80.9572368 206.699328,82.1141789 206.699328,83.5409784" id="Fill-75"></path>
          <path d="M206.699328,103.349664 C206.699328,104.776822 205.542386,105.933406 204.115586,105.933406 C202.688787,105.933406 201.531845,104.776822 201.531845,103.349664 C201.531845,101.922506 202.688787,100.765922 204.115586,100.765922 C205.542386,100.765922 206.699328,101.922506 206.699328,103.349664" id="Fill-77"></path>
          <path d="M186.029395,2.58356216 C186.029395,4.01117854 184.872453,5.1674832 183.445654,5.1674832 C182.018854,5.1674832 180.861912,4.01117854 180.861912,2.58356216 C180.861912,1.15630466 182.018854,-3.10862447e-15 183.445654,-3.10862447e-15 C184.872453,-3.10862447e-15 186.029395,1.15630466 186.029395,2.58356216" id="Fill-89"></path>
          <path d="M186.029395,23.2536744 C186.029395,24.6808328 184.872453,25.837416 183.445654,25.837416 C182.018854,25.837416 180.861912,24.6808328 180.861912,23.2536744 C180.861912,21.8268749 182.018854,20.6699328 183.445654,20.6699328 C184.872453,20.6699328 186.029395,21.8268749 186.029395,23.2536744" id="Fill-91"></path>
          <path d="M186.029395,43.06236 C186.029395,44.4891595 184.872453,45.6461016 183.445654,45.6461016 C182.018854,45.6461016 180.861912,44.4891595 180.861912,43.06236 C180.861912,41.6352016 182.018854,40.4786184 183.445654,40.4786184 C184.872453,40.4786184 186.029395,41.6352016 186.029395,43.06236" id="Fill-93"></path>
          <path d="M186.029395,62.8708662 C186.029395,64.2984825 184.872453,65.4547872 183.445654,65.4547872 C182.018854,65.4547872 180.861912,64.2984825 180.861912,62.8708662 C180.861912,61.4436087 182.018854,60.287304 183.445654,60.287304 C184.872453,60.287304 186.029395,61.4436087 186.029395,62.8708662" id="Fill-95"></path>
          <path d="M186.029395,83.5409784 C186.029395,84.9681368 184.872453,86.12472 183.445654,86.12472 C182.018854,86.12472 180.861912,84.9681368 180.861912,83.5409784 C180.861912,82.1141789 182.018854,80.9572368 183.445654,80.9572368 C184.872453,80.9572368 186.029395,82.1141789 186.029395,83.5409784" id="Fill-97"></path>
          <path d="M186.029395,103.349664 C186.029395,104.776822 184.872453,105.933406 183.445654,105.933406 C182.018854,105.933406 180.861912,104.776822 180.861912,103.349664 C180.861912,101.922506 182.018854,100.765922 183.445654,100.765922 C184.872453,100.765922 186.029395,101.922506 186.029395,103.349664" id="Fill-99"></path>
          <path d="M166.22071,2.58356216 C166.22071,4.01117854 165.064126,5.1674832 163.636968,5.1674832 C162.210168,5.1674832 161.053226,4.01117854 161.053226,2.58356216 C161.053226,1.15630466 162.210168,-3.10862447e-15 163.636968,-3.10862447e-15 C165.064126,-3.10862447e-15 166.22071,1.15630466 166.22071,2.58356216" id="Fill-111"></path>
          <path d="M166.22071,23.2536744 C166.22071,24.6808328 165.064126,25.837416 163.636968,25.837416 C162.210168,25.837416 161.053226,24.6808328 161.053226,23.2536744 C161.053226,21.8268749 162.210168,20.6699328 163.636968,20.6699328 C165.064126,20.6699328 166.22071,21.8268749 166.22071,23.2536744" id="Fill-113"></path>
          <path d="M166.22071,43.06236 C166.22071,44.4891595 165.064126,45.6461016 163.636968,45.6461016 C162.210168,45.6461016 161.053226,44.4891595 161.053226,43.06236 C161.053226,41.6352016 162.210168,40.4786184 163.636968,40.4786184 C165.064126,40.4786184 166.22071,41.6352016 166.22071,43.06236" id="Fill-115"></path>
          <path d="M166.22071,62.8708662 C166.22071,64.2984825 165.064126,65.4547872 163.636968,65.4547872 C162.210168,65.4547872 161.053226,64.2984825 161.053226,62.8708662 C161.053226,61.4436087 162.210168,60.287304 163.636968,60.287304 C165.064126,60.287304 166.22071,61.4436087 166.22071,62.8708662" id="Fill-117"></path>
          <path d="M166.22071,83.5409784 C166.22071,84.9681368 165.064126,86.12472 163.636968,86.12472 C162.210168,86.12472 161.053226,84.9681368 161.053226,83.5409784 C161.053226,82.1141789 162.210168,80.9572368 163.636968,80.9572368 C165.064126,80.9572368 166.22071,82.1141789 166.22071,83.5409784" id="Fill-119"></path>
          <path d="M166.22071,103.349664 C166.22071,104.776822 165.064126,105.933406 163.636968,105.933406 C162.210168,105.933406 161.053226,104.776822 161.053226,103.349664 C161.053226,101.922506 162.210168,100.765922 163.636968,100.765922 C165.064126,100.765922 166.22071,101.922506 166.22071,103.349664" id="Fill-121"></path>
          <path d="M145.550777,2.58356216 C145.550777,4.01117854 144.393835,5.1674832 142.967035,5.1674832 C141.540236,5.1674832 140.383294,4.01117854 140.383294,2.58356216 C140.383294,1.15630466 141.540236,-3.10862447e-15 142.967035,-3.10862447e-15 C144.393835,-3.10862447e-15 145.550777,1.15630466 145.550777,2.58356216" id="Fill-133"></path>
          <path d="M145.550777,23.2536744 C145.550777,24.6808328 144.393835,25.837416 142.967035,25.837416 C141.540236,25.837416 140.383294,24.6808328 140.383294,23.2536744 C140.383294,21.8268749 141.540236,20.6699328 142.967035,20.6699328 C144.393835,20.6699328 145.550777,21.8268749 145.550777,23.2536744" id="Fill-135"></path>
          <path d="M145.550777,43.06236 C145.550777,44.4891595 144.393835,45.6461016 142.967035,45.6461016 C141.540236,45.6461016 140.383294,44.4891595 140.383294,43.06236 C140.383294,41.6352016 141.540236,40.4786184 142.967035,40.4786184 C144.393835,40.4786184 145.550777,41.6352016 145.550777,43.06236" id="Fill-137"></path>
          <path d="M145.550777,62.8708662 C145.550777,64.2984825 144.393835,65.4547872 142.967035,65.4547872 C141.540236,65.4547872 140.383294,64.2984825 140.383294,62.8708662 C140.383294,61.4436087 141.540236,60.287304 142.967035,60.287304 C144.393835,60.287304 145.550777,61.4436087 145.550777,62.8708662" id="Fill-139"></path>
          <path d="M145.550777,83.5409784 C145.550777,84.9681368 144.393835,86.12472 142.967035,86.12472 C141.540236,86.12472 140.383294,84.9681368 140.383294,83.5409784 C140.383294,82.1141789 141.540236,80.9572368 142.967035,80.9572368 C144.393835,80.9572368 145.550777,82.1141789 145.550777,83.5409784" id="Fill-141"></path>
          <path d="M145.550777,103.349664 C145.550777,104.776822 144.393835,105.933406 142.967035,105.933406 C141.540236,105.933406 140.383294,104.776822 140.383294,103.349664 C140.383294,101.922506 141.540236,100.765922 142.967035,100.765922 C144.393835,100.765922 145.550777,101.922506 145.550777,103.349664" id="Fill-143"></path>
          <path d="M125.742091,2.58356216 C125.742091,4.01117854 124.585428,5.1674832 123.15817,5.1674832 C121.731272,5.1674832 120.574608,4.01117854 120.574608,2.58356216 C120.574608,1.15630466 121.731272,-3.10862447e-15 123.15817,-3.10862447e-15 C124.585428,-3.10862447e-15 125.742091,1.15630466 125.742091,2.58356216" id="Fill-155"></path>
          <path d="M125.742091,23.2536744 C125.742091,24.6808328 124.585428,25.837416 123.15817,25.837416 C121.731272,25.837416 120.574608,24.6808328 120.574608,23.2536744 C120.574608,21.8268749 121.731272,20.6699328 123.15817,20.6699328 C124.585428,20.6699328 125.742091,21.8268749 125.742091,23.2536744" id="Fill-157"></path>
          <path d="M125.742091,43.06236 C125.742091,44.4891595 124.585428,45.6461016 123.15817,45.6461016 C121.731272,45.6461016 120.574608,44.4891595 120.574608,43.06236 C120.574608,41.6352016 121.731272,40.4786184 123.15817,40.4786184 C124.585428,40.4786184 125.742091,41.6352016 125.742091,43.06236" id="Fill-159"></path>
          <path d="M125.742091,62.8708662 C125.742091,64.2984825 124.585428,65.4547872 123.15817,65.4547872 C121.731272,65.4547872 120.574608,64.2984825 120.574608,62.8708662 C120.574608,61.4436087 121.731272,60.287304 123.15817,60.287304 C124.585428,60.287304 125.742091,61.4436087 125.742091,62.8708662" id="Fill-161"></path>
          <path d="M125.742091,83.5409784 C125.742091,84.9681368 124.585428,86.12472 123.15817,86.12472 C121.731272,86.12472 120.574608,84.9681368 120.574608,83.5409784 C120.574608,82.1141789 121.731272,80.9572368 123.15817,80.9572368 C124.585428,80.9572368 125.742091,82.1141789 125.742091,83.5409784" id="Fill-163"></path>
          <path d="M125.742091,103.349664 C125.742091,104.776822 124.585428,105.933406 123.15817,105.933406 C121.731272,105.933406 120.574608,104.776822 120.574608,103.349664 C120.574608,101.922506 121.731272,100.765922 123.15817,100.765922 C124.585428,100.765922 125.742091,101.922506 125.742091,103.349664" id="Fill-165"></path>
          <path d="M105.072158,2.58356216 C105.072158,4.01117854 103.915216,5.1674832 102.488417,5.1674832 C101.061617,5.1674832 99.9046752,4.01117854 99.9046752,2.58356216 C99.9046752,1.15630466 101.061617,-3.10862447e-15 102.488417,-3.10862447e-15 C103.915216,-3.10862447e-15 105.072158,1.15630466 105.072158,2.58356216" id="Fill-177"></path>
          <path d="M105.072158,23.2536744 C105.072158,24.6808328 103.915216,25.837416 102.488417,25.837416 C101.061617,25.837416 99.9046752,24.6808328 99.9046752,23.2536744 C99.9046752,21.8268749 101.061617,20.6699328 102.488417,20.6699328 C103.915216,20.6699328 105.072158,21.8268749 105.072158,23.2536744" id="Fill-179"></path>
          <path d="M105.072158,43.06236 C105.072158,44.4891595 103.915216,45.6461016 102.488417,45.6461016 C101.061617,45.6461016 99.9046752,44.4891595 99.9046752,43.06236 C99.9046752,41.6352016 101.061617,40.4786184 102.488417,40.4786184 C103.915216,40.4786184 105.072158,41.6352016 105.072158,43.06236" id="Fill-181"></path>
          <path d="M105.072158,62.8708662 C105.072158,64.2984825 103.915216,65.4547872 102.488417,65.4547872 C101.061617,65.4547872 99.9046752,64.2984825 99.9046752,62.8708662 C99.9046752,61.4436087 101.061617,60.287304 102.488417,60.287304 C103.915216,60.287304 105.072158,61.4436087 105.072158,62.8708662" id="Fill-183"></path>
          <path d="M105.072158,83.5409784 C105.072158,84.9681368 103.915216,86.12472 102.488417,86.12472 C101.061617,86.12472 99.9046752,84.9681368 99.9046752,83.5409784 C99.9046752,82.1141789 101.061617,80.9572368 102.488417,80.9572368 C103.915216,80.9572368 105.072158,82.1141789 105.072158,83.5409784" id="Fill-185"></path>
          <path d="M105.072158,103.349664 C105.072158,104.776822 103.915216,105.933406 102.488417,105.933406 C101.061617,105.933406 99.9046752,104.776822 99.9046752,103.349664 C99.9046752,101.922506 101.061617,100.765922 102.488417,100.765922 C103.915216,100.765922 105.072158,101.922506 105.072158,103.349664" id="Fill-187"></path>
          <path d="M85.2634728,2.58356216 C85.2634728,4.01117854 84.1065307,5.1674832 82.6797312,5.1674832 C81.2529317,5.1674832 80.0959896,4.01117854 80.0959896,2.58356216 C80.0959896,1.15630466 81.2529317,-3.10862447e-15 82.6797312,-3.10862447e-15 C84.1065307,-3.10862447e-15 85.2634728,1.15630466 85.2634728,2.58356216" id="Fill-199"></path>
          <path d="M85.2634728,23.2536744 C85.2634728,24.6808328 84.1065307,25.837416 82.6797312,25.837416 C81.2529317,25.837416 80.0959896,24.6808328 80.0959896,23.2536744 C80.0959896,21.8268749 81.2529317,20.6699328 82.6797312,20.6699328 C84.1065307,20.6699328 85.2634728,21.8268749 85.2634728,23.2536744" id="Fill-201"></path>
          <path d="M85.2634728,43.06236 C85.2634728,44.4891595 84.1065307,45.6461016 82.6797312,45.6461016 C81.2529317,45.6461016 80.0959896,44.4891595 80.0959896,43.06236 C80.0959896,41.6352016 81.2529317,40.4786184 82.6797312,40.4786184 C84.1065307,40.4786184 85.2634728,41.6352016 85.2634728,43.06236" id="Fill-203"></path>
          <path d="M85.2634728,62.8708662 C85.2634728,64.2984825 84.1065307,65.4547872 82.6797312,65.4547872 C81.2529317,65.4547872 80.0959896,64.2984825 80.0959896,62.8708662 C80.0959896,61.4436087 81.2529317,60.287304 82.6797312,60.287304 C84.1065307,60.287304 85.2634728,61.4436087 85.2634728,62.8708662" id="Fill-205"></path>
          <path d="M85.2634728,83.5409784 C85.2634728,84.9681368 84.1065307,86.12472 82.6797312,86.12472 C81.2529317,86.12472 80.0959896,84.9681368 80.0959896,83.5409784 C80.0959896,82.1141789 81.2529317,80.9572368 82.6797312,80.9572368 C84.1065307,80.9572368 85.2634728,82.1141789 85.2634728,83.5409784" id="Fill-207"></path>
          <path d="M85.2634728,103.349664 C85.2634728,104.776822 84.1065307,105.933406 82.6797312,105.933406 C81.2529317,105.933406 80.0959896,104.776822 80.0959896,103.349664 C80.0959896,101.922506 81.2529317,100.765922 82.6797312,100.765922 C84.1065307,100.765922 85.2634728,101.922506 85.2634728,103.349664" id="Fill-209"></path>
          <path d="M65.4547872,2.58356216 C65.4547872,4.01117854 64.2978451,5.1674832 62.8710456,5.1674832 C61.4442461,5.1674832 60.287304,4.01117854 60.287304,2.58356216 C60.287304,1.15630466 61.4442461,-3.10862447e-15 62.8710456,-3.10862447e-15 C64.2978451,-3.10862447e-15 65.4547872,1.15630466 65.4547872,2.58356216" id="Fill-221"></path>
          <path d="M65.4547872,23.2536744 C65.4547872,24.6808328 64.2978451,25.837416 62.8710456,25.837416 C61.4442461,25.837416 60.287304,24.6808328 60.287304,23.2536744 C60.287304,21.8268749 61.4442461,20.6699328 62.8710456,20.6699328 C64.2978451,20.6699328 65.4547872,21.8268749 65.4547872,23.2536744" id="Fill-223"></path>
          <path d="M65.4547872,43.06236 C65.4547872,44.4891595 64.2978451,45.6461016 62.8710456,45.6461016 C61.4442461,45.6461016 60.287304,44.4891595 60.287304,43.06236 C60.287304,41.6352016 61.4442461,40.4786184 62.8710456,40.4786184 C64.2978451,40.4786184 65.4547872,41.6352016 65.4547872,43.06236" id="Fill-225"></path>
          <path d="M65.4547872,62.8708662 C65.4547872,64.2984825 64.2978451,65.4547872 62.8710456,65.4547872 C61.4442461,65.4547872 60.287304,64.2984825 60.287304,62.8708662 C60.287304,61.4436087 61.4442461,60.287304 62.8710456,60.287304 C64.2978451,60.287304 65.4547872,61.4436087 65.4547872,62.8708662" id="Fill-227"></path>
          <path d="M65.4547872,83.5409784 C65.4547872,84.9681368 64.2978451,86.12472 62.8710456,86.12472 C61.4442461,86.12472 60.287304,84.9681368 60.287304,83.5409784 C60.287304,82.1141789 61.4442461,80.9572368 62.8710456,80.9572368 C64.2978451,80.9572368 65.4547872,82.1141789 65.4547872,83.5409784" id="Fill-229"></path>
          <path d="M65.4547872,103.349664 C65.4547872,104.776822 64.2978451,105.933406 62.8710456,105.933406 C61.4442461,105.933406 60.287304,104.776822 60.287304,103.349664 C60.287304,101.922506 61.4442461,100.765922 62.8710456,100.765922 C64.2978451,100.765922 65.4547872,101.922506 65.4547872,103.349664" id="Fill-231"></path>
          <path d="M45.6461016,2.58356216 C45.6461016,4.01117854 44.4891595,5.1674832 43.06236,5.1674832 C41.6355605,5.1674832 40.4786184,4.01117854 40.4786184,2.58356216 C40.4786184,1.15630466 41.6355605,-3.10862447e-15 43.06236,-3.10862447e-15 C44.4891595,-3.10862447e-15 45.6461016,1.15630466 45.6461016,2.58356216" id="Fill-243"></path>
          <path d="M45.6461016,23.2536744 C45.6461016,24.6808328 44.4891595,25.837416 43.06236,25.837416 C41.6355605,25.837416 40.4786184,24.6808328 40.4786184,23.2536744 C40.4786184,21.8268749 41.6355605,20.6699328 43.06236,20.6699328 C44.4891595,20.6699328 45.6461016,21.8268749 45.6461016,23.2536744" id="Fill-245"></path>
          <path d="M45.6461016,43.06236 C45.6461016,44.4891595 44.4891595,45.6461016 43.06236,45.6461016 C41.6355605,45.6461016 40.4786184,44.4891595 40.4786184,43.06236 C40.4786184,41.6352016 41.6355605,40.4786184 43.06236,40.4786184 C44.4891595,40.4786184 45.6461016,41.6352016 45.6461016,43.06236" id="Fill-247"></path>
          <path d="M45.6461016,62.8708662 C45.6461016,64.2984825 44.4891595,65.4547872 43.06236,65.4547872 C41.6355605,65.4547872 40.4786184,64.2984825 40.4786184,62.8708662 C40.4786184,61.4436087 41.6355605,60.287304 43.06236,60.287304 C44.4891595,60.287304 45.6461016,61.4436087 45.6461016,62.8708662" id="Fill-249"></path>
          <path d="M45.6461016,83.5409784 C45.6461016,84.9681368 44.4891595,86.12472 43.06236,86.12472 C41.6355605,86.12472 40.4786184,84.9681368 40.4786184,83.5409784 C40.4786184,82.1141789 41.6355605,80.9572368 43.06236,80.9572368 C44.4891595,80.9572368 45.6461016,82.1141789 45.6461016,83.5409784" id="Fill-251"></path>
          <path d="M45.6461016,103.349664 C45.6461016,104.776822 44.4891595,105.933406 43.06236,105.933406 C41.6355605,105.933406 40.4786184,104.776822 40.4786184,103.349664 C40.4786184,101.922506 41.6355605,100.765922 43.06236,100.765922 C44.4891595,100.765922 45.6461016,101.922506 45.6461016,103.349664" id="Fill-253"></path>
          <path d="M24.9761688,2.58356216 C24.9761688,4.01117854 23.8195053,5.1674832 22.3922478,5.1674832 C20.9653491,5.1674832 19.8086856,4.01117854 19.8086856,2.58356216 C19.8086856,1.15630466 20.9653491,-3.10862447e-15 22.3922478,-3.10862447e-15 C23.8195053,-3.10862447e-15 24.9761688,1.15630466 24.9761688,2.58356216" id="Fill-265"></path>
          <path d="M24.9761688,23.2536744 C24.9761688,24.6808328 23.8195053,25.837416 22.3922478,25.837416 C20.9653491,25.837416 19.8086856,24.6808328 19.8086856,23.2536744 C19.8086856,21.8268749 20.9653491,20.6699328 22.3922478,20.6699328 C23.8195053,20.6699328 24.9761688,21.8268749 24.9761688,23.2536744" id="Fill-267"></path>
          <path d="M24.9761688,43.06236 C24.9761688,44.4891595 23.8195053,45.6461016 22.3922478,45.6461016 C20.9653491,45.6461016 19.8086856,44.4891595 19.8086856,43.06236 C19.8086856,41.6352016 20.9653491,40.4786184 22.3922478,40.4786184 C23.8195053,40.4786184 24.9761688,41.6352016 24.9761688,43.06236" id="Fill-269"></path>
          <path d="M24.9761688,62.8708662 C24.9761688,64.2984825 23.8195053,65.4547872 22.3922478,65.4547872 C20.9653491,65.4547872 19.8086856,64.2984825 19.8086856,62.8708662 C19.8086856,61.4436087 20.9653491,60.287304 22.3922478,60.287304 C23.8195053,60.287304 24.9761688,61.4436087 24.9761688,62.8708662" id="Fill-271"></path>
          <path d="M24.9761688,83.5409784 C24.9761688,84.9681368 23.8195053,86.12472 22.3922478,86.12472 C20.9653491,86.12472 19.8086856,84.9681368 19.8086856,83.5409784 C19.8086856,82.1141789 20.9653491,80.9572368 22.3922478,80.9572368 C23.8195053,80.9572368 24.9761688,82.1141789 24.9761688,83.5409784" id="Fill-273"></path>
          <path d="M24.9761688,103.349664 C24.9761688,104.776822 23.8195053,105.933406 22.3922478,105.933406 C20.9653491,105.933406 19.8086856,104.776822 19.8086856,103.349664 C19.8086856,101.922506 20.9653491,100.765922 22.3922478,100.765922 C23.8195053,100.765922 24.9761688,101.922506 24.9761688,103.349664" id="Fill-275"></path>
          <path d="M5.1674832,2.58356216 C5.1674832,4.01117854 4.01054113,5.1674832 2.5837416,5.1674832 C1.15694207,5.1674832 5.37347944e-14,4.01117854 5.37347944e-14,2.58356216 C5.37347944e-14,1.15630466 1.15694207,-3.10862447e-15 2.5837416,-3.10862447e-15 C4.01054113,-3.10862447e-15 5.1674832,1.15630466 5.1674832,2.58356216" id="Fill-287"></path>
          <path d="M5.1674832,23.2536744 C5.1674832,24.6808328 4.01054113,25.837416 2.5837416,25.837416 C1.15694207,25.837416 5.37347944e-14,24.6808328 5.37347944e-14,23.2536744 C5.37347944e-14,21.8268749 1.15694207,20.6699328 2.5837416,20.6699328 C4.01054113,20.6699328 5.1674832,21.8268749 5.1674832,23.2536744" id="Fill-289"></path>
          <path d="M5.1674832,43.06236 C5.1674832,44.4891595 4.01054113,45.6461016 2.5837416,45.6461016 C1.15694207,45.6461016 5.37347944e-14,44.4891595 5.37347944e-14,43.06236 C5.37347944e-14,41.6352016 1.15694207,40.4786184 2.5837416,40.4786184 C4.01054113,40.4786184 5.1674832,41.6352016 5.1674832,43.06236" id="Fill-291"></path>
          <path d="M5.1674832,62.8708662 C5.1674832,64.2984825 4.01054113,65.4547872 2.5837416,65.4547872 C1.15694207,65.4547872 5.37347944e-14,64.2984825 5.37347944e-14,62.8708662 C5.37347944e-14,61.4436087 1.15694207,60.287304 2.5837416,60.287304 C4.01054113,60.287304 5.1674832,61.4436087 5.1674832,62.8708662" id="Fill-293"></path>
          <path d="M5.1674832,83.5409784 C5.1674832,84.9681368 4.01054113,86.12472 2.5837416,86.12472 C1.15694207,86.12472 5.37347944e-14,84.9681368 5.37347944e-14,83.5409784 C5.37347944e-14,82.1141789 1.15694207,80.9572368 2.5837416,80.9572368 C4.01054113,80.9572368 5.1674832,82.1141789 5.1674832,83.5409784" id="Fill-295"></path>
          <path d="M5.1674832,103.349664 C5.1674832,104.776822 4.01054113,105.933406 2.5837416,105.933406 C1.15694207,105.933406 5.37347944e-14,104.776822 5.37347944e-14,103.349664 C5.37347944e-14,101.922506 1.15694207,100.765922 2.5837416,100.765922 C4.01054113,100.765922 5.1674832,101.922506 5.1674832,103.349664" id="Fill-297"></path>
        </g>
        <g id="Rectangle" stroke-width="1" fill-rule="evenodd" transform="translate(0.000000, 44.000000)">
          <mask id="mask-2" fill="white">
            <use xlink:href="#path-1"></use>
          </mask>
          <g id="Mask">
            <use fill="black" fill-opacity="1" filter="url(#filter-3)" xlink:href="#path-1"></use>
            <use fill="#E4E2E2" fill-rule="evenodd" xlink:href="#path-1"></use>
          </g>
          <rect fill="#143059" mask="url(#mask-2)" x="-6" y="-8" width="509" height="59"></rect>
        </g>
        <rect id="Rectangle-Copy-6" fill="#FFFFFF" fill-rule="evenodd" x="55" y="64.5160042" width="214.334038" height="8" rx="4"></rect>
        <g id="Rectangle">
          <use fill="black" fill-opacity="1" filter="url(#filter-5)" xlink:href="#path-4"></use>
          <use fill="#FFFFFF" fill-rule="evenodd" xlink:href="#path-4"></use>
        </g>
        <g id="Owl-icon" stroke-width="1" fill-rule="evenodd" transform="translate(19.000000, 54.000000)" fill="#FFFFFE">
          <path d="M9.06616855,0 L9.06583619,0 C7.60644671,0 6.1676635,0.353978792 4.87910667,1.0269714 C3.60417657,0.368963783 2.1846702,0.0229769865 0.748545862,0.0229769865 L0.721292403,0.0229769865 L-1.78927972e-13,0.0249749853 L-1.78927972e-13,9.10587965 C-0.013221548,13.7588859 1.79414807,18.1368343 5.08915772,21.4308684 C8.37619074,24.7169105 12.7490414,26.5337574 17.4027357,26.5467444 L18.1279436,26.5487424 L18.1279436,0.0249749853 L17.406724,0.0229769865 L17.3794706,0.0229769865 C15.9426815,0.0229769865 14.5235075,0.368963783 13.2489098,1.0266384 C11.9689943,0.358307789 10.5401818,0.00432899745 9.09076313,0 L9.06616855,0 Z M9.06583619,0.724607574 C9.07314809,0.724607574 9.08112472,0.724607574 9.08876898,0.724607574 C10.6046595,0.729269571 12.0241659,1.14052433 13.247248,1.85247791 C14.4653446,1.15084732 15.8755449,0.747251561 17.3794706,0.747251561 C17.3881119,0.747251561 17.3964209,0.747251561 17.4047299,0.747251561 L17.4047299,25.8221368 C8.19339315,25.7964958 0.696697818,18.3422952 0.723216049,9.10587965 L0.723216049,0.747251561 C0.731927899,0.747251561 0.739904521,0.747251561 0.748545862,0.747251561 C2.25247149,0.747251561 3.66233944,1.15118032 4.88110082,1.85247791 C6.11182714,1.13619533 7.53997486,0.724607574 9.06583619,0.724607574 L9.06583619,0.724607574 Z" id="Fill-4"></path>
          <path d="M12.6179456,9.96953641 C11.3068543,9.96547087 10.2465345,8.87711233 10.2508223,7.53728212 C10.2511661,7.28750046 10.2888811,7.04684478 10.358356,6.82004708 C10.54263,7.24322251 10.9555097,7.53897212 11.4378642,7.54032412 C12.0935753,7.54235211 12.6262165,7.00121484 12.6282015,6.33129974 C12.629194,5.83849639 12.3420309,5.41565896 11.9291513,5.22468922 C12.1514711,5.15506131 12.387355,5.11788136 12.6315098,5.11887515 C13.9422703,5.12261335 15.0032518,6.21198589 14.998964,7.5504641 C14.9953118,8.89063231 13.9283753,9.97324486 12.6179456,9.96953641 Z M5.49577214,9.94925644 C4.18501167,9.9455289 3.12469181,8.85581836 3.12832163,7.51632615 C3.13230097,6.17717194 4.19857583,5.09422139 5.50966713,5.0975935 C5.75382191,5.09861539 5.98970586,5.13748533 6.21103316,5.20846524 C5.79815353,5.39673099 5.50867463,5.81821642 5.50668963,6.31068176 C5.50503547,6.98059687 6.03370665,7.52511414 6.68941772,7.52646614 C7.17177228,7.52815613 7.5866369,7.23443453 7.7738884,6.81227309 C7.84137834,7.03940879 7.8771083,7.28107846 7.87677975,7.53018413 C7.87346914,8.87035234 6.80686345,9.95296489 5.49577214,9.94925644 Z M12.6348181,3.90581498 C10.7758673,3.90074499 9.24708789,5.35346704 9.0810097,7.21009856 L9.06512972,7.18846659 L9.0489189,7.21009856 C8.89342738,5.35245305 7.37258793,3.890605 5.51297546,3.88518181 C3.54650392,3.87945102 1.94791871,5.50387684 1.94227967,7.51260815 C1.93667039,9.52235346 3.52599227,11.1555673 5.49246381,11.1613133 C6.19217567,11.1633413 6.84325508,10.9561475 7.39442291,10.601248 L9.0509039,12.3030757 L10.7156557,10.611726 C11.2648385,10.9693295 11.9145946,11.1802412 12.6139756,11.1822692 C14.5814397,11.1880152 16.1800249,9.56392741 16.1856639,7.5538441 C16.1912732,5.54545079 14.6019513,3.91189897 12.6348181,3.90581498 L12.6348181,3.90581498 Z" id="Fill-6"></path>
        </g>
        <g id="Rectangle-Copy-4-+-Rectangle-Copy-8-+-Rectangle-Copy-9-+-Rectangle-Copy-10-Mask" stroke-width="1" fill-rule="evenodd" transform="translate(20.000000, 112.000000)">
          <mask id="mask-7" fill="white">
            <use xlink:href="#path-6"></use>
          </mask>
          <use id="Mask" fill="#FFFFFF" xlink:href="#path-6"></use>
        </g>
        <rect id="Rectangle-Copy-3" fill="#FFFFFF" fill-rule="evenodd" x="261" y="112" width="223" height="137" rx="5"></rect>
        <g id="Group" stroke-width="1" fill-rule="evenodd" transform="translate(40.000000, 158.000000)">
          <polyline id="Path-6" stroke="#28863E" stroke-width="2" points="1.5 45 59.5235732 2.5 119.325926 32.2854046 180 3.39473684"></polyline>
          <polyline id="Path-8" stroke="#82A6C2" stroke-width="2" points="2 50.5 59.5806452 33 119.375931 46.5625 180.5 33"></polyline>
          <polyline id="Path-13" stroke="#F8A97A" stroke-width="2" points="3 57.5 60.3259259 44.7854046 119.325926 53.7854046 182.5 51.4655172"></polyline>
          <circle id="Oval" fill="#28863E" cx="2.5" cy="43.5" r="2.5"></circle>
          <circle id="Oval-Copy-9" fill="#28863E" cx="60" cy="2.5" r="2.5"></circle>
          <circle id="Oval-Copy-12" fill="#28863E" cx="119.5" cy="31.5" r="2.5"></circle>
          <circle id="Oval-Copy-15" fill="#28863E" cx="180.5" cy="2.5" r="2.5"></circle>
          <circle id="Oval-Copy-16" fill="#82A6C2" cx="180.5" cy="33.5" r="2.5"></circle>
          <circle id="Oval-Copy-17" fill="#F8A97A" cx="180.5" cy="51" r="2.5"></circle>
          <circle id="Oval-Copy-13" fill="#82A6C2" cx="119.5" cy="46" r="2.5"></circle>
          <circle id="Oval-Copy-14" fill="#F8A97A" cx="119.5" cy="54" r="2.5"></circle>
          <circle id="Oval-Copy-10" fill="#82A6C2" cx="60" cy="33.5" r="2.5"></circle>
          <circle id="Oval-Copy-11" fill="#F8A97A" cx="60" cy="44.5" r="2.5"></circle>
          <circle id="Oval-Copy-5" fill="#82A6C2" cx="2.5" cy="51" r="2.5"></circle>
          <circle id="Oval-Copy-8" fill="#F8A97A" cx="2.5" cy="58" r="2.5"></circle>
          <polyline id="Path-14" stroke="#8F82A2" stroke-width="2" points="2.32592593 65.7854046 62.3259259 62.7854046 119.325926 65.7854046 180.325926 60.2854046"></polyline>
          <circle id="Oval-Copy-18" fill="#8F82A2" cx="2.5" cy="65.7854046" r="2.5"></circle>
          <circle id="Oval-Copy-19" fill="#8F82A2" cx="60.3259259" cy="62.2854046" r="2.5"></circle>
          <circle id="Oval-Copy-20" fill="#8F82A2" cx="119.325926" cy="65.7854046" r="2.5"></circle>
          <circle id="Oval-Copy-21" fill="#8F82A2" cx="180.325926" cy="60.2854046" r="2.5"></circle>
        </g>
        <g id="Group-2" stroke-width="1" fill-rule="evenodd" transform="translate(92.000000, 317.000000)">
          <rect id="Rectangle" fill="#F8A97A" x="0" y="42" width="35" height="56"></rect>
          <rect id="Rectangle-Copy" fill="#F8A97A" x="57" y="24" width="35" height="74"></rect>
          <rect id="Rectangle-Copy-2" fill="#F8A97A" x="113" y="0" width="35" height="98"></rect>
          <rect id="Rectangle-Copy-5" fill="#F8A97A" x="171" y="38" width="35" height="60"></rect>
          <rect id="Rectangle-Copy-7" fill="#F8A97A" x="228" y="52" width="35" height="46"></rect>
          <rect id="Rectangle-Copy-11" fill="#F8A97A" x="285" y="17" width="35" height="81"></rect>
          <rect id="Rectangle" fill="#82A6C2" x="0" y="63" width="35" height="35"></rect>
          <rect id="Rectangle-Copy-13" fill="#82A6C2" x="57" y="52" width="35" height="46"></rect>
          <rect id="Rectangle-Copy-15" fill="#82A6C2" x="113" y="11" width="35" height="87"></rect>
          <rect id="Rectangle-Copy-17" fill="#82A6C2" x="171" y="57" width="35" height="41"></rect>
          <rect id="Rectangle-Copy-19" fill="#82A6C2" x="228" y="67" width="35" height="31"></rect>
          <rect id="Rectangle-Copy-21" fill="#82A6C2" x="285" y="57" width="35" height="41"></rect>
          <rect id="Rectangle-Copy-12" fill="#28863E" x="0" y="87" width="35" height="11"></rect>
          <rect id="Rectangle-Copy-14" fill="#28863E" x="57" y="80" width="35" height="18"></rect>
          <rect id="Rectangle-Copy-16" fill="#28863E" x="113" y="70" width="35" height="28"></rect>
          <rect id="Rectangle-Copy-18" fill="#28863E" x="171" y="87" width="35" height="11"></rect>
          <rect id="Rectangle-Copy-20" fill="#28863E" x="228" y="74" width="35" height="24"></rect>
          <rect id="Rectangle-Copy-22" fill="#28863E" x="285" y="74" width="35" height="24"></rect>
        </g>
        <g id="Path-16-+-Path-17-+-Path-18-+-Path-19-+-Path-20-Mask" stroke-width="1" fill-rule="evenodd" transform="translate(322.000000, 130.000000)">
          <mask id="mask-9" fill="white">
            <use xlink:href="#path-8"></use>
          </mask>
          <use id="Mask" fill="#F8A97A" xlink:href="#path-8"></use>
          <polygon id="Path-16" fill="#82A6C2" mask="url(#mask-9)" points="51 -4 51 52 2 12"></polygon>
          <polygon id="Path-17" fill="#8F82A2" mask="url(#mask-9)" points="51 52 2 12 -11 45"></polygon>
          <polygon id="Path-18" fill="#FCCC75" mask="url(#mask-9)" points="51 52 -11 45 2 94 62 113"></polygon>
          <polygon id="Path-19" fill="#28863E" mask="url(#mask-9)" points="51 52 62 113 91 102 106 88"></polygon>
          <polygon id="Path-20" fill="#D3E0EB" mask="url(#mask-9)" points="51 52 106 88 117 36"></polygon>
        </g>
        <rect id="Rectangle" fill="#E4E2E2" fill-rule="evenodd" x="35" y="281" width="30" height="30"></rect>
        <rect id="Rectangle-Copy-4" fill="#E4E2E2" fill-rule="evenodd" x="73" y="289" width="98" height="5" rx="2.5"></rect>
        <rect id="Rectangle-Copy-26" fill="#E4E2E2" fill-rule="evenodd" x="424" y="222" width="51" height="5" rx="2.5"></rect>
        <rect id="Rectangle-Copy-28" fill="#E4E2E2" fill-rule="evenodd" x="35" y="123" width="51" height="5" rx="2.5"></rect>
        <rect id="Rectangle-Copy-8" fill="#E4E2E2" fill-rule="evenodd" x="73" y="298" width="98" height="5" rx="2.5"></rect>
        <rect id="Rectangle-Copy-27" fill="#E4E2E2" fill-rule="evenodd" x="424" y="231" width="51" height="5" rx="2.5"></rect>
        <rect id="Rectangle-Copy-29" fill="#E4E2E2" fill-rule="evenodd" x="35" y="132" width="51" height="5" rx="2.5"></rect>
        <rect id="Rectangle" fill="#8F82A2" fill-rule="evenodd" x="92" y="373" width="35" height="8"></rect>
        <rect id="Rectangle-Copy-9" fill="#8F82A2" fill-rule="evenodd" x="149" y="365" width="35" height="12"></rect>
        <rect id="Rectangle-Copy-10" fill="#8F82A2" fill-rule="evenodd" x="205" y="327" width="35" height="22"></rect>
        <rect id="Rectangle-Copy-23" fill="#8F82A2" fill-rule="evenodd" x="263" y="368" width="35" height="7"></rect>
        <rect id="Rectangle-Copy-24" fill="#8F82A2" fill-rule="evenodd" x="320" y="378" width="35" height="8"></rect>
        <rect id="Rectangle-Copy-25" fill="#8F82A2" fill-rule="evenodd" x="377" y="362" width="35" height="12"></rect>
      </g>
    </g>
  </g>
</svg>
