<?xml version="1.0" encoding="UTF-8"?>
<svg xmlns="http://www.w3.org/2000/svg" xmlns:xlink="http://www.w3.org/1999/xlink" width="436px" height="190px" viewBox="0 0 436 190">
  <!-- Generator: Sketch 59.1 (86144) - https://sketch.com -->
  <title>hs_AvoidErrors_Illustration</title>
  <desc>Created with Sketch.</desc>
  <defs>
    <rect id="path-1" x="179.041846" y="84.6348035" width="142.369544" height="96.624576" rx="1.47744"></rect>
    <filter x="-23.9%" y="-30.0%" width="147.8%" height="170.4%" filterUnits="objectBoundingBox" id="filter-2">
      <feMorphology radius="1.5" operator="dilate" in="SourceAlpha" result="shadowSpreadOuter1"></feMorphology>
      <feOffset dx="0" dy="5" in="shadowSpreadOuter1" result="shadowOffsetOuter1"></feOffset>
      <feGaussianBlur stdDeviation="9" in="shadowOffsetOuter1" result="shadowBlurOuter1"></feGaussianBlur>
      <feColorMatrix values="0 0 0 0 0   0 0 0 0 0   0 0 0 0 0  0 0 0 0.1 0" type="matrix" in="shadowBlurOuter1"></feColorMatrix>
    </filter>
    <path d="M140.118085,56.6755122 L139.933763,0.802898537 C139.933081,0.3579726 139.569897,-0.00110239069 139.124112,-2.53153962e-06 L0.804876082,0.454725254 C0.359090198,0.456087967 0,0.817888385 0,1.26281432 L0.324956516,99.7467957 C0.326321864,100.191721 0.689504237,100.551478 1.13529012,100.550245 L139.933763,100.295969 L140.118085,56.6755122 Z" id="path-3"></path>
    <filter x="-24.3%" y="-28.8%" width="148.5%" height="167.6%" filterUnits="objectBoundingBox" id="filter-4">
      <feMorphology radius="1.5" operator="dilate" in="SourceAlpha" result="shadowSpreadOuter1"></feMorphology>
      <feOffset dx="0" dy="5" in="shadowSpreadOuter1" result="shadowOffsetOuter1"></feOffset>
      <feGaussianBlur stdDeviation="9" in="shadowOffsetOuter1" result="shadowBlurOuter1"></feGaussianBlur>
      <feColorMatrix values="0 0 0 0 0   0 0 0 0 0   0 0 0 0 0  0 0 0 0.1 0" type="matrix" in="shadowBlurOuter1"></feColorMatrix>
    </filter>
  </defs>
  <g id="hs_AvoidErrors_Illustration" stroke="none" stroke-width="1" fill="none" fill-rule="evenodd">
    <rect id="Rectangle" fill="#FFFFFF" opacity="0" x="0" y="0" width="436" height="190"></rect>
    <g id="Hootsuite_AvoidErrors_Illustration" transform="translate(6.000000, 0.000000)">
      <g id="Rectangle">
        <use fill="black" fill-opacity="1" filter="url(#filter-2)" xlink:href="#path-1"></use>
        <use fill="#FFFFFF" fill-rule="evenodd" xlink:href="#path-1"></use>
      </g>
      <rect id="Rectangle" fill="#143059" fill-rule="nonzero" x="179.041846" y="84.6348035" width="142.369544" height="96.624576" rx="1.47744"></rect>
      <g id="Group-6" transform="translate(105.756539, 37.022694)">
        <g id="Group-2">
          <g id="Fill-1">
            <g id="path-2-link">
              <g id="path-2">
                <use fill="black" fill-opacity="1" filter="url(#filter-4)" xlink:href="#path-3"></use>
                <use fill="#FFFFFF" fill-rule="evenodd" xlink:href="#path-3"></use>
              </g>
              <path d="M140.118085,56.6755122 L139.933763,0.802898537 C139.933081,0.3579726 139.569897,-0.00110239069 139.124112,-2.53153975e-06 L0.804876082,0.454725254 C0.359090198,0.456087967 -1.42108547e-14,0.817888385 -1.42108547e-14,1.26281432 L0.324956516,99.7467957 C0.326321864,100.191721 0.689504237,100.551478 1.13529012,100.550245 L139.933763,100.295969 L140.118085,56.6755122 Z" id="path-2" fill="#F8A97A"></path>
            </g>
          </g>
          <path d="M73.2853064,47.6121099 L140.502403,47.6121099 L140.502403,100.825645 L127.640277,100.825645 L127.640277,112.07502 C127.640277,112.590617 127.222303,113.008591 126.706706,113.008591 C126.490274,113.008591 126.280565,112.933392 126.113452,112.795856 L111.569002,100.825645 L111.569002,100.825645 L73.2853064,100.825645 L73.2853064,47.6121099 Z" id="Rectangle" fill="#FFFFFF" fill-rule="nonzero"></path>
          <path d="M10.8199736,7.61027887 C10.8179203,9.2334254 9.5006452,10.5479215 7.87744006,10.5465579 C6.25423489,10.5445071 4.93969137,9.22727971 4.941055,7.60413316 C4.94310576,5.98098663 6.2603808,4.66580774 7.88358597,4.66785153 C9.5067911,4.66990487 10.8220175,5.98713232 10.8199736,7.61027887" id="Fill-34" fill="#FFFFFF" fill-rule="nonzero"></path>
          <path d="M19.4366186,7.61929255 C19.4345652,9.24243909 18.1172902,10.5569351 16.494085,10.5555716 C14.8708799,10.5535208 13.5563364,9.23629339 13.5577,7.61314686 C13.5597507,5.98931746 14.8770258,4.67482142 16.5002309,4.67686521 C18.1234362,4.6782357 19.4386625,5.99614602 19.4366186,7.61929255" id="Fill-36" fill="#FFFFFF" fill-rule="nonzero"></path>
          <path d="M28.0536733,7.62864766 C28.0516199,9.2517942 26.7343449,10.5662902 25.1111397,10.5649266 C23.4879346,10.562876 22.1733911,9.24564851 22.1747547,7.62250197 C22.1768054,5.99867258 23.4940805,4.68417654 25.1172856,4.68622033 C26.7404908,4.68827367 28.0557172,6.00550113 28.0536733,7.62864766" id="Fill-38" fill="#FFFFFF" fill-rule="nonzero"></path>
          <polygon id="Path" fill="#143059" fill-rule="nonzero" points="101.654889 88.1851325 88.4530261 74.8563282 92.8536472 70.4133934 101.654889 79.299263 121.017622 59.7503499 125.418243 64.1932847"></polygon>
        </g>
      </g>
      <g id="Group-40" transform="translate(0.853043, 56.160895)" fill-rule="nonzero">
        <path d="M105.011364,51.1944892 C105.011364,51.1944892 104.993609,18.6578101 105.053703,16.2930829 C105.113796,13.9290386 103.599169,8.53175206 116.834745,8.21763872 C127.734871,7.9595195 130.023884,3.33249344 130.495754,1.20198559 C130.581796,0.816855315 130.401516,0.451527844 130.098318,0.25623129 C129.756195,1.22520265 128.953811,2.01185171 127.884422,2.28772516 C126.272143,2.70426677 124.065075,1.92922625 123.985861,0.29378832 L104.966977,0.926794983 C104.185763,0.952743475 103.425035,1.17467138 102.751715,1.57141019 C100.04956,3.16724252 92.6949452,7.52932079 88.9841765,9.93228786 C84.3849814,12.9088531 83.4699226,13.3492946 81.1699836,18.2125886 C75.540323,28.6097401 63.9798516,30.7709765 63.9798516,30.7709765 C63.9798516,30.7709765 27.4717344,38.1219115 26.9711836,37.9156892 L33.8115901,61.401807 C33.8115901,61.401807 74.8308109,50.7424391 86.3899165,50.9732441 C100.61635,51.2552633 105.011364,51.1944892 105.011364,51.1944892" id="Fill-24" fill="#9B9999"></path>
        <path d="M127.884149,2.28799831 C128.953538,2.011442 129.755922,1.2254758 130.098045,0.256504432 C129.948494,0.160221866 129.771628,0.101496328 129.577008,0.108324879 L123.986271,0.294061462 C124.064802,1.92949939 126.271869,2.70453991 127.884149,2.28799831" id="Fill-26" fill="#143059"></path>
        <g id="Group-30" transform="translate(0.000000, 28.730947)" fill="#D9D9D9">
          <path d="M74.6844698,24.1719092 C74.7636838,24.4204684 74.6127674,24.6833676 74.3580533,24.7407274 L59.2035858,28.1242744 C59.6256055,29.4435504 58.850537,30.8454519 57.5093612,31.1902937 L-8.81072992e-13,53.5482434 L-8.81072992e-13,10.9979921 L48.3553581,1.25324394 C49.5135221,1.09618727 50.6170558,1.79338231 50.9728362,2.9064361 L51.1831632,3.56402555 L66.6182941,0.261738354 C66.8415958,0.213938498 67.0648975,0.342998109 67.1345512,0.560828881 L74.6844698,24.1719092 Z" id="Fill-28"></path>
        </g>
      </g>
      <g id="Group-17" transform="translate(261.970485, 0.880644)" fill-rule="nonzero">
        <path d="M81.1388236,40.0205053 L30.4142723,53.1358579 C29.2945957,53.596395 28.3748371,54.440827 27.8180691,55.5179227 L26.8375846,57.4154997 C26.5141679,58.0436914 26.0372307,58.579502 25.4511234,58.9750301 L23.2540737,60.4579184 C22.4700955,60.986886 21.8682949,61.7437269 21.5285028,62.6271644 L20.6837986,64.8272041 C20.4402126,65.4615545 19.9810156,65.9898378 19.3880852,66.3189883 L16.8457848,67.7279718 C15.7035919,68.361638 14.7831509,69.3299291 14.2059136,70.5035117 L11.0060815,76.526387 L39.0052823,75.1663641 L53.4553189,65.0420758 L65.6864718,52.1771471 L90.6643225,40.0205053 L81.1388236,40.0205053 Z" id="Fill-9" fill="#F2B140"></path>
        <path d="M60.3670188,75.303225 C62.8908967,64.7341386 76.2794756,63.4843186 84.32481,62.5200352 C94.2646424,61.3286843 120.374906,59.8066706 162.655602,57.9539941 L163.026087,25.5913043 C163.026087,25.5913043 96.5255869,37.6080213 65.7746317,44.7686595 C60.928357,45.8971584 42.1593541,52.4468712 40.5887451,53.0797244 C29.0521874,57.727522 30.8603689,55.3139999 28.0239914,60.7330089 C26.1537699,64.3085011 30.8931199,67.2297979 24.6642794,70.4679278 L14.9092425,73.7662766 L7.1639914,76.7518981 C5.48277078,77.0783114 3.99532722,78.0507084 3.01825421,79.4610605 L0,83.6811677 L0.0563310348,83.7502824 L52.9762027,84.02332 C57.1371345,81.9873212 59.6007399,79.0806229 60.3670188,75.303225 Z" id="Fill-11" fill="#F2B140"></path>
        <path d="M19.0389385,99.896193 C20.0429627,98.3304478 22.2141533,97.486203 23.6268607,98.3649771 C25.1611365,99.3190238 25.8342268,99.9185162 26.0223503,100.372474 L49.2508437,86.375343 C55.7296967,82.7582238 59.7487099,79.9328577 61.9741496,74.7449254 C70.3033748,55.3278839 31.1416882,66.1471499 28.0368421,70.774021 C25.9669446,73.8586017 25.9669446,76.2274706 28.0368421,77.8806279 C37.3804629,81.4843351 25.0114561,90.1072553 25.0114561,90.1072553 C13.8587823,97.1239751 16.6751621,101.364441 18.0331146,103.251168 C18.4150804,103.781643 19.1219403,104.022088 19.7974067,103.929417 C18.4308454,103.147181 18.0808546,101.391936 19.0389385,99.896193 Z" id="Fill-11-Copy" fill="#F2B140"></path>
        <path d="M19.1326463,99.8960385 C18.1657755,101.391498 18.5190204,103.147553 19.8966583,103.929932 C20.1536893,103.89446 20.4058387,103.816132 20.6332724,103.682273 L26.1686449,100.372319 C25.9775324,99.9180783 25.3009459,99.3188693 23.7551166,98.3648236 C22.3301988,97.4857641 20.1434449,98.3301511 19.1326463,99.8960385" id="Fill-13-Copy" fill="#FFEDD1"></path>
        <g id="Group" transform="translate(115.490051, 41.838555) rotate(6.000000) translate(-115.490051, -41.838555) translate(61.463964, 6.295077)">
          <path d="M11.4889499,66.4234716 L1.55582903,43.8687881 C1.49442081,43.7285056 1.56060522,43.5635882 1.70320876,43.5061065 L20.939675,35.7399323 L31.2378336,58.474588 L11.5585458,66.4515281 C11.5312533,66.4624769 11.5005492,66.4501594 11.4889499,66.4234716" id="Fill-15" fill="#FADA9F" transform="translate(16.385363, 51.097725) rotate(6.000000) translate(-16.385363, -51.097725) "></path>
          <path d="M11.4113825,45.823952 C10.2320361,45.4682744 9.56269571,44.2220398 9.91881473,43.0405358 C10.2742529,41.8597132 11.5189672,41.1906031 12.7003564,41.5469622 C13.8797029,41.9026398 14.5483623,43.1488744 14.1929242,44.329697 C13.8374861,45.511201 12.5914099,46.1796297 11.4113825,45.823952" id="Fill-18" fill="#2F5972" transform="translate(12.055745, 43.685331) rotate(6.000000) translate(-12.055745, -43.685331) "></path>
          <path d="M104.230003,43.896826 L99.0160815,21.1491954 L95.8350918,4.40187678 L22.9320921,40.1444123 C22.6835578,40.2479813 22.5698448,40.5348401 22.6794722,40.780135 L34.2393824,66.637629 C34.3408389,66.8652082 34.6029915,66.9735468 34.8365457,66.8842867 L104.230003,43.896826 Z" id="Fill-20" fill="#D9D9D9" transform="translate(63.433851, 35.658687) rotate(6.000000) translate(-63.433851, -35.658687) "></path>
        </g>
      </g>
    </g>
  </g>
</svg>
