<?xml version="1.0" encoding="UTF-8"?>
<svg xmlns="http://www.w3.org/2000/svg" width="48" height="48" viewBox="0 0 48 48" fill="none">
  <circle cx="24" cy="24" r="24" fill="url(#paint0_radial)"></circle>
  <circle cx="24" cy="24" r="24" fill="url(#paint1_radial)"></circle>
  <path d="M19.0012 24C19.0012 21.2387 21.2392 18.9996 24.0006 18.9996C26.762 18.9996 29.0012 21.2387 29.0012 24C29.0012 26.7613 26.762 29.0004 24.0006 29.0004C21.2392 29.0004 19.0012 26.7613 19.0012 24ZM16.298 24C16.298 28.254 19.7464 31.7023 24.0006 31.7023C28.2548 31.7023 31.7032 28.254 31.7032 24C31.7032 19.746 28.2548 16.2977 24.0006 16.2977C19.7464 16.2977 16.2981 19.7458 16.2981 24H16.298ZM30.2082 15.9923C30.2081 16.3483 30.3135 16.6963 30.5112 16.9924C30.7089 17.2885 30.9899 17.5193 31.3188 17.6557C31.6476 17.7921 32.0095 17.8279 32.3588 17.7586C32.708 17.6892 33.0288 17.5179 33.2806 17.2663C33.5325 17.0147 33.704 16.694 33.7736 16.3449C33.8432 15.9957 33.8077 15.6338 33.6716 15.3048C33.5355 14.9759 33.3049 14.6947 33.0089 14.4968C32.713 14.2989 32.365 14.1931 32.009 14.193H32.0083C31.5311 14.1932 31.0735 14.3828 30.7359 14.7202C30.3984 15.0576 30.2086 15.5151 30.2082 15.9923ZM17.9404 36.2098C16.4779 36.1432 15.6829 35.8996 15.1547 35.6938C14.4543 35.4211 13.9546 35.0964 13.4293 34.5718C12.9039 34.0471 12.5787 33.5479 12.3072 32.8476C12.1013 32.3196 11.8577 31.5245 11.7912 30.062C11.7185 28.4809 11.7039 28.006 11.7039 24.0002C11.7039 19.9945 11.7197 19.5209 11.7912 17.9384C11.8578 16.476 12.1032 15.6824 12.3072 15.1529C12.5799 14.4526 12.9046 13.9529 13.4293 13.4275C13.9539 12.9022 14.4531 12.577 15.1547 12.3055C15.6827 12.0996 16.4779 11.856 17.9404 11.7895C19.5215 11.7168 19.9965 11.7023 24.0006 11.7023C28.0047 11.7023 28.4801 11.7178 30.0626 11.7898C31.5251 11.8564 32.3187 12.1018 32.8483 12.3058C33.5487 12.5772 34.0484 12.9031 34.5737 13.4278C35.0991 13.9524 35.4231 14.4528 35.6958 15.1531C35.9017 15.6811 36.1453 16.4762 36.2118 17.9387C36.2845 19.5211 36.2991 19.9948 36.2991 24.0005C36.2991 28.0062 36.2845 28.4798 36.2118 30.0623C36.1452 31.5247 35.9004 32.3196 35.6958 32.8478C35.4231 33.5482 35.0984 34.0478 34.5737 34.572C34.0491 35.0962 33.5487 35.4214 32.8483 35.694C32.3203 35.8999 31.5251 36.1435 30.0626 36.21C28.4815 36.2827 28.0065 36.2972 24.0006 36.2972C19.9947 36.2972 19.5211 36.2827 17.9404 36.21V36.2098ZM17.8162 9.09084C16.2192 9.16356 15.128 9.41676 14.1751 9.78756C13.1888 10.1705 12.3527 10.6842 11.5178 11.5177C10.6829 12.3512 10.1705 13.1874 9.78759 14.1749C9.41678 15.1284 9.16357 16.219 9.09084 17.8158C9.01692 19.4152 9 19.9265 9 24C9 28.0735 9.01692 28.5848 9.09084 30.1842C9.16357 31.7812 9.41678 32.8716 9.78759 33.8251C10.1705 34.8114 10.6831 35.6491 11.5178 36.4823C12.3526 37.3154 13.1876 37.8284 14.1751 38.2124C15.1298 38.5832 16.2192 38.8364 17.8162 38.9092C19.4164 38.9819 19.9269 39 24.0006 39C28.0743 39 28.5856 38.9831 30.185 38.9092C31.7821 38.8364 32.8726 38.5832 33.8261 38.2124C34.8124 37.8284 35.6485 37.3158 36.4834 36.4823C37.3183 35.6488 37.8296 34.8114 38.2136 33.8251C38.5844 32.8716 38.8388 31.781 38.9104 30.1842C38.9831 28.5836 39 28.0735 39 24C39 19.9265 38.9831 19.4152 38.9104 17.8158C38.8376 16.2188 38.5844 15.1278 38.2136 14.1749C37.8296 13.1886 37.3169 12.3526 36.4834 11.5177C35.6498 10.6829 34.8124 10.1705 33.8273 9.78756C32.8726 9.41676 31.782 9.16236 30.1862 9.09084C28.5866 9.01776 28.0755 9 24.0024 9C19.9293 9 19.417 9.01692 17.8168 9.09084" fill="white"></path>
  <defs>
    <radialGradient id="paint0_radial" cx="0" cy="0" r="1" gradientUnits="userSpaceOnUse" gradientTransform="translate(3.10651 46.9485) scale(60.9422)">
      <stop offset="0.09" stop-color="#FA8F21"></stop>
      <stop offset="0.78" stop-color="#D82D7E"></stop>
    </radialGradient>
    <radialGradient id="paint1_radial" cx="0" cy="0" r="1" gradientUnits="userSpaceOnUse" gradientTransform="translate(33.2479 45.4072) scale(53.6297)">
      <stop offset="0.64" stop-color="#8C3AAA" stop-opacity="0"></stop>
      <stop offset="1" stop-color="#8C3AAA"></stop>
    </radialGradient>
  </defs>
</svg>
