<svg preserveAspectRatio="xMidYMid slice" xmlns="http://www.w3.org/2000/svg" height="185px" viewBox="0 0 100 96" width="185px">
  <g fill="none">
    <path d="m99.0693548 22.7322581-48.3870967-22.5806452c-.4322581-.2016129-.9322581-.2016129-1.3645162 0l-48.38709674 22.5806452c-.56774193.2645161-.93064516.8338709-.93064516 1.4612903 0 .6274193.36290323 1.1967742.93064516 1.4612903l48.38709674 22.5806452c.2161291.1016129.4483871.1516129.6822581.1516129s.466129-.05.6822581-.1516129l17.0596774-7.9612904v41.467742l-7.7645161 10.8693548c-.35.4919355-.3983871 1.1370968-.1209678 1.6758065.2758065.5370967.8290323.8741935 1.433871.8741935h16.1290322c.6048387 0 1.1580646-.3370968 1.433871-.8741935.2758065-.5387097.2290323-1.183871-.1209677-1.6758065l-7.7645162-10.8693548v-42.9725807l28.1016129-13.1145161c.567742-.2645161.9306452-.833871.9306452-1.4612903 0-.6274194-.3629032-1.1967742-.9306452-1.4612903z" fill="#fba919"></path>
    <g fill="#143059">
      <path d="m64.516129 45.3403226-12.4693548 5.8193548c-.6354839.2951613-1.3435484.4532258-2.0467742.4532258s-1.4112903-.1580645-2.0483871-.4532258l-31.8225806-14.8516129v26.5951613c0 9.0435484 14.8774193 16.1290323 33.8709677 16.1290323 5.2322581 0 10.133871-.5532258 14.516129-1.5225807z"></path>
      <path d="m74.1935484 40.8241935v33.4645162c6.0096774-2.8967742 9.6774193-6.8983871 9.6774193-11.3854839v-26.5967742z"></path>
    </g>
  </g>
</svg>