<?xml version="1.0" encoding="UTF-8"?>
<svg xmlns="http://www.w3.org/2000/svg" width="48" height="48" viewBox="0 0 48 48" fill="none">
  <g clip-path="url(#clip0)">
    <rect width="48" height="48" rx="24" fill="#006699"></rect>
  </g>
  <path d="M17.1291 35.9994V18.4566H11.3412V35.9994H17.1297H17.1291ZM14.2363 16.0619C16.2543 16.0619 17.5106 14.7148 17.5106 13.0313C17.4728 11.3095 16.2543 10 14.2747 10C12.2938 10 11 11.3095 11 13.0312C11 14.7146 12.2559 16.0617 14.1984 16.0617H14.2359L14.2363 16.0619ZM20.3328 35.9994H26.1203V26.2038C26.1203 25.6802 26.1581 25.1552 26.311 24.7812C26.7292 23.7332 27.6815 22.6484 29.2808 22.6484C31.3746 22.6484 32.2127 24.257 32.2127 26.6155V35.9994H38V25.9409C38 20.5527 35.145 18.0453 31.3371 18.0453C28.2151 18.0453 26.844 19.8032 26.0822 21.0005H26.1207V18.4572H20.3331C20.4086 20.1029 20.3326 36 20.3326 36L20.3328 35.9994Z" fill="white"></path>
  <defs>
    <clipPath id="clip0">
      <rect width="48" height="48" fill="white"></rect>
    </clipPath>
  </defs>
</svg>
