<svg xmlns="http://www.w3.org/2000/svg" viewBox="0 0 360.5 87"><path d="M88.19 17.75v16.71h16.14V17.75h9.77v43.33h-9.77V43.01H88.19v18.07h-9.77V17.75h9.77zm45.92 37.03c3.86 0 6.24-3.8 6.24-9.45 0-4.63-1.8-9.39-6.24-9.39-4.63 0-6.43 4.76-6.43 9.45 0 5.33 2.25 9.39 6.36 9.39zm-.19 7c-9.19 0-16.27-6-16.27-16.2s6.69-16.65 16.84-16.65c9.58 0 16 6.62 16 16.14 0 11.44-8.16 16.71-16.52 16.71zm36.32-7c3.86 0 6.24-3.8 6.24-9.45 0-4.63-1.8-9.39-6.24-9.39-4.63 0-6.43 4.76-6.43 9.45 0 5.33 2.25 9.39 6.37 9.39zm-.19 7c-9.19 0-16.26-6-16.26-16.2s6.69-16.65 16.84-16.65c9.58 0 16 6.62 16 16.14 0 11.44-8.17 16.71-16.53 16.71zm20.15-24.94v12.92c0 4.44.9 7.46 2.7 9.32a10.41 10.41 0 007.39 2.7 20.58 20.58 0 006.3-.84l-.07-7.39a11.85 11.85 0 01-2.89.26c-2.89 0-3.86-1.74-3.86-5.53V36.84h7v-7.2h-7v-9.53a9.53 9.53 0 00-9.54 9.53zm100.1 0v12.92c0 4.44.9 7.46 2.7 9.32a10.42 10.42 0 007.39 2.7 20.6 20.6 0 006.3-.84l-.07-7.39a11.88 11.88 0 01-2.89.26c-2.89 0-3.86-1.74-3.86-5.53V36.84h7v-7.2h-7v-9.53a9.53 9.53 0 00-9.54 9.53zm-78.36 15.75a19.09 19.09 0 008.42 2.31c3 0 4.18-1 4.18-2.57s-1-2.45-4.57-3.67c-6.56-2.12-9.07-5.72-9-9.38 0-5.92 5-10.35 12.79-10.35a20.65 20.65 0 018.81 1.86l-1.67 6.69a16.72 16.72 0 00-6.82-1.74c-2.38 0-3.72 1-3.72 2.51s1.22 2.32 5.08 3.67c6 2 8.42 5.07 8.49 9.64 0 5.92-4.56 10.22-13.56 10.22a22.21 22.21 0 01-10.16-2.25zm55.3-1.59c0 4.11.13 7.46.26 10.09H259l-.45-4.44h-.19a11.21 11.21 0 01-9.83 5.14c-6.43 0-11.06-4-11.06-13.69V29.64h9.77v16.91c0 4.56 1.48 7.32 5 7.32a5.42 5.42 0 005.27-5.53v-18.7h9.77zm6.68-21.36h9.78v31.44h-9.78zm4.83-4.12a5.12 5.12 0 01-5.4-5.21c0-3 2.19-5.21 5.53-5.21a5.22 5.22 0 11-.06 10.42zm51.96 16.2c0-2.31-1-6.37-5.47-6.37-4.18 0-5.85 3.79-6.11 6.37zm-11.51 6.69c.32 4.12 4.31 6 8.87 6a25.9 25.9 0 008.68-1.35l1.25 6.67a29.77 29.77 0 01-11.38 2c-10.67 0-16.78-6.17-16.78-16.07 0-8 5-16.78 15.88-16.78 10.16 0 14 7.91 14 15.69a25.24 25.24 0 01-.32 3.92zM43.92 8.32a25.23 25.23 0 00-25.33 0A25 25 0 006 5v25.23a50.51 50.51 0 0050.51 50.52V5a25 25 0 00-12.59 3.32z"/><path d="M42.13 14.11a10.83 10.83 0 00-10.81 9.84v-.07.07a10.85 10.85 0 10-5 10.1l5 5.06 5.07-5a10.83 10.83 0 105.84-20zm-21.71 18A7.22 7.22 0 1122.59 18a3.61 3.61 0 104.75 4.78 7.23 7.23 0 01-6.93 9.34zm21.66.06a7.22 7.22 0 01-6.87-9.37A3.61 3.61 0 1040 18a7.22 7.22 0 112.1 14.12z" fill="#fff"/><path d="M344.18 35.14a5.7 5.7 0 01.77-2.88 5.62 5.62 0 012.11-2.12 5.78 5.78 0 015.77 0 5.63 5.63 0 012.12 2.11 5.77 5.77 0 11-10.76 2.89zm.81 0a5 5 0 005 5 4.82 4.82 0 002.48-.67 5 5 0 001.81-1.81 4.94 4.94 0 000-5 5 5 0 00-1.81-1.81 4.94 4.94 0 00-5 0 5 5 0 00-1.81 1.81 4.81 4.81 0 00-.66 2.48zm7.3-1.4a1.86 1.86 0 01-.33 1.08 1.93 1.93 0 01-.92.7l1.82 3h-1.29L350 35.85h-1v2.71h-1.13v-6.83h2a2.88 2.88 0 011.87.5 1.87 1.87 0 01.54 1.51zM349 34.9h.83a1.46 1.46 0 001-.32 1 1 0 00.37-.81 1 1 0 00-.33-.82 1.74 1.74 0 00-1-.25H349z"/></svg>