<?xml version="1.0" encoding="UTF-8"?>
<svg xmlns="http://www.w3.org/2000/svg" xmlns:xlink="http://www.w3.org/1999/xlink" width="119px" height="27px" viewBox="0 0 119 27">
  <!-- Generator: Sketch 59.1 (86144) - https://sketch.com -->
  <title>Hootsuite-Engage-Icon</title>
  <desc>Created with Sketch.</desc>
  <g id="Page" stroke="none" stroke-width="1" fill="none" fill-rule="evenodd">
    <g id="HS-Platform-EngagePage" transform="translate(-563.000000, -156.000000)">
      <g id="Section---Hero" transform="translate(0.000000, 91.000000)">
        <g id="Hootsuite-Engage-Icon" transform="translate(563.000000, 65.000000)">
          <g id="Group-2">
            <g id="engage-icon" transform="translate(0.000000, 1.000000)" fill="#FFF6E8">
              <g id="Engage_Icon">
                <g id="a-heart" transform="translate(0.201350, 0.155004)">
                  <path d="M11.6796557,14.5769696 C15.1180353,14.5769696 17.7849302,10.6591287 17.7849302,7.28848482 L17.7849302,6.16717947 C17.7849302,2.76682097 15.0458821,0 11.6796557,0 C8.3134293,0 5.57438112,2.76682097 5.57438112,6.16717947 L5.57438112,7.28848482 C5.57438112,10.6591287 8.24127605,14.5769696 11.6796557,14.5769696 Z" id="Path"></path>
                  <path d="M13.7460291,21.7505088 C12.3317005,20.3177606 12.0803016,18.1482834 12.9873532,16.4509234 C8.81236907,16.0416621 5.08060877,16.8388913 3.20379583,17.4026048 C1.28778931,17.9781919 0,19.7213501 0,21.7398628 L0,24.0829208 C0,24.3950269 0.489580222,24.8449963 0.798649656,24.8449963 L16.7986497,24.8449963 L13.7460291,21.7505088 Z" id="Path"></path>
                  <path d="M24.7856898,16.0795489 C24.0842178,15.3734828 23.117324,15.0243661 22.1275683,15.1245134 C21.3842756,15.1989245 20.7006472,15.5206265 20.1737068,16.0303145 C19.647324,15.5206265 18.9636955,15.199484 18.2204029,15.1245134 C17.2317623,15.0221282 16.2637533,15.3734828 15.5622813,16.0795489 C14.2786657,17.371952 14.2786657,19.4750442 15.5622813,20.7674473 L19.7783621,25.0139145 C19.8826349,25.119097 20.0248252,25.1784021 20.1731492,25.1784021 C20.3214731,25.1784021 20.4636634,25.119097 20.5679362,25.0139145 L24.7851322,20.7674473 C26.0693054,19.4750442 26.0693054,17.371952 24.7856898,16.0795489 Z" id="Path" fill-rule="nonzero"></path>
                </g>
              </g>
            </g>
            <path d="M36.61,20 L36.61,0.976 L47.572,0.976 L47.572,3.006 L39.017,3.006 L39.017,8.98 L46.238,8.98 L46.238,11.039 L39.017,11.039 L39.017,17.941 L47.862,17.941 L47.862,20 L36.61,20 Z M51.123963,20 L51.123963,5.906 L53.095963,5.906 L53.298963,7.936 L53.385963,7.936 C54.062633,7.25932995 54.7731259,6.69383561 55.517463,6.2395 C56.2618,5.7851644 57.126958,5.558 58.112963,5.558 C59.6016371,5.558 60.6891262,6.02199536 61.375463,6.95 C62.0617997,7.87800464 62.404963,9.25065758 62.404963,11.068 L62.404963,20 L60.026963,20 L60.026963,11.387 C60.026963,10.0529933 59.8142984,9.09116962 59.388963,8.5015 C58.9636275,7.91183039 58.2869676,7.617 57.358963,7.617 C56.6242926,7.617 55.9766324,7.80066483 55.415963,8.168 C54.8552935,8.53533517 54.2172999,9.07666309 53.501963,9.792 L53.501963,20 L51.123963,20 Z M71.2059259,26.496 C70.3359216,26.496 69.5432628,26.4138342 68.8279259,26.2495 C68.112589,26.0851658 67.4987618,25.8386683 66.9864259,25.51 C66.47409,25.1813317 66.0777607,24.7850023 65.7974259,24.321 C65.5170912,23.8569977 65.3769259,23.3156698 65.3769259,22.697 C65.3769259,22.0976637 65.5605908,21.527336 65.9279259,20.986 C66.2952611,20.444664 66.7979227,19.9516689 67.4359259,19.507 L67.4359259,19.391 C67.0879242,19.1783323 66.7930938,18.8835019 66.5514259,18.5065 C66.3097581,18.1294981 66.1889259,17.6606695 66.1889259,17.1 C66.1889259,16.5006637 66.3532576,15.9786689 66.6819259,15.534 C67.0105942,15.0893311 67.3585908,14.7413346 67.7259259,14.49 L67.7259259,14.374 C67.2619236,13.9873314 66.8414278,13.4701699 66.4644259,12.8225 C66.087424,12.1748301 65.8989259,11.4256709 65.8989259,10.575 C65.8989259,9.8016628 66.0390912,9.10566976 66.3194259,8.487 C66.5997607,7.86833024 66.9815902,7.34150218 67.4649259,6.9065 C67.9482617,6.47149783 68.513756,6.13800116 69.1614259,5.906 C69.8090958,5.67399884 70.490589,5.558 71.2059259,5.558 C71.5925945,5.558 71.9550909,5.591833 72.2934259,5.6595 C72.631761,5.72716701 72.9362579,5.80933285 73.2069259,5.906 L78.1079259,5.906 L78.1079259,7.733 L75.2079259,7.733 C75.5365942,8.06166831 75.8120915,8.47733082 76.0344259,8.98 C76.2567604,9.48266918 76.3679259,10.0336637 76.3679259,10.633 C76.3679259,11.3870038 76.2325939,12.068497 75.9619259,12.6775 C75.6912579,13.286503 75.3239282,13.7988313 74.8599259,14.2145 C74.3959236,14.6301687 73.8497624,14.9539988 73.2214259,15.186 C72.5930895,15.4180012 71.9212628,15.534 71.2059259,15.534 C70.8579242,15.534 70.5002611,15.4905004 70.1329259,15.4035 C69.7655908,15.3164996 69.4175942,15.1956674 69.0889259,15.041 C68.8375913,15.2536677 68.6249268,15.4904987 68.4509259,15.7515 C68.2769251,16.0125013 68.1899259,16.3363314 68.1899259,16.723 C68.1899259,17.1676689 68.3639242,17.5349986 68.7119259,17.825 C69.0599277,18.1150015 69.7172544,18.26 70.6839259,18.26 L73.4099259,18.26 C75.0532675,18.26 76.2857552,18.5258307 77.1074259,19.0575 C77.9290967,19.5891693 78.3399259,20.4446608 78.3399259,21.624 C78.3399259,22.2813366 78.1755942,22.9048304 77.8469259,23.4945 C77.5182576,24.0841696 77.0445957,24.6013311 76.4259259,25.046 C75.8072562,25.4906689 75.058097,25.8434987 74.1784259,26.1045 C73.2987549,26.3655013 72.3079314,26.496 71.2059259,26.496 Z M71.2059259,13.939 C71.611928,13.939 71.9937575,13.8616674 72.3514259,13.707 C72.7090944,13.5523326 73.0280912,13.3300015 73.3084259,13.04 C73.5887607,12.7499986 73.8062585,12.3971687 73.9609259,11.9815 C74.1155934,11.5658313 74.1929259,11.0970026 74.1929259,10.575 C74.1929259,9.53099478 73.9029288,8.72383619 73.3229259,8.1535 C72.742923,7.58316382 72.0372634,7.298 71.2059259,7.298 C70.3745884,7.298 69.6689288,7.58316382 69.0889259,8.1535 C68.508923,8.72383619 68.2189259,9.53099478 68.2189259,10.575 C68.2189259,11.0970026 68.2962585,11.5658313 68.4509259,11.9815 C68.6055934,12.3971687 68.8230912,12.7499986 69.1034259,13.04 C69.3837607,13.3300015 69.7027575,13.5523326 70.0604259,13.707 C70.4180944,13.8616674 70.7999239,13.939 71.2059259,13.939 Z M71.5539259,24.843 C72.230596,24.843 72.8444232,24.7608342 73.3954259,24.5965 C73.9464287,24.4321658 74.4152573,24.2195013 74.8019259,23.9585 C75.1885945,23.6974987 75.4882582,23.3930017 75.7009259,23.045 C75.9135937,22.6969983 76.0199259,22.3393352 76.0199259,21.972 C76.0199259,21.3146634 75.7782617,20.8603346 75.2949259,20.609 C74.8115902,20.3576654 74.1059306,20.232 73.1779259,20.232 L70.7419259,20.232 C70.4712579,20.232 70.1764275,20.2175001 69.8574259,20.1885 C69.5384243,20.1594999 69.2242608,20.0966672 68.9149259,20 C68.4122567,20.3673352 68.0449271,20.753998 67.8129259,21.16 C67.5809248,21.566002 67.4649259,21.971998 67.4649259,22.378 C67.4649259,23.1320038 67.8274223,23.7313311 68.5524259,24.176 C69.2774296,24.6206689 70.2779195,24.843 71.5539259,24.843 Z M83.3128889,20.348 C82.1335497,20.348 81.1523928,20.0000035 80.3693889,19.304 C79.586385,18.6079965 79.1948889,17.6220064 79.1948889,16.346 C79.1948889,14.7993256 79.8812154,13.6151708 81.2538889,12.7935 C82.6265624,11.9718292 84.8208738,11.3966683 87.8368889,11.068 C87.8368889,10.6233311 87.7933893,10.1883355 87.7063889,9.763 C87.6193885,9.33766454 87.4695566,8.96066831 87.2568889,8.632 C87.0442212,8.30333169 86.7493908,8.03750102 86.3723889,7.8345 C85.995387,7.63149899 85.5168918,7.53 84.9368889,7.53 C84.1248848,7.53 83.3612258,7.68466512 82.6458889,7.994 C81.930552,8.30333488 81.2925584,8.6513314 80.7318889,9.038 L79.8038889,7.385 C80.4612255,6.95966454 81.2635508,6.54883532 82.2108889,6.1525 C83.158227,5.75616469 84.2022165,5.558 85.3428889,5.558 C87.0635642,5.558 88.3105517,6.08482807 89.0838889,7.1385 C89.8572261,8.19217194 90.2438889,9.59865787 90.2438889,11.358 L90.2438889,20 L88.2718889,20 L88.0688889,18.318 L87.9818889,18.318 C87.3052188,18.8786695 86.5802261,19.3571647 85.8068889,19.7535 C85.0335517,20.1498353 84.2022267,20.348 83.3128889,20.348 Z M84.0088889,18.434 C84.6855589,18.434 85.3235526,18.2745016 85.9228889,17.9555 C86.5222252,17.6364984 87.1602188,17.1676698 87.8368889,16.549 L87.8368889,12.634 C86.6575497,12.7886674 85.6667262,12.9723323 84.8643889,13.185 C84.0620515,13.3976677 83.4143914,13.6489986 82.9213889,13.939 C82.4283864,14.2290015 82.0707233,14.5624981 81.8483889,14.9395 C81.6260544,15.3165019 81.5148889,15.7273311 81.5148889,16.172 C81.5148889,16.9840041 81.7565531,17.5639983 82.2398889,17.912 C82.7232246,18.2600017 83.3128854,18.434 84.0088889,18.434 Z M98.8998519,26.496 C98.0298475,26.496 97.2371888,26.4138342 96.5218519,26.2495 C95.8065149,26.0851658 95.1926877,25.8386683 94.6803519,25.51 C94.168016,25.1813317 93.7716866,24.7850023 93.4913519,24.321 C93.2110171,23.8569977 93.0708519,23.3156698 93.0708519,22.697 C93.0708519,22.0976637 93.2545167,21.527336 93.6218519,20.986 C93.989187,20.444664 94.4918487,19.9516689 95.1298519,19.507 L95.1298519,19.391 C94.7818501,19.1783323 94.4870197,18.8835019 94.2453519,18.5065 C94.003684,18.1294981 93.8828519,17.6606695 93.8828519,17.1 C93.8828519,16.5006637 94.0471835,15.9786689 94.3758519,15.534 C94.7045202,15.0893311 95.0525167,14.7413346 95.4198519,14.49 L95.4198519,14.374 C94.9558495,13.9873314 94.5353537,13.4701699 94.1583519,12.8225 C93.78135,12.1748301 93.5928519,11.4256709 93.5928519,10.575 C93.5928519,9.8016628 93.7330171,9.10566976 94.0133519,8.487 C94.2936866,7.86833024 94.6755161,7.34150218 95.1588519,6.9065 C95.6421876,6.47149783 96.2076819,6.13800116 96.8553519,5.906 C97.5030218,5.67399884 98.1845149,5.558 98.8998519,5.558 C99.2865205,5.558 99.6490168,5.591833 99.9873519,5.6595 C100.325687,5.72716701 100.630184,5.80933285 100.900852,5.906 L105.801852,5.906 L105.801852,7.733 L102.901852,7.733 C103.23052,8.06166831 103.506017,8.47733082 103.728352,8.98 C103.950686,9.48266918 104.061852,10.0336637 104.061852,10.633 C104.061852,11.3870038 103.92652,12.068497 103.655852,12.6775 C103.385184,13.286503 103.017854,13.7988313 102.553852,14.2145 C102.08985,14.6301687 101.543688,14.9539988 100.915352,15.186 C100.287015,15.4180012 99.6151888,15.534 98.8998519,15.534 C98.5518501,15.534 98.194187,15.4905004 97.8268519,15.4035 C97.4595167,15.3164996 97.1115202,15.1956674 96.7828519,15.041 C96.5315173,15.2536677 96.3188527,15.4904987 96.1448519,15.7515 C95.970851,16.0125013 95.8838519,16.3363314 95.8838519,16.723 C95.8838519,17.1676689 96.0578501,17.5349986 96.4058519,17.825 C96.7538536,18.1150015 97.4111804,18.26 98.3778519,18.26 L101.103852,18.26 C102.747193,18.26 103.979681,18.5258307 104.801352,19.0575 C105.623023,19.5891693 106.033852,20.4446608 106.033852,21.624 C106.033852,22.2813366 105.86952,22.9048304 105.540852,23.4945 C105.212184,24.0841696 104.738522,24.6013311 104.119852,25.046 C103.501182,25.4906689 102.752023,25.8434987 101.872352,26.1045 C100.992681,26.3655013 100.001857,26.496 98.8998519,26.496 Z M98.8998519,13.939 C99.3058539,13.939 99.6876834,13.8616674 100.045352,13.707 C100.40302,13.5523326 100.722017,13.3300015 101.002352,13.04 C101.282687,12.7499986 101.500184,12.3971687 101.654852,11.9815 C101.809519,11.5658313 101.886852,11.0970026 101.886852,10.575 C101.886852,9.53099478 101.596855,8.72383619 101.016852,8.1535 C100.436849,7.58316382 99.7311893,7.298 98.8998519,7.298 C98.0685144,7.298 97.3628548,7.58316382 96.7828519,8.1535 C96.202849,8.72383619 95.9128519,9.53099478 95.9128519,10.575 C95.9128519,11.0970026 95.9901844,11.5658313 96.1448519,11.9815 C96.2995193,12.3971687 96.5170171,12.7499986 96.7973519,13.04 C97.0776866,13.3300015 97.3966834,13.5523326 97.7543519,13.707 C98.1120203,13.8616674 98.4938498,13.939 98.8998519,13.939 Z M99.2478519,24.843 C99.9245219,24.843 100.538349,24.7608342 101.089352,24.5965 C101.640355,24.4321658 102.109183,24.2195013 102.495852,23.9585 C102.88252,23.6974987 103.182184,23.3930017 103.394852,23.045 C103.60752,22.6969983 103.713852,22.3393352 103.713852,21.972 C103.713852,21.3146634 103.472188,20.8603346 102.988852,20.609 C102.505516,20.3576654 101.799856,20.232 100.871852,20.232 L98.4358519,20.232 C98.1651838,20.232 97.8703534,20.2175001 97.5513519,20.1885 C97.2323503,20.1594999 96.9181867,20.0966672 96.6088519,20 C96.1061827,20.3673352 95.738853,20.753998 95.5068519,21.16 C95.2748507,21.566002 95.1588519,21.971998 95.1588519,22.378 C95.1588519,23.1320038 95.5213482,23.7313311 96.2463519,24.176 C96.9713555,24.6206689 97.9718455,24.843 99.2478519,24.843 Z M113.529815,20.348 C112.582477,20.348 111.697986,20.178835 110.876315,19.8405 C110.054644,19.502165 109.339318,19.0188365 108.730315,18.3905 C108.121312,17.7621635 107.642817,16.9936712 107.294815,16.085 C106.946813,15.1763288 106.772815,14.1420058 106.772815,12.982 C106.772815,11.8219942 106.951646,10.7828379 107.309315,9.8645 C107.666983,8.94616208 108.140645,8.16800319 108.730315,7.53 C109.319984,6.89199681 109.991811,6.40383503 110.745815,6.0655 C111.499819,5.72716498 112.282811,5.558 113.094815,5.558 C113.984153,5.558 114.781645,5.71266512 115.487315,6.022 C116.192985,6.33133488 116.782646,6.7759971 117.256315,7.356 C117.729984,7.9360029 118.09248,8.63199594 118.343815,9.444 C118.595149,10.2560041 118.720815,11.1646616 118.720815,12.17 C118.720815,12.4213346 118.715982,12.6678321 118.706315,12.9095 C118.696648,13.1511679 118.672482,13.3589991 118.633815,13.533 L109.121815,13.533 C109.218482,15.0410075 109.687311,16.2348289 110.528315,17.1145 C111.369319,17.9941711 112.466475,18.434 113.819815,18.434 C114.496485,18.434 115.119979,18.332501 115.690315,18.1295 C116.260651,17.926499 116.806812,17.6606683 117.328815,17.332 L118.169815,18.898 C117.551145,19.2846686 116.864819,19.6229986 116.110815,19.913 C115.356811,20.2030015 114.496486,20.348 113.529815,20.348 Z" id="Engage" fill="#FEF8EC" fill-rule="nonzero"></path>
            <path d="M109.092815,11.822 C109.170149,11.1259965 109.329647,10.507336 109.571315,9.966 C109.812983,9.42466396 110.11748,8.96550189 110.484815,8.5885 C110.85215,8.21149812 111.262979,7.9263343 111.717315,7.733 C112.17165,7.5396657 112.650146,7.443 113.152815,7.443 C114.25482,7.443 115.110312,7.81516295 115.719315,8.5595 C116.328318,9.30383706 116.632815,10.3913262 116.632815,11.822 L109.092815,11.822 Z" id="Path" fill="#143059" fill-rule="nonzero"></path>
          </g>
        </g>
      </g>
    </g>
  </g>
</svg>
