<?xml version="1.0" encoding="UTF-8"?>
<svg xmlns="http://www.w3.org/2000/svg" height="52" viewBox="0 0 174 52" width="174">
  <g fill="#143059" fill-rule="evenodd">
    <path d="m44.504637 7.20830465-13.2783512-7.20830465v51.881042l13.2783512-10.5615176zm-19.4653421.46327283v32.86479522l-10.6922691 4.6644405v-40.68666067zm-25.00063484 2.23363687-.03866006 29.45091575 8.18350707-2.1591823v-25.9818847z"></path>
    <path d="m77.1126984 27.105291-7.2271573-11.6862434h-3.7935257v21.5015873h3.576556v-15.6945767l7.347696 11.7842593 7.3959115-11.8650794v15.7925926h3.5524483v-21.5222222h-3.7057046zm22.8971906 9.8153439-.0241074-1.9431217c-1.0710726 1.5544974-2.82405 2.307672-4.6958441 2.307672-2.7258971 0-4.6493507-1.771164-4.6493507-4.3247355 0-2.7943121 1.7736412-4.4468254 5.3278115-4.9867725l3.8916787-.6070105v-.2407408c0-1.6043651-1.1916114-2.4761905-3.2597114-2.4761905-1.9716691 0-3.6506013.8253969-5.1091198 2.1374339v-3.473545c1.313872-1.0695767 3.1391727-1.771164 5.3381433-1.771164 4.2085229 0 6.4970369 2.1374339 6.4970369 5.7347884v9.6708994zm-3.8692926-2.5277778c2.2144685 0 3.7470323-1.4341269 3.7470323-3.4993386v-.8253968l-3.3578644.5588624c-1.6307167.2665344-2.4572679.9715609-2.4572679 2.0634921.0241077 1.0455026.8609909 1.7195767 2.0663781 1.7195767zm19.0261756-9.1103174c-.146368-.0980159-.461491-.1203704-.924704-.1203704-2.603636 0-4.208523 2.0170635-4.208523 5.1243386v6.6324074h-3.530063v-15.0617724h3.504233v2.5759259c.73012-1.7488095 2.531313-2.8888889 4.477153-2.8888889.389168 0 .607859.0240741.681904.0980159zm2.290236 11.6380952h3.530063v-5.9772487l.778335-.6878306 5.377749 6.6822751h4.356614l-7.036017-8.5222222 6.54353-6.5601852h-4.356613l-5.668764 5.6849206v-12.1230159h-3.530063zm27.444945-1.2380952c-1.556672.9715608-3.576556 1.6043651-5.815132 1.6043651-4.988581 0-8.127754-3.3772487-8.127754-7.9203704 0-4.5190476 3.139173-7.8481482 7.566388-7.8481482 4.404829 0 7.227157 3.3050265 7.227157 7.775926 0 .4866402 0 .7772486-.098153 1.2380952h-11.16533c.266908 2.0892857 1.997499 3.7417989 4.818105 3.7417989 1.897624 0 3.747032-.6809523 5.572333-2.0170634v3.4253968zm-2.627744-7.8240741c-.218692-2.0634921-1.678932-3.473545-3.819356-3.473545-2.140423 0-3.722924 1.6765873-3.965724 3.473545zm12.458538 6.1904762c.585473 0 1.191611-.1203704 1.653102-.4608466v3.1588625c-.585474.3404762-1.484348.5588624-2.700067.5588624-3.04102 0-4.818105-1.8468254-4.818105-4.9867725v-7.3941799h-2.677682l6.2043-7.8962963v4.8835979h3.989832v3.0126984h-3.98811v6.7544974c0 1.7195767.730121 2.4074074 2.335008 2.4074074zm18.785098-4.6256614c0 4.4227513-3.40608 7.8962963-8.029601 7.8962963s-8.0296-3.473545-8.0296-7.8962963 3.406079-7.8962963 8.0296-7.8962963c4.597692 0 8.029601 3.473545 8.029601 7.8962963zm-12.530861 0c0 2.5759259 1.971669 4.6428572 4.477153 4.6428572 2.531313 0 4.477152-2.0634921 4.477152-4.6428572s-1.971669-4.6428571-4.477152-4.6428571c-2.505484 0-4.477153 2.063492-4.477153 4.6428571z"></path>
  </g>
</svg>
