<svg preserveAspectRatio="xMidYMid slice" xmlns="http://www.w3.org/2000/svg" xmlns:xlink="http://www.w3.org/1999/xlink" height="300px" viewBox="0 0 100 106" width="300px">
  <mask id="a" fill="#fff">
    <path d="m.09222222.32298148h25.04285718v70.21775922h-25.04285718z" fill="#fff" fill-rule="evenodd"></path>
  </mask>
  <mask id="b" fill="#fff">
    <path d="m.35492064.56908148h25.04190476v104.84573352h-25.04190476z" fill="#fff" fill-rule="evenodd"></path>
  </mask>
  <g fill="none" fill-rule="evenodd">
    <path d="m2.50039683 71.0105896h20.04126987c1.3809523 0 2.5007936 1.1175556 2.5007936 2.4966667v29.6342447c0 1.378318-1.1198413 2.496666-2.5007936 2.496666h-20.04126987c-1.38095239 0-2.5-1.118348-2.5-2.496666v-29.6342447c0-1.3791111 1.11904761-2.4966667 2.5-2.4966667" fill="#143059"></path>
    <path d="m2.59301587.32298148h20.04126983c1.3809524 0 2.5007937 1.11834815 2.5007937 2.49666667v65.22402965c0 1.3791111-1.1198413 2.4974592-2.5007937 2.4974592h-20.04126983c-1.38095238 0-2.50079365-1.1183481-2.50079365-2.4974592v-65.22402965c0-1.37831852 1.11984127-2.49666667 2.50079365-2.49666667" fill="#143059" mask="url(#a)" transform="translate(36.507937 35.097585)"></path>
    <path d="m2.85492063.56908148h20.04126987c1.3809524 0 2.5007936 1.11834815 2.5007936 2.49745926v99.85160726c0 1.378319-1.1198412 2.496667-2.5007936 2.496667h-20.04126987c-1.38095238 0-2.49999999-1.118348-2.49999999-2.496667v-99.85160726c0-1.37911111 1.11904761-2.49745926 2.49999999-2.49745926" fill="#fba919" mask="url(#b)" transform="translate(73.809524 .223511)"></path>
  </g>
</svg>