<?xml version="1.0" encoding="UTF-8"?>
<svg xmlns="http://www.w3.org/2000/svg" height="39" viewBox="0 0 289 39" width="289">
  <g fill="#143059" fill-rule="evenodd">
    <path d="m124.00834 6.4c-.128407-3.93796264 1.238382-5.81547409 3.242879-5.81547409 1.152297 0 2.004496.42562566 2.772053.94060627.724754.46898132 1.365347.89037716 1.919372.89037716.727159 0 .981088-.42139584 1.150854-2.01550934h2.902384c.085124 4.07966161-1.153258 5.71977441-3.370324 5.71977441-1.152778 0-2.004977-.42033839-2.772053-.88984843-.768518-.47003878-1.280223-.84649278-1.877051-.84649278-.554988 0-.937804.65720832-1.024371 2.0165668z"></path>
    <path d="m162.481479 9.4h1.518521v11h-1.518521v-4.7882706h-5.962475v4.7882706h-1.519004v-11h1.519004v4.7567161h5.962475z"></path>
    <path d="m173.036333 10.8584961c-1.277493 0-2.326826.3828125-3.148507 1.1508789-.823206.7675781-1.234809 1.746582-1.234809 2.9399414 0 1.1572266.413636 2.1186523 1.238366 2.8867188.825238.7670898 1.857802 1.1533203 3.097184 1.1533203 1.245479 0 2.284649-.3945313 3.115477-1.1757813.833877-.7836914 1.251069-1.7578125 1.251069-2.9257812 0-1.1352539-.417192-2.0917969-1.251069-2.8676758-.830828-.7739258-1.854245-1.1616211-3.067711-1.1616211zm-.065044-1.4584961c1.725175 0 3.161212.52441406 4.309126 1.5732422 1.14639 1.0498047 1.719585 2.3647461 1.719585 3.9458008 0 1.5805664-.579293 2.8896484-1.736354 3.9267578-1.158078 1.0361328-2.616981 1.5541992-4.378742 1.5541992-1.680966 0-3.082448-.5180664-4.202922-1.5541992-1.120983-1.0371094-1.681982-2.3354492-1.681982-3.8964844 0-1.6005859.564556-2.9262695 1.693669-3.9760742 1.127081-1.04882814 2.553462-1.5732422 4.27762-1.5732422z"></path>
    <path d="m181 9.4h9v1.399318h-3.755724v9.600682h-1.54988v-9.600682h-3.694396z"></path>
    <path d="m193 9.4h5.861187v1.4034656h-4.380362v3.3601915h4.230727v1.4099863h-4.230727v3.4223894h4.519175v1.4039672h-6z"></path>
    <path d="m202 9.4h1.449593v9.5675257h4.550407v1.4324743h-6z"></path>
    <path d="m214.16961 15.7779951-1.157512-.7119804c-.725865-.4449878-1.242197-.8855746-1.54948-1.3202934-.306799-.4312959-.462618-.9300734-.462618-1.4948656 0-.8459657.292282-1.5315403.873458-2.0601467.580692-.52909531 1.336075-.790709 2.265182-.790709.886523 0 1.702396.25183374 2.44181.7550122v1.7437653c-.765546-.7432763-1.588676-1.1149144-2.47278-1.1149144-.496976 0-.904912.1154034-1.226228.3476772-.319864.2303179-.478587.5286064-.478587.8919316 0 .3217604.118074.6224939.353738.9036675.234697.2797066.613598.5740831 1.135737.8845965l1.161868.6938876c1.297847.7823961 1.945802 1.7779951 1.945802 2.989731 0 .8601467-.285507 1.5589242-.856521 2.0982885-.570046.5374083-1.312847.806357-2.227437.806357-1.049117 0-2.006775-.3261614-2.868619-.9779951v-1.9535452c.822163 1.0528117 1.774014 1.5784841 2.855553 1.5784841.476651 0 .87249-.1354524 1.189935-.401956.316961-.2699267.476651-.604401.476651-1.007335 0-.6533007-.467457-1.2743276-1.399952-1.8596577"></path>
    <path d="m155 37.4h2v-11h-2z"></path>
    <path d="m168.532737 26.4h1.467263v11h-1.328647l-7.217853-8.4720186v8.4720186h-1.4535v-11h1.250983l7.281754 8.5446473z"></path>
    <path d="m173 26.4h9v1.4003819h-3.756091v9.5996181h-1.549627v-9.5996181h-3.694282z"></path>
    <path d="m185 26.4h5.859754v1.4039672h-4.379638v3.3576835h4.231861v1.4119927h-4.231861v3.4213862h4.519884v1.4049704h-6z"></path>
    <path d="m195.931963 27.7378717h-.446492v3.4731569h.566029c.75124 0 1.268604-.0691225 1.548311-.205364.27829-.1367424.497519-.3421065.653437-.6175948.155446-.2779928.234822-.590046.234822-.9416694 0-.3456126-.087881-.6601703-.26128-.9421702-.172927-.2774919-.416726-.4773462-.731869-.5930513-.314198-.1167069-.835342-.1733072-1.562958-.1733072zm-1.931963 9.6621283v-11h2.599102c1.050792 0 1.884716.2754884 2.500355.8264651.616111.5514776.925112 1.2983015.925112 2.2354629 0 .6411365-.151666 1.1951186-.452634 1.6614453-.303331.4673284-.735649.8169482-1.300733 1.0488593.332625.2294067.656745.5449661.973778.9436729.31656.3997085.76258 1.0954419 1.336641 2.0872.360973.6241064.651547 1.0934384.868414 1.4099995l.549965.786895h-1.768013l-.451217-.7252857c-.015119-.027048-.044885-.0696235-.089771-.1327353l-.289629-.4332681-.460666-.8054278-.496102-.8565184c-.307111-.4523018-.586818-.8124402-.842429-1.0799144-.256555-.267975-.486652-.4598151-.691708-.5785255-.206945-.116206-.551382-.1758117-1.039452-.1758117h-.385542v4.7874869z"></path>
    <path d="m212.531132 26.4h1.468868v11h-1.329304l-7.218045-8.4720186v8.4720186h-1.452651v-11h1.251659l7.279473 8.5446473z"></path>
    <path d="m223.538873 32.7657477-1.648444-3.962968-1.528404 3.962968zm-2.148141-6.3657477h1.026846l4.582422 11h-1.498627l-1.360443-3.2403911h-4.360025l-1.277625 3.2403911h-1.50328z"></path>
    <path d="m227 26.4h9v1.4003819h-3.754986v9.5996181h-1.549864v-9.5996181h-3.69515z"></path>
    <path d="m239 37.4h2v-11h-2z"></path>
    <path d="m249.532616 27.8584314c-1.171383 0-2.133556.3832837-2.886987 1.151316-.753897.7680324-1.13038 1.7479693-1.13038 2.9398109 0 1.1557105.376483 2.1190466 1.132709 2.8870789.755761.7675441 1.703491 1.1498513 2.841325 1.1498513 1.141097 0 2.092088-.3910959 2.85577-1.1727995.764613-.7851214 1.145755-1.7567579 1.145755-2.9246748 0-1.1376449-.381142-2.0926806-1.145755-2.8685251-.763682-.7753562-1.700695-1.1620577-2.812437-1.1620577zm-.057777-1.4584314c1.580947 0 2.896306.5234143 3.94701 1.5741489 1.053498 1.0492698 1.578151 2.3646411 1.578151 3.9446491 0 1.5814728-.530244 2.8895202-1.592596 3.9265835-1.05909 1.0355986-2.399144 1.5546185-4.013173 1.5546185-1.54274 0-2.827813-.5190199-3.855219-1.5546185-1.02694-1.0370633-1.539012-2.3338808-1.539012-3.8958232 0-1.6014914.5158-2.9261396 1.550195-3.9754094 1.033929-1.0507346 2.342765-1.5741489 3.924644-1.5741489z"></path>
    <path d="m266.531609 26.4h1.468391v11h-1.329269l-7.21758-8.4720186v8.4720186h-1.453151v-11h1.252581l7.279028 8.5446473z"></path>
    <path d="m277.537441 32.7657477-1.649835-3.962968-1.526969 3.962968zm-2.150602-6.3657477h1.03039l4.582771 11h-1.49765l-1.362684-3.2403911h-4.360311l-1.27519 3.2403911h-1.504165z"></path>
    <path d="m283 26.4h1.447974v9.5669596h4.552026v1.4330404h-6z"></path>
    <path d="m0 37.1694844 5.55652174-28.7694844 9.06231886 20.7973297 9.3879227-20.7973297 4.9932367 28.7694844h-4.0874396l-2.547343-16.1514355-7.8149759 17.3819511-7.59033812-17.4010479-2.83864734 16.1705323z"></path>
    <path d="m60 14.2295455h-10.8974699v6.4871541h10.5796332v3.8305336h-10.5796332v9.0217391h10.8974699v3.8310277h-15v-27h15z"></path>
    <path d="m79.0695867 10.4v23.1689723h7.9304133v3.8310277h-12v-27z"></path>
    <path d="m100 37.4h4v-27h-4z"></path>
    <path d="m134.130724 27.2648118-3.966043-8.9584381-4.157397 8.9584381zm1.64632 3.7370614h-11.449847l-2.979916 6.3981268h-4.347281l13.234175-28 12.765825 28h-4.417264z"></path>
  </g>
</svg>
