<svg preserveAspectRatio="xMidYMid slice" xmlns="http://www.w3.org/2000/svg" xmlns:xlink="http://www.w3.org/1999/xlink" height="185px" viewBox="0 0 100 100" width="185px">
  <mask id="a" fill="#fff">
    <path d="m.52219988.05143874h23.74690592v31.66267016h-23.74690592z" fill="#fff" fill-rule="evenodd"></path>
  </mask>
  <mask id="b" fill="#fff">
    <path d="m.23816522.05143874h23.74767948v31.66267016h-23.74767948z" fill="#fff" fill-rule="evenodd"></path>
  </mask>
  <mask id="c" fill="#fff">
    <path d="m0 .19376547h91.0294709v39.57843443h-91.0294709z" fill="#fff" fill-rule="evenodd"></path>
  </mask>
  <g fill="none" fill-rule="evenodd">
    <path d="m0 0h100v100h-100z" fill="#fff"></path>
    <g fill="#143059">
      <path d="m22.2904548 27.7564202h-5.9375v-27.70498146h-7.91537745v27.70498146h-5.93672648c-1.09297649 0-1.97865099.886448-1.97865099 1.978651 0 1.0929764.8856745 1.9794245 1.97865099 1.9794245h19.78960393c1.092203 0 1.978651-.8864481 1.978651-1.9794245 0-1.092203-.886448-1.978651-1.978651-1.978651" mask="url(#a)" transform="translate(9.414604 67.172803)"></path>
      <path d="m22.0064202 27.7564202h-5.9367265v-27.70498146h-7.91537749v27.70498146h-5.93672648c-1.09297649 0-1.97942451.886448-1.97942451 1.978651 0 1.0929764.88644802 1.9794245 1.97942451 1.9794245h19.78883047c1.0929765 0 1.9794245-.8864481 1.9794245-1.9794245 0-1.092203-.886448-1.978651-1.9794245-1.978651" mask="url(#b)" transform="translate(65.107673 67.172803)"></path>
      <path d="m25.7677135 15.8127321v-5.93672653c0-1.09297649-.8856745-1.97865099-1.978651-1.97865099h-3.9580755c-1.0929765 0-1.978651.8856745-1.978651 1.97865099v5.93672653z"></path>
      <path d="m81.1775217 15.8127321v-5.93672653c0-1.09297649-.8864481-1.97865099-1.9794245-1.97865099h-3.957302c-1.0929765 0-1.978651.8856745-1.978651 1.97865099v5.93672653z"></path>
    </g>
    <path d="m3.95799814 18.0039449 17.80940596 17.8101795h-17.80940596zm49.47246286 17.8101795h-15.8315285l-31.66150985-31.66228343h15.82998145zm-15.8315285-31.66228343h15.8315285l31.6630569 31.66228343h-15.8315284zm49.4732364 17.81017943-17.8101794-17.81017943h17.8101794zm1.9794245-21.76825493h-87.07301976c-1.09297649 0-1.97865099.88644802-1.97865099 1.97865099v35.62035894c0 1.09375.8856745 1.9794245 1.97865099 1.9794245h87.07301976c1.092203 0 1.9778775-.8856745 1.9778775-1.9794245v-35.62035894c0-1.09220297-.8856745-1.97865099-1.9778775-1.97865099z" fill="#fba919" mask="url(#c)" transform="translate(4 21.535427)"></path>
    <path d="m56.9190903 15.8127321h-16.4719987v-7.57657802c0-4.54904084 3.6881188-8.23561262 8.2363861-8.23561262 4.5474938 0 8.2356126 3.68657178 8.2356126 8.23561262z" fill="#143059"></path>
  </g>
</svg>