<?xml version="1.0" encoding="UTF-8"?>
<svg xmlns="http://www.w3.org/2000/svg" xmlns:xlink="http://www.w3.org/1999/xlink" width="69px" height="69px" viewBox="0 0 69 69">
  <!-- Generator: Sketch 64 (93537) - https://sketch.com -->
  <title>Monitor_Icon</title>
  <desc>Created with Sketch.</desc>
  <g id="HS-Plataform-pages" stroke="none" stroke-width="1" fill="none" fill-rule="evenodd">
    <g id="Hootsuite_PlatformPages_PublishPage" transform="translate(-730.000000, -4462.000000)">
      <g id="Section---Powerful-Features" transform="translate(0.000000, 4265.000000)">
        <g id="Monitor" transform="translate(635.000000, 163.000000)">
          <g id="zoom-split" transform="translate(93.000000, 32.000000)">
            <g transform="translate(3.488372, 3.488372)">
              <path d="M52.682677,47.299171 C51.1960628,45.812557 48.7857852,45.812557 47.2991711,47.2991711 C45.812557,48.7857852 45.812557,51.1960628 47.299171,52.682677 L61.0015335,66.3850394 C62.4881476,67.8716535 64.8984253,67.8716535 66.3850394,66.3850394 C67.8716535,64.8984253 67.8716535,62.4881476 66.3850394,61.0015335 L52.682677,47.299171 Z" id="Path" fill="#143059"></path>
              <path d="M26.2006579,0 C11.7304341,0 0,11.7304341 0,26.2006579 C0,40.6708817 11.7304341,52.4013158 26.2006579,52.4013158 C40.6708817,52.4013158 52.4013158,40.6708817 52.4013158,26.2006579 C52.3851777,11.737124 40.6641918,0.0161380862 26.2006579,0 Z M26.2006579,49.3188854 C13.4328134,49.3188854 3.08243034,38.9685024 3.08243034,26.2006579 C3.08243034,13.4328134 13.4328134,3.08243034 26.2006579,3.08243034 C38.9685024,3.08243034 49.3188854,13.4328134 49.3188854,26.2006579 C49.3044465,38.9625168 38.9625168,49.3044465 26.2006579,49.3188854 L26.2006579,49.3188854 Z" id="Shape" stroke="#FFA600" stroke-width="1.8" fill="#FFA600" fill-rule="nonzero"></path>
              <path d="M25.9786184,8.88157895 C16.5408,8.89271301 8.89271301,16.5408 8.88157895,25.9786184 C8.88157895,26.8370215 9.57745216,27.5328947 10.4358553,27.5328947 C11.2942584,27.5328947 11.9901316,26.8370215 11.9901316,25.9786184 C11.999552,18.2568959 18.2568959,11.999552 25.9786184,11.9901316 C26.8370215,11.9901316 27.5328947,11.2942584 27.5328947,10.4358553 C27.5328947,9.57745216 26.8370215,8.88157895 25.9786184,8.88157895 L25.9786184,8.88157895 Z" id="Path" fill="#143059"></path>
            </g>
          </g>
        </g>
      </g>
    </g>
  </g>
</svg>
