<?xml version="1.0" encoding="UTF-8"?>
<svg xmlns="http://www.w3.org/2000/svg" xmlns:xlink="http://www.w3.org/1999/xlink" height="190" viewBox="0 0 436 190" width="436">
  <filter id="a" height="227.3%" width="160.6%" x="-30.5%" y="-63.9%">
    <feMorphology in="SourceAlpha" operator="dilate" radius="1.5" result="shadowSpreadOuter1"></feMorphology>
    <feOffset dx="0" dy="5" in="shadowSpreadOuter1" result="shadowOffsetOuter1"></feOffset>
    <feGaussianBlur in="shadowOffsetOuter1" result="shadowBlurOuter1" stdDeviation="9"></feGaussianBlur>
    <feColorMatrix in="shadowBlurOuter1" result="shadowMatrixOuter1" type="matrix" values="0 0 0 0 0   0 0 0 0 0   0 0 0 0 0  0 0 0 0.1 0"></feColorMatrix>
    <feMerge>
      <feMergeNode in="shadowMatrixOuter1"></feMergeNode>
      <feMergeNode in="SourceGraphic"></feMergeNode>
    </feMerge>
  </filter>
  <mask id="b" fill="#fff">
    <path d="m.02503282.17772481h34.17753228v63.81744939h-34.17753228z" fill="#fff" fill-rule="evenodd"></path>
  </mask>
  <mask id="c" fill="#fff">
    <path d="m.00531399.31689341h35.56042561v62.66096649h-35.56042561z" fill="#fff" fill-rule="evenodd"></path>
  </mask>
  <mask id="d" fill="#fff">
    <path d="m0 .21778697h219.20908v5.62450043h-219.20908z" fill="#fff" fill-rule="evenodd"></path>
  </mask>
  <g fill="none" fill-rule="evenodd">
    <path d="m0 0h436v190h-436z" fill="#fff" opacity="0"></path>
    <g transform="translate(5 10)">
      <g transform="translate(103)">
        <path d="m17.34453 156.10077h184.75695v-111.60828h-184.75695z" fill="#eaf0f5" fill-rule="nonzero"></path>
        <g fill-rule="nonzero" transform="translate(16.59042 39.96783)">
          <path d="m118.177839 52.5743946h-59.0203374c-3.7048113 0-6.7083003-3.0097803-6.7083003-6.7228613v-3.6881267c0-3.713081 3.003489-6.7228613 6.7083003-6.7228613h59.0203374c3.705319 0 6.7083 3.0097803 6.7083 6.7228613v3.6881267c0 3.713081-3.002981 6.7228613-6.7083 6.7228613" fill="#fff"></path>
          <g fill="#eaf0f5">
            <path d="m118.750077 42.8283592h-52.5574996c-.8380293 0-1.5174988-.6808927-1.5174988-1.5206775 0-.840294.6794695-1.5211868 1.5174988-1.5211868h52.5574996c.838029 0 1.517499.6808928 1.517499 1.5211868 0 .8397848-.67947 1.5206775-1.517499 1.5206775"></path>
            <path d="m95.3036529 48.228445h-29.1109739c-.8385375 0-1.518007-.6808928-1.518007-1.5206775 0-.840294.6794695-1.5211868 1.518007-1.5211868h29.1109739c.8380294 0 1.5174989.6808928 1.5174989 1.5211868 0 .8397847-.6794695 1.5206775-1.5174989 1.5206775"></path>
            <path d="m58.5794189 41.4957548c-1.3823164 0-2.5064649 1.1265032-2.5064649 2.5117152 0 1.3847026 1.1241485 2.5117151 2.5064649 2.5117151 1.3818082 0 2.5064649-1.1270125 2.5064649-2.5117151 0-1.385212-1.1246567-2.5117152-2.5064649-2.5117152m0 5.7435368c-1.7782078 0-3.2250662-1.4498891-3.2250662-3.2318216 0-1.7819326 1.4468584-3.2318217 3.2250662-3.2318217s3.2250662 1.4498891 3.2250662 3.2318217c0 1.7819325-1.4468584 3.2318216-3.2250662 3.2318216"></path>
          </g>
          <path d="m40.156546 52.5418014h2.5003665c4.0712268 0 7.3715072-3.3071935 7.3715072-7.3869482v-2.5056039c0-4.0797547-3.3002804-7.3869482-7.3715072-7.3869482h-2.5003665c-4.0712267 0-7.3715072 3.3071935-7.3715072 7.3869482v2.5056039c0 4.0797547 3.3002805 7.3869482 7.3715072 7.3869482" fill="#fff"></path>
          <path d="m46.0922229 43.9021022c0-2.5931982-2.0978685-4.695461-4.6856461-4.695461s-4.6851379 2.1022628-4.6851379 4.695461 2.0973603 4.695461 4.6851379 4.695461 4.6856461-2.1022628 4.6856461-4.695461" fill="#eaf0f5"></path>
          <path d="m118.177839 73.2746044h-59.0203374c-3.7048113 0-6.7083003-3.0097803-6.7083003-6.722352v-3.688636c0-3.7125717 3.003489-6.7228613 6.7083003-6.7228613h59.0203374c3.705319 0 6.7083 3.0102896 6.7083 6.7228613v3.688636c0 3.7125717-3.002981 6.722352-6.7083 6.722352" fill="#fff"></path>
          <path d="m118.750077 63.52862h-52.5574996c-.8380293 0-1.5174988-.6808928-1.5174988-1.5206775 0-.840294.6794695-1.5211868 1.5174988-1.5211868h52.5574996c.838029 0 1.517499.6808928 1.517499 1.5211868 0 .8397847-.67947 1.5206775-1.517499 1.5206775" fill="#eaf0f5"></path>
          <path d="m95.3036529 68.9286548h-29.1109739c-.8385375 0-1.518007-.6808928-1.518007-1.5206775 0-.840294.6794695-1.5211868 1.518007-1.5211868h29.1109739c.8380294 0 1.5174989.6808928 1.5174989 1.5211868 0 .8397847-.6794695 1.5206775-1.5174989 1.5206775" fill="#eaf0f5"></path>
          <path d="m58.5794189 62.1960155c-1.3823164 0-2.5064649 1.1265033-2.5064649 2.5117152s1.1241485 2.5117151 2.5064649 2.5117151c1.3818082 0 2.5064649-1.1265032 2.5064649-2.5117151s-1.1246567-2.5117152-2.5064649-2.5117152m0 5.7435368c-1.7782078 0-3.2250662-1.4498891-3.2250662-3.2318216 0-1.7819326 1.4468584-3.2318217 3.2250662-3.2318217s3.2250662 1.4498891 3.2250662 3.2318217c0 1.7819325-1.4468584 3.2318216-3.2250662 3.2318216" fill="#eaf0f5"></path>
          <path d="m40.156546 73.2420621h2.5003665c4.0712268 0 7.3715072-3.3071935 7.3715072-7.3869481v-2.5050947c0-4.080264-3.3002804-7.3869482-7.3715072-7.3869482h-2.5003665c-4.0712267 0-7.3715072 3.3066842-7.3715072 7.3869482v2.5050947c0 4.0797546 3.3002805 7.3869481 7.3715072 7.3869481" fill="#fff"></path>
          <path d="m46.0922229 64.6023629c0-2.5931982-2.0978685-4.695461-4.6856461-4.695461s-4.6851379 2.1022628-4.6851379 4.695461 2.0973603 4.695461 4.6851379 4.695461 4.6856461-2.1022628 4.6856461-4.695461" fill="#eaf0f5"></path>
          <path d="m118.177839 93.9748651h-59.0203374c-3.7048113 0-6.7083003-3.0097803-6.7083003-6.722352v-3.688636c0-3.7125716 3.003489-6.722352 6.7083003-6.722352h59.0203374c3.705319 0 6.7083 3.0097804 6.7083 6.722352v3.688636c0 3.7125717-3.002981 6.722352-6.7083 6.722352" fill="#fff"></path>
          <path d="m118.750077 84.2291353h-52.5574996c-.8380293 0-1.5174988-.6808927-1.5174988-1.5211867 0-.8397848.6794695-1.5206775 1.5174988-1.5206775h52.5574996c.838029 0 1.517499.6808927 1.517499 1.5206775 0 .840294-.67947 1.5211867-1.517499 1.5211867" fill="#eaf0f5"></path>
          <path d="m95.3036529 89.6291701h-29.1109739c-.8385375 0-1.518007-.6808927-1.518007-1.5206775 0-.840294.6794695-1.5211867 1.518007-1.5211867h29.1109739c.8380294 0 1.5174989.6808927 1.5174989 1.5211867 0 .8397848-.6794695 1.5206775-1.5174989 1.5206775" fill="#eaf0f5"></path>
          <path d="m58.5794189 82.8965309c-1.3823164 0-2.5064649 1.1265032-2.5064649 2.5117152 0 1.3847026 1.1241485 2.5117151 2.5064649 2.5117151 1.3818082 0 2.5064649-1.1270125 2.5064649-2.5117151 0-1.385212-1.1246567-2.5117152-2.5064649-2.5117152m0 5.7435368c-1.7782078 0-3.2250662-1.4498891-3.2250662-3.2318216 0-1.7819326 1.4468584-3.2318217 3.2250662-3.2318217s3.2250662 1.4498891 3.2250662 3.2318217c0 1.7819325-1.4468584 3.2318216-3.2250662 3.2318216" fill="#eaf0f5"></path>
          <path d="m40.156546 93.9425266h2.5003665c4.0712268 0 7.3715072-3.3071935 7.3715072-7.3869482v-2.5056039c0-4.0797547-3.3002804-7.3869482-7.3715072-7.3869482h-2.5003665c-4.0712267 0-7.3715072 3.3071935-7.3715072 7.3869482v2.5056039c0 4.0797547 3.3002805 7.3869482 7.3715072 7.3869482" fill="#fff"></path>
          <path d="m46.0922229 85.3028783c0-2.5931982-2.0978685-4.695461-4.6856461-4.695461s-4.6851379 2.1022628-4.6851379 4.695461 2.0973603 4.695461 4.6851379 4.695461 4.6856461-2.1022628 4.6856461-4.695461" fill="#eaf0f5"></path>
          <path d="m32.55655 21.7785362c0 .7389494-.5976485 1.3373406-1.3345452 1.3373406-.7374048 0-1.3350533-.5983912-1.3350533-1.3373406 0-.7389495.5976485-1.3373406 1.3350533-1.3373406.7368967 0 1.3345452.5983911 1.3345452 1.3373406" fill="#d5e1eb"></path>
          <path d="m145.764809 73.1582364h-9.622854c-3.704811 0-6.7083-3.0097803-6.7083-6.7228612v-24.2722742c0-3.7125717 3.003489-6.722352 6.7083-6.722352h9.622854c3.704811 0 6.7083 3.0097803 6.7083 6.722352v24.2722742c0 3.7130809-3.003489 6.7228612-6.7083 6.7228612" fill="#fff"></path>
          <path d="m184.713403 112.833252c0 1.333776-1.078918 2.414954-2.409906 2.414954h-177.31562165c-1.33098776 0-2.40990605-1.081178-2.40990605-2.414954v-104.0553881c0-1.33377574 1.07891829-2.41495402 2.40990605-2.41495402h177.31562165c1.330988 0 2.409906 1.08117828 2.409906 2.41495402zm-1.216133-112.55407068h-179.70367538c-1.9149148 0-3.46697155 1.5553078-3.46697155 3.47423373v113.75085295h186.63812693v-113.75085295c0-1.91892593-1.552565-3.47423373-3.46748-3.47423373z" fill="#1b2743"></path>
          <path d="m95.4550471 3.29064223c0 1.00122303-.8105863 1.81350723-1.8097165 1.81350723s-1.8092082-.8122842-1.8092082-1.81350723.810078-1.81299796 1.8092082-1.81299796 1.8097165.81177493 1.8097165 1.81299796" fill="#828080"></path>
        </g>
        <g transform="translate(25.63974)">
          <path d="m59.3219777 59.3273801.820181 6.0596327 2.8095776 3.4853189-14.0204131 26.5620767c-4.7038293.1419153-4.9765445.5244255-5.2914899.8667518-.6665242.7228018-1.5457256 1.2487533-2.5068434 1.4537421l-11.9587672 2.5524417-2.5073522.535616-1.4063152-3.1028087.0345982-1.3550627h.0005088l.0361246-1.4150842-1.9339378-1.0203662 17.2400812-3.9166602c1.4159824-.3021423 2.6671145-1.2884285 3.2964965-2.599238l1.8352312-3.4766717 10.0406021-19.0207257c.2849264-.5412112.4080553-1.1312535.3525964-1.694337l-.4233192-4.31443z" fill="#6f5d88" fill-rule="nonzero"></path>
          <path d="m107.837105 63.4435864c-.191817 1.3637099.074793 1.3570973.65991 2.603816l6.793459 14.4723134-.19487.0116991 1.549796 2.9980253 4.782693-.2807787-8.797102-19.5420993" fill="#f2b140" fill-rule="nonzero"></path>
          <g fill="#fff" filter="url(#a)" transform="translate(5)">
            <path d="m6.1375687 58.2270529c-3.68267347-.4455836-6.30654016-3.7910217-5.86032509-7.4726823l5.37442389-44.3732157c.4457062-3.68115184 3.7925736-6.3042968 7.4747383-5.85871313l140.0998282 16.95964693c3.682673.4455837 6.30654 3.7910218 5.860325 7.4726823l-5.374424 44.3732157c-.446215 3.6816605-3.792574 6.3042968-7.474739 5.8587132z"></path>
          </g>
          <g fill-rule="nonzero">
            <path d="m149.351874 46.2946688-77.0970079-9.3328415c-1.1600574-.1403894-1.9863439-1.194327-1.8459159-2.3535567l.2701713-2.2289356c.140428-1.1597383 1.1946556-1.9857976 2.3542042-1.8454082l77.0970083 9.3328415c1.160057.1403894 1.986853 1.1938184 1.845916 2.3535567l-.269663 2.2289357c-.140428 1.1597383-1.194655 1.9857975-2.354713 1.8454081" fill="#cfccc6"></path>
            <path d="m51.8559907 54.1407557-30.4825435-3.689799c-3.6821647-.4460924-6.3060314-3.7915305-5.8598163-7.473191l3.2761446-27.0508963c.446215-3.6811518 3.7925736-6.30429677 7.4752471-5.8587131l30.4820347 3.6903077c3.6826735.4455836 6.3060314 3.7910218 5.8603251 7.4726823l-3.2766533 27.0508962c-.4457063 3.6811519-3.7920649 6.3042968-7.4747384 5.8587132" fill="#f8a97a"></path>
            <path d="m150.928484 33.2807263-77.0975171-9.3328415c-1.1595486-.1403894-1.9863439-1.1938183-1.8454071-2.3535567l.2696625-2.2289356c.140428-1.1597383 1.1946556-1.9857976 2.3542042-1.8454082l77.0970085 9.3328415c1.160566.1403894 1.986852 1.194327 1.845916 2.3540654l-.269663 2.2289356c-.140428 1.1592297-1.194655 1.9852889-2.354204 1.8448995" fill="#cfccc6"></path>
            <path d="m137.769181 91.3084867-11.481516-1.8576159c-1.456177-.2355083-2.681869-1.2156906-3.230861-2.5839784l-1.628151-3.6180783-4.783202.2812874 5.249769 11.6604567c.548992 1.3682877 1.774684 2.3489787 3.230353 2.584487l14.869595 2.4054398 1.728893-3.4207195.077337-1.4537422.104303-1.9679945c.032055-.6164925.095654-1.3555713-.381597-1.6719561z" fill="#143059"></path>
            <path d="m154.031812 92.2448228c-1.741613 2.53413-5.975822 6.4233226-9.347621 5.5875989-1.329486-.3301185-2.841631.0076299-4.010338-.6236137l.387194-7.8450193c-.142972-1.0529203-1.18855-2.1099099-2.061646-2.89019l-1.185497-.9664486c-1.076106-.267045-1.731945-1.3555713-1.465336-2.4308725l2.425945-9.7774079c.077846-.3148588.255416-.5961462.506253-.802661l.841551-.6922824c.387194-.3184194.470128-.8774336.192325-1.2940238l-.051897-.0783332c-.350562-.5259515-.394827-1.1983963-.116006-1.765549l1.331522-2.707582c.602416-1.2243378 1.553866-2.2436868 2.736311-2.9252873 1.403262-.8092736 2.983586-1.3642185 4.689074-1.5946402 7.02547-.9501716 13.546723 4.0545062 14.447803 11.0841481.835953 6.5199674-3.38808 12.5439941-9.64832 14.0836993-1.016068.2497507-1.722278 2.2747148-1.454142 3.2859253.857832 2.0203862 1.782825 2.3525393 1.782825 2.3525393" fill="#f2b140"></path>
            <path d="m150.451814 77.4768779s2.226496-2.7157206 3.960985-.6515899c0 0 1.004875 2.3728857-2.26262 3.6867471 0 0-.132797 3.8057729 2.383714 5.8597305 5.798761-1.8474428 9.616265-7.6217189 8.817963-13.8492085-.901589-7.0296419-7.422841-12.0343196-14.448312-11.0841481-1.705488.2304217-3.285812.7858753-4.689074 1.5946402-.336824.1937984-.653804.4160816-.950433.6622716 0 0-1.245027 9.5668239 7.187777 13.7815571" fill="#82a6c2"></path>
            <path d="m11.8225114 4.17831335c-1.7400861.3906487-3.50968248 1.74215076-4.65447598.4333759-1.08577303-1.24163212-.38566821-3.67250467-.59020464-4.06671397-.12872567-.24873335-1.59965811 1.80471559-2.66914963 4.01686557-.81865455 1.69382833-3.88364833 9.90457215-3.88364833 9.90457215l1.3544179 22.6042154c.070214 1.176524-.06156445 26.0788524-.0880219 30.2742567-.00254398.393192.315963.7070334.70875437.7070334h31.13431271c.7006136 0 1.2114459-.6627802 1.0318405-1.3403116l-3.9675999-18.397112c-3.2720742-14.5313177-2.8309471-18.8783018-2.8431582-19.6209412-.0117023-.7426395.0005088-7.9737096.0030528-11.0663451l.0015264-2.3479615c.002544-3.6180783-.2299763-7.67309317-2.8797917-10.13702844l-4.7709905-4.96449385c-2.7469955 1.59107959-4.5486461 2.959876-7.8868639 4.00058854" fill="#143059" mask="url(#b)" transform="translate(134.322437 92.066945)"></path>
            <path d="m8.3868589 5.54487167c-1.77264913 3.60536193-3.40588785 8.36181503-3.40334386 11.97989333l.00152639 2.3479615c.00203519 3.0931441.54899208 5.9492541 1.07712348 9.1843136.5281314 3.2345509.92194036 6.3561798.69756083 10.2346906-.2101332 3.6302862-1.6362915 7.1588409-2.37099452 10.3979697l-4.3471625 14.3385366c-.17960538.6770226.33071812 1.3403116 1.03133174 1.3403116h31.13380384c.3933002 0 .7118072-.3143502.7092632-.7070335-.0264575-4.1954042-.178079-21.7135567-.1073562-22.8890634 0 0 3.0146229-13.6950853 2.7393636-19.4744479-.2752592-5.7793626-9.2763888-18.90373459-9.2763888-18.90373459l.0305278-1.3428549c-1.2572377.42727202-1.8784789.48475027-3.245108.58851633-3.4633819.26348441-6.677962-.58953364-9.602019-2.32303723 0 0-3.696411 2.4374851-5.068128 5.22797826" fill="#efa376" mask="url(#c)" transform="translate(.508797 93.08426)"></path>
            <path d="m30.154115 86.5045251c.4487591-1.7553759 1.5818502-2.4532535 2.3526779-2.7777768l1.2404473-.5234082c1.0216646-.4308326 1.5004427-1.6078652 1.0700003-2.6292488l-3.9151937-9.2814672c-.1261817-.2990904-.3454733-.5493497-.6248029-.7141546l-.9397482-.553419c-.43146-.2538199-.6003806-.7935052-.3907562-1.2487533l.0396862-.0854544c.2645745-.5737653.20301-1.2451927-.1602711-1.7619884l-1.7360158-2.4674959c-.5596768-.7960484-1.2842039-1.4532335-2.1125256-1.9476482-.0010175-.003052-.0035615-.0111905-.0035615-.0111905-.0157727-.0096645-.035107-.0152597-.0508797-.0249242-.3164718-.1846425-.6451548-.3489388-.990628-.4816983-1.5116362-.5813951-3.1591213-.8840462-4.8793643-.8474228-7.0880525.1525971-12.75249071 6.1089724-12.55100705 13.1935493.01170233.4018392.04273895.7985917.09005709 1.1902577.01577271.1307249.04375655.2568719.06359963.3860708.03917738.2583979.07682837.5173044.13177846.7706156.03256301.1515799.07733716.2985818.11549694.448127.05698527.2243178.11142657.4496529.18011418.6688841.04884452.1576838.10888258.3102809.16434146.4649127.07275799.2049888.14348079.4104863.22590592.6108972.06512603.1556491.1394104.3062116.20962441.4593174.08853069.1907465.1750262.3820016.27220645.5676614.07937235.1520885.16688545.2980731.25236336.446601.10226822.17803.20351885.3555514.31443662.5279861.09310987.145476.1933429.2858654.29255834.4277807.11549694.1653136.23099388.3301185.35463158.4893282.1063386.1383547.21878276.2711143.33071812.4043824.12770807.1531058.25643374.3046857.39126498.4511789.11905851.1291989.24269621.2538199.36684271.3779323.1399192.1398807.2803472.2777268.426372.4104863.1307608.1195345.2645745.234491.4004233.3479215.1506039.1266556.3027343.2502593.458935.3697938.1414456.1078353.2849264.21211.4309511.3143501.1602711.1124132.3230862.2212659.4889541.3265579.1511127.0961362.3042606.1892204.4594438.2787441.1694294.0981708.3419116.1912551.5159202.2812874.1602711.0829111.321051.1642963.4853925.2405949.178079.0829111.3597195.1597183.5418689.2344909.1684118.0691774.3363149.1368288.5077795.1988849.1867285.0671428.3765099.1271643.5668.1861686.1745174.0539176.348526.1078353.5260962.1541231.1953781.0513744.3933002.0935929.5922398.1358114.1790966.0381493.3576844.0768073.5398338.1078354.0554588.0091558.1093913.0239069.165359.032554.0030528-.0030519.005088-.0066125.0081408-.0096645.280856.0432359.561712.0874891.8486735.1124133.225906.0198376.7520022.0457791.439092 1.0442731-.0590205.1876945-1.3452596-.0808765-1.4393871.092067l-.3983881.7650203c-1.0104711 2.7065648-1.509601 3.176564-2.8965819 4.7874812-.1358489.1581924-.2996815.3621639-.4243368.4959407-1.0501573 1.1312535.0142463 1.4339045 1.5452168 1.9522262.6741562.2278784 8.2481099 3.455308 11.472866 3.3062715 2.3175708-.1073267.980452-2.5580368.8985357-3.5921368z" fill="#8f83a2"></path>
            <path d="m8.88573446 62.289189c-3.04820348 3.2355682-3.88364833 7.0342198-3.58345803 10.90917.29459352 3.801195 2.07385701 7.3353449 4.81525587 9.9854487.1699382.1642963.3469996.3372397.5296578.519339 1.0618595 1.0564809 2.3099388 1.8972911 3.6440048 2.5788917 1.208902.6180185 2.189354.4038738 2.5317745 2.3759376.877675-.2294044 2.5816365.1561578 2.3577658-.9491542-.436548-2.1541631-.6400668-3.0209149-1.6118693-5.0240068-.8390064-1.729943-3.4119934-3.5346586-1.4012272-5.6786485 1.1564958-1.2334936 3.4292925-.1724348 4.4616418.5768172-2.1079464-4.707622 4.187909-8.326209 5.4059693-12.1279126 3.5625974-11.1172108-13.0465755-7.520496-17.14951534-3.1658821" fill="#1b2e46"></path>
            <path d="m12.3320717 80.9453093c1.0969665 3.2732088-.6685594 6.8154972-3.94317762 7.9116534-3.27410939 1.0961562-6.81686365-.6683755-7.91383022-3.9415843-1.09645777-3.2732088.6690682-6.8154973 3.94317759-7.9121621 3.27410939-1.0961562 6.81737245.6683755 7.91383025 3.942093" fill="#1b2e46"></path>
            <path d="m53.5813726 98.567533c-.6761913 1.788947-2.1400006 3.199454-3.977267 3.816963l-19.487438 7.32212.870043-12.6945566 13.2246545-1.9766417c1.1951644-.1785386 2.2071618-.9633966 2.6676232-2.0676913l5.5214662-11.8374694 5.5062023-11.8074586c.4105993-.8794682.529149-1.8657544.3378413-2.8169433l-2.0082222-9.771304c.1770614-.0233982 1.2562201.4170989 1.5747271.9135483.9265195 1.4440776 1.4312462 4.172006 1.8917076 3.6948856.2564338-.2660277.4604614-.5442632.5749408-.8082563l4.3792167-10.0795502c.1165145-.267045.4126344-.409469.697052-.3346964l.0279838.0071212c.3124015.0818938.5006564.394718.4258632.7049988l-1.8560918 7.6476604c-.0559677.231439.0819163.4654213.313419.531038l.0829339.0233983c.1999573.0564609.4131433-.0295021.5149027-.2090581l4.6076666-8.1196942c.1475512-.2599238.4686021-.3687765.7469142-.2533113.3027342.1256383.4451974.4705079.3179982.7690896l-3.6506193 8.5805376c-.0732668.1724348-.0295102.3723371.110409.4995014l.1348312.1220777c.1994485.1815906.5143939.1485279.6700858-.0696861l4.0932727-5.7254449c.1836758-.2558546.5377986-.3240146.8049171-.1546318l.1643414.1047834c.2747505.1739607.356158.5335813.1836758.8057129l-3.8805956 6.1150764c-.1048122.1648049-.0885307.3779322.0396862.5254428.175535.2019369.4904804.2070235.6716122.0106818l3.0792401-3.3276351c.213186-.2304217.5729055-.2548373.8166194-.054935l.0793723.0651081c.2401522.1968503.2849264.5437545.1037946.7935052l-4.4906433 6.1995134-3.5977043 3.9446363c-.2198004.3748803-1.9720976 2.4822469-2.1186312 2.8912073-.5754495 1.6109172-10.1678014 26.0203568-10.1678014 26.0203568" fill="#8f83a2"></path>
            <path d="m30.9866089 97.0120086-13.3696617 1.9980053c-3.6088978.3972612-6.5232877 3.2971161-6.7776862 7.0067521-.285944 4.17455 2.9052314 7.792628 7.1282474 8.082054.9336427.064091 1.8393016-.040184 2.6869576-.286374l9.4626086-4.105881z" fill="#efa376"></path>
            <path d="m114.476297 100.378607c.622767 1.71214 1.990414 3.07178 3.71778 3.678608l28.19143 8.589694c.796777.243138 1.650029.350973 2.530248.299599 3.98439-.234491 7.023436-3.653176 6.78888-7.635961-.208098-3.538728-2.93118-6.332782-6.330454-6.7468289l-25.039432-4.050437c-1.12495-.1820992-2.07233-.9399984-2.497176-1.9980053l-5.104761-11.3405113-9.045395.5320554z" fill="#43597a"></path>
            <path d="m107.687519 81.7068199 9.044886-.5320554-5.251295-11.1874055c-.452321-.9633966-.614627-2.0371719-.466567-3.0916182l1.950219-8.5795203c-.307313-.0442531-1.213481.2711143-1.498916.9689919-.220818.5396853-1.147846 3.2604924-1.537585 2.9659799-.19436-.1464933-.351579-.5585055-.44825-.7889272l-4.043411-9.6538042c-.106847-.2553459-.385668-.3942093-.653804-.3260493l-.026966.0066126c-.294594.0752812-.475217.3718284-.407038.6678668l1.684627 7.309912c.051389.2212659-.081407.4425318-.299681.5035706l-.077846.0213636c-.189782.051883-.389739-.032554-.483866-.2044802l-4.275931-7.7870324c-.136358-.249242-.438583-.35606-.70214-.2487333-.286453.1169911-.4238282.4440577-.3057873.729923l3.3687453 8.2168477c.06767.1653136.024423.3550427-.108373.4750858l-.128217.1154652c-.189273.1709088-.485902.1363201-.630909-.0732467l-3.8103813-5.4985838c-.1709558-.2461901-.5042179-.3143502-.7581077-.1551405l-.1556919.0976622c-.2599953.163279-.3398765.5050966-.1796054.7665463l3.6068623 5.8683777c.097181.1581923.079882.3606379-.04223.5005186-.166885.1907464-.464023.1927811-.632943.0035606l-2.874704-3.2025055c-.1994485-.2222831-.5377985-.2487333-.76981-.0605302l-.075302.0610389c-.2279411.1851512-.2737328.5152697-.105321.7558645l4.182312 5.9548494 3.338727 5.8734642c.204028.3591119.378036.7345009.518464 1.1226063z" fill="#f2b140"></path>
          </g>
        </g>
        <g fill-rule="nonzero" transform="translate(0 154.59255)">
          <path d="m128.9951.21778697c-.555489 1.83399552-2.398632 3.18071996-4.586473 3.18071996h-29.6073906c-2.1888594 0-4.0320022-1.34672444-4.5869817-3.18071996h-82.84946229c-.46791389 0-.82432272.3777511-.75864166.8000527.42616313 2.72732583 2.99892575 4.82444773 6.10884735 4.82444773h193.7788489c3.110431 0 5.682684-2.0971219 6.108848-4.82444773.06619-.4223016-.290728-.8000527-.758133-.8000527z" fill="#1b2743" mask="url(#d)"></path>
          <path d="m94.8010327 3.3982749h29.6073913c2.18835 0 4.031493-1.34626038 4.586981-3.25821927h-38.781354c.5554887 1.91195889 2.3986315 3.25821927 4.5869817 3.25821927" fill="#6d7c9d"></path>
        </g>
      </g>
      <g fill-rule="nonzero">
        <path d="m13.1672563 170c-6.16750075 0-11.1672563-2.598766-11.1672563-5.804674v-4.195326h425v4.195326c0 3.205908-4.999485 5.804674-11.166986 5.804674z" fill="#cfccc6"></path>
        <g transform="translate(343 91)">
          <path d="m0 0 13.0631881 67.9622871c.2003469.6223115.7324901 1.0377129 1.3292248 1.0377129h23.49983c.5965081 0 1.1288779-.4154014 1.3289982-1.0377129l12.7787589-67.9622871z" fill="#edeae3"></path>
          <path d="m40 36c0 7.7318992-6.2681008 14-14 14-7.7321263 0-14-6.2681008-14-14s6.2678737-14 14-14c7.7318992 0 14 6.2681008 14 14" fill="#fffffe"></path>
        </g>
        <g transform="translate(.872 45.585987)">
          <path d="m45.768 71.0338324v-50.0338324h2.1273147v50.1180133z" fill="#9b9a9a"></path>
          <path d="m21.0160246 72.3562836 7.1843554 41.0867554c.0884773.50586.5289191.874974 1.043643.874974h37.079954c.5147239 0 .9551657-.369114 1.043643-.874974l7.1843554-41.0867554c.1129786-.6464842-.3857999-1.2382703-1.0436431-1.2382703h-51.4486646c-.6578432 0-1.1566217.5917861-1.0436431 1.2382703" fill="#edeae3"></path>
          <g fill="#9b9a9a">
            <path d="m33.368 51.6996485s3.709857 4.5649266 14 5.0183648v-1.984605s-6.0115079.3968816-12.0503065-3.487395z"></path>
            <path d="m47.128 54.6996485s3.709857 4.5649266 14 5.0183648v-1.984605s-6.0115079.3968816-12.0503065-3.487395z" transform="matrix(-1 0 0 1 108.256 0)"></path>
            <path d="m46.368 34.6996485s3.709857 4.5649266 14 5.0183648v-1.984605s-6.0115079.3968816-12.0503065-3.487395z" transform="matrix(-1 0 0 1 106.736 0)"></path>
          </g>
          <path d="m32.9799167 31.4155599c9.0242366 8.7664052 9.3744842 23.6617401 1.7829162 28.4189389-7.591568 4.7570342-21.5567975-1.6180994-24.5017365-13.9276351-3.61538053-15.1129027-6.87157853-22.5893707-.56094853-26.2832518 6.56730493-3.8439733 13.04233693 1.8470228 23.27976883 11.791948" fill="#edeae3" transform="matrix(.94551858 -.32556815 .32556815 .94551858 -11.734685 9.704313)"></path>
          <path d="m83.4003918 39.508475c8.4933992 8.1547955 8.823044 22.0109209 1.6780388 26.4362221-7.1450052 4.4251482-20.2887506-1.5052086-23.0604579-12.9559396-3.4027111-14.0585141-6.467368-21.0133681-.5279516-24.4495365 6.1809929-3.5757891 12.2751406 1.7181608 21.9103707 10.969254" fill="#edeae3" transform="matrix(.01745241 .9998477 -.9998477 .01745241 120.24108 -27.530186)"></path>
          <path d="m76.190154 23.8108366c8.758818 8.3586655 9.0987642 22.561194 1.7304776 27.0971277-7.3682866 4.5357769-20.9227741-1.5428388-23.7810973-13.2798381-3.5090458-14.4099769-6.6694732-21.5387022-.54445-25.0607749 6.3741489-3.66518385 12.6587387 1.7611148 22.5950697 11.2434853" fill="#cfccc6" transform="matrix(.2923717 .95630476 -.95630476 .2923717 77.66738 -41.133415)"></path>
          <path d="m53.1901542 15.8108368c8.758818 8.3586655 9.0987642 22.561194 1.7304776 27.0971277-7.3682866 4.5357769-20.9227741-1.5428388-23.7810973-13.2798381-3.5090458-14.4099769-6.6694732-21.53870225-.54445-25.06077492 6.3741489-3.66518385 12.6587387 1.7611148 22.5950697 11.24348532" fill="#cfccc6" transform="matrix(.97437006 .22495105 -.22495105 .97437006 6.497665 -9.20125)"></path>
        </g>
      </g>
    </g>
    <path d="m348 101 4.983398-9.8252355h42.125977l4.890625 9.8252355z" fill="#cfccc6" fill-rule="nonzero"></path>
  </g>
</svg>
