<?xml version="1.0" encoding="UTF-8"?>
<svg xmlns="http://www.w3.org/2000/svg" width="300" height="300" viewBox="0 0 300 300" fill="none">
  <g filter="url(#filter0_d)">
    <path d="M255.523 42.2268H95.561V166.069H255.523V42.2268Z" fill="white"></path>
  </g>
  <path fill-rule="evenodd" clip-rule="evenodd" d="M210.452 60.8058C209.697 60.8718 209.06 61.3849 208.843 62.1008C208.627 62.8166 208.875 63.5902 209.469 64.0529L216.922 70.1485C173.496 73.1119 143.295 99.9281 134.89 138.851C134.642 139.522 134.813 140.274 135.329 140.775C135.845 141.277 136.61 141.435 137.286 141.18C137.963 140.925 138.426 140.305 138.472 139.592C146.527 102.288 174.737 76.9544 216.344 73.8514L209.469 79.4912C208.841 79.8551 208.488 80.5489 208.568 81.2631C208.648 81.9772 209.146 82.5785 209.839 82.7987C210.533 83.0188 211.293 82.8167 211.78 82.2826L222.872 73.1678C223.29 72.8214 223.531 72.3105 223.531 71.7721C223.531 71.2336 223.29 70.7228 222.872 70.3764L211.78 61.2615C211.416 60.9429 210.938 60.7791 210.452 60.8058Z" fill="#CFCCC7"></path>
  <path fill-rule="evenodd" clip-rule="evenodd" d="M145.098 60.803C139.419 60.803 134.778 65.4438 134.778 71.1231C134.778 76.8024 139.419 81.4433 145.098 81.4433C150.777 81.4433 155.418 76.8024 155.418 71.1231C155.418 65.4438 150.777 60.803 145.098 60.803Z" fill="#FDBB48"></path>
  <path fill-rule="evenodd" clip-rule="evenodd" d="M202.891 91.7637C197.212 91.7637 192.571 96.4045 192.571 102.084C192.571 107.763 197.212 112.404 202.891 112.404C208.57 112.404 213.211 107.763 213.211 102.084C213.211 96.4045 208.57 91.7637 202.891 91.7637Z" fill="#FDBB48"></path>
  <path fill-rule="evenodd" clip-rule="evenodd" d="M163.157 114.479C162.491 114.544 161.923 114.992 161.704 115.626C161.486 116.26 161.656 116.964 162.14 117.427L169.472 124.825L162.14 132.17C161.706 132.609 161.54 133.248 161.705 133.845C161.87 134.441 162.341 134.903 162.94 135.055C163.539 135.207 164.173 135.027 164.602 134.582L171.933 127.238L179.265 134.582C179.931 135.256 181.015 135.265 181.692 134.602C182.369 133.938 182.384 132.852 181.726 132.17L174.395 124.825L181.726 117.427C182.242 116.929 182.394 116.163 182.108 115.505C181.821 114.848 181.157 114.438 180.442 114.479C179.995 114.496 179.572 114.689 179.265 115.015L171.933 122.359L164.602 115.015C164.232 114.617 163.696 114.418 163.157 114.479Z" fill="#82A6C2"></path>
  <path d="M287 249.662L257.072 250.868C256.759 250.685 220.401 253.27 220.045 253.292L201.544 254.477L148.074 257.895L144.973 206.964L141.799 154.864L281.007 146.188L287 249.662Z" fill="#143059"></path>
  <path fill-rule="evenodd" clip-rule="evenodd" d="M174.229 197.301C176.368 197.754 178.401 196.688 178.916 194.9C178.791 194.637 178.614 194.396 178.377 194.203L172.554 189.545C172.06 189.929 171.544 190.891 170.874 192.928C170.256 194.804 171.989 196.827 174.229 197.301Z" fill="#FFEDD1"></path>
  <path fill-rule="evenodd" clip-rule="evenodd" d="M178.915 194.9C178.401 196.688 176.368 197.754 174.229 197.301C171.989 196.826 170.255 194.803 170.874 192.928C171.544 190.892 172.06 189.928 172.554 189.545L147.935 169.85C141.417 164.243 136.541 161.657 129.601 160.612C118.156 158.889 110.852 147.717 108.719 144.006L82.7046 158.912L104.801 202.828C105.517 204.251 106.699 205.365 108.136 205.972L110.668 207.04C111.507 207.393 112.244 207.959 112.816 208.686L114.96 211.411C115.724 212.382 116.758 213.087 117.924 213.431L120.825 214.283C121.662 214.53 122.388 215.073 122.876 215.818L124.965 219.007C125.903 220.44 127.244 221.54 128.806 222.162L133.81 224.152L138.463 240.797C139.073 242.978 140.483 244.828 142.395 245.949L148.109 249.304L148.202 249.349L143.708 193.839C145.094 182.3 159.635 192.331 159.635 192.331C171.819 201.671 176.787 199.289 178.656 197.077C179.181 196.456 179.246 195.595 178.915 194.9Z" fill="#FAA81A"></path>
  <path fill-rule="evenodd" clip-rule="evenodd" d="M109.083 143.719L96.9544 119.296L69.0796 135.448L80.9737 159.479C81.0629 159.66 81.2803 159.729 81.453 159.63L109.055 143.814C109.087 143.795 109.1 143.753 109.083 143.719Z" fill="#143059"></path>
  <mask id="mask0" maskUnits="userSpaceOnUse" x="13" y="44" width="85" height="95">
    <path d="M13 44.1208H97.0183V138.034H13V44.1208Z" fill="white"></path>
  </mask>
  <g mask="url(#mask0)">
    <path fill-rule="evenodd" clip-rule="evenodd" d="M60.2501 44.2798L12.9995 51.8561L63.9138 137.695C64.0748 138.011 64.4546 138.127 64.7561 137.953L97.0184 119.259L60.2501 44.2798Z" fill="#82A6C2"></path>
  </g>
  <path fill-rule="evenodd" clip-rule="evenodd" d="M84.5349 147.027C84.2159 148.632 82.698 149.666 81.145 149.337C79.592 149.009 78.5923 147.441 78.9107 145.836C79.2305 144.231 80.7483 143.196 82.3013 143.525C83.8543 143.854 84.8548 145.422 84.5349 147.027Z" fill="#D4D1D4"></path>
  <path fill-rule="evenodd" clip-rule="evenodd" d="M235.774 179.154C232.599 176.423 228.463 175.074 224.286 175.407L224.143 175.418C219.389 175.808 215.085 178.374 212.487 182.368C209.255 178.867 204.58 177.059 199.83 177.472L199.767 177.477C191.084 178.228 184.654 185.868 185.407 194.539C185.409 194.566 185.412 194.592 185.413 194.618C186.687 209.662 214.714 229.275 215.91 230.103C216.292 230.367 216.807 230.323 217.138 229.999C218.178 228.982 242.509 204.949 241.236 189.912C240.926 185.742 238.96 181.868 235.774 179.154Z" fill="#82A6C2"></path>
  <defs>
    <filter id="filter0_d" x="65.561" y="22.2268" width="219.962" height="183.842" filterUnits="userSpaceOnUse" color-interpolation-filters="sRGB">
      <feFlood flood-opacity="0" result="BackgroundImageFix"></feFlood>
      <feColorMatrix in="SourceAlpha" type="matrix" values="0 0 0 0 0 0 0 0 0 0 0 0 0 0 0 0 0 0 127 0"></feColorMatrix>
      <feOffset dy="10"></feOffset>
      <feGaussianBlur stdDeviation="15"></feGaussianBlur>
      <feColorMatrix type="matrix" values="0 0 0 0 0 0 0 0 0 0 0 0 0 0 0 0 0 0 0.1 0"></feColorMatrix>
      <feBlend mode="normal" in2="BackgroundImageFix" result="effect1_dropShadow"></feBlend>
      <feBlend mode="normal" in="SourceGraphic" in2="effect1_dropShadow" result="shape"></feBlend>
    </filter>
  </defs>
</svg>
