<?xml version="1.0" encoding="UTF-8"?>
<svg xmlns="http://www.w3.org/2000/svg" width="300" height="300" viewBox="0 0 300 300" fill="none">
  <g clip-path="url(#clip0)">
    <g filter="url(#filter0_d)">
      <path d="M182.175 86.0564H12V247.005H182.175V86.0564Z" fill="white"></path>
    </g>
    <path d="M68.0147 183.219H42.2715V238.577H68.0147V183.219Z" fill="#82A6C2"></path>
    <path d="M111.134 170.917H85.3906V238.577H111.134V170.917Z" fill="#82A6C2"></path>
    <path d="M154.255 140.163H128.512V238.577H154.255V140.163Z" fill="#82A6C2"></path>
    <path fill-rule="evenodd" clip-rule="evenodd" d="M68.8297 52C68.281 52 67.8364 52.2965 67.8364 52.6623V128.602C67.8364 128.968 68.281 129.264 68.8297 129.264C147.87 129.217 187.445 129.217 187.553 129.264C208.609 144.39 219.137 151.778 219.137 151.428V129.264H239.068C239.617 129.264 240.061 128.968 240.061 128.602V52.6623C240.061 52.2965 239.617 52 239.068 52H68.8297Z" fill="#EEA33A"></path>
    <path d="M118.454 79.3142C116.456 79.337 114.605 80.3811 113.53 82.0907C112.456 80.3811 110.604 79.337 108.607 79.3142C105.296 79.3434 102.619 82.06 102.589 85.4206C102.589 91.5288 113.53 100.552 113.53 100.552C113.53 100.552 124.471 91.5288 124.471 85.4206C124.441 82.06 121.764 79.3434 118.454 79.3142Z" fill="#143059"></path>
    <path d="M160.287 79.3142C158.289 79.337 156.438 80.3811 155.363 82.0907C154.289 80.3811 152.437 79.337 150.44 79.3142C147.129 79.3434 144.452 82.06 144.422 85.4206C144.422 91.5288 155.363 100.552 155.363 100.552C155.363 100.552 166.304 91.5288 166.304 85.4206C166.274 82.06 163.597 79.3434 160.287 79.3142Z" fill="#143059"></path>
    <path d="M202.119 79.3142C200.121 79.337 198.27 80.3811 197.195 82.0907C196.121 80.3811 194.269 79.337 192.272 79.3142C188.961 79.3434 186.284 82.06 186.254 85.4206C186.254 91.5288 197.195 100.552 197.195 100.552C197.195 100.552 208.136 91.5288 208.136 85.4206C208.106 82.06 205.429 79.3434 202.119 79.3142Z" fill="#143059"></path>
    <path fill-rule="evenodd" clip-rule="evenodd" d="M159.252 167.743C158.175 167.495 157.368 166.792 157.023 165.925C157.174 165.838 157.352 165.786 157.547 165.792L163.174 165.958C163.095 167.421 160.874 168.115 159.252 167.743Z" fill="#1B2F45"></path>
    <path fill-rule="evenodd" clip-rule="evenodd" d="M207.32 184.659C204.928 179.547 203.976 179.085 199.193 175.957C195.334 173.432 187.684 168.847 184.874 167.171C184.174 166.753 183.383 166.521 182.57 166.493L162.791 165.831C162.709 167.549 160.414 168.364 158.737 167.927C157.625 167.636 156.79 166.81 156.434 165.792C156.119 165.997 155.932 166.381 156.021 166.786C156.512 169.025 158.893 173.887 170.229 174.157C183.993 174.486 182.419 180.159 182.482 182.644C182.545 185.129 182.529 219.327 182.529 219.327C182.529 219.327 187.1 219.391 201.896 219.092C204.531 219.038 209.967 219.85 216.849 221.15L219.558 195.897C215.632 194.063 210.543 190.672 207.32 184.659Z" fill="#EEA33A"></path>
    <path fill-rule="evenodd" clip-rule="evenodd" d="M287.219 205.668L241.418 196.484C240.175 196.359 239.022 197.147 238.683 198.353L238.483 199.066L219.87 195.528C219.63 195.486 219.396 195.633 219.33 195.868L219.304 196.108L216.595 221.171L216.501 222.034C216.426 222.304 216.597 222.58 216.871 222.632L236.939 226.426C236.538 227.855 237.418 229.329 238.865 229.648L287.219 240.628V205.668Z" fill="#82A6C2"></path>
  </g>
  <defs>
    <filter id="filter0_d" x="-18" y="66.0564" width="230.175" height="220.948" filterUnits="userSpaceOnUse" color-interpolation-filters="sRGB">
      <feFlood flood-opacity="0" result="BackgroundImageFix"></feFlood>
      <feColorMatrix in="SourceAlpha" type="matrix" values="0 0 0 0 0 0 0 0 0 0 0 0 0 0 0 0 0 0 127 0"></feColorMatrix>
      <feOffset dy="10"></feOffset>
      <feGaussianBlur stdDeviation="15"></feGaussianBlur>
      <feColorMatrix type="matrix" values="0 0 0 0 0 0 0 0 0 0 0 0 0 0 0 0 0 0 0.1 0"></feColorMatrix>
      <feBlend mode="normal" in2="BackgroundImageFix" result="effect1_dropShadow"></feBlend>
      <feBlend mode="normal" in="SourceGraphic" in2="effect1_dropShadow" result="shape"></feBlend>
    </filter>
    <clipPath id="clip0">
      <rect width="300" height="300" fill="white"></rect>
    </clipPath>
  </defs>
</svg>
