<svg preserveAspectRatio="xMidYMid slice" xmlns="http://www.w3.org/2000/svg" xmlns:xlink="http://www.w3.org/1999/xlink" height="185px" viewBox="0 0 135 124" width="185px">
  <mask id="a" fill="#fff">
    <path d="m0 .7395h135v123.2605h-135z" fill="#fff" fill-rule="evenodd"></path>
  </mask>
  <g fill="none" fill-rule="evenodd" transform="translate(0 -1)">
    <path d="m126.196 118.1305h-117.392c-1.621 0-2.934-1.314-2.934-2.935v-82.174c0-1.621 1.313-2.934 2.934-2.934h117.392c1.62 0 2.935 1.313 2.935 2.934v82.174c0 1.621-1.315 2.935-2.935 2.935m-111.018-108.412c3.242 0 5.87 2.627 5.87 5.869s-2.628 5.87-5.87 5.87-5.87-2.628-5.87-5.87 2.628-5.869 5.87-5.869m20.543 0c3.243 0 5.87 2.627 5.87 5.869s-2.627 5.87-5.87 5.87c-3.241 0-5.869-2.628-5.869-5.87s2.628-5.869 5.869-5.869m93.41-8.979h-123.261c-3.242 0-5.87 2.628-5.87 5.869v111.522c0 3.242 2.628 5.87 5.87 5.87h123.261c3.241 0 5.869-2.628 5.869-5.87v-111.522c0-3.241-2.628-5.869-5.869-5.869" fill="#143059" mask="url(#a)" transform="translate(0 .261)"></path>
    <path d="m36.9089 113.2969h-24.007c-.908 0-1.644-.736-1.644-1.644v-73.915c0-.908.736-1.644 1.644-1.644h24.007z" fill="#fbaa19"></path>
    <path d="m100.3728 103.4873h-34.915c-1.527 0-2.766-1.238-2.766-2.766s1.239-2.766 2.766-2.766h34.915c1.527 0 2.766 1.238 2.766 2.766s-1.239 2.766-2.766 2.766" fill="#143059"></path>
    <path d="m113.8542 91.3348h-61.878c-1.527 0-2.767-1.238-2.767-2.766s1.24-2.766 2.767-2.766h61.878c1.528 0 2.767 1.238 2.767 2.766s-1.239 2.766-2.767 2.766" fill="#143059"></path>
    <path d="m82.9157 47.3133 3.342-2.328 2.106 3.486 4-.767.506 4.041 3.966.926-1.181 3.898 3.246 2.459-2.664 3.08 1.966 3.567-3.686 1.731.344 4.058-4.072.081-1.336 3.847-3.753-1.582-2.784 2.972-2.785-2.972-3.753 1.582-1.336-3.847-4.071-.081.344-4.058-3.687-1.731 1.966-3.567-2.664-3.08 3.246-2.459-1.181-3.898 3.966-.926.507-4.041 4 .767 2.105-3.486z" fill="#fbaa19"></path>
  </g>
</svg>