<svg xmlns="http://www.w3.org/2000/svg" xmlns:xlink="http://www.w3.org/1999/xlink" height="131" viewBox="0 0 158 131" width="158">
  <mask id="a" fill="#fff">
    <path d="m.21025882.542h15.02211768v6.3845h-15.02211768z" fill="#fff" fill-rule="evenodd"></path>
  </mask>
  <mask id="b" fill="#fff">
    <path d="m.49445735.50030769h62.10716025v58.93356921h-62.10716025z" fill="#fff" fill-rule="evenodd"></path>
  </mask>
  <mask id="c" fill="#fff">
    <path d="m.00046552.00204096h80.24493108v76.99795904h-80.24493108z" fill="#fff" fill-rule="evenodd"></path>
  </mask>
  <g fill="none" fill-rule="evenodd">
    <g fill="#143059">
      <path d="m12.2281412 6.9265h-9.01270591c-1.66211764 0-3.00517647-1.431-3.00517647-3.192 0-1.762 1.34305883-3.193 3.00517647-3.193h9.01270591c1.6621176 0 3.0042353 1.431 3.0042353 3.193 0 1.761-1.3421177 3.192-3.0042353 3.192" mask="url(#a)" transform="translate(70)"></path>
      <path d="m33.0265456.50003077h-29.57479413c-1.63614706 0-2.95729412 1.32092308-2.95729412 2.94646154 0 1.62646154 1.32114706 2.94738461 2.95729412 2.94738461h29.57479413c13.0456323 0 23.6602059 10.57569228 23.6602059 23.57353848 0 12.9978461-10.6145736 23.5726154-23.6602059 23.5726154h-14.4612794v5.8938461h14.4612794c16.3086618 0 29.5757206-13.2193846 29.5757206-29.4664615 0-16.2489231-13.2670588-29.46738463-29.5757206-29.46738463" mask="url(#b)" transform="translate(95 1)"></path>
      <path d="m79.205431 54.0217157-20.8048965-17.7684458c-.8788966-.7495904-2.1153104-.9212169-3.1738966-.4415904-1.0520689.4833374-1.728931 1.5307229-1.728931 2.6894338v14.8071927h-23.7767586c-13.1098966 0-23.77675864-10.6287831-23.77675864-23.6918795s10.66686204-23.69187951 23.77675864-23.69187951h14.5334483v-5.92250603h-14.5334483c-16.388069 0-29.72048278 13.28481924-29.72048278 29.61438554s13.33241378 29.6143855 29.72048278 29.6143855h23.7767586v14.8071928c0 1.1587109.6768621 2.2070241 1.728931 2.6931446.3984828.1799759.8211724.2690361 1.2429311.2690361.6954827 0 1.3844482-.2458433 1.9309655-.7143373l20.8048965-17.7684458c.6601035-.5631205 1.0399656-1.3832169 1.0399656-2.2478434s-.3798621-1.6856506-1.0399656-2.2478433" mask="url(#c)" transform="translate(0 54)"></path>
    </g>
    <path d="m98.6432636 61.6722656c-3.7554256-3.0422668-10.1254464-6.6722656-19.1432636-6.6722656-9.0168949 0-15.387838 3.6299988-19.1432636 6.6722656-2.7686119 2.2444959-4.3567364 5.6493858-4.3567364 9.3406067v5.5881638c0 1.3252227 1.0513716 2.3989639 2.3499078 2.3989639h42.3001842c1.297614 0 2.349908-1.0737412 2.349908-2.3989639v-5.5881638c0-3.6912209-1.588124-7.0961108-4.3567364-9.3406067" fill="#f6b32f"></path>
    <path d="m79.0004579 22c7.7314321 0 13.9995421 6.26811 13.9995421 14.0004579 0 7.7314321-6.26811 13.9995421-13.9995421 13.9995421-7.7323479 0-14.0004579-6.26811-14.0004579-13.9995421 0-7.7323479 6.26811-14.0004579 14.0004579-14.0004579" fill="#143059"></path>
  </g>
</svg>