<?xml version="1.0" encoding="UTF-8"?>
<svg xmlns="http://www.w3.org/2000/svg" width="48" height="48" viewBox="0 0 48 48" fill="none">
  <g clip-path="url(#clip0)">
    <rect width="48" height="48" rx="24" fill="#B5322E"></rect>
  </g>
  <path d="M21.8852 9.10881C16.5444 9.70755 11.2252 14.0004 11.009 20.1459C10.8684 23.8965 12.3712 26.7094 15.9606 27.5002C16.3714 25.7266 16.4471 24.7663 16.4471 24.7663C16.4471 24.7663 14.8686 23.1848 14.7065 22.1793C13.3875 14.0908 24.0799 8.56656 29.691 14.215C33.5615 18.135 31.01 30.1889 24.761 28.9349C18.7715 27.7374 27.6909 18.1463 22.9123 16.2598C19.031 14.7234 16.966 20.948 18.804 24.032C17.7228 29.3416 15.3984 34.3461 16.339 41C19.3986 38.7971 20.4257 34.5721 21.269 30.1663C22.8042 31.0926 23.6259 32.0641 25.5827 32.211C32.8047 32.7645 36.8374 25.0375 35.8535 17.8978C34.967 11.5715 28.6315 8.35192 21.8852 9.10881Z" fill="white"></path>
  <defs>
    <clipPath id="clip0">
      <rect width="48" height="48" fill="white"></rect>
    </clipPath>
  </defs>
</svg>
