<svg preserveAspectRatio="xMidYMid slice" xmlns="http://www.w3.org/2000/svg" xmlns:xlink="http://www.w3.org/1999/xlink" height="115px" viewBox="0 0 80 80" width="115px">
  <mask id="a" fill="#fff">
    <path d="m.09110078.3048471h24.54221622v41.6129188h-24.54221622z" fill="#fff" fill-rule="evenodd"></path>
  </mask>
  <g fill="none" fill-rule="evenodd">
    <path d="m0 0h80v80h-80z" fill="#fff" stroke="#fff"></path>
    <path d="m34.1366255 52.2676613-8.3964071-8.0952444c-1.021902-1.0061476-2.4861859-1.4723279-3.9283507-1.2513934-.7188704.0882885-1.3789041.427794-1.854907.9549658-.593234.6512876-.9276747 1.4842704-.9458123 2.3509477-.0030967.9387584.3831026 1.8399834 1.0732183 2.5023604l6.4888567 6.2561141c.5153748.4802553.5299734 1.2718661.0318515 1.7691819-.4976796.4973159-1.319625.5109644-1.8349999.0307091-.0106171-.0102364-.0216767-.0204727-.0318515-.0307091l-6.4888566-6.256114c-1.1785052-1.1302634-1.8389813-2.668701-1.8341151-4.2715424-.0128291-1.8361447.8644141-3.5724851 2.371609-4.6946446v-9.4780043c.0460077-2.0511081-1.5647045-3.7857424-3.6845983-3.9665845-2.1473214-.1113203-3.9809941 1.4770195-4.0964557 3.5468942-.0039815.0690954-.0061934.1377642-.0058068.2068595v17.6385055c0 1.1375141.4012961 2.240907 1.1383043 3.1289101l9.2440107 11.135013v5.0051472c0 .6909534.5808473 1.2509669 1.2979483 1.2509669h11.679765c.7166586 0 1.2975059-.5600135 1.2975059-1.2509669v-12.9408752c0-1.3281661-.5472263-2.6013117-1.5209087-3.5404966" fill="#143059"></path>
    <path d="m1.60445695 24.3148269 8.35758317-8.036787c1.01756358-.9988294 2.47499998-1.461619 3.90998038-1.2422915.7155089.0876464 1.3728963.4246825 1.8462329.94802.5904599.6465504.9237769 1.4734744.9413895 2.333848.0035225.9319303-.3813112 1.8266003-1.0677593 2.4841594l-6.45851276 6.2106103c-.51340509.4767621-.52793542 1.2630386-.03214286 1.7563138.49579257.4936986 1.31345402.5068244 1.82685912.0304857.0105675-.0101619.021135-.0203238.0312622-.0304857l6.4585127-6.2106102c1.1734345-1.1220424 1.8303816-2.6492902 1.8255382-4.2404733.0127691-1.8227895-.8603718-3.5465006-2.3600783-4.6604981v-9.409066c-.0462329-2.03618929 1.5569472-3.75820672 3.6669276-3.9377335 2.1372799-.11051058 3.962818 1.46627647 4.0777397 3.52109589.0039629.06859278.0057241.13676215.0057241.20535492v17.51021169c0 1.1292404-.3998043 2.2246077-1.1333659 3.106152l-9.2003425 11.0540224v4.9687422c0 .6859278-.5781311 1.241868-1.2918787 1.241868h-11.62514675c-.71330724 0-1.29187867-.5559402-1.29187867-1.241868v-12.8475965c0-1.3176588.54466732-2.5815442 1.51335617-3.5134745" fill="#143059" mask="url(#a)" transform="translate(44.69863 28.082192)"></path>
    <path d="m41.1043485 10.3267546 3.7529627 7.7261874 8.389 1.239209c.3160083.0476457.5337584.3457473.4871274.6653527-.0187357.126493-.0778572.2432881-.1677884.3326764l-6.0691077 6.01263 1.4326542 8.4918912c.0549579.3170756-.1548816.6193937-.4683918.6742073-.1253208.022347-.2543887.0016865-.3668027-.0581868l-7.5038437-4.0085605-7.50426 4.0098254c-.281035.150105-.6291021.0413211-.7773221-.2428664-.0599541-.1146869-.0799389-.2458179-.0582888-.3727324l1.4330706-8.4935778-6.0707732-6.01263c-.2285751-.2260007-.2327386-.5970466-.009576-.828107.0882658-.0914965.2040106-.1509482.3284987-.1699221l8.3894163-1.239209 3.7542118-7.7261874c.1373949-.2879822.4800494-.40815043.7639989-.2685866.1161612.0569218.2090068.1513699.2652138.2685866" fill="#fba919"></path>
  </g>
</svg>