<?xml version="1.0" encoding="UTF-8"?>
<svg xmlns="http://www.w3.org/2000/svg" width="128" height="26" viewBox="0 0 128 26" fill="none">
  <path d="M9 18H6C5.44772 18 5 18.4477 5 19V22C5 22.5523 5.44772 23 6 23H9C9.55228 23 10 22.5523 10 22V19C10 18.4477 9.55228 18 9 18Z" fill="#FFF6E8"></path>
  <path d="M9 12H6C5.44772 12 5 12.4477 5 13V16C5 16.5523 5.44772 17 6 17H9C9.55228 17 10 16.5523 10 16V13C10 12.4477 9.55228 12 9 12Z" fill="#FFF6E8"></path>
  <path d="M15 18H12C11.4477 18 11 18.4477 11 19V22C11 22.5523 11.4477 23 12 23H15C15.5523 23 16 22.5523 16 22V19C16 18.4477 15.5523 18 15 18Z" fill="#FFF6E8"></path>
  <path d="M15 12H12C11.4477 12 11 12.4477 11 13V16C11 16.5523 11.4477 17 12 17H15C15.5523 17 16 16.5523 16 16V13C16 12.4477 15.5523 12 15 12Z" fill="#FFF6E8"></path>
  <path d="M21 12H18C17.4477 12 17 12.4477 17 13V16C17 16.5523 17.4477 17 18 17H21C21.5523 17 22 16.5523 22 16V13C22 12.4477 21.5523 12 21 12Z" fill="#FFF6E8"></path>
  <path d="M6.5 6C6.22386 6 6 5.73137 6 5.4V0.6C6 0.268629 6.22386 0 6.5 0C6.77614 0 7 0.268629 7 0.6V5.4C7 5.73137 6.77614 6 6.5 6Z" fill="#FFF6E8"></path>
  <path d="M25.2391 2H22.3043V4.92683C22.3043 5.8967 21.516 6.68293 20.5435 6.68293C19.571 6.68293 18.7826 5.8967 18.7826 4.92683V2H8.21739V4.92683C8.21739 5.8967 7.42902 6.68293 6.45652 6.68293C5.48402 6.68293 4.69565 5.8967 4.69565 4.92683V2H1.76087C0.788368 2 0 2.78623 0 3.7561V24.2439C0 25.2138 0.788368 26 1.76087 26H25.2391C26.2116 26 27 25.2138 27 24.2439V3.7561C27 2.78623 26.2116 2 25.2391 2ZM25.8261 24.2439C25.8261 24.5672 25.5633 24.8293 25.2391 24.8293H1.76087C1.4367 24.8293 1.17391 24.5672 1.17391 24.2439V9.60976H25.8261V24.2439Z" fill="#FFF6E8"></path>
  <path d="M20.5 6C20.7761 6 21 5.73137 21 5.4V0.6C21 0.268629 20.7761 0 20.5 0C20.2239 0 20 0.268629 20 0.6V5.4C20 5.73137 20.2239 6 20.5 6Z" fill="#FFF6E8"></path>
  <path d="M41.6104 24.0001V4.97605H47.0334C48.0967 4.97605 49.0634 5.07272 49.9334 5.26605C50.8227 5.45938 51.5767 5.77838 52.1954 6.22305C52.814 6.64838 53.2974 7.21872 53.6454 7.93405C53.9934 8.64938 54.1674 9.52905 54.1674 10.5731C54.1674 11.5784 53.9934 12.4484 53.6454 13.1831C53.3167 13.9177 52.843 14.5267 52.2244 15.0101C51.6057 15.4934 50.8614 15.8607 49.9914 16.1121C49.1407 16.3441 48.1934 16.4601 47.1494 16.4601H44.0174V24.0001H41.6104ZM44.0174 14.4881H46.8594C48.522 14.4881 49.7497 14.1787 50.5424 13.5601C51.3544 12.9221 51.7604 11.9264 51.7604 10.5731C51.7604 9.20038 51.335 8.25305 50.4844 7.73105C49.653 7.18972 48.406 6.91905 46.7434 6.91905H44.0174V14.4881Z" fill="#FFF6E8"></path>
  <path d="M61.9221 24.3481C60.4141 24.3481 59.3121 23.8841 58.6161 22.9561C57.9395 22.0281 57.6011 20.6554 57.6011 18.8381V9.90605H60.0081V18.5191C60.0081 19.8531 60.2111 20.8197 60.6171 21.4191C61.0425 21.9991 61.7191 22.2891 62.6471 22.2891C63.3818 22.2891 64.0295 22.1054 64.5901 21.7381C65.1508 21.3514 65.7695 20.7424 66.4461 19.9111V9.90605H68.8241V24.0001H66.8521L66.6491 21.7961H66.5621C65.9048 22.5694 65.2088 23.1881 64.4741 23.6521C63.7588 24.1161 62.9081 24.3481 61.9221 24.3481Z" fill="#FFF6E8"></path>
  <path d="M79.8135 24.3481C79.1562 24.3481 78.4699 24.1934 77.7545 23.8841C77.0585 23.5554 76.4012 23.1107 75.7825 22.5501H75.6955L75.4925 24.0001H73.5785V3.35205H75.9565V8.97805L75.8985 11.5301C76.5365 10.9694 77.2325 10.5054 77.9865 10.1381C78.7405 9.75138 79.5139 9.55805 80.3065 9.55805C81.2152 9.55805 82.0175 9.73205 82.7135 10.0801C83.4095 10.4087 83.9895 10.892 84.4535 11.5301C84.9369 12.1487 85.2945 12.9027 85.5265 13.7921C85.7779 14.6621 85.9035 15.6384 85.9035 16.7211C85.9035 17.9197 85.7392 18.9927 85.4105 19.9401C85.0819 20.8874 84.6372 21.6897 84.0765 22.3471C83.5159 23.0044 82.8682 23.5071 82.1335 23.8551C81.3989 24.1837 80.6255 24.3481 79.8135 24.3481ZM79.4075 22.3471C79.9875 22.3471 80.5192 22.2214 81.0025 21.9701C81.5052 21.6994 81.9305 21.3321 82.2785 20.8681C82.6459 20.3847 82.9262 19.7951 83.1195 19.0991C83.3322 18.4031 83.4385 17.6201 83.4385 16.7501C83.4385 15.9767 83.3709 15.2711 83.2355 14.6331C83.1002 13.9951 82.8779 13.4537 82.5685 13.0091C82.2785 12.545 81.8919 12.1874 81.4085 11.9361C80.9445 11.6847 80.3839 11.559 79.7265 11.559C78.5859 11.559 77.3292 12.1971 75.9565 13.4731V20.8681C76.5752 21.4094 77.1842 21.7961 77.7835 22.0281C78.4022 22.2407 78.9435 22.3471 79.4075 22.3471Z" fill="#FFF6E8"></path>
  <path d="M92.1308 24.3481C91.2222 24.3481 90.5745 24.0774 90.1878 23.5361C89.8012 22.9947 89.6078 22.2021 89.6078 21.1581V3.35205H91.9858V21.3321C91.9858 21.7187 92.0535 21.9894 92.1888 22.1441C92.3242 22.2987 92.4788 22.3761 92.6528 22.3761C92.7302 22.3761 92.7978 22.3761 92.8558 22.3761C92.9332 22.3761 93.0395 22.3567 93.1748 22.3181L93.4938 24.1161C93.3392 24.1934 93.1555 24.2514 92.9428 24.2901C92.7302 24.3287 92.4595 24.3481 92.1308 24.3481Z" fill="#FFF6E8"></path>
  <path d="M96.9994 24.0001V9.90605H99.3774V24.0001H96.9994ZM98.2174 7.00605C97.7534 7.00605 97.3571 6.86105 97.0284 6.57105C96.7191 6.28105 96.5644 5.91372 96.5644 5.46905C96.5644 5.00505 96.7191 4.63772 97.0284 4.36705C97.3571 4.07705 97.7534 3.93205 98.2174 3.93205C98.6814 3.93205 99.0681 4.07705 99.3774 4.36705C99.7061 4.63772 99.8704 5.00505 99.8704 5.46905C99.8704 5.91372 99.7061 6.28105 99.3774 6.57105C99.0681 6.86105 98.6814 7.00605 98.2174 7.00605Z" fill="#FFF6E8"></path>
  <path d="M107.819 24.3481C106.814 24.3481 105.857 24.1644 104.948 23.7971C104.039 23.4297 103.247 22.9657 102.57 22.4051L103.759 20.8101C104.378 21.3127 105.006 21.7187 105.644 22.0281C106.301 22.3374 107.055 22.4921 107.906 22.4921C108.834 22.4921 109.53 22.2794 109.994 21.8541C110.458 21.4287 110.69 20.9067 110.69 20.2881C110.69 19.9207 110.593 19.6017 110.4 19.3311C110.207 19.0604 109.955 18.8284 109.646 18.6351C109.356 18.4224 109.018 18.2387 108.631 18.0841C108.244 17.9294 107.858 17.7747 107.471 17.6201C106.968 17.4461 106.466 17.2527 105.963 17.0401C105.46 16.8081 105.006 16.5374 104.6 16.2281C104.213 15.8994 103.894 15.5224 103.643 15.0971C103.392 14.6717 103.266 14.1594 103.266 13.5601C103.266 12.9994 103.373 12.4774 103.585 11.9941C103.817 11.4914 104.136 11.0661 104.542 10.7181C104.967 10.3507 105.48 10.0704 106.079 9.87705C106.678 9.66438 107.355 9.55805 108.109 9.55805C108.998 9.55805 109.81 9.71272 110.545 10.0221C111.299 10.3314 111.947 10.7084 112.488 11.1531L111.357 12.6611C110.874 12.2937 110.371 11.9941 109.849 11.7621C109.327 11.5301 108.757 11.4141 108.138 11.4141C107.249 11.4141 106.591 11.6171 106.166 12.0231C105.76 12.4291 105.557 12.9027 105.557 13.4441C105.557 13.7727 105.644 14.0627 105.818 14.3141C105.992 14.5461 106.224 14.7587 106.514 14.9521C106.804 15.1261 107.133 15.2904 107.5 15.4451C107.887 15.5804 108.283 15.7254 108.689 15.8801C109.192 16.0734 109.694 16.2764 110.197 16.4891C110.719 16.7017 111.183 16.9724 111.589 17.3011C111.995 17.6104 112.324 17.9971 112.575 18.4611C112.846 18.9251 112.981 19.4857 112.981 20.1431C112.981 20.7231 112.865 21.2644 112.633 21.7671C112.42 22.2697 112.092 22.7144 111.647 23.1011C111.222 23.4877 110.68 23.7874 110.023 24.0001C109.385 24.2321 108.65 24.3481 107.819 24.3481Z" fill="#FFF6E8"></path>
  <path d="M116.286 24.0001V3.35205H118.664V8.97805L118.577 11.878C119.253 11.24 119.959 10.6987 120.694 10.254C121.428 9.79005 122.289 9.55805 123.275 9.55805C124.763 9.55805 125.846 10.0221 126.523 10.9501C127.219 11.8781 127.567 13.2507 127.567 15.0681V24.0001H125.189V15.3871C125.189 14.0531 124.976 13.0961 124.551 12.5161C124.125 11.9167 123.449 11.6171 122.521 11.6171C121.786 11.6171 121.138 11.8007 120.578 12.1681C120.017 12.5354 119.379 13.0767 118.664 13.7921V24.0001H116.286Z" fill="#FFF6E8"></path>
</svg>
