<?xml version="1.0" encoding="UTF-8"?>
<svg xmlns="http://www.w3.org/2000/svg" xmlns:xlink="http://www.w3.org/1999/xlink" width="69px" height="69px" viewBox="0 0 69 69">
  <title>calendar-grid-58</title>
  <g id="HS-Platform-Page" stroke="none" stroke-width="1" fill="none" fill-rule="evenodd">
    <g id="Hootsuite_PlatformPages_MonitorPage_V1.1" transform="translate(-1016.000000, -3455.000000)" fill-rule="nonzero">
      <g id="Section---Powerful-Features" transform="translate(0.000000, 3257.000000)">
        <g id="Publish" transform="translate(920.000000, 163.000000)">
          <g id="calendar-grid-58" transform="translate(96.000000, 35.000000)">
            <g>
              <rect id="Rectangle" fill="#FFA600" x="12.7777778" y="47.7692308" width="12.7777778" height="13.2692308" rx="1"></rect>
              <rect id="Rectangle" fill="#FFA600" x="12.7777778" y="31.8461538" width="12.7777778" height="13.2692308" rx="1"></rect>
              <rect id="Rectangle" fill="#FFA600" x="28.1111111" y="47.7692308" width="12.7777778" height="13.2692308" rx="1"></rect>
              <rect id="Rectangle" fill="#FFA600" x="28.1111111" y="31.8461538" width="12.7777778" height="13.2692308" rx="1"></rect>
              <rect id="Rectangle" fill="#FFA600" x="43.4444444" y="31.8461538" width="12.7777778" height="13.2692308" rx="1"></rect>
              <path d="M16.6111111,15.9230769 C15.9054139,15.9230769 15.3333333,15.2101765 15.3333333,14.3307692 L15.3333333,1.59230769 C15.3333333,0.712900437 15.9054139,0 16.6111111,0 C17.3168083,0 17.8888889,0.712900437 17.8888889,1.59230769 L17.8888889,14.3307692 C17.8888889,15.2101765 17.3168083,15.9230769 16.6111111,15.9230769 Z" id="Path" fill="#FFA600"></path>
              <path d="M64.5,5.30769231 L57,5.30769231 L57,13.0750469 C57,15.6489218 54.9852814,17.7354597 52.5,17.7354597 C50.0147186,17.7354597 48,15.6489218 48,13.0750469 L48,5.30769231 L21,5.30769231 L21,13.0750469 C21,15.6489218 18.9852814,17.7354597 16.5,17.7354597 C14.0147186,17.7354597 12,15.6489218 12,13.0750469 L12,5.30769231 L4.5,5.30769231 C2.01471863,5.30769231 0,7.39423017 0,9.96810507 L0,64.3395872 C0,66.9134621 2.01471863,69 4.5,69 L64.5,69 C66.9852814,69 69,66.9134621 69,64.3395872 L69,9.96810507 C69,7.39423017 66.9852814,5.30769231 64.5,5.30769231 Z M66,64.3395872 C66,65.1975455 65.3284271,65.8930582 64.5,65.8930582 L4.5,65.8930582 C3.67157288,65.8930582 3,65.1975455 3,64.3395872 L3,25.5028143 L66,25.5028143 L66,64.3395872 Z" id="Shape" fill="#143059"></path>
              <path d="M52.3888889,15.9230769 C53.0945861,15.9230769 53.6666667,15.2101765 53.6666667,14.3307692 L53.6666667,1.59230769 C53.6666667,0.712900437 53.0945861,0 52.3888889,0 C51.6831917,0 51.1111111,0.712900437 51.1111111,1.59230769 L51.1111111,14.3307692 C51.1111111,15.2101765 51.6831917,15.9230769 52.3888889,15.9230769 Z" id="Path" fill="#FFA600"></path>
            </g>
          </g>
        </g>
      </g>
    </g>
  </g>
</svg>
