<svg preserveAspectRatio="xMidYMid slice" xmlns="http://www.w3.org/2000/svg" xmlns:xlink="http://www.w3.org/1999/xlink" height="185px" viewBox="0 0 125 124" width="185px">
  <mask id="a" fill="#fff">
    <path d="m.74293897.25443312h103.25706103v103.25727888h-103.25706103z" fill="#fff" fill-rule="evenodd"></path>
  </mask>
  <g fill="none" fill-rule="evenodd" transform="translate(0 -1)">
    <path d="m57.9282 17.6904c-16.463-3.372-34.011 3.81-46.472 19.675-.85 1.082-.757 2.628.215 3.6l12.928 12.932c8.667-14.108 19.986-26.404 33.329-36.207" fill="#fbaa19"></path>
    <path d="m72.0361 101.3334 12.999 12.997c.973.972 2.519 1.064 3.6.214 15.964-12.543 23.151-30.22 19.621-46.771-9.815 13.401-22.111 24.793-36.22 33.56" fill="#fbaa19"></path>
    <path d="m49.6528 65.4707c-6.002 0-10.869-4.866-10.869-10.869s4.867-10.868 10.869-10.868c6.003 0 10.869 4.865 10.869 10.868s-4.866 10.869-10.869 10.869m53.55-64.397c-.535-.561-1.29-.859-2.065-.815-74.565 3.893-99.97 69.029-100.22 69.687-.377.999-.133 2.126.622 2.88l29.889 29.889c.51.51 1.201.797 1.921.797.333.001.662-.06.973-.18.657-.253 65.454-25.976 69.674-100.201.038-.767-.25-1.514-.794-2.057" fill="#143059" mask="url(#a)" transform="translate(21 .746)"></path>
    <path d="m30.5557 94.1967c-6.372-6.357-16.687-6.357-23.058 0-5.861 5.858-7.337 25.436-7.491 27.65-.101 1.497 1.031 2.792 2.528 2.893.063.004.126.006.189.006h.182c2.214-.152 21.792-1.63 27.65-7.486 6.361-6.372 6.361-16.691 0-23.063" fill="#fbaa19"></path>
  </g>
</svg>