<svg preserveAspectRatio="xMidYMid slice" xmlns="http://www.w3.org/2000/svg" height="300px" viewBox="0 0 180 180" width="300px">
  <g fill="none" fill-rule="evenodd">
    <path d="m0 0h180v180h-180z" fill="#fff" stroke="#fff"></path>
    <g fill-rule="nonzero">
      <path d="m123.970661 43.6006452-3.016925-12.1354839c-.214591-.8611569-.984439-1.4651613-1.867529-1.4651613h-57.7586208c-.8830896 0-1.652938.6040044-1.8675287 1.4651613l-3.0169253 12.1354839c-7.0166824.5427269-12.4367261 6.4214405-12.4431322 13.496129v65.8064518c.0064061 7.074688 5.4264498 12.953402 12.4431322 13.496129l3.0169253 12.135484c.2145907.861157.9844391 1.465161 1.8675287 1.465161h57.7586208c.88309 0 1.652938-.604004 1.867529-1.465161l3.016925-12.135484c7.016682-.542727 12.436726-6.421441 12.443132-13.496129v-65.8064518c-.006406-7.0746885-5.42645-12.9534021-12.443132-13.496129zm4.741983 79.3025808c0 3.206814-2.585942 5.806451-5.775862 5.806451h-65.4597705c-3.1899205 0-5.7758621-2.599637-5.7758621-5.806451v-65.8064518c0-3.2068147 2.5859416-5.8064516 5.7758621-5.8064516h65.4597705c3.18992 0 5.775862 2.5996369 5.775862 5.8064516z" fill="#143059"></path>
      <path d="m109.14027 72.5803579c-2.519801-2.6195865-5.986408-4.0515931-9.5744928-3.9550877-3.5880846.0965055-6.9766262 1.7128889-9.3588806 4.4643215-2.3830904-2.7503911-5.7718291-4.3656807-9.3597274-4.4614445-3.5878982-.0957638-7.0540873 1.3365624-9.5736459 3.956098-5.1003299 5.3166195-5.1003299 13.8418452 0 19.1584648l18.9333733 19.6366 18.9333734-19.6307691c5.10033-5.3166196 5.10033-13.8418452 0-19.1584648z" fill="#fba919"></path>
    </g>
  </g>
</svg>