<?xml version="1.0" encoding="UTF-8"?>
<svg xmlns="http://www.w3.org/2000/svg" xmlns:xlink="http://www.w3.org/1999/xlink" width="69px" height="69px" viewBox="0 0 69 69">
  <title>Advertise_Icon</title>
  <g id="HS-Platform-Page" stroke="none" stroke-width="1" fill="none" fill-rule="evenodd">
    <g id="Hootsuite_PlatformPages_MonitorPage_V1.1" transform="translate(-446.000000, -3455.000000)">
      <g id="Section---Powerful-Features" transform="translate(0.000000, 3257.000000)">
        <g id="Advertise" transform="translate(350.000000, 163.000000)">
          <g id="Advertise_Icon" transform="translate(96.000000, 35.000000)">
            <g id="notification-70" transform="translate(0.488372, 0.488372)">
              <path d="M50.7040952,16.4825581 C50.3119553,16.4935592 49.9211324,16.5354043 49.5348624,16.6077471 C48.9381861,19.3994199 48.6458422,22.2542112 48.6635493,25.1162791 C48.6458422,27.978347 48.9381861,30.8331382 49.5348624,33.624811 C49.9211324,33.6971538 50.3119553,33.738999 50.7040952,33.75 C55.2119449,33.75 58.8662791,29.8845515 58.8662791,25.1162791 C58.8662791,20.3480067 55.2119449,16.4825581 50.7040952,16.4825581 Z" id="Path" fill="#FFA600" fill-rule="nonzero"></path>
              <path d="M32.3982546,48.6463423 L15.6976744,43.1686047 L24.0268726,63.3771277 C25.0511019,65.870314 27.5057051,67.5011954 30.2321147,67.5 C31.0814125,67.5 31.9228055,67.3390387 32.7104149,67.0254841 C36.1231764,65.6606807 37.7766318,61.8311723 36.4099373,58.4571536 L32.3982546,48.6463423 Z" id="Path" fill="#143059"></path>
              <path d="M53.7911087,0 C52.7793805,0.00611022767 51.7777908,0.203684699 50.8384245,0.582449128 L50.8384245,0.565443314 L7.94224922,14.9417333 C3.17887054,16.113986 -0.125885662,20.4792788 0.0100738347,25.4194404 C-0.204622201,30.3596445 3.03270404,34.7801596 7.77985158,36.0289426 L50.8384245,50.4519985 L50.8384245,50.4349927 C51.7777908,50.8137572 52.7793805,51.0113316 53.7911087,51.0174419 C61.4786331,51.0174419 67.5,39.8127362 67.5,25.5087209 C67.5,11.2047057 61.4786331,0 53.7911087,0 Z M53.7911087,46.7659884 C49.3030287,46.7659884 44.3003379,38.0356286 44.3003379,25.5087209 C44.3003379,12.9818132 49.3030287,4.25145349 53.7911087,4.25145349 C58.2791888,4.25145349 63.2818796,12.9818132 63.2818796,25.5087209 C63.2818796,38.0356286 58.2791888,46.7659884 53.7911087,46.7659884 Z" id="Shape" fill="#143059"></path>
            </g>
          </g>
        </g>
      </g>
    </g>
  </g>
</svg>
