<svg preserveAspectRatio="xMidYMid slice" xmlns="http://www.w3.org/2000/svg" xmlns:xlink="http://www.w3.org/1999/xlink" height="185px" viewBox="0 0 100 100" width="185px">
  <mask id="a" fill="#fff">
    <path d="m0 .63127559h41.407619v20.78604721h-41.407619z" fill="#fff" fill-rule="evenodd"></path>
  </mask>
  <mask id="b" fill="#fff">
    <path d="m.49660952.63127559h41.40799998v20.78604721h-41.40799998z" fill="#fff" fill-rule="evenodd"></path>
  </mask>
  <mask id="c" fill="#fff">
    <path d="m.02927541.08571429h22.68712429v17.00372451h-22.68712429z" fill="#fff" fill-rule="evenodd"></path>
  </mask>
  <mask id="d" fill="#fff">
    <path d="m0-.00006286h31.4284771v31.42863426h-31.4284771z" fill="#fff" fill-rule="evenodd"></path>
  </mask>
  <g fill="none" fill-rule="evenodd">
    <path d="m0 0h100v100h-100z" fill="#fff"></path>
    <g fill="#143059">
      <path d="m37.5691429 6.41012823c-3.3081905-2.63509561-8.9211429-5.77885264-16.8655239-5.77885264-7.943619 0-13.55657138 3.14375703-16.86476186 5.77885264-2.43961904 1.94362205-3.83923809 4.89232847-3.83923809 8.08962877v4.8387852c0 1.1481215.92723809 2.0790101 2.07085714 2.0790101h37.26704761c1.1428572 0 2.0700952-.9308886 2.0700952-2.0790101v-4.8387852c0-3.1973003-1.399619-6.14600672-3.8384761-8.08962877" mask="url(#a)" transform="translate(2 78.43907)"></path>
      <path d="m22.4425905 48.7522895c6.8609524 0 12.4228571 5.583802 12.4228571 12.4710011 0 6.887964-5.5619047 12.4710011-12.4228571 12.4710011-6.8601905 0-12.4220953-5.5830371-12.4220953-12.4710011 0-6.8871991 5.5619048-12.4710011 12.4220953-12.4710011"></path>
      <path d="m38.0661333 6.41012823c-3.3081904-2.63509561-8.9211428-5.77885264-16.8655238-5.77885264-7.9443809 0-13.5565714 3.14375703-16.86476188 5.77885264-2.43961905 1.94362205-3.8392381 4.89232847-3.8392381 8.08962877v4.8387852c0 1.1481215.9272381 2.0790101 2.07085715 2.0790101h37.26704763c1.1428571 0 2.0700952-.9308886 2.0700952-2.0790101v-4.8387852c0-3.1973003-1.399619-6.14600672-3.8384762-8.08962877" mask="url(#b)" transform="translate(55.333333 78.43907)"></path>
      <path d="m76.2729905 48.7522895c6.8609524 0 12.4228571 5.583802 12.4228571 12.4710011 0 6.887964-5.5619047 12.4710011-12.4228571 12.4710011s-12.4228572-5.5830371-12.4228572-12.4710011c0-6.8871991 5.5619048-12.4710011 12.4228572-12.4710011"></path>
    </g>
    <path d="m3.16039139 15.1832143v-4.0071429c.00093933-2.22214283.91679061-4.21989793 2.40563601-5.67765303 1.49072407-1.45530613 3.53409002-2.35071429 5.8069667-2.35163266 2.2725636.00091837 4.3159296.89632653 5.8066536 2.35163266 1.4888455 1.4577551 2.4046967 3.4555102 2.4056361 5.67765303v4.0071429c1.1109197.5344898 2.158591 1.1745918 3.1311159 1.9062245v-5.9133674c.0009389-3.05785711-1.2721727-5.83989793-3.3224271-7.84224487-2.0477495-2.0044898-4.8936203-3.24887755-8.0209785-3.24826553-3.1276712-.00061202-5.97354205 1.24377573-8.02160467 3.24826553-2.04994129 2.00234694-3.32305284 4.78438776-3.32211402 7.84224487v5.9133674c.97252498-.7316327 2.02019621-1.3717347 3.13111598-1.9062245" fill="#fba919" mask="url(#c)" transform="translate(40.095238 1)"></path>
    <path d="m17.2472771 18.8589657v2.8760286c0 .8463714-.6864 1.5327714-1.5330857 1.5327714-.8463714 0-1.5327714-.6864-1.5327714-1.5327714v-2.8760286c-2.1563143-.6562286-3.7258571-2.6594857-3.7258571-5.0304571 0-2.9043143 2.3543142-5.2586286 5.2586285-5.2586286s5.2589429 2.3543143 5.2589429 5.2586286c0 2.3709714-1.5695429 4.3742285-3.7258572 5.0304571m-1.5330857-18.85902856c-8.67868569 0-15.71428569 7.0356-15.71428569 15.71428576 0 8.679 7.0356 15.7146 15.71428569 15.7146 8.6786857 0 15.7142857-7.0356 15.7142857-15.7146-.0100571-8.67428576-7.0396857-15.70391433-15.7142857-15.71428576" fill="#fba919" mask="url(#d)" transform="translate(35.333333 17.190476)"></path>
  </g>
</svg>