<svg preserveAspectRatio="xMidYMid slice" xmlns="http://www.w3.org/2000/svg" xmlns:xlink="http://www.w3.org/1999/xlink" height="300px" viewBox="0 0 100 96" width="300px">
  <mask id="a" fill="#fff">
    <path d="m.00920931.68431143h44.77392569v45.33221747h-44.77392569z" fill="#fff" fill-rule="evenodd"></path>
  </mask>
  <mask id="b" fill="#fff">
    <path d="m.14025541.67596694h69.70101439v46.62085286h-69.70101439z" fill="#fff" fill-rule="evenodd"></path>
  </mask>
  <g fill="none" fill-rule="evenodd">
    <path d="m42.752381 32.5067901c-1.9412699-1.938248-4.8444445-2.5475703-7.4015873-1.5534546 1.5460317-3.8804628-.3484127-8.2798016-4.2309524-9.8253223-1.6373016-.6521653-3.4515873-.7116694-5.1285715-.1689917 1.8888889-3.6725951.4428572-8.1798347-3.2301587-10.0688926-2.0626984-1.05996692-4.5-1.10439667-6.5992063-.1190082 1.4150793-3.90743806-.6071429-8.22267772-4.5166667-9.6372893-2.75238096-.99570247-5.83174604-.30704132-7.8968254 1.76608265l-1.52301587 1.52330578c-2.94603175 2.93236364-2.95634921 7.69745457-.02222223 10.64251237 2.06428572 2.073124 5.14444445 2.7617852 7.8960317 1.7660827-1.73968249 3.7614545-.09999995 8.2210909 3.6634921 9.9609917 1.8642857.8616198 4.0015873.9219174 5.9119048.1666116-1.5206349 3.9050578.4126984 8.3028099 4.3198412 9.8229421 1.8285715.7116695 3.8626985.6878678 5.6746032-.067438-1.3182539 3.5861157.5222222 7.5601984 4.1087302 8.8772232 2.5253968.927471 5.3579365.3070413 7.2650793-1.5883637l1.7095239-1.6962644c2.7071428-2.706248 2.7079365-7.093686.0007936-9.7999339-.0007936-.0007934-.0007936-.0007934-.0007936-.0007934" fill="#fff" mask="url(#a)" transform="translate(4.761905 48.514116)"></path>
    <path d="m74.3942063 33.6596628c-2.3650793.7902149-4.8420634 1.1932562-7.3357142 1.1940496-4.3388889.028562-8.5944445-1.1964298-12.2531746-3.5289917l-14.934127 9.2961322c-4.7603175 2.9712397-11.0285715 1.5225124-14-3.2362314-2.465873-3.9486942-1.9317461-9.066843 1.2968254-12.4212893l16.7333333-17.42042972c.4055556-.40542149.8357143-.77752066 1.2650794-1.14882645-2.302381-.95444628-4.7690476-1.44555372-7.2611111-1.4463471h-7.1047619l-3.6476191-3.64641323c-.8349206-.83385124-2.1873016-.83385124-3.0222222 0l-23.50476192 23.4977851c-.83492063.8338513-.83492063 2.1857852 0 3.0204298l3.64761905 3.6464132v7.3927934c.07142857 2.9291901.86349206 5.7949091 2.30555555 8.3456529 5.30793652-3.744 12.64761902-2.4777521 16.39285712 2.8292231.9492064 1.344 1.6047619 2.8720661 1.9261905 4.4858182 5.5904762.6323306 9.9484127 5.1371901 10.3936508 10.7440661 4.715873 1.1186777 8.2761905 4.9951736 8.9880952 9.7880331 6.0611111 1.1980165 10.0039683 7.0825785 8.8047619 13.1416859-.4142857 2.0945455-1.4190476 4.0272397-2.8968254 5.5687934 3.0460318.8259174 6.3007937-.0587107 8.5087302-2.3135206 1.5746032-1.5812232 2.4952381-3.6963967 2.5793651-5.9258182 3.1484127 2.4864793 7.7174603 1.9501487 10.2047619-1.1972232 1.6896825-2.1381818 2.0396825-5.0419834.9071428-7.5205289 4.6103175 1.6859504 9.7150794-.6839008 11.4007937-5.294281.6619048-1.8089256.718254-3.7836694.1595238-5.6275041 4.8793651.6545454 9.3666667-2.7689256 10.0214286-7.6466777.3722222-2.7705124-.5777778-5.553719-2.5642857-7.5197355z" fill="#143059" transform="translate(0 .117421)"></path>
    <g fill="#fba919">
      <path d="m69.2157143 24.7987041-23.5055556-23.49778509c-.834127-.83385124-2.1873016-.83385124-3.0214285 0l-3.6476191 3.64641322h-7.1047619c-5.0293651.00158678-9.8507936 2.00013223-13.4071429 5.55371897l-16.61587297 17.3030083c-1.15079365 1.1980165-1.86111111 2.8030413-1.76428571 4.4612231.10793651 1.852562 1.01269841 3.4353719 2.36031746 4.4469422 1.94603175 1.4534876 4.58571429 1.5637686 6.64603175.2776859l17.43650797-10.8622809c3.3182539 2.914909 7.5968254 4.5008925 12.013492 4.4540826 2.8976191.010314 5.7571429-.6569256 8.3507937-1.948562l18.6119047 18.6636694v-15.8312727l3.6476191-3.6464132c.834127-.8338513.834127-2.1865785 0-3.0204298" mask="url(#b)" transform="translate(29.365079 .117421)"></path>
      <path d="m42.7434127 31.8224926c-1.9412698-1.938248-4.8444444-2.5475703-7.4015873-1.5534546 1.5460317-3.8804628-.3484127-8.2798016-4.2309524-9.8253223-1.6373016-.6521653-3.4515873-.7116694-5.1285714-.1689917 1.8888889-3.6725951.4428571-8.1798347-3.2301587-10.0688926-2.0626985-1.05996694-4.5-1.10439669-6.5992064-.1190083 1.4150794-3.90743798-.6071428-8.22267765-4.5166667-9.63728922-2.75238091-.99570248-5.83174599-.30704132-7.89682536 1.76608265l-1.52301587 1.52330578c-2.94603175 2.93236364-2.95634921 7.69745459-.02222222 10.64251239 2.06428571 2.073124 5.14444444 2.7617851 7.89603175 1.7660827-1.73968254 3.7614545-.1 8.2210909 3.6634921 9.9609917 1.8642857.8616198 4.0015873.9219173 5.9119047.1666116-1.5206349 3.9050578.4126984 8.3028099 4.3198413 9.8229421 1.8285714.7116694 3.8626984.6878678 5.6746032-.067438-1.318254 3.5861157.5222222 7.5601983 4.1087301 8.8772231 2.5253968.9274711 5.3579365.3070414 7.2650794-1.5883636l1.7095238-1.6962645c2.7071429-2.7062479 2.7079365-7.0936859.0007936-9.7999338-.0007936-.0007934-.0007936-.0007934-.0007936-.0007934" transform="translate(3.968254 49.983471)"></path>
    </g>
  </g>
</svg>