<?xml version="1.0" encoding="UTF-8"?>
<svg xmlns="http://www.w3.org/2000/svg" height="31" viewBox="0 0 134 31" width="134">
  <g fill="none" fill-rule="evenodd" transform="translate(-3 -3)">
    <g fill="#143059">
      <path d="m93.110731 22.7984944c.9266642-5.7787943 1.8811918-11.5536727 2.7551638-17.34057856.1605593-1.06261566.4598837-1.52665341 1.6039374-1.44973335 1.6014545.10768809 3.2155998.04447378 4.8236748.01846082.595338-.00951012.796451.11943587.670652.79213676-1.759807 9.41193853-3.4972675 18.82807273-5.2206588 28.24672423-.1354546.7412297-.4720221.9465363-1.1970217.9280755-2.0668557-.0520259-4.1370218-.0637737-6.2030499.0044754-.8204523.0268521-1.0781196-.2195718-1.1909525-1.0377216-.7550699-5.4823024-1.5664184-10.9562136-2.3648007-16.4323624-.0513127-.3513149.0344844-.7487819-.421537-1.1554792-.4165713 2.8591886-.819073 5.6109687-1.2188159 8.3635881-.4543661 3.1293877-.9269401 6.2562581-1.3429596 9.3909603-.0852454.6416531-.2949104.8690568-.9354922.8601061-2.2056208-.0310477-4.4128969-.0478303-6.6174142.0075522-.7696913.0195796-.9142498-.3890757-1.0232205-.9842971-1.2966126-7.0847571-2.5987427-14.1689547-3.9030798-21.2523133-.4118814-2.23823388-.803624-4.48122282-1.2679216-6.70826834-.1707667-.81870915.0206906-1.05590264.8450052-1.03100851 1.7907048.05370418 3.5849959.0511868 5.3759766.00027971.7804504-.02209704 1.0830853.17090238 1.2141259 1.03128822.8530056 5.60789192 1.7851873 11.20319692 2.693092 16.80241792.0344844.212579-.0162766.4618.4110538.7182935.326636-2.1878862.6449958-4.2915799.9542517-6.3969519.554233-3.7729989 1.1161904-7.54487891 1.640077-11.32235313.0780727-.56277513.2375284-.83101636.8331426-.82374392 1.7920842.02237675 3.5860995.05118681 5.3762525-.01090866.8783861-.0302086.8143831.59242432.8888693 1.0936634.6885841 4.64681075 1.3523394 9.29725771 2.0276814 13.94602641.1798706 1.2377137.3743625 2.4734694.5625092 3.710344.0769692.0103492.1542142.0209782.2314592.0313274"></path>
      <path d="m114.822044 20.3763143c5.32988-5.3307251 10.426856-10.39663544 15.473103-15.51265345.724215-.73425888 1.112388-.806761 1.831559-.0125969 1.314463 1.45144197 2.711605 2.83570051 4.157794 4.15697459.721133.65867752.569787 1.01223026-.043442 1.61660126-4.98711 4.9144677-9.94227 9.8611275-14.906118 14.7991094-.130886.1304478-.24944.2732126-.404148.4431307.348094.4862401.85398.2569766 1.265696.2586562 4.484307.0184754 8.968895.0386305 13.452642-.0097976.977859-.0103574 1.409754.1335271 1.344451 1.2633284-.110426 1.9063297-.054092 3.8241367-.017096 5.736345.012612.6555983-.164799.8859814-.856223.8845818-9.388738-.020435-18.777757-.0201551-28.166495-.0011198-.727019.0013997-.953196-.2197458-.951514-.9556842.022421-9.3776868.024663-18.7550936-.002242-28.13250045-.002243-.81179975.352018-.90613648 1.009249-.89717869 1.914519.02603358 3.83156.0543066 5.744398-.01119724.865751-.02967268 1.097534.22030566 1.089406 1.08669194-.044282 4.71179772-.02102 9.42415534-.02102 14.13623294z"></path>
      <path d="m66.0800483 14.2928656c-.1877212.000279-.3751611.003069-.5626009-.000279-.8423535-.015624-1.8459728.2399392-2.4803413-.1283396-.6129789-.3560029-.2541414-1.4524695-.4263834-2.2071621-.5735771-2.51294511-3.1746567-3.8535359-5.5685955-2.85918302-1.0131883.42100968-1.5043032 1.21001922-1.5558069 2.27998082-.0545996 1.1419434.440174 2.0308346 1.4798178 2.4632833 1.4190265.5906411 2.8977185 1.0406667 4.3482665 1.5568151 1.0990278.3911568 2.2236669.7267927 3.2861074 1.1994172 4.0113813 1.7841994 5.664004 4.5898146 5.3653949 8.9913048-.2589259 3.820614-2.7280095 6.8226446-6.6605873 7.8613583-3.1436982.8303014-6.3014684.7329307-9.3891597-.3774858-4.5607546-1.6399568-6.0343807-5.7959278-5.9088579-9.6168208.0197008-.6026381.3059265-.6668079.787191-.6631809 1.7345221.0133919 3.4710143.0507778 5.2030034-.012834.9431094-.0348749.7486336.5513023.7925384 1.0830746.2628661 3.190355 2.5571747 4.8972716 5.587452 4.2017268 1.2791503-.293786 2.1153121-.9781709 2.244775-2.3156927.129463-1.3347318-.5535948-2.2679839-1.7426839-2.7280534-1.4767219-.5713902-3.0139537-.9893309-4.5247301-1.4747894-.7114833-.2285003-1.4328171-.4318906-2.1310727-.6947078-4.4262257-1.6653458-6.4295241-4.9924103-5.8826839-9.7420914.4916778-4.27231362 3.7009517-7.42611972 8.1133868-7.96709902 1.8243018-.2237573 3.6356574-.20060037 5.4439171.19418339 5.6741359 1.23847711 7.6259306 5.48372778 7.6639251 10.33440653.0036588.5069414-.2099551.636676-.6692671.6274691-.9374806-.018693-1.8752427-.00558-2.8130048-.005301"></path>
      <path d="m21.0598843 14.3125695c-.187767 0-.3752525.0019472-.562738 0-.8434032-.0102923-1.821931.2381149-2.4930502-.1029234-.7155978-.3641265-.200998-1.4236818-.3718744-2.1661216-.5751244-2.50076189-3.136863-3.88967226-5.5409561-2.93220591-.9957.39667258-1.5514002 1.13660881-1.6127693 2.23121371-.0678439 1.2064299.4385921 2.1152162 1.533102 2.5627942 1.4233132.5819348 2.9023654 1.0322944 4.3639639 1.5196509 1.4182461.4731698 2.831988.945505 4.1590249 1.6498353 3.4254105 1.8186853 4.7361198 4.7283594 4.4197029 8.4316567-.3062826 3.5847963-2.0868317 6.2060065-5.5344815 7.5084055-3.6517443 1.3800089-7.3763996 1.2954447-10.96395969-.1613395-4.4202659-1.7947626-5.58599772-5.8897254-5.44467983-9.4697928.02055021-.5210152.27503501-.5980688.70715246-.595287 1.78195664.0105705 3.5647578.0358841 5.34530689-.0083452.99401087-.0244791.67703092.656763.71390869 1.1388342.23984628 3.1208062 2.63127148 4.8507548 5.65609368 4.1085932 1.2186556-.2990343 2.0218029-.9680368 2.1648098-2.2303791.1489187-1.3138041-.463928-2.2926897-1.6730123-2.7555671-1.5221232-.5824911-3.1008298-1.0214458-4.6603937-1.506855-1.33914185-.416701-2.67687612-.8353491-3.89750234-1.5396794-3.13798904-1.8108965-4.61028496-5.0549327-4.00869866-9.0681131.58019157-3.87131299 2.86182799-6.36651147 6.6484155-7.4168871 2.8170679-.78138378 5.6659465-.6542594 8.4320611.30765769 3.9473296 1.37277642 6.4496696 5.52142637 6.0434511 9.82140161-.0529239.5594029-.2325271.699045-.750505.6815202-.8898523-.0297643-1.7813936-.008067-2.6723719-.008067"></path>
      <path d="m35.8251794 24.905997c-1.5418187 2.8360002-2.993042 5.4383027-4.3683918 8.0795081-.3686096.7080905-.7516579 1.0383461-1.6012718 1.0131571-2.2000501-.0646517-4.4034976-.0215506-6.8555158-.0215506 1.2204885-2.0979629 2.3299977-4.010087 3.4443198-5.9194124 1.5740933-2.6974608 3.1071355-5.4203905 4.7522894-8.0750301.5832072-.9406688.5993445-1.6484793.0382199-2.6081798-2.5397824-4.3431415-4.9983122-8.73274259-7.6244433-13.34876475 2.7204068 0 5.2732123-.00363841 7.826584.0025189.6259569.00139939.6839945.58102601.8869846.95886084 1.2748456 2.37140337 2.5188323 4.75903964 3.8808759 7.34594881 1.357797-2.5715159 2.6569901-4.94068024 3.8565284-7.35826343.3700252-.74587394.8000697-.99356567 1.6142949-.97369436 2.1606978.05233713 4.3239435.0176323 6.4690702.0176323.2584797.49146516-.1240023.75007211-.2899049 1.0383461-2.3942638 4.16010145-4.784564 8.32300169-7.2348836 12.45063729-.4175877.7030527-.3898429 1.1841624.0090595 1.8676236 2.6080121 4.467687 5.1673291 8.9630819 7.7410848 13.4500805.1789257.3120636.3468101.6302845.6299204 1.1466587-2.69521 0-5.2168734-.0019591-7.7385368.0011195-.6259568.0008397-.7120223-.535126-.9254875-.9177188-1.470758-2.6358877-2.9253787-5.2804517-4.5107963-8.1494775"></path>
    </g>
    <path d="m100.57654 33c-.540748-.2991224-.8461701-.7479699-.253684-.9337338.772735-.2424431.70987.2372012.635323.5242014-.037274.1415344-.243114.2676704-.381639.4095324" fill="#040404"></path>
  </g>
</svg>
