<?xml version="1.0" encoding="UTF-8"?>
<svg xmlns="http://www.w3.org/2000/svg" width="48" height="48" viewBox="0 0 48 48" fill="none">
  <g clip-path="url(#clip0)">
    <rect width="48" height="48" rx="24" fill="#2DAAE1"></rect>
  </g>
  <path d="M39 15.7211C37.9333 16.183 36.7876 16.4953 35.583 16.6356C36.8124 15.9172 37.7543 14.7787 38.1989 13.4238C37.0311 14.1007 35.753 14.5772 34.4202 14.8327C33.3356 13.7044 31.7889 13 30.0777 13C26.7932 13 24.1295 15.5985 24.1295 18.8057C24.1295 19.2601 24.1819 19.7035 24.2828 20.1291C19.3384 19.8866 14.9549 17.5753 12.0208 14.0632C11.5084 14.921 11.2152 15.9183 11.2152 16.9823C11.2152 18.9963 12.2656 20.7732 13.8616 21.8141C12.9168 21.7856 11.9927 21.5367 11.1666 21.0883V21.1616C11.1666 23.9748 13.2169 26.3206 15.9386 26.854C15.4387 26.9877 14.914 27.0576 14.3711 27.0576C13.9873 27.0576 13.615 27.0221 13.2512 26.9554C14.0083 29.2611 16.2054 30.9395 18.8079 30.987C16.7719 32.5446 14.2064 33.4731 11.4199 33.4731C10.94 33.4731 10.4656 33.4451 10 33.3903C12.6332 35.0381 15.7596 36 19.1194 36C30.0615 36 36.0458 27.1533 36.0458 19.4814C36.0458 19.2296 36.0402 18.9796 36.0277 18.7305C37.1937 17.9075 38.2001 16.8884 39 15.7211Z" fill="white"></path>
  <defs>
    <clipPath id="clip0">
      <rect width="48" height="48" fill="white"></rect>
    </clipPath>
  </defs>
</svg>
