<svg height="47" width="32" xmlns="http://www.w3.org/2000/svg"><g fill="#fffffe" fill-rule="evenodd"><path d="M15.87.161c-2.555 0-5.073.624-7.329 1.812A15.687 15.687 0 001.311.202h-.048L0 .205v16.021c-.023 8.21 3.14 15.933 8.909 21.745 5.754 5.797 13.409 9.003 21.556 9.025l1.27.004V.205L30.471.202h-.048c-2.515 0-5 .61-7.231 1.77a15.747 15.747 0 00-7.28-1.811zm0 1.278h.04c2.654.009 5.139.734 7.28 1.99a14.361 14.361 0 017.234-1.95h.044v44.24C14.343 45.672 1.22 32.521 1.266 16.225V1.48h.044c2.633 0 5.101.713 7.235 1.95a14.427 14.427 0 017.325-1.99z"/><path d="M22.126 17.351c-2.306-.007-4.17-1.899-4.163-4.227 0-.435.067-.853.19-1.247a2.083 2.083 0 001.898 1.252 2.097 2.097 0 002.093-2.102 2.107 2.107 0 00-1.23-1.923 4.113 4.113 0 011.236-.184c2.305.006 4.17 1.9 4.163 4.226-.006 2.33-1.882 4.212-4.187 4.205zm-12.525-.035c-2.306-.006-4.17-1.9-4.164-4.229.007-2.328 1.882-4.21 4.188-4.204.43.002.844.07 1.233.193a2.108 2.108 0 00-1.238 1.916 2.095 2.095 0 002.08 2.113 2.085 2.085 0 001.907-1.242c.119.395.182.815.18 1.248-.005 2.33-1.88 4.211-4.186 4.205zM22.156 6.811c-3.27-.008-5.958 2.517-6.25 5.744l-.028-.038-.029.038c-.273-3.229-2.948-5.77-6.218-5.78-3.458-.01-6.27 2.814-6.28 6.306-.01 3.493 2.785 6.332 6.244 6.342a6.173 6.173 0 003.345-.974l2.913 2.958 2.928-2.94a6.179 6.179 0 003.338.992c3.46.01 6.271-2.813 6.281-6.307.01-3.49-2.785-6.33-6.244-6.34z"/></g></svg>