<svg preserveAspectRatio="xMidYMid slice" xmlns="http://www.w3.org/2000/svg" xmlns:xlink="http://www.w3.org/1999/xlink" height="115px" viewBox="0 0 80 80" width="115px">
  <mask id="a" fill="#fff">
    <path d="m0 .21682031h15.1190775v33.24532809h-15.1190775z" fill="#fff" fill-rule="evenodd"></path>
  </mask>
  <mask id="b" fill="#fff">
    <path d="m.2871725.21682031h15.1190775v33.24532809h-15.1190775z" fill="#fff" fill-rule="evenodd"></path>
  </mask>
  <mask id="c" fill="#fff">
    <path d="m.29842515.22192294h29.30959585v37.84057706h-29.30959585z" fill="#fff" fill-rule="evenodd"></path>
  </mask>
  <g fill="none" fill-rule="evenodd">
    <path d="m0 0h80v80h-80z" fill="#fff" stroke="#fff"></path>
    <path d="m21.421875 16.4375c3.2533488 0 5.890625 2.6372762 5.890625 5.890625s-2.6372762 5.890625-5.890625 5.890625-5.890625-2.6372762-5.890625-5.890625 2.6372762-5.890625 5.890625-5.890625" fill="#143059"></path>
    <path d="m40.90625 11c5.0055531 0 9.0625 3.8549035 9.0625 8.6096013s-4.0569469 8.6091487-9.0625 8.6091487c-5.0050766 0-9.0625-3.8544509-9.0625-8.6091487s4.0574234-8.6096013 9.0625-8.6096013" fill="#fba919"></path>
    <g fill="#143059">
      <path d="m14.405548 23.4326797c-1.4358625-.3656719-2.4443116-1.6915156-2.4443116-3.2140156v-13.84523441c0-2.3471875.9186527-4.47460938 2.4020545-6.03109375-.3899982-.08246875-.7927616-.12551563-1.2056491-.12551563h-7.79864376c-2.95932054 0-5.35917411 2.46953125-5.35917411 5.51634375v11.81432814c0 .4753281.29535982.8967344.73289732 1.0471719l2.93246964 1.0054843 1.13434018 12.8583282c.05018036.5686718.51324822 1.0036718 1.06787322 1.0036718h7.40336341c.554625 0 1.0176928-.4354531 1.0678732-1.004125l.7804366-8.8436406z" mask="url(#a)" transform="translate(11 31.84375)"></path>
      <path d="m60.390625 16.4375c3.2533488 0 5.890625 2.6372762 5.890625 5.890625s-2.6372762 5.890625-5.890625 5.890625-5.890625-2.6372762-5.890625-5.890625 2.6372762-5.890625 5.890625-5.890625"></path>
      <path d="m1.00070196 23.4326797c1.4358625-.3656719 2.44431161-1.6915156 2.44431161-3.2140156v-13.84523441c0-2.3471875-.91865268-4.47460938-2.40205446-6.03109375.38999821-.08246875.7927616-.12551563 1.2056491-.12551563h7.79864379c2.9593205 0 5.3591741 2.46953125 5.3591741 5.51634375v11.81432814c0 .4753281-.2953599.8967344-.7328974 1.0471719l-2.9324696 1.0054843-1.1343402 12.8592344c-.0501803.5677656-.512808 1.0027656-1.06699283 1.0027656h-7.40424375c-.554625 0-1.01725268-.4354531-1.06787321-1.004125l-.78043661-8.8436406z" mask="url(#b)" transform="translate(54.5 31.84375)"></path>
    </g>
    <path d="m22.9467715.22192294h-15.98709686c-3.67895902 0-6.66124949 2.82358765-6.66124949 6.30677058v13.87563798c0 .5783643.41574591 1.0824603 1.00847797 1.2226417l4.40455328 1.042077 1.25214037 14.2367676c.05785144.6535609.63440472 1.1567286 1.3276414 1.1567286h13.32298923c.6932367 0 1.2707705-.5031677 1.3281317-1.1571928l1.2526306-14.2363034 4.404063-1.042077c.5927321-.1401814 1.0089683-.6442774 1.0089683-1.2226417v-13.87563798c0-3.48318293-2.9822905-6.30677058-6.6612495-6.30677058" fill="#fba919" mask="url(#c)" transform="translate(25.5 30.9375)"></path>
  </g>
</svg>