<svg preserveAspectRatio="xMidYMid slice" xmlns="http://www.w3.org/2000/svg" xmlns:xlink="http://www.w3.org/1999/xlink" height="185px" viewBox="0 0 125 127" width="185px">
  <mask id="a" fill="#fff">
    <path d="m0 .8264h54.3476v27.1736h-54.3476z" fill="#fff" fill-rule="evenodd"></path>
  </mask>
  <mask id="b" fill="#fff">
    <path d="m.6519.8264h54.348v27.1736h-54.348z" fill="#fff" fill-rule="evenodd"></path>
  </mask>
  <g fill="none" fill-rule="evenodd">
    <g fill="#143059">
      <path d="m49.3096 8.3804c-4.342-3.446-11.709-7.554-22.136-7.554s-17.793 4.108-22.135 7.554c-3.202 2.541-5.039 6.397-5.039 10.576v6.326c0 1.501 1.217 2.718 2.718 2.718h48.913c1.5 0 2.717-1.217 2.717-2.718v-6.326c0-4.179-1.837-8.035-5.038-10.576" mask="url(#a)" transform="translate(0 98.75)"></path>
      <path d="m26.8311 59.9385c9.005 0 16.305 7.3 16.305 16.305 0 9.004-7.3 16.304-16.305 16.304-9.004 0-16.304-7.3-16.304-16.304 0-9.005 7.3-16.305 16.304-16.305"></path>
      <path d="m49.9619 8.3804c-4.343-3.446-11.709-7.554-22.136-7.554s-17.794 4.108-22.135 7.554c-3.202 2.541-5.039 6.397-5.039 10.576v6.326c0 1.501 1.217 2.718 2.717 2.718h48.913c1.501 0 2.718-1.217 2.718-2.718v-6.326c0-4.179-1.837-8.035-5.038-10.576" mask="url(#b)" transform="translate(70 98.75)"></path>
      <path d="m97.4834 59.9385c9.005 0 16.305 7.3 16.305 16.305 0 9.004-7.3 16.304-16.305 16.304s-16.305-7.3-16.305-16.304c0-9.005 7.3-16.305 16.305-16.305"></path>
    </g>
    <path d="m111.666 0h-63.678c-1.842 0-3.334 1.493-3.334 3.334v38.341c0 1.842 1.492 3.334 3.334 3.334h14.002v15.003c0 .921.746 1.667 1.667 1.667.347 0 .686-.108.969-.31l22.902-16.36h24.138c1.841 0 3.334-1.492 3.334-3.334v-38.341c0-1.841-1.493-3.334-3.334-3.334" fill="#fbaa19"></path>
  </g>
</svg>