<?xml version="1.0" encoding="UTF-8"?>
<svg xmlns="http://www.w3.org/2000/svg" width="48" height="48" viewBox="0 0 48 48" fill="none">
  <g clip-path="url(#clip0)">
    <rect width="48" height="48" rx="24" fill="#FF0000"></rect>
  </g>
  <path d="M24.6646 34.9725L18.5098 34.8586C16.517 34.8189 14.5192 34.8981 12.5655 34.4869C9.59344 33.8725 9.38289 30.8599 9.16257 28.3329C8.85899 24.7803 8.97652 21.1631 9.54941 17.6402C9.87282 15.6634 11.1456 14.4839 13.1139 14.3555C19.7584 13.8897 26.447 13.9449 33.0768 14.1622C33.777 14.1821 34.482 14.291 35.1724 14.415C38.5804 15.0195 38.6635 18.4334 38.8844 21.3073C39.1048 24.2109 39.0117 27.1293 38.5906 30.0131C38.2528 32.4008 37.6064 34.4031 34.8786 34.5964C31.4607 34.8491 28.1214 35.0526 24.6939 34.9878C24.6941 34.9725 24.6744 34.9725 24.6646 34.9725ZM21.0462 28.9275C23.6218 27.431 26.1483 25.9595 28.7091 24.4731C26.1287 22.9766 23.6071 21.505 21.0462 20.0186V28.9275Z" fill="white"></path>
  <defs>
    <clipPath id="clip0">
      <rect width="48" height="48" fill="white"></rect>
    </clipPath>
  </defs>
</svg>
